%TF.GenerationSoftware,KiCad,Pcbnew,(6.0.0)*%
%TF.CreationDate,2023-01-08T12:04:32-05:00*%
%TF.ProjectId,gba_slab_sp_remix_button_pcb,6762615f-736c-4616-925f-73705f72656d,1.1*%
%TF.SameCoordinates,Original*%
%TF.FileFunction,Copper,L1,Top*%
%TF.FilePolarity,Positive*%
%FSLAX46Y46*%
G04 Gerber Fmt 4.6, Leading zero omitted, Abs format (unit mm)*
G04 Created by KiCad (PCBNEW (6.0.0)) date 2023-01-08 12:04:32*
%MOMM*%
%LPD*%
G01*
G04 APERTURE LIST*
G04 Aperture macros list*
%AMFreePoly0*
4,1,91,-0.619506,1.128643,-0.483187,1.119886,-0.349859,1.102632,-0.217162,1.076581,-0.094889,1.044957,0.052263,0.997056,0.194857,0.939315,0.332475,0.872130,0.464698,0.795898,0.591110,0.711015,0.711293,0.617880,0.824828,0.516888,0.931299,0.408437,1.030287,0.292923,1.121375,0.170744,1.204144,0.042297,1.278178,-0.092023,1.343059,-0.231817,1.396952,-0.372565,1.408211,-0.406336,
1.419328,-0.441608,1.429829,-0.476665,1.439242,-0.509793,1.447093,-0.539277,1.452911,-0.563402,1.456221,-0.580454,1.456560,-0.588695,1.450647,-0.592427,1.435424,-0.598960,1.412147,-0.607873,1.382071,-0.618747,1.346449,-0.631162,1.306537,-0.644698,1.263588,-0.658935,1.218858,-0.673452,1.173602,-0.687831,1.129073,-0.701651,1.086526,-0.714492,1.047216,-0.725934,1.043009,-0.727127,
0.804295,-0.789540,0.559284,-0.843662,0.309182,-0.889302,0.055194,-0.926273,-0.201473,-0.954383,-0.459614,-0.973444,-0.557087,-0.978244,-0.608677,-0.980241,-0.662913,-0.981995,-0.717995,-0.983473,-0.772122,-0.984645,-0.823494,-0.985479,-0.870312,-0.985944,-0.910776,-0.986009,-0.943086,-0.985642,-0.957797,-0.985202,-0.996833,-0.983600,-1.003530,-0.791941,-1.013048,-0.576250,-1.026344,-0.368663,
-1.043649,-0.166828,-1.065193,0.031607,-1.091204,0.228996,-1.121912,0.427692,-1.123592,0.437804,-1.137829,0.520140,-1.153590,0.605793,-1.170395,0.692405,-1.187762,0.777621,-1.205212,0.859083,-1.222262,0.934435,-1.238432,1.001320,-1.239305,1.004783,-1.245012,1.027599,-1.249528,1.046133,-1.252270,1.057966,-1.252826,1.060921,-1.247692,1.063515,-1.233481,1.067688,-1.211980,1.073031,
-1.184976,1.079140,-1.154256,1.085608,-1.121606,1.092029,-1.092695,1.097318,-1.026425,1.108159,-0.964644,1.116386,-0.903572,1.122363,-0.839431,1.126454,-0.768444,1.129023,-0.761180,1.129201,-0.619506,1.128643,-0.619506,1.128643,$1*%
%AMFreePoly1*
4,1,89,-0.784858,1.032212,-0.530365,1.024212,-0.282867,1.008770,-0.041049,0.985714,0.196406,0.954874,0.430812,0.916077,0.663487,0.869154,0.895747,0.813933,0.897892,0.813385,0.945716,0.800828,0.996548,0.786913,1.049334,0.771972,1.103024,0.756341,1.156567,0.740351,1.208911,0.724337,1.259005,0.708634,1.305797,0.693573,1.348236,0.679490,1.385272,0.666718,1.415852,0.655591,
1.438925,0.646441,1.453440,0.639604,1.458348,0.635478,1.456747,0.624691,1.452313,0.605361,1.445597,0.579459,1.437152,0.548956,1.427529,0.515820,1.417282,0.482022,1.406963,0.449531,1.402140,0.434962,1.347641,0.290086,1.283189,0.149605,1.209173,0.014040,1.125981,-0.116089,1.034002,-0.240259,0.933626,-0.357951,0.825241,-0.468642,0.709235,-0.571812,0.585997,-0.666940,
0.573241,-0.676025,0.442490,-0.761801,0.306916,-0.837816,0.167032,-0.903922,0.023351,-0.959974,-0.123611,-1.005823,-0.273341,-1.041323,-0.425326,-1.066327,-0.579052,-1.080687,-0.734004,-1.084258,-0.840098,-1.080430,-0.876168,-1.077822,-0.917220,-1.074170,-0.957307,-1.070030,-0.980902,-1.067232,-1.007383,-1.063510,-1.038605,-1.058561,-1.072810,-1.052726,-1.108241,-1.046342,-1.143142,-1.039749,
-1.175756,-1.033286,-1.204324,-1.027292,-1.227090,-1.022105,-1.242298,-1.018065,-1.248069,-1.015690,-1.247941,-1.009388,-1.245525,-0.993970,-1.241140,-0.971052,-1.235100,-0.942250,-1.227721,-0.909179,-1.224626,-0.895804,-1.166011,-0.623323,-1.116004,-0.344592,-1.074723,-0.060421,-1.042285,0.228379,-1.018807,0.520996,-1.018307,0.528804,-1.015430,0.576650,-1.012554,0.629242,-1.009758,0.684732,
-1.007119,0.741274,-1.004716,0.797020,-1.002626,0.850123,-1.000927,0.898735,-0.999697,0.941010,-0.999014,0.975099,-0.998900,0.989368,-0.998826,1.035802,-0.784858,1.032212,-0.784858,1.032212,$1*%
%AMFreePoly2*
4,1,52,3.123634,3.115596,3.207426,3.065657,3.265729,2.987453,3.289667,2.892891,3.275596,2.796366,3.225657,2.712574,3.147453,2.654270,0.561790,1.423424,0.629167,1.319293,0.737235,1.114536,0.826885,0.901216,0.897611,0.680831,0.948905,0.454878,0.980259,0.224855,0.991165,-0.007740,0.981114,-0.241409,0.949601,-0.474656,0.918788,-0.619517,0.853019,-0.843738,0.766854,-1.062046,
0.661617,-1.272344,0.538630,-1.472537,0.399214,-1.660528,0.244692,-1.834222,0.076385,-1.991522,0.028407,-2.031186,-0.013194,-2.063348,-0.062901,-2.099729,-0.117257,-2.138030,-0.172808,-2.175952,-0.226098,-2.211196,-0.273673,-2.241461,-0.312076,-2.264449,-0.337853,-2.277859,-0.350000,-2.280000,-0.400000,-2.280000,-0.400000,2.270000,-0.346227,2.269066,-0.329227,2.262708,-0.297497,2.245142,
-0.254425,2.218628,-0.203401,2.185429,-0.147813,2.147807,-0.091050,2.108023,-0.036502,2.068338,0.012444,2.031015,0.022889,2.022734,0.199544,1.867207,0.240177,1.824087,2.932546,3.105729,3.027109,3.129667,3.123634,3.115596,3.123634,3.115596,$1*%
%AMFreePoly3*
4,1,101,-0.021515,2.444761,0.007865,2.429711,0.052658,2.406352,0.110625,2.375875,0.179531,2.339473,0.257139,2.298336,0.341211,2.253655,0.429510,2.206623,0.519801,2.158429,0.609845,2.110267,0.697406,2.063326,0.780246,2.018799,0.856130,1.977876,0.922820,1.941750,0.972244,1.914807,1.053554,1.870296,0.987865,1.770257,0.883320,1.594278,0.787828,1.399151,0.701977,1.186658,
0.626349,0.958581,0.561530,0.716701,0.508105,0.462799,0.466658,0.198657,0.463257,0.172240,0.450987,0.071229,0.441045,-0.020659,0.433209,-0.107627,0.427258,-0.193882,0.422972,-0.283628,0.420130,-0.381070,0.418511,-0.490414,0.417894,-0.615865,0.417898,-0.691289,0.419894,-0.888519,0.425235,-1.076193,0.433765,-1.252683,0.445328,-1.416360,0.459767,-1.565595,0.476928,-1.698759,
0.496652,-1.814223,0.518786,-1.910359,0.541507,-1.981283,0.541046,-1.987566,0.534211,-1.995880,0.519285,-2.007169,0.494551,-2.022379,0.458292,-2.042456,0.408791,-2.068344,0.344331,-2.100989,0.263196,-2.141336,0.163668,-2.190331,0.146824,-2.198594,0.058579,-2.241820,-0.023163,-2.281775,-0.096224,-2.317400,-0.158425,-2.347636,-0.207586,-2.371425,-0.241528,-2.387707,-0.258071,-2.395424,
-0.259330,-2.395912,-0.264436,-2.386015,-0.275027,-2.359459,-0.289272,-2.320946,-0.297736,-2.297134,-0.308926,-2.263911,-0.317812,-2.233115,-0.324931,-2.200968,-0.330817,-2.163697,-0.336005,-2.117523,-0.341032,-2.058673,-0.346431,-1.983371,-0.350159,-1.927423,-0.359742,-1.779274,-0.367787,-1.649260,-0.374470,-1.533003,-0.379962,-1.426123,-0.384440,-1.324244,-0.388078,-1.222987,-0.391048,-1.117974,
-0.393527,-1.004826,-0.395687,-0.879166,-0.397703,-0.736615,-0.397780,-0.730800,-0.398620,-0.294654,-0.389473,0.121397,-0.370341,0.517325,-0.341227,0.893102,-0.302132,1.248701,-0.253059,1.584095,-0.205153,1.845122,-0.182692,1.952128,-0.159591,2.054311,-0.136475,2.149475,-0.113966,2.235422,-0.092689,2.309957,-0.073268,2.370880,-0.056327,2.415997,-0.042489,2.443111,-0.033247,2.450312,
-0.021515,2.444761,-0.021515,2.444761,$1*%
%AMFreePoly4*
4,1,107,0.285422,2.354739,0.295665,2.328217,0.309751,2.289749,0.318264,2.265844,0.326365,2.241976,0.333489,2.218134,0.339827,2.192400,0.345568,2.162859,0.350903,2.127595,0.356021,2.084693,0.361112,2.032237,0.366366,1.968310,0.371973,1.890997,0.378122,1.798382,0.385004,1.688549,0.392808,1.559583,0.399651,1.444577,0.403879,1.358792,0.407648,1.253889,0.410933,1.133324,
0.413707,1.000552,0.415946,0.859030,0.417624,0.712213,0.418714,0.563556,0.419192,0.416516,0.419031,0.274549,0.418205,0.141109,0.416690,0.019653,0.414460,-0.086363,0.411650,-0.169734,0.391957,-0.536877,0.365121,-0.883391,0.331159,-1.209146,0.290091,-1.514010,0.241934,-1.797852,0.186708,-2.060542,0.124429,-2.301947,0.103254,-2.373889,0.088359,-2.420955,0.075279,-2.458681,
0.065617,-2.482656,0.061431,-2.488974,0.050512,-2.483658,0.021556,-2.468604,-0.023600,-2.444789,-0.083121,-2.413191,-0.155170,-2.374789,-0.237911,-2.330560,-0.329509,-2.281482,-0.428127,-2.228532,-0.484289,-2.198332,-0.585797,-2.143588,-0.681071,-2.091953,-0.768298,-2.044427,-0.845669,-2.002008,-0.911373,-1.965695,-0.963598,-1.936487,-1.000533,-1.915383,-1.020369,-1.903380,-1.023334,-1.901020,
-1.017660,-1.889018,-1.002331,-1.862324,-0.979882,-1.825251,-0.960215,-1.793729,-0.846734,-1.595251,-0.745014,-1.378405,-0.655381,-1.144295,-0.578163,-0.894021,-0.513684,-0.628685,-0.462271,-0.349387,-0.424252,-0.057231,-0.413948,0.050400,-0.404680,0.180277,-0.398315,0.320581,-0.394731,0.468775,-0.393804,0.622325,-0.395411,0.778696,-0.399428,0.935353,-0.405732,1.089763,-0.414200,1.239390,
-0.424709,1.381698,-0.437135,1.514155,-0.451355,1.634224,-0.467246,1.739371,-0.484684,1.827062,-0.503547,1.894761,-0.503656,1.895078,-0.515627,1.930467,-0.523935,1.956238,-0.526622,1.966050,-0.516919,1.971505,-0.489558,1.985585,-0.447164,2.006993,-0.392361,2.034433,-0.327775,2.066610,-0.256030,2.102229,-0.179750,2.139994,-0.101560,2.178609,-0.024084,2.216779,0.050052,2.253208,
0.118225,2.286601,0.177810,2.315661,0.226182,2.339095,0.260716,2.355604,0.278789,2.363896,0.280800,2.364622,0.285422,2.354739,0.285422,2.354739,$1*%
%AMFreePoly5*
4,1,37,0.370000,-2.300000,0.354948,-2.289965,0.347798,-2.286234,0.323422,-2.272135,0.290203,-2.252341,0.289333,-2.251816,0.085518,-2.116219,-0.103124,-1.964762,-0.275800,-1.798505,-0.431719,-1.618507,-0.570087,-1.425827,-0.690114,-1.221525,-0.791006,-1.006659,-0.871972,-0.782290,-0.909266,-0.649112,-0.938412,-0.524006,-0.959790,-0.408950,-0.974299,-0.296446,-0.982838,-0.178997,-0.986308,-0.049104,
-0.986496,-0.005645,-0.977755,0.226215,-0.950989,0.447008,-0.905387,0.660277,-0.840135,0.869569,-0.754422,1.078427,-0.722503,1.145822,-0.614420,1.342738,-0.486909,1.532261,-0.342305,1.711882,-0.182944,1.879092,-0.011161,2.031384,0.170706,2.166250,0.307311,2.251575,0.344760,2.273174,0.370000,2.290000,0.370000,-2.300000,0.370000,-2.300000,$1*%
%AMFreePoly6*
4,1,30,0.712656,-1.399657,0.068715,-1.399657,-0.575225,-1.399656,-0.852035,-1.676487,-1.128844,-1.953318,-1.128844,-3.241157,-2.561563,-3.241157,-2.561563,-1.957287,-3.107245,-1.411563,-4.250288,-1.411563,-4.521144,-1.682441,-4.792001,-1.953319,-4.792000,-2.597238,-4.792000,-3.241157,-6.224719,-3.241157,-6.224719,-1.808438,-4.936838,-1.808438,-4.665982,-1.537560,-4.395125,-1.266682,-4.395125,0.021156,
-2.962407,0.021156,-2.962407,-1.266725,-2.691529,-1.537581,-2.420651,-1.808438,-1.273682,-1.808438,-0.996873,-1.531607,-0.720063,-1.254776,-0.720063,0.521218,0.712656,0.521218,0.712656,-1.399657,0.712656,-1.399657,$1*%
%AMFreePoly7*
4,1,99,-1.108500,2.952983,-1.108501,2.104747,-1.325741,1.887373,-1.542981,1.670000,-2.531325,1.670000,-2.742647,1.881349,-2.953969,2.092699,-2.953969,3.499593,-4.783563,3.499593,-4.783563,2.092644,-4.994913,1.881322,-5.206262,1.670000,-6.613157,1.670000,-6.613157,-0.159594,-4.783563,-0.159594,-4.783563,1.247356,-4.572213,1.458678,-4.360864,1.670000,-3.376614,1.670000,-3.163307,1.456666,
-2.950001,1.243332,-2.950001,0.541869,-2.950000,-0.159594,-1.120407,-0.159594,-1.120407,1.247355,-0.903104,1.464630,-0.685802,1.681906,0.721093,1.681906,0.721093,3.801218,1.022718,3.801218,1.022718,-0.465188,-2.945370,-0.465188,-3.122687,-0.465185,-3.298077,-0.465177,-3.471371,-0.465164,-3.642402,-0.465147,-3.811002,-0.465124,-3.977002,-0.465097,-4.140233,-0.465064,-4.300529,-0.465028,
-4.457720,-0.464987,-4.611639,-0.464942,-4.762116,-0.464892,-4.908985,-0.464839,-5.052077,-0.464781,-5.191224,-0.464720,-5.326257,-0.464655,-5.457008,-0.464587,-5.583310,-0.464515,-5.704993,-0.464439,-5.821891,-0.464360,-5.933833,-0.464279,-6.040654,-0.464194,-6.142183,-0.464106,-6.238253,-0.464015,-6.328697,-0.463921,-6.413344,-0.463825,-6.492029,-0.463727,-6.564581,-0.463626,-6.630834,-0.463523,
-6.690619,-0.463417,-6.743767,-0.463310,-6.790110,-0.463201,-6.829482,-0.463090,-6.861712,-0.462977,-6.886633,-0.462862,-6.904077,-0.462746,-6.913875,-0.462629,-6.916105,-0.462542,-6.916266,-0.458449,-6.916424,-0.446649,-6.916580,-0.427370,-6.916733,-0.400843,-6.916882,-0.367298,-6.917028,-0.326963,-6.917170,-0.280069,-6.917308,-0.226846,-6.917441,-0.167523,-6.917570,-0.102329,-6.917693,-0.031495,
-6.917811,0.044749,-6.917924,0.126175,-6.918030,0.212552,-6.918131,0.303650,-6.918225,0.399241,-6.918312,0.499093,-6.918392,0.602979,-6.918465,0.710667,-6.918530,0.821928,-6.918588,0.936532,-6.918637,1.054250,-6.918678,1.174853,-6.918710,1.298109,-6.918733,1.423790,-6.918746,1.551666,-6.918750,1.670661,-6.918750,3.801218,-1.108500,3.801218,-1.108500,2.952983,-1.108500,2.952983,
$1*%
G04 Aperture macros list end*
%TA.AperFunction,SMDPad,CuDef*%
%ADD10FreePoly0,90.000000*%
%TD*%
%TA.AperFunction,SMDPad,CuDef*%
%ADD11FreePoly1,90.000000*%
%TD*%
%TA.AperFunction,SMDPad,CuDef*%
%ADD12FreePoly0,0.000000*%
%TD*%
%TA.AperFunction,SMDPad,CuDef*%
%ADD13FreePoly1,0.000000*%
%TD*%
%TA.AperFunction,SMDPad,CuDef*%
%ADD14FreePoly0,270.000000*%
%TD*%
%TA.AperFunction,SMDPad,CuDef*%
%ADD15FreePoly1,270.000000*%
%TD*%
%TA.AperFunction,SMDPad,CuDef*%
%ADD16FreePoly0,180.000000*%
%TD*%
%TA.AperFunction,SMDPad,CuDef*%
%ADD17FreePoly1,180.000000*%
%TD*%
%TA.AperFunction,SMDPad,CuDef*%
%ADD18FreePoly2,0.000000*%
%TD*%
%TA.AperFunction,SMDPad,CuDef*%
%ADD19FreePoly3,0.000000*%
%TD*%
%TA.AperFunction,SMDPad,CuDef*%
%ADD20FreePoly4,0.000000*%
%TD*%
%TA.AperFunction,SMDPad,CuDef*%
%ADD21FreePoly5,0.000000*%
%TD*%
%TA.AperFunction,SMDPad,CuDef*%
%ADD22FreePoly6,0.000000*%
%TD*%
%TA.AperFunction,SMDPad,CuDef*%
%ADD23FreePoly7,0.000000*%
%TD*%
%TA.AperFunction,ComponentPad*%
%ADD24C,2.000000*%
%TD*%
%TA.AperFunction,ViaPad*%
%ADD25C,0.800000*%
%TD*%
%TA.AperFunction,Conductor*%
%ADD26C,1.000000*%
%TD*%
%TA.AperFunction,Conductor*%
%ADD27C,0.250000*%
%TD*%
G04 APERTURE END LIST*
D10*
%TO.P,SW1,1,A*%
%TO.N,Net-(SW1-Pad1)*%
X69905048Y-71519277D03*
D11*
%TO.P,SW1,2,B*%
%TO.N,GND*%
X72155048Y-71519277D03*
%TD*%
D12*
%TO.P,SW2,1,A*%
%TO.N,Net-(SW2-Pad1)*%
X79555048Y-78969277D03*
D13*
%TO.P,SW2,2,B*%
%TO.N,GND*%
X79555048Y-81219277D03*
%TD*%
D14*
%TO.P,SW3,1,A*%
%TO.N,Net-(SW3-Pad1)*%
X72105048Y-88619277D03*
D15*
%TO.P,SW3,2,B*%
%TO.N,GND*%
X69855048Y-88619277D03*
%TD*%
D16*
%TO.P,SW4,1,A*%
%TO.N,Net-(SW4-Pad1)*%
X62455048Y-81169277D03*
D17*
%TO.P,SW4,2,B*%
%TO.N,GND*%
X62455048Y-78919277D03*
%TD*%
D18*
%TO.P,SW5,1,A*%
%TO.N,Net-(SW5-Pad1)*%
X104308108Y-82072279D03*
D19*
X107408108Y-81392279D03*
D20*
%TO.P,SW5,2,B*%
%TO.N,GND*%
X106088108Y-82732279D03*
D21*
X109208108Y-82072279D03*
%TD*%
D18*
%TO.P,SW6,1,A*%
%TO.N,Net-(SW6-Pad1)*%
X118418142Y-77497278D03*
D19*
X121518142Y-76817278D03*
D20*
%TO.P,SW6,2,B*%
%TO.N,GND*%
X120198142Y-78157278D03*
D21*
X123318142Y-77497278D03*
%TD*%
D22*
%TO.P,SW7,1,A*%
%TO.N,Net-(SW7-Pad1)*%
X90387745Y-99321976D03*
D23*
%TO.P,SW7,2,B*%
%TO.N,GND*%
X90577745Y-102601976D03*
%TD*%
D22*
%TO.P,SW8,1,A*%
%TO.N,Net-(SW8-Pad1)*%
X101912745Y-99321782D03*
D23*
%TO.P,SW8,2,B*%
%TO.N,GND*%
X102102745Y-102601782D03*
%TD*%
D24*
%TO.P,BRIGHTNESS BTN,1,A*%
%TO.N,Net-(SW9-Pad1)*%
X90140007Y-68574186D03*
X96640007Y-68574186D03*
%TO.P,BRIGHTNESS BTN,2,B*%
%TO.N,GND*%
X90140007Y-73074186D03*
X96640007Y-73074186D03*
%TD*%
D25*
%TO.N,GND*%
X84582000Y-86868000D03*
%TO.N,Net-(SW1-Pad1)*%
X63342000Y-87043428D03*
%TO.N,Net-(SW2-Pad1)*%
X73342000Y-81652000D03*
%TO.N,Net-(SW3-Pad1)*%
X73342000Y-84347714D03*
%TO.N,Net-(SW4-Pad1)*%
X73342000Y-78956286D03*
%TO.N,Net-(SW5-Pad1)*%
X75184000Y-70869144D03*
%TO.N,Net-(SW6-Pad1)*%
X75184000Y-68173428D03*
%TO.N,Net-(SW7-Pad1)*%
X73342000Y-76260572D03*
%TO.N,Net-(SW8-Pad1)*%
X75184000Y-73564858D03*
%TD*%
D26*
%TO.N,GND*%
X83058000Y-99822000D02*
X84590963Y-99822000D01*
X102240000Y-101970000D02*
X103772963Y-101970000D01*
X88560000Y-98124115D02*
X88560000Y-99815884D01*
X102102745Y-102601782D02*
X102102745Y-104134745D01*
X90577745Y-102601976D02*
X90577745Y-104293745D01*
X98210000Y-102387037D02*
X98210000Y-103920000D01*
X94733037Y-99822000D02*
X96266000Y-99822000D01*
X96240000Y-98144115D02*
X96240000Y-99835884D01*
X90850000Y-101970000D02*
X92382963Y-101970000D01*
X86700000Y-102457037D02*
X86700000Y-103990000D01*
X100076000Y-98130231D02*
X100076000Y-99822000D01*
X84750000Y-98134115D02*
X84750000Y-99825884D01*
D27*
%TO.N,Net-(SW1-Pad1)*%
X59970000Y-83671428D02*
X63342000Y-87043428D01*
X63620000Y-72110000D02*
X59970000Y-75760000D01*
X69314325Y-72110000D02*
X63620000Y-72110000D01*
X69905048Y-71519277D02*
X69314325Y-72110000D01*
X59970000Y-75760000D02*
X59970000Y-83671428D01*
%TO.N,Net-(SW2-Pad1)*%
X79555048Y-78969277D02*
X77494723Y-78969277D01*
X77494723Y-78969277D02*
X74812000Y-81652000D01*
X74812000Y-81652000D02*
X73342000Y-81652000D01*
%TO.N,Net-(SW3-Pad1)*%
X72105048Y-86365048D02*
X73342000Y-85128096D01*
X72105048Y-88619277D02*
X72105048Y-86365048D01*
X73342000Y-85128096D02*
X73342000Y-84347714D01*
%TO.N,Net-(SW4-Pad1)*%
X71129009Y-81169277D02*
X73342000Y-78956286D01*
X62455048Y-81169277D02*
X71129009Y-81169277D01*
%TO.N,Net-(SW5-Pad1)*%
X86381081Y-77946798D02*
X98236798Y-77946798D01*
X98236798Y-77946798D02*
X102362279Y-82072279D01*
X79303427Y-70869144D02*
X86381081Y-77946798D01*
X75184000Y-70869144D02*
X79303427Y-70869144D01*
X102362279Y-82072279D02*
X104308108Y-82072279D01*
%TO.N,Net-(SW6-Pad1)*%
X77243428Y-68173428D02*
X86567278Y-77497278D01*
X75184000Y-68173428D02*
X77243428Y-68173428D01*
X86567278Y-77497278D02*
X118418142Y-77497278D01*
%TO.N,Net-(SW7-Pad1)*%
X86008687Y-78845838D02*
X89155838Y-78845838D01*
X90387745Y-80077745D02*
X90387745Y-99321976D01*
X89155838Y-78845838D02*
X90387745Y-80077745D01*
X73342000Y-76260572D02*
X83423419Y-76260572D01*
X83423419Y-76260572D02*
X86008687Y-78845838D01*
%TO.N,Net-(SW8-Pad1)*%
X81363423Y-73564858D02*
X86194884Y-78396318D01*
X75184000Y-73564858D02*
X81363423Y-73564858D01*
X101912745Y-82258463D02*
X101912745Y-99321782D01*
X98050600Y-78396318D02*
X101912745Y-82258463D01*
X86194884Y-78396318D02*
X98050600Y-78396318D01*
%TD*%
%TA.AperFunction,Conductor*%
%TO.N,GND*%
G36*
X126878227Y-66282518D02*
G01*
X126889642Y-66285143D01*
X126900516Y-66282682D01*
X126911665Y-66282702D01*
X126911664Y-66283199D01*
X126921568Y-66282484D01*
X127000221Y-66288674D01*
X127085597Y-66295394D01*
X127100940Y-66297824D01*
X127192543Y-66319816D01*
X127284151Y-66341809D01*
X127298918Y-66346608D01*
X127385955Y-66382660D01*
X127472987Y-66418710D01*
X127486828Y-66425762D01*
X127647481Y-66524209D01*
X127660049Y-66533341D01*
X127803314Y-66655701D01*
X127814299Y-66666686D01*
X127936659Y-66809951D01*
X127945791Y-66822519D01*
X128044238Y-66983172D01*
X128051290Y-66997013D01*
X128123391Y-67171078D01*
X128128192Y-67185853D01*
X128172176Y-67369060D01*
X128174606Y-67384403D01*
X128187476Y-67547924D01*
X128186759Y-67557627D01*
X128187376Y-67557628D01*
X128187356Y-67568774D01*
X128184857Y-67579642D01*
X128187318Y-67590517D01*
X128187559Y-67591583D01*
X128190000Y-67613432D01*
X128190000Y-95696040D01*
X128187482Y-95718227D01*
X128184857Y-95729642D01*
X128187318Y-95740516D01*
X128187298Y-95751665D01*
X128186801Y-95751664D01*
X128187516Y-95761568D01*
X128185496Y-95787236D01*
X128174606Y-95925597D01*
X128172176Y-95940940D01*
X128128192Y-96124147D01*
X128123391Y-96138922D01*
X128051290Y-96312987D01*
X128044238Y-96326828D01*
X127945791Y-96487481D01*
X127936659Y-96500049D01*
X127814299Y-96643314D01*
X127803314Y-96654299D01*
X127660049Y-96776659D01*
X127647481Y-96785791D01*
X127486828Y-96884238D01*
X127472987Y-96891290D01*
X127385955Y-96927340D01*
X127298918Y-96963392D01*
X127284151Y-96968191D01*
X127192544Y-96990184D01*
X127100940Y-97012176D01*
X127085597Y-97014606D01*
X126959781Y-97024508D01*
X126922075Y-97027476D01*
X126912373Y-97026759D01*
X126912372Y-97027376D01*
X126901226Y-97027356D01*
X126890358Y-97024857D01*
X126878607Y-97027516D01*
X126878417Y-97027559D01*
X126856568Y-97030000D01*
X107924222Y-97030000D01*
X107901870Y-97027443D01*
X107890716Y-97024858D01*
X107890000Y-97024857D01*
X107885032Y-97025990D01*
X107883886Y-97026095D01*
X107647447Y-97043006D01*
X107409831Y-97094696D01*
X107181991Y-97179676D01*
X106968563Y-97296217D01*
X106773894Y-97441945D01*
X106601945Y-97613894D01*
X106456217Y-97808563D01*
X106339676Y-98021991D01*
X106254696Y-98249831D01*
X106203006Y-98487447D01*
X106186270Y-98721451D01*
X106186212Y-98722259D01*
X106186027Y-98724241D01*
X106184858Y-98729284D01*
X106184857Y-98730000D01*
X106186100Y-98735449D01*
X106187521Y-98741679D01*
X106190000Y-98763696D01*
X106190000Y-104546040D01*
X106187482Y-104568227D01*
X106184857Y-104579642D01*
X106187318Y-104590516D01*
X106187298Y-104601665D01*
X106186801Y-104601664D01*
X106187516Y-104611570D01*
X106174606Y-104775597D01*
X106172176Y-104790940D01*
X106128192Y-104974147D01*
X106123391Y-104988922D01*
X106051290Y-105162987D01*
X106044238Y-105176828D01*
X105945791Y-105337481D01*
X105936659Y-105350049D01*
X105814299Y-105493314D01*
X105803314Y-105504299D01*
X105660049Y-105626659D01*
X105647481Y-105635791D01*
X105486828Y-105734238D01*
X105472987Y-105741290D01*
X105385954Y-105777341D01*
X105298918Y-105813392D01*
X105284151Y-105818191D01*
X105192543Y-105840184D01*
X105100940Y-105862176D01*
X105085597Y-105864606D01*
X104959781Y-105874508D01*
X104922075Y-105877476D01*
X104912373Y-105876759D01*
X104912372Y-105877376D01*
X104901226Y-105877356D01*
X104890358Y-105874857D01*
X104878607Y-105877516D01*
X104878417Y-105877559D01*
X104856568Y-105880000D01*
X81923960Y-105880000D01*
X81901773Y-105877482D01*
X81901747Y-105877476D01*
X81890358Y-105874857D01*
X81879484Y-105877318D01*
X81868335Y-105877298D01*
X81868336Y-105876801D01*
X81858432Y-105877516D01*
X81779779Y-105871326D01*
X81694403Y-105864606D01*
X81679060Y-105862176D01*
X81587456Y-105840184D01*
X81495849Y-105818191D01*
X81481082Y-105813392D01*
X81394046Y-105777341D01*
X81307013Y-105741290D01*
X81293172Y-105734238D01*
X81132519Y-105635791D01*
X81119951Y-105626659D01*
X80976686Y-105504299D01*
X80965701Y-105493314D01*
X80843341Y-105350049D01*
X80834209Y-105337481D01*
X80735762Y-105176828D01*
X80728710Y-105162987D01*
X80656609Y-104988922D01*
X80651808Y-104974147D01*
X80607824Y-104790940D01*
X80605394Y-104775597D01*
X80592524Y-104612076D01*
X80593241Y-104602373D01*
X80592624Y-104602372D01*
X80592644Y-104591226D01*
X80595143Y-104580358D01*
X80592441Y-104568417D01*
X80590000Y-104546568D01*
X80590000Y-98764222D01*
X80592557Y-98741867D01*
X80593875Y-98736181D01*
X80595142Y-98730716D01*
X80595143Y-98730000D01*
X80594010Y-98725032D01*
X80593904Y-98723880D01*
X80593730Y-98721451D01*
X80576994Y-98487447D01*
X80525304Y-98249831D01*
X80440324Y-98021991D01*
X80323783Y-97808563D01*
X80178055Y-97613894D01*
X80006106Y-97441945D01*
X79811437Y-97296217D01*
X79598009Y-97179676D01*
X79370169Y-97094696D01*
X79132553Y-97043006D01*
X78897722Y-97026210D01*
X78895759Y-97026027D01*
X78890716Y-97024858D01*
X78890000Y-97024857D01*
X78884551Y-97026100D01*
X78878321Y-97027521D01*
X78856304Y-97030000D01*
X59923960Y-97030000D01*
X59901773Y-97027482D01*
X59901747Y-97027476D01*
X59890358Y-97024857D01*
X59879484Y-97027318D01*
X59868335Y-97027298D01*
X59868336Y-97026801D01*
X59858432Y-97027516D01*
X59779779Y-97021326D01*
X59694403Y-97014606D01*
X59679060Y-97012176D01*
X59587456Y-96990184D01*
X59495849Y-96968191D01*
X59481082Y-96963392D01*
X59394045Y-96927340D01*
X59307013Y-96891290D01*
X59293172Y-96884238D01*
X59132519Y-96785791D01*
X59119951Y-96776659D01*
X58976686Y-96654299D01*
X58965701Y-96643314D01*
X58843341Y-96500049D01*
X58834209Y-96487481D01*
X58735762Y-96326828D01*
X58728710Y-96312987D01*
X58656609Y-96138922D01*
X58651808Y-96124147D01*
X58607824Y-95940940D01*
X58605394Y-95925597D01*
X58592524Y-95762076D01*
X58593241Y-95752373D01*
X58592624Y-95752372D01*
X58592644Y-95741226D01*
X58595143Y-95730358D01*
X58592441Y-95718417D01*
X58590000Y-95696568D01*
X58590000Y-93396879D01*
X59311104Y-93396879D01*
X59347183Y-93632652D01*
X59421285Y-93859368D01*
X59423159Y-93862968D01*
X59452750Y-93919811D01*
X59531420Y-94070936D01*
X59674632Y-94261675D01*
X59847072Y-94426463D01*
X59850424Y-94428750D01*
X59850427Y-94428752D01*
X60040759Y-94558588D01*
X60044112Y-94560875D01*
X60047792Y-94562583D01*
X60047797Y-94562586D01*
X60145139Y-94607770D01*
X60260458Y-94661299D01*
X60264374Y-94662385D01*
X60486378Y-94723953D01*
X60486381Y-94723954D01*
X60490302Y-94725041D01*
X60494350Y-94725474D01*
X60494352Y-94725474D01*
X60551769Y-94731610D01*
X60685016Y-94745850D01*
X60823493Y-94745850D01*
X60825522Y-94745683D01*
X60825526Y-94745683D01*
X60996699Y-94731610D01*
X60996702Y-94731609D01*
X61000746Y-94731277D01*
X61004680Y-94730289D01*
X61004685Y-94730288D01*
X61165048Y-94690007D01*
X61232078Y-94673171D01*
X61350847Y-94621529D01*
X79738074Y-94621529D01*
X79774153Y-94857302D01*
X79848255Y-95084018D01*
X79958390Y-95295586D01*
X80101602Y-95486325D01*
X80274042Y-95651113D01*
X80277394Y-95653400D01*
X80277397Y-95653402D01*
X80422483Y-95752373D01*
X80471082Y-95785525D01*
X80474762Y-95787233D01*
X80474767Y-95787236D01*
X80572109Y-95832420D01*
X80687428Y-95885949D01*
X80691344Y-95887035D01*
X80913348Y-95948603D01*
X80913351Y-95948604D01*
X80917272Y-95949691D01*
X80921320Y-95950124D01*
X80921322Y-95950124D01*
X80978739Y-95956260D01*
X81111986Y-95970500D01*
X81250463Y-95970500D01*
X81252492Y-95970333D01*
X81252496Y-95970333D01*
X81423669Y-95956260D01*
X81423672Y-95956259D01*
X81427716Y-95955927D01*
X81431650Y-95954939D01*
X81431655Y-95954938D01*
X81592018Y-95914657D01*
X81659048Y-95897821D01*
X81877784Y-95802712D01*
X82007528Y-95718777D01*
X82074635Y-95675364D01*
X82074638Y-95675362D01*
X82078049Y-95673155D01*
X82254464Y-95512629D01*
X82256983Y-95509440D01*
X82399776Y-95328633D01*
X82399780Y-95328627D01*
X82402293Y-95325445D01*
X82517564Y-95116631D01*
X82597183Y-94891794D01*
X82639012Y-94656972D01*
X82641926Y-94418471D01*
X82605847Y-94182698D01*
X82531745Y-93955982D01*
X82512916Y-93919811D01*
X82423487Y-93748019D01*
X82423485Y-93748016D01*
X82421610Y-93744414D01*
X82278398Y-93553675D01*
X82105958Y-93388887D01*
X82102606Y-93386600D01*
X82102603Y-93386598D01*
X81912271Y-93256762D01*
X81912269Y-93256761D01*
X81908918Y-93254475D01*
X81905238Y-93252767D01*
X81905233Y-93252764D01*
X81787000Y-93197883D01*
X81692572Y-93154051D01*
X81646190Y-93141188D01*
X81466652Y-93091397D01*
X81466649Y-93091396D01*
X81462728Y-93090309D01*
X81458680Y-93089876D01*
X81458678Y-93089876D01*
X81387375Y-93082256D01*
X81268014Y-93069500D01*
X81129537Y-93069500D01*
X81127508Y-93069667D01*
X81127504Y-93069667D01*
X80956331Y-93083740D01*
X80956328Y-93083741D01*
X80952284Y-93084073D01*
X80948350Y-93085061D01*
X80948345Y-93085062D01*
X80787982Y-93125343D01*
X80720952Y-93142179D01*
X80502216Y-93237288D01*
X80478294Y-93252764D01*
X80305365Y-93364636D01*
X80305362Y-93364638D01*
X80301951Y-93366845D01*
X80125536Y-93527371D01*
X80123020Y-93530557D01*
X80123017Y-93530560D01*
X79980224Y-93711367D01*
X79980220Y-93711373D01*
X79977707Y-93714555D01*
X79862436Y-93923369D01*
X79782817Y-94148206D01*
X79740988Y-94383028D01*
X79740938Y-94387087D01*
X79740938Y-94387091D01*
X79740457Y-94426463D01*
X79738074Y-94621529D01*
X61350847Y-94621529D01*
X61450814Y-94578062D01*
X61557798Y-94508851D01*
X61647665Y-94450714D01*
X61647668Y-94450712D01*
X61651079Y-94448505D01*
X61827494Y-94287979D01*
X61830013Y-94284790D01*
X61972806Y-94103983D01*
X61972810Y-94103977D01*
X61975323Y-94100795D01*
X62090594Y-93891981D01*
X62170213Y-93667144D01*
X62212042Y-93432322D01*
X62212539Y-93391691D01*
X62214425Y-93237288D01*
X62214956Y-93193821D01*
X62178877Y-92958048D01*
X62104775Y-92731332D01*
X61994640Y-92519764D01*
X61851428Y-92329025D01*
X61678988Y-92164237D01*
X61675636Y-92161950D01*
X61675633Y-92161948D01*
X61485301Y-92032112D01*
X61485299Y-92032111D01*
X61481948Y-92029825D01*
X61478268Y-92028117D01*
X61478263Y-92028114D01*
X61380921Y-91982930D01*
X61265602Y-91929401D01*
X61219220Y-91916538D01*
X61039682Y-91866747D01*
X61039679Y-91866746D01*
X61035758Y-91865659D01*
X61031710Y-91865226D01*
X61031708Y-91865226D01*
X60960405Y-91857606D01*
X60841044Y-91844850D01*
X60702567Y-91844850D01*
X60700538Y-91845017D01*
X60700534Y-91845017D01*
X60529361Y-91859090D01*
X60529358Y-91859091D01*
X60525314Y-91859423D01*
X60521380Y-91860411D01*
X60521375Y-91860412D01*
X60361012Y-91900693D01*
X60293982Y-91917529D01*
X60075246Y-92012638D01*
X60051324Y-92028114D01*
X59878395Y-92139986D01*
X59878392Y-92139988D01*
X59874981Y-92142195D01*
X59698566Y-92302721D01*
X59696050Y-92305907D01*
X59696047Y-92305910D01*
X59553254Y-92486717D01*
X59553250Y-92486723D01*
X59550737Y-92489905D01*
X59435466Y-92698719D01*
X59355847Y-92923556D01*
X59314018Y-93158378D01*
X59311104Y-93396879D01*
X58590000Y-93396879D01*
X58590000Y-90134262D01*
X70055048Y-90134262D01*
X70060142Y-90149941D01*
X70065951Y-90154699D01*
X70072507Y-90157432D01*
X70074161Y-90158088D01*
X70217786Y-90212116D01*
X70218666Y-90212437D01*
X70225452Y-90214836D01*
X70226390Y-90215157D01*
X70240493Y-90219826D01*
X70242592Y-90220507D01*
X70243067Y-90220660D01*
X70275124Y-90230841D01*
X70275547Y-90230973D01*
X70275547Y-90230974D01*
X70277615Y-90231615D01*
X70278189Y-90231791D01*
X70311535Y-90241901D01*
X70311789Y-90241978D01*
X70313989Y-90242630D01*
X70313998Y-90242633D01*
X70346871Y-90252180D01*
X70347351Y-90252317D01*
X70347351Y-90252318D01*
X70349375Y-90252892D01*
X70349686Y-90252980D01*
X70379881Y-90261339D01*
X70380280Y-90261448D01*
X70383219Y-90262236D01*
X70383457Y-90262299D01*
X70408850Y-90268883D01*
X70409640Y-90269081D01*
X70414448Y-90270256D01*
X70415158Y-90270424D01*
X70433192Y-90274561D01*
X70435098Y-90274959D01*
X70448850Y-90277553D01*
X70450782Y-90277877D01*
X70457716Y-90278907D01*
X70463489Y-90279421D01*
X70500347Y-90280546D01*
X70515574Y-90278615D01*
X70575153Y-90261309D01*
X70592129Y-90252492D01*
X70642818Y-90211888D01*
X70649275Y-90205582D01*
X70652470Y-90201239D01*
X70677406Y-90162302D01*
X70680490Y-90156721D01*
X70685642Y-90145785D01*
X70686267Y-90144402D01*
X70690743Y-90134073D01*
X70691327Y-90132665D01*
X70700106Y-90110527D01*
X70700282Y-90110076D01*
X70702176Y-90105093D01*
X70702386Y-90104526D01*
X70713393Y-90074275D01*
X70713427Y-90074178D01*
X70714464Y-90071252D01*
X70714664Y-90070679D01*
X70727223Y-90034261D01*
X70727398Y-90033747D01*
X70728078Y-90031738D01*
X70728114Y-90031629D01*
X70742089Y-89989517D01*
X70742222Y-89989112D01*
X70742732Y-89987553D01*
X70757793Y-89940761D01*
X70757850Y-89940583D01*
X70758264Y-89939278D01*
X70758266Y-89939271D01*
X70773967Y-89889184D01*
X70774033Y-89888972D01*
X70774381Y-89887845D01*
X70774392Y-89887809D01*
X70774393Y-89887805D01*
X70790395Y-89835501D01*
X70790426Y-89835398D01*
X70790790Y-89834195D01*
X70790802Y-89834155D01*
X70806780Y-89780652D01*
X70806821Y-89780513D01*
X70807178Y-89779302D01*
X70807183Y-89779283D01*
X70807223Y-89779147D01*
X70822809Y-89725612D01*
X70823220Y-89724184D01*
X70823219Y-89724184D01*
X70823276Y-89723987D01*
X70838128Y-89671515D01*
X70838177Y-89671338D01*
X70838178Y-89671338D01*
X70838617Y-89669761D01*
X70838616Y-89669761D01*
X70838728Y-89669357D01*
X70852488Y-89619088D01*
X70852611Y-89618635D01*
X70853109Y-89616780D01*
X70853121Y-89616733D01*
X70865666Y-89568956D01*
X70865943Y-89567883D01*
X70866010Y-89567621D01*
X70866011Y-89567621D01*
X70866506Y-89565682D01*
X70866595Y-89565329D01*
X70867322Y-89562380D01*
X70867405Y-89562041D01*
X70907160Y-89394831D01*
X70939014Y-89342592D01*
X70995491Y-89319053D01*
X71055017Y-89333206D01*
X71094856Y-89379645D01*
X71100145Y-89396378D01*
X71115794Y-89467225D01*
X71115806Y-89467278D01*
X71115892Y-89467666D01*
X71117728Y-89475283D01*
X71180141Y-89713997D01*
X71180183Y-89714153D01*
X71180201Y-89714219D01*
X71181207Y-89717908D01*
X71181248Y-89718058D01*
X71182441Y-89722265D01*
X71182832Y-89723625D01*
X71194274Y-89762935D01*
X71194847Y-89764869D01*
X71199569Y-89780513D01*
X71207664Y-89807336D01*
X71207688Y-89807416D01*
X71208102Y-89808770D01*
X71208156Y-89808945D01*
X71221976Y-89853474D01*
X71222349Y-89854662D01*
X71222387Y-89854782D01*
X71232881Y-89887809D01*
X71236766Y-89900038D01*
X71237152Y-89901241D01*
X71237214Y-89901432D01*
X71249495Y-89939271D01*
X71251669Y-89945971D01*
X71252044Y-89947115D01*
X71252066Y-89947182D01*
X71252068Y-89947188D01*
X71266305Y-89990137D01*
X71266753Y-89991472D01*
X71280212Y-90031158D01*
X71280289Y-90031384D01*
X71280823Y-90032938D01*
X71280846Y-90033004D01*
X71293248Y-90068590D01*
X71293261Y-90068626D01*
X71293969Y-90070623D01*
X71294052Y-90070856D01*
X71304851Y-90100726D01*
X71304880Y-90100804D01*
X71304926Y-90100932D01*
X71306264Y-90104526D01*
X71315177Y-90127803D01*
X71318229Y-90135321D01*
X71324762Y-90150544D01*
X71339746Y-90179034D01*
X71343478Y-90184947D01*
X71345565Y-90187452D01*
X71345567Y-90187454D01*
X71364334Y-90209974D01*
X71377864Y-90226209D01*
X71445951Y-90267760D01*
X71477947Y-90272767D01*
X71519953Y-90279341D01*
X71519958Y-90279341D01*
X71524755Y-90280092D01*
X71532996Y-90279753D01*
X71534858Y-90279535D01*
X71534861Y-90279535D01*
X71561706Y-90276396D01*
X71561718Y-90276394D01*
X71563549Y-90276180D01*
X71580601Y-90272870D01*
X71581075Y-90272767D01*
X71589053Y-90271032D01*
X71589063Y-90271030D01*
X71589572Y-90270919D01*
X71600206Y-90268354D01*
X71613413Y-90265170D01*
X71613486Y-90265152D01*
X71613697Y-90265101D01*
X71618373Y-90263914D01*
X71647857Y-90256063D01*
X71648048Y-90256011D01*
X71648098Y-90255997D01*
X71650839Y-90255243D01*
X71650881Y-90255231D01*
X71651129Y-90255163D01*
X71661910Y-90252100D01*
X71684096Y-90245796D01*
X71684154Y-90245779D01*
X71684257Y-90245750D01*
X71687042Y-90244937D01*
X71694744Y-90242630D01*
X71721890Y-90234499D01*
X71721963Y-90234477D01*
X71722099Y-90234436D01*
X71723128Y-90234120D01*
X71724716Y-90233632D01*
X71724764Y-90233617D01*
X71724891Y-90233578D01*
X71734819Y-90230449D01*
X71760031Y-90222503D01*
X71760111Y-90222478D01*
X71760163Y-90222461D01*
X71760228Y-90222440D01*
X71760284Y-90222422D01*
X71761177Y-90222132D01*
X71763368Y-90221422D01*
X71797139Y-90210163D01*
X71805584Y-90207140D01*
X71946332Y-90153247D01*
X71959292Y-90147766D01*
X72099086Y-90082885D01*
X72099832Y-90082507D01*
X72110951Y-90076871D01*
X72110965Y-90076864D01*
X72111704Y-90076489D01*
X72112421Y-90076094D01*
X72112449Y-90076079D01*
X72245264Y-90002874D01*
X72245269Y-90002871D01*
X72246024Y-90002455D01*
X72258076Y-89995262D01*
X72332690Y-89947182D01*
X72385813Y-89912951D01*
X72385833Y-89912938D01*
X72386523Y-89912493D01*
X72397979Y-89904545D01*
X72404025Y-89900038D01*
X72519485Y-89813959D01*
X72519495Y-89813952D01*
X72520158Y-89813457D01*
X72520805Y-89812939D01*
X72520820Y-89812928D01*
X72530325Y-89805327D01*
X72530346Y-89805310D01*
X72530992Y-89804793D01*
X72559164Y-89780652D01*
X72645848Y-89706369D01*
X72645853Y-89706365D01*
X72646506Y-89705805D01*
X72656700Y-89696454D01*
X72657306Y-89695859D01*
X72657324Y-89695842D01*
X72677723Y-89675815D01*
X81155928Y-89675815D01*
X81176524Y-89911223D01*
X81237684Y-90139478D01*
X81337552Y-90353644D01*
X81473092Y-90547216D01*
X81640186Y-90714310D01*
X81833758Y-90849850D01*
X82047924Y-90949718D01*
X82276179Y-91010878D01*
X82361018Y-91018301D01*
X82450457Y-91026126D01*
X82450465Y-91026126D01*
X82452621Y-91026315D01*
X82570553Y-91026315D01*
X82572709Y-91026126D01*
X82572717Y-91026126D01*
X82662156Y-91018301D01*
X82746995Y-91010878D01*
X82975250Y-90949718D01*
X83189416Y-90849850D01*
X83382988Y-90714310D01*
X83550082Y-90547216D01*
X83683141Y-90357189D01*
X83683141Y-90357188D01*
X83685622Y-90353645D01*
X83785490Y-90139478D01*
X83846650Y-89911223D01*
X83867246Y-89675815D01*
X83846650Y-89440407D01*
X83785490Y-89212152D01*
X83685622Y-88997986D01*
X83550082Y-88804414D01*
X83382988Y-88637320D01*
X83189416Y-88501780D01*
X82975250Y-88401912D01*
X82746995Y-88340752D01*
X82662156Y-88333329D01*
X82572717Y-88325504D01*
X82572709Y-88325504D01*
X82570553Y-88325315D01*
X82452621Y-88325315D01*
X82450465Y-88325504D01*
X82450457Y-88325504D01*
X82361018Y-88333329D01*
X82276179Y-88340752D01*
X82047924Y-88401912D01*
X81833758Y-88501780D01*
X81640186Y-88637320D01*
X81473092Y-88804414D01*
X81411995Y-88891669D01*
X81340034Y-88994440D01*
X81340033Y-88994442D01*
X81337552Y-88997985D01*
X81237684Y-89212152D01*
X81176524Y-89440407D01*
X81155928Y-89675815D01*
X72677723Y-89675815D01*
X72764570Y-89590554D01*
X72764587Y-89590536D01*
X72765151Y-89589983D01*
X72774679Y-89579974D01*
X72867395Y-89475743D01*
X72875081Y-89467103D01*
X72875099Y-89467082D01*
X72875671Y-89466439D01*
X72884515Y-89455791D01*
X72886098Y-89453749D01*
X72977126Y-89336284D01*
X72977650Y-89335608D01*
X72985779Y-89324348D01*
X73070662Y-89197936D01*
X73071198Y-89197077D01*
X73077591Y-89186816D01*
X73077600Y-89186801D01*
X73078048Y-89186082D01*
X73085656Y-89172887D01*
X73153855Y-89054596D01*
X73154280Y-89053859D01*
X73160883Y-89041437D01*
X73207536Y-88945875D01*
X73227684Y-88904606D01*
X73227689Y-88904596D01*
X73228068Y-88903819D01*
X73233846Y-88890862D01*
X73291587Y-88748268D01*
X73291880Y-88747465D01*
X73296183Y-88735666D01*
X73296193Y-88735637D01*
X73296492Y-88734817D01*
X73327235Y-88640374D01*
X73344170Y-88588352D01*
X73344181Y-88588315D01*
X73344393Y-88587665D01*
X73347921Y-88575576D01*
X73349164Y-88570772D01*
X73379352Y-88454048D01*
X73379545Y-88453303D01*
X73382228Y-88441496D01*
X73404165Y-88329757D01*
X73408128Y-88309570D01*
X73408132Y-88309549D01*
X73408279Y-88308799D01*
X73410417Y-88295654D01*
X73427671Y-88162326D01*
X73428941Y-88149195D01*
X73437698Y-88012876D01*
X73438117Y-88000576D01*
X73438675Y-87858902D01*
X73438616Y-87853089D01*
X73438438Y-87845825D01*
X73438365Y-87843440D01*
X73438231Y-87839745D01*
X73435812Y-87772885D01*
X73435810Y-87772833D01*
X73435796Y-87772453D01*
X73435741Y-87771340D01*
X73435535Y-87767232D01*
X73435534Y-87767217D01*
X73435515Y-87766834D01*
X73435334Y-87763986D01*
X73431455Y-87703180D01*
X73431424Y-87702693D01*
X73430867Y-87695793D01*
X73428722Y-87673869D01*
X73424937Y-87635199D01*
X73424934Y-87635173D01*
X73424890Y-87634721D01*
X73424073Y-87627649D01*
X73415846Y-87565868D01*
X73414953Y-87559849D01*
X73404112Y-87493579D01*
X73403457Y-87489794D01*
X73398168Y-87460883D01*
X73397663Y-87458223D01*
X73393390Y-87436496D01*
X73391298Y-87425856D01*
X73391277Y-87425753D01*
X73391242Y-87425573D01*
X73390698Y-87422903D01*
X73384230Y-87392183D01*
X73383577Y-87389194D01*
X73377468Y-87362190D01*
X73376473Y-87357996D01*
X73376423Y-87357793D01*
X73376404Y-87357716D01*
X73371260Y-87337017D01*
X73371253Y-87336991D01*
X73371130Y-87336495D01*
X73368882Y-87328198D01*
X73364709Y-87313987D01*
X73351024Y-87279395D01*
X73348430Y-87274261D01*
X73347750Y-87273082D01*
X73347739Y-87273062D01*
X73340231Y-87260050D01*
X73337113Y-87254645D01*
X73281299Y-87197662D01*
X73207928Y-87166375D01*
X73186565Y-87166153D01*
X73133032Y-87165598D01*
X73133028Y-87165598D01*
X73128168Y-87165548D01*
X73125213Y-87166104D01*
X73123712Y-87166419D01*
X73117350Y-87167754D01*
X73117315Y-87167762D01*
X73116866Y-87167856D01*
X73116351Y-87167975D01*
X73116348Y-87167976D01*
X73106751Y-87170200D01*
X73105033Y-87170598D01*
X73104768Y-87170661D01*
X73102953Y-87171092D01*
X73102786Y-87171132D01*
X73084252Y-87175648D01*
X73083041Y-87175947D01*
X73060225Y-87181654D01*
X73059859Y-87181746D01*
X73057874Y-87182246D01*
X73057009Y-87182460D01*
X72993589Y-87197793D01*
X72992172Y-87198124D01*
X72920671Y-87214302D01*
X72919560Y-87214547D01*
X72885189Y-87221910D01*
X72841243Y-87231324D01*
X72840400Y-87231500D01*
X72757905Y-87248312D01*
X72757303Y-87248432D01*
X72673298Y-87264732D01*
X72672510Y-87264880D01*
X72589763Y-87280106D01*
X72588724Y-87280291D01*
X72546415Y-87287607D01*
X72485855Y-87278891D01*
X72441983Y-87236243D01*
X72430548Y-87190055D01*
X72430548Y-86540882D01*
X72449455Y-86482691D01*
X72459544Y-86470878D01*
X73559069Y-85371354D01*
X73565424Y-85365531D01*
X73595194Y-85340551D01*
X73614638Y-85306873D01*
X73619261Y-85299618D01*
X73636587Y-85274874D01*
X73636587Y-85274873D01*
X73641554Y-85267780D01*
X73643795Y-85259418D01*
X73646258Y-85254136D01*
X73648257Y-85248642D01*
X73652588Y-85241141D01*
X73659337Y-85202867D01*
X73661206Y-85194440D01*
X73669022Y-85165269D01*
X73669022Y-85165266D01*
X73671263Y-85156903D01*
X73667877Y-85118199D01*
X73667500Y-85109571D01*
X73667500Y-84903684D01*
X73686407Y-84845493D01*
X73706233Y-84825142D01*
X73706592Y-84824867D01*
X73770282Y-84775996D01*
X73866536Y-84650555D01*
X73920832Y-84519474D01*
X73924560Y-84510473D01*
X73927044Y-84504476D01*
X73947682Y-84347714D01*
X73927044Y-84190952D01*
X73866536Y-84044873D01*
X73770282Y-83919432D01*
X73644841Y-83823178D01*
X73525985Y-83773946D01*
X73504759Y-83765154D01*
X73498762Y-83762670D01*
X73342000Y-83742032D01*
X73185238Y-83762670D01*
X73179241Y-83765154D01*
X73158015Y-83773946D01*
X73039159Y-83823178D01*
X72913718Y-83919432D01*
X72817464Y-84044873D01*
X72756956Y-84190952D01*
X72736318Y-84347714D01*
X72756956Y-84504476D01*
X72759440Y-84510473D01*
X72763168Y-84519474D01*
X72817464Y-84650555D01*
X72913718Y-84775996D01*
X72977409Y-84824867D01*
X72977767Y-84825142D01*
X73012423Y-84875566D01*
X73016500Y-84903684D01*
X73016500Y-84952261D01*
X72997593Y-85010452D01*
X72987504Y-85022265D01*
X71887991Y-86121779D01*
X71881624Y-86127613D01*
X71851854Y-86152593D01*
X71847525Y-86160092D01*
X71832421Y-86186253D01*
X71827780Y-86193537D01*
X71805494Y-86225364D01*
X71803252Y-86233732D01*
X71800786Y-86239019D01*
X71798790Y-86244504D01*
X71794460Y-86252003D01*
X71792957Y-86260529D01*
X71792956Y-86260531D01*
X71787714Y-86290264D01*
X71785844Y-86298698D01*
X71775784Y-86336241D01*
X71776539Y-86344870D01*
X71779171Y-86374953D01*
X71779548Y-86383582D01*
X71779548Y-87292459D01*
X71760641Y-87350650D01*
X71711141Y-87386614D01*
X71686879Y-87391257D01*
X71518688Y-87402029D01*
X71516773Y-87402133D01*
X71453532Y-87404924D01*
X71305490Y-87411456D01*
X71304583Y-87411492D01*
X71118229Y-87418004D01*
X71114309Y-87418141D01*
X71110457Y-87418895D01*
X71059665Y-87428837D01*
X71059664Y-87428837D01*
X71051027Y-87430528D01*
X71043514Y-87435114D01*
X71043290Y-87435201D01*
X70982202Y-87438657D01*
X70969393Y-87434327D01*
X70959625Y-87430262D01*
X70895944Y-87417490D01*
X70886311Y-87416525D01*
X70845602Y-87416461D01*
X70844965Y-87416458D01*
X70833609Y-87416367D01*
X70832417Y-87416350D01*
X70801549Y-87415731D01*
X70800655Y-87415709D01*
X70760721Y-87414547D01*
X70760143Y-87414529D01*
X70712609Y-87412868D01*
X70712172Y-87412851D01*
X70660855Y-87410831D01*
X70660486Y-87410816D01*
X70605447Y-87408444D01*
X70605095Y-87408428D01*
X70549984Y-87405856D01*
X70549615Y-87405838D01*
X70495194Y-87403095D01*
X70494774Y-87403073D01*
X70443552Y-87400273D01*
X70443011Y-87400242D01*
X70396914Y-87397469D01*
X70396531Y-87397446D01*
X70391519Y-87397125D01*
X70389929Y-87397010D01*
X70104516Y-87374110D01*
X70101385Y-87373809D01*
X70070628Y-87370355D01*
X70057564Y-87373034D01*
X70056012Y-87374734D01*
X70055048Y-87379189D01*
X70055048Y-90134262D01*
X58590000Y-90134262D01*
X58590000Y-88822467D01*
X68750965Y-88822467D01*
X68751335Y-88835254D01*
X68760855Y-88859659D01*
X68761474Y-88861167D01*
X68766413Y-88872634D01*
X68767139Y-88874241D01*
X68832486Y-89012520D01*
X68833264Y-89014095D01*
X68838967Y-89025149D01*
X68839792Y-89026683D01*
X68914969Y-89160763D01*
X68915824Y-89162227D01*
X68922298Y-89172887D01*
X68923213Y-89174336D01*
X69008264Y-89303981D01*
X69008779Y-89304750D01*
X69012688Y-89310468D01*
X69013157Y-89311141D01*
X69021742Y-89323194D01*
X69022312Y-89323978D01*
X69026350Y-89329422D01*
X69027027Y-89330316D01*
X69121303Y-89452450D01*
X69122341Y-89453749D01*
X69130299Y-89463350D01*
X69131445Y-89464684D01*
X69233485Y-89579419D01*
X69234602Y-89580632D01*
X69243153Y-89589604D01*
X69244340Y-89590806D01*
X69353855Y-89698040D01*
X69355027Y-89699148D01*
X69364160Y-89707497D01*
X69365407Y-89708598D01*
X69481812Y-89807877D01*
X69483130Y-89808962D01*
X69492782Y-89816638D01*
X69494056Y-89817617D01*
X69616884Y-89908601D01*
X69618293Y-89909608D01*
X69628420Y-89916584D01*
X69629828Y-89917519D01*
X69641840Y-89925198D01*
X69652861Y-89928067D01*
X69655048Y-89924646D01*
X69655048Y-88834957D01*
X69650926Y-88822272D01*
X69646805Y-88819277D01*
X68760782Y-88819277D01*
X68750965Y-88822467D01*
X58590000Y-88822467D01*
X58590000Y-87889228D01*
X68566931Y-87889228D01*
X68566943Y-87890709D01*
X68570478Y-88044084D01*
X68570546Y-88045767D01*
X68571278Y-88058344D01*
X68571406Y-88060034D01*
X68585609Y-88212079D01*
X68585794Y-88213749D01*
X68587401Y-88226224D01*
X68587644Y-88227883D01*
X68612374Y-88378203D01*
X68612678Y-88379867D01*
X68615144Y-88392160D01*
X68615499Y-88393786D01*
X68617926Y-88404021D01*
X68624862Y-88415412D01*
X68634120Y-88419277D01*
X69639368Y-88419277D01*
X69652053Y-88415155D01*
X69655048Y-88411034D01*
X69655048Y-87333899D01*
X69650926Y-87321214D01*
X69644745Y-87316722D01*
X69544727Y-87302193D01*
X69541477Y-87301665D01*
X69272888Y-87253478D01*
X69269550Y-87252820D01*
X69004369Y-87195775D01*
X69002869Y-87195440D01*
X68991837Y-87192887D01*
X68990276Y-87192532D01*
X68957299Y-87185174D01*
X68957122Y-87185135D01*
X68954709Y-87184613D01*
X68954560Y-87184581D01*
X68926105Y-87178614D01*
X68925642Y-87178519D01*
X68922626Y-87177914D01*
X68921992Y-87177790D01*
X68899846Y-87173553D01*
X68898944Y-87173388D01*
X68893092Y-87172369D01*
X68892180Y-87172219D01*
X68878902Y-87170138D01*
X68875548Y-87169728D01*
X68851473Y-87167607D01*
X68848515Y-87167447D01*
X68838445Y-87168290D01*
X68770749Y-87181122D01*
X68752563Y-87188584D01*
X68702933Y-87221910D01*
X68689438Y-87235467D01*
X68653479Y-87289551D01*
X68648963Y-87298046D01*
X68647890Y-87300917D01*
X68640420Y-87323080D01*
X68639483Y-87326195D01*
X68635991Y-87339337D01*
X68635761Y-87340234D01*
X68634219Y-87346487D01*
X68634024Y-87347307D01*
X68629026Y-87369244D01*
X68628859Y-87369991D01*
X68628229Y-87372873D01*
X68628133Y-87373323D01*
X68622190Y-87401648D01*
X68621778Y-87403667D01*
X68621701Y-87404051D01*
X68615271Y-87436496D01*
X68614925Y-87438283D01*
X68614905Y-87438390D01*
X68608336Y-87473162D01*
X68608337Y-87473162D01*
X68608295Y-87473382D01*
X68608020Y-87474876D01*
X68608008Y-87474944D01*
X68601636Y-87510307D01*
X68601359Y-87511885D01*
X68601279Y-87512349D01*
X68595473Y-87546381D01*
X68595083Y-87548748D01*
X68595044Y-87548992D01*
X68590165Y-87579775D01*
X68590109Y-87580137D01*
X68589639Y-87583284D01*
X68589553Y-87583880D01*
X68585931Y-87609654D01*
X68585850Y-87610246D01*
X68585347Y-87614132D01*
X68585291Y-87614581D01*
X68582535Y-87637825D01*
X68582501Y-87638116D01*
X68582217Y-87640677D01*
X68582155Y-87641254D01*
X68578039Y-87681109D01*
X68577791Y-87683683D01*
X68577749Y-87684135D01*
X68574110Y-87725040D01*
X68573851Y-87728249D01*
X68573827Y-87728571D01*
X68571266Y-87763986D01*
X68571205Y-87764962D01*
X68570859Y-87771340D01*
X68570817Y-87772273D01*
X68567031Y-87877192D01*
X68567000Y-87878643D01*
X68566931Y-87889228D01*
X58590000Y-87889228D01*
X58590000Y-83700235D01*
X59640736Y-83700235D01*
X59642978Y-83708602D01*
X59650796Y-83737777D01*
X59652666Y-83746212D01*
X59654157Y-83754666D01*
X59659412Y-83784473D01*
X59663742Y-83791972D01*
X59665738Y-83797457D01*
X59668204Y-83802744D01*
X59670446Y-83811112D01*
X59682094Y-83827746D01*
X59692732Y-83842939D01*
X59697371Y-83850220D01*
X59716806Y-83883883D01*
X59742227Y-83905214D01*
X59746571Y-83908859D01*
X59752939Y-83914693D01*
X62718707Y-86880461D01*
X62746484Y-86934978D01*
X62746856Y-86963383D01*
X62736318Y-87043428D01*
X62756956Y-87200190D01*
X62817464Y-87346269D01*
X62913718Y-87471710D01*
X63039159Y-87567964D01*
X63185238Y-87628472D01*
X63342000Y-87649110D01*
X63498762Y-87628472D01*
X63644841Y-87567964D01*
X63770282Y-87471710D01*
X63866536Y-87346269D01*
X63927044Y-87200190D01*
X63947682Y-87043428D01*
X63927044Y-86886666D01*
X63866536Y-86740587D01*
X63770282Y-86615146D01*
X63644841Y-86518892D01*
X63498762Y-86458384D01*
X63342000Y-86437746D01*
X63261958Y-86448284D01*
X63201799Y-86437134D01*
X63179033Y-86420135D01*
X60324496Y-83565598D01*
X60296719Y-83511081D01*
X60295500Y-83495594D01*
X60295500Y-83443759D01*
X86438999Y-83443759D01*
X86475078Y-83679532D01*
X86499501Y-83754254D01*
X86547756Y-83901890D01*
X86549180Y-83906248D01*
X86551054Y-83909848D01*
X86620045Y-84042378D01*
X86659315Y-84117816D01*
X86717502Y-84195313D01*
X86781671Y-84280777D01*
X86802527Y-84308555D01*
X86974967Y-84473343D01*
X86978319Y-84475630D01*
X86978322Y-84475632D01*
X87137018Y-84583887D01*
X87172007Y-84607755D01*
X87175687Y-84609463D01*
X87175692Y-84609466D01*
X87262932Y-84649961D01*
X87388353Y-84708179D01*
X87392269Y-84709265D01*
X87614273Y-84770833D01*
X87614276Y-84770834D01*
X87618197Y-84771921D01*
X87622245Y-84772354D01*
X87622247Y-84772354D01*
X87679664Y-84778490D01*
X87812911Y-84792730D01*
X87951388Y-84792730D01*
X87953417Y-84792563D01*
X87953421Y-84792563D01*
X88124594Y-84778490D01*
X88124597Y-84778489D01*
X88128641Y-84778157D01*
X88132575Y-84777169D01*
X88132580Y-84777168D01*
X88332769Y-84726884D01*
X88359973Y-84720051D01*
X88521169Y-84649961D01*
X88574979Y-84626564D01*
X88574980Y-84626563D01*
X88578709Y-84624942D01*
X88716919Y-84535530D01*
X88775560Y-84497594D01*
X88775563Y-84497592D01*
X88778974Y-84495385D01*
X88785719Y-84489248D01*
X88950463Y-84339341D01*
X88955389Y-84334859D01*
X88957908Y-84331670D01*
X89100701Y-84150863D01*
X89100705Y-84150857D01*
X89103218Y-84147675D01*
X89156658Y-84050868D01*
X89216525Y-83942419D01*
X89216525Y-83942418D01*
X89218489Y-83938861D01*
X89220129Y-83934232D01*
X89288218Y-83741953D01*
X89298108Y-83714024D01*
X89339937Y-83479202D01*
X89340268Y-83452162D01*
X89341508Y-83350605D01*
X89342851Y-83240701D01*
X89306772Y-83004928D01*
X89248740Y-82827379D01*
X89233931Y-82782069D01*
X89233929Y-82782065D01*
X89232670Y-82778212D01*
X89151667Y-82622606D01*
X89124412Y-82570249D01*
X89124410Y-82570246D01*
X89122535Y-82566644D01*
X89023860Y-82435222D01*
X88981761Y-82379152D01*
X88979323Y-82375905D01*
X88806883Y-82211117D01*
X88803531Y-82208830D01*
X88803528Y-82208828D01*
X88613196Y-82078992D01*
X88613194Y-82078991D01*
X88609843Y-82076705D01*
X88606163Y-82074997D01*
X88606158Y-82074994D01*
X88508816Y-82029810D01*
X88393497Y-81976281D01*
X88286418Y-81946585D01*
X88167577Y-81913627D01*
X88167574Y-81913626D01*
X88163653Y-81912539D01*
X88159605Y-81912106D01*
X88159603Y-81912106D01*
X88088300Y-81904486D01*
X87968939Y-81891730D01*
X87830462Y-81891730D01*
X87828433Y-81891897D01*
X87828429Y-81891897D01*
X87657256Y-81905970D01*
X87657253Y-81905971D01*
X87653209Y-81906303D01*
X87649275Y-81907291D01*
X87649270Y-81907292D01*
X87521801Y-81939310D01*
X87421877Y-81964409D01*
X87374751Y-81984900D01*
X87207051Y-82057818D01*
X87203141Y-82059518D01*
X87164933Y-82084236D01*
X87006290Y-82186866D01*
X87006287Y-82186868D01*
X87002876Y-82189075D01*
X86999869Y-82191812D01*
X86999868Y-82191812D01*
X86952889Y-82234560D01*
X86826461Y-82349601D01*
X86823945Y-82352787D01*
X86823942Y-82352790D01*
X86681149Y-82533597D01*
X86681145Y-82533603D01*
X86678632Y-82536785D01*
X86563361Y-82745599D01*
X86483742Y-82970436D01*
X86441913Y-83205258D01*
X86441863Y-83209317D01*
X86441863Y-83209321D01*
X86440619Y-83311194D01*
X86438999Y-83443759D01*
X60295500Y-83443759D01*
X60295500Y-79564576D01*
X60793779Y-79564576D01*
X60795710Y-79579803D01*
X60813016Y-79639382D01*
X60821833Y-79656358D01*
X60862437Y-79707047D01*
X60868743Y-79713504D01*
X60873086Y-79716699D01*
X60912023Y-79741635D01*
X60917604Y-79744719D01*
X60928540Y-79749871D01*
X60929923Y-79750496D01*
X60940247Y-79754970D01*
X60941660Y-79755556D01*
X60963798Y-79764335D01*
X60964249Y-79764511D01*
X60969232Y-79766405D01*
X60969714Y-79766584D01*
X60999954Y-79777587D01*
X61000147Y-79777656D01*
X61003073Y-79778693D01*
X61003574Y-79778868D01*
X61040033Y-79791441D01*
X61040578Y-79791627D01*
X61042419Y-79792250D01*
X61042696Y-79792343D01*
X61084806Y-79806317D01*
X61085213Y-79806451D01*
X61086772Y-79806961D01*
X61133564Y-79822022D01*
X61134999Y-79822478D01*
X61135054Y-79822495D01*
X61185102Y-79838184D01*
X61185141Y-79838196D01*
X61186480Y-79838610D01*
X61238705Y-79854588D01*
X61238927Y-79854655D01*
X61240130Y-79855019D01*
X61293583Y-79870982D01*
X61293799Y-79871046D01*
X61295023Y-79871407D01*
X61295042Y-79871412D01*
X61295178Y-79871452D01*
X61348595Y-79887004D01*
X61348711Y-79887037D01*
X61348713Y-79887038D01*
X61350141Y-79887449D01*
X61350141Y-79887448D01*
X61350338Y-79887505D01*
X61402810Y-79902357D01*
X61402987Y-79902406D01*
X61402987Y-79902407D01*
X61404564Y-79902846D01*
X61404564Y-79902845D01*
X61404849Y-79902924D01*
X61455202Y-79916708D01*
X61455690Y-79916840D01*
X61457504Y-79917327D01*
X61457545Y-79917338D01*
X61505369Y-79929895D01*
X61506442Y-79930172D01*
X61506704Y-79930239D01*
X61506704Y-79930240D01*
X61508643Y-79930735D01*
X61508996Y-79930824D01*
X61511945Y-79931551D01*
X61512284Y-79931634D01*
X61679494Y-79971389D01*
X61731733Y-80003243D01*
X61755272Y-80059720D01*
X61741119Y-80119246D01*
X61694680Y-80159085D01*
X61677950Y-80164373D01*
X61665311Y-80167165D01*
X61607100Y-80180023D01*
X61607047Y-80180035D01*
X61606659Y-80180121D01*
X61599042Y-80181957D01*
X61598608Y-80182070D01*
X61598582Y-80182077D01*
X61481951Y-80212571D01*
X61360328Y-80244370D01*
X61360172Y-80244412D01*
X61360106Y-80244430D01*
X61356417Y-80245436D01*
X61356267Y-80245477D01*
X61352060Y-80246670D01*
X61350700Y-80247061D01*
X61311390Y-80258503D01*
X61311315Y-80258525D01*
X61311247Y-80258545D01*
X61309456Y-80259076D01*
X61266909Y-80271917D01*
X61265380Y-80272385D01*
X61220851Y-80286205D01*
X61219543Y-80286616D01*
X61174287Y-80300995D01*
X61173084Y-80301381D01*
X61128354Y-80315898D01*
X61127137Y-80316297D01*
X61084188Y-80330534D01*
X61082853Y-80330982D01*
X61042941Y-80344518D01*
X61042802Y-80344566D01*
X61042775Y-80344575D01*
X61041387Y-80345052D01*
X61041189Y-80345121D01*
X61037795Y-80346304D01*
X61005699Y-80357490D01*
X61003469Y-80358281D01*
X61003412Y-80358302D01*
X61003394Y-80358308D01*
X60993083Y-80362036D01*
X60973393Y-80369155D01*
X60973174Y-80369237D01*
X60973140Y-80369249D01*
X60973124Y-80369255D01*
X60969799Y-80370493D01*
X60946522Y-80379406D01*
X60939004Y-80382458D01*
X60938563Y-80382647D01*
X60931002Y-80385892D01*
X60923781Y-80388991D01*
X60895291Y-80403975D01*
X60889378Y-80407707D01*
X60848116Y-80442093D01*
X60806565Y-80510180D01*
X60805058Y-80519812D01*
X60795486Y-80580979D01*
X60794233Y-80588984D01*
X60794572Y-80597225D01*
X60794790Y-80599087D01*
X60794790Y-80599090D01*
X60797876Y-80625475D01*
X60798145Y-80627778D01*
X60801455Y-80644830D01*
X60803406Y-80653801D01*
X60803533Y-80654326D01*
X60809155Y-80677642D01*
X60809173Y-80677715D01*
X60809224Y-80677926D01*
X60810411Y-80682602D01*
X60818262Y-80712086D01*
X60818314Y-80712277D01*
X60818328Y-80712327D01*
X60818837Y-80714176D01*
X60819162Y-80715358D01*
X60819261Y-80715706D01*
X60828504Y-80748237D01*
X60828575Y-80748486D01*
X60829388Y-80751271D01*
X60836607Y-80775370D01*
X60839889Y-80786328D01*
X60840747Y-80789120D01*
X60851864Y-80824392D01*
X60852903Y-80827597D01*
X60864162Y-80861368D01*
X60867185Y-80869813D01*
X60921078Y-81010561D01*
X60926559Y-81023521D01*
X60991440Y-81163315D01*
X60997836Y-81175933D01*
X60998231Y-81176650D01*
X60998246Y-81176678D01*
X61023509Y-81222512D01*
X61071870Y-81310253D01*
X61079063Y-81322305D01*
X61096367Y-81349159D01*
X61158709Y-81445905D01*
X61161832Y-81450752D01*
X61169780Y-81462208D01*
X61170263Y-81462856D01*
X61170271Y-81462867D01*
X61260366Y-81583714D01*
X61260868Y-81584387D01*
X61261386Y-81585034D01*
X61261397Y-81585049D01*
X61268998Y-81594554D01*
X61269015Y-81594575D01*
X61269532Y-81595221D01*
X61270085Y-81595866D01*
X61270093Y-81595876D01*
X61319895Y-81653992D01*
X61368520Y-81710735D01*
X61377871Y-81720929D01*
X61378466Y-81721535D01*
X61378483Y-81721553D01*
X61483771Y-81828799D01*
X61483789Y-81828816D01*
X61484342Y-81829380D01*
X61494351Y-81838908D01*
X61522600Y-81864036D01*
X61607222Y-81939310D01*
X61607243Y-81939328D01*
X61607886Y-81939900D01*
X61608554Y-81940455D01*
X61608567Y-81940466D01*
X61615131Y-81945918D01*
X61618534Y-81948744D01*
X61619198Y-81949259D01*
X61619211Y-81949269D01*
X61664439Y-81984318D01*
X61738717Y-82041879D01*
X61749977Y-82050008D01*
X61876389Y-82134891D01*
X61877086Y-82135325D01*
X61877101Y-82135335D01*
X61887509Y-82141820D01*
X61887524Y-82141829D01*
X61888243Y-82142277D01*
X61888968Y-82142695D01*
X61888978Y-82142701D01*
X61975175Y-82192397D01*
X62020466Y-82218509D01*
X62032888Y-82225112D01*
X62067151Y-82241839D01*
X62137946Y-82276401D01*
X62170506Y-82292297D01*
X62171294Y-82292648D01*
X62171306Y-82292654D01*
X62178797Y-82295994D01*
X62183463Y-82298075D01*
X62326057Y-82355816D01*
X62326851Y-82356106D01*
X62326860Y-82356109D01*
X62338659Y-82360412D01*
X62338688Y-82360422D01*
X62339508Y-82360721D01*
X62386153Y-82375905D01*
X62485973Y-82408399D01*
X62486010Y-82408410D01*
X62486660Y-82408622D01*
X62498749Y-82412150D01*
X62499501Y-82412344D01*
X62499521Y-82412350D01*
X62553981Y-82426435D01*
X62621022Y-82443774D01*
X62625030Y-82444685D01*
X62632141Y-82446301D01*
X62632162Y-82446305D01*
X62632829Y-82446457D01*
X62709434Y-82461496D01*
X62764755Y-82472357D01*
X62764776Y-82472361D01*
X62765526Y-82472508D01*
X62778671Y-82474646D01*
X62911999Y-82491900D01*
X62912787Y-82491976D01*
X62912794Y-82491977D01*
X62915110Y-82492201D01*
X62925130Y-82493170D01*
X63061449Y-82501927D01*
X63073749Y-82502346D01*
X63215423Y-82502904D01*
X63215814Y-82502900D01*
X63215826Y-82502900D01*
X63218648Y-82502871D01*
X63221236Y-82502845D01*
X63225334Y-82502745D01*
X63228390Y-82502670D01*
X63228439Y-82502668D01*
X63228500Y-82502667D01*
X63229692Y-82502631D01*
X63230832Y-82502596D01*
X63231006Y-82502590D01*
X63301440Y-82500041D01*
X63301492Y-82500039D01*
X63301872Y-82500025D01*
X63302261Y-82500006D01*
X63302320Y-82500003D01*
X63307093Y-82499764D01*
X63307108Y-82499763D01*
X63307491Y-82499744D01*
X63307838Y-82499722D01*
X63307871Y-82499720D01*
X63361535Y-82496297D01*
X63371632Y-82495653D01*
X63372092Y-82495616D01*
X63372104Y-82495615D01*
X63373560Y-82495497D01*
X63378532Y-82495096D01*
X63378897Y-82495060D01*
X63378934Y-82495057D01*
X63439126Y-82489166D01*
X63439152Y-82489163D01*
X63439604Y-82489119D01*
X63440021Y-82489071D01*
X63440057Y-82489067D01*
X63446304Y-82488345D01*
X63446307Y-82488345D01*
X63446676Y-82488302D01*
X63508457Y-82480075D01*
X63514476Y-82479182D01*
X63514818Y-82479126D01*
X63514857Y-82479120D01*
X63580532Y-82468376D01*
X63580531Y-82468376D01*
X63580746Y-82468341D01*
X63584531Y-82467686D01*
X63613442Y-82462397D01*
X63614772Y-82462144D01*
X63615993Y-82461913D01*
X63616073Y-82461897D01*
X63616102Y-82461892D01*
X63616138Y-82461885D01*
X63616277Y-82461858D01*
X63644033Y-82456399D01*
X63648752Y-82455471D01*
X63651422Y-82454927D01*
X63682142Y-82448459D01*
X63682169Y-82448453D01*
X63682184Y-82448450D01*
X63683150Y-82448239D01*
X63685131Y-82447806D01*
X63691784Y-82446301D01*
X63711773Y-82441779D01*
X63711790Y-82441775D01*
X63712135Y-82441697D01*
X63716329Y-82440702D01*
X63716532Y-82440652D01*
X63716609Y-82440633D01*
X63737308Y-82435489D01*
X63737334Y-82435482D01*
X63737830Y-82435359D01*
X63738305Y-82435230D01*
X63738337Y-82435222D01*
X63743196Y-82433905D01*
X63746127Y-82433111D01*
X63760338Y-82428938D01*
X63794930Y-82415253D01*
X63800064Y-82412659D01*
X63801243Y-82411979D01*
X63801263Y-82411968D01*
X63810591Y-82406585D01*
X63819680Y-82401342D01*
X63876663Y-82345528D01*
X63907950Y-82272157D01*
X63908264Y-82241839D01*
X63908727Y-82197261D01*
X63908727Y-82197257D01*
X63908777Y-82192397D01*
X63908221Y-82189442D01*
X63906469Y-82181095D01*
X63903727Y-82169262D01*
X63903193Y-82167015D01*
X63898677Y-82148481D01*
X63898378Y-82147270D01*
X63892671Y-82124454D01*
X63892579Y-82124088D01*
X63892079Y-82122103D01*
X63891865Y-82121238D01*
X63876532Y-82057818D01*
X63876201Y-82056401D01*
X63860023Y-81984900D01*
X63859778Y-81983789D01*
X63843014Y-81905533D01*
X63842812Y-81904566D01*
X63840254Y-81892012D01*
X63826013Y-81822134D01*
X63825893Y-81821532D01*
X63809593Y-81737527D01*
X63809445Y-81736739D01*
X63794219Y-81653992D01*
X63794032Y-81652944D01*
X63793869Y-81652000D01*
X72736318Y-81652000D01*
X72756956Y-81808762D01*
X72817464Y-81954841D01*
X72913718Y-82080282D01*
X73039159Y-82176536D01*
X73185238Y-82237044D01*
X73342000Y-82257682D01*
X73498762Y-82237044D01*
X73525883Y-82225810D01*
X78103218Y-82225810D01*
X78104061Y-82235880D01*
X78116893Y-82303576D01*
X78124355Y-82321762D01*
X78157681Y-82371392D01*
X78171238Y-82384887D01*
X78225322Y-82420846D01*
X78233817Y-82425362D01*
X78236688Y-82426435D01*
X78258851Y-82433905D01*
X78261966Y-82434842D01*
X78275176Y-82438352D01*
X78276005Y-82438564D01*
X78282258Y-82440106D01*
X78283078Y-82440301D01*
X78305057Y-82445308D01*
X78305762Y-82445466D01*
X78308644Y-82446096D01*
X78309094Y-82446192D01*
X78337327Y-82452116D01*
X78337480Y-82452147D01*
X78339438Y-82452547D01*
X78339822Y-82452624D01*
X78372267Y-82459054D01*
X78373960Y-82459382D01*
X78374161Y-82459420D01*
X78408933Y-82465989D01*
X78408933Y-82465988D01*
X78409153Y-82466030D01*
X78410561Y-82466289D01*
X78410715Y-82466317D01*
X78446078Y-82472689D01*
X78447656Y-82472966D01*
X78448120Y-82473046D01*
X78481923Y-82478813D01*
X78482295Y-82478876D01*
X78484437Y-82479229D01*
X78484637Y-82479261D01*
X78515546Y-82484160D01*
X78515908Y-82484216D01*
X78519055Y-82484686D01*
X78519579Y-82484762D01*
X78545425Y-82488394D01*
X78546017Y-82488475D01*
X78549903Y-82488978D01*
X78550420Y-82489042D01*
X78573596Y-82491790D01*
X78573887Y-82491824D01*
X78576524Y-82492116D01*
X78577025Y-82492170D01*
X78616734Y-82496271D01*
X78616996Y-82496297D01*
X78619564Y-82496544D01*
X78619906Y-82496576D01*
X78660735Y-82500208D01*
X78660914Y-82500223D01*
X78664020Y-82500474D01*
X78664342Y-82500498D01*
X78699757Y-82503059D01*
X78700733Y-82503120D01*
X78707111Y-82503466D01*
X78708044Y-82503508D01*
X78812963Y-82507294D01*
X78814429Y-82507325D01*
X78824999Y-82507394D01*
X78826480Y-82507382D01*
X78979855Y-82503847D01*
X78981538Y-82503779D01*
X78994115Y-82503047D01*
X78995805Y-82502919D01*
X79147850Y-82488716D01*
X79149520Y-82488531D01*
X79161995Y-82486924D01*
X79163654Y-82486681D01*
X79313974Y-82461951D01*
X79315638Y-82461647D01*
X79327931Y-82459181D01*
X79329557Y-82458826D01*
X79339792Y-82456399D01*
X79351183Y-82449463D01*
X79355048Y-82440205D01*
X79355048Y-82313543D01*
X79755048Y-82313543D01*
X79758238Y-82323360D01*
X79771025Y-82322990D01*
X79795430Y-82313470D01*
X79796938Y-82312851D01*
X79808405Y-82307912D01*
X79810012Y-82307186D01*
X79948291Y-82241839D01*
X79949866Y-82241061D01*
X79960920Y-82235358D01*
X79962454Y-82234533D01*
X80096534Y-82159356D01*
X80097998Y-82158501D01*
X80108658Y-82152027D01*
X80110107Y-82151112D01*
X80239752Y-82066061D01*
X80240521Y-82065546D01*
X80246239Y-82061637D01*
X80246912Y-82061168D01*
X80258965Y-82052583D01*
X80259749Y-82052013D01*
X80265193Y-82047975D01*
X80266087Y-82047298D01*
X80388221Y-81953022D01*
X80389520Y-81951984D01*
X80399121Y-81944026D01*
X80400455Y-81942880D01*
X80515190Y-81840840D01*
X80516403Y-81839723D01*
X80525375Y-81831172D01*
X80526577Y-81829985D01*
X80633811Y-81720470D01*
X80634919Y-81719298D01*
X80643268Y-81710165D01*
X80644369Y-81708918D01*
X80743648Y-81592513D01*
X80744733Y-81591195D01*
X80752409Y-81581543D01*
X80753388Y-81580269D01*
X80844372Y-81457441D01*
X80845379Y-81456032D01*
X80852355Y-81445905D01*
X80853290Y-81444497D01*
X80860969Y-81432485D01*
X80863838Y-81421464D01*
X80860417Y-81419277D01*
X79770728Y-81419277D01*
X79758043Y-81423399D01*
X79755048Y-81427520D01*
X79755048Y-82313543D01*
X79355048Y-82313543D01*
X79355048Y-81434957D01*
X79350926Y-81422272D01*
X79346805Y-81419277D01*
X78269670Y-81419277D01*
X78256985Y-81423399D01*
X78252493Y-81429580D01*
X78237964Y-81529598D01*
X78237436Y-81532848D01*
X78189249Y-81801437D01*
X78188591Y-81804775D01*
X78131546Y-82069956D01*
X78131211Y-82071456D01*
X78128658Y-82082488D01*
X78128303Y-82084049D01*
X78128264Y-82084222D01*
X78120924Y-82117120D01*
X78120371Y-82119674D01*
X78120319Y-82119920D01*
X78114385Y-82148220D01*
X78114310Y-82148582D01*
X78113685Y-82151699D01*
X78113543Y-82152424D01*
X78109324Y-82174479D01*
X78109159Y-82175381D01*
X78108140Y-82181233D01*
X78107991Y-82182137D01*
X78105909Y-82195423D01*
X78105499Y-82198777D01*
X78103378Y-82222852D01*
X78103218Y-82225810D01*
X73525883Y-82225810D01*
X73644841Y-82176536D01*
X73770282Y-82080282D01*
X73819429Y-82016233D01*
X73869852Y-81981577D01*
X73897970Y-81977500D01*
X74793466Y-81977500D01*
X74802095Y-81977877D01*
X74840807Y-81981264D01*
X74878350Y-81971204D01*
X74886784Y-81969334D01*
X74916517Y-81964092D01*
X74916519Y-81964091D01*
X74925045Y-81962588D01*
X74932544Y-81958258D01*
X74938029Y-81956262D01*
X74943316Y-81953796D01*
X74951684Y-81951554D01*
X74983511Y-81929268D01*
X74990795Y-81924627D01*
X75009848Y-81913627D01*
X75024455Y-81905194D01*
X75049431Y-81875429D01*
X75055265Y-81869061D01*
X77600554Y-79323773D01*
X77655071Y-79295996D01*
X77670558Y-79294777D01*
X78228230Y-79294777D01*
X78286421Y-79313684D01*
X78322385Y-79363184D01*
X78327028Y-79387446D01*
X78337799Y-79555611D01*
X78337904Y-79557552D01*
X78339725Y-79598816D01*
X78347227Y-79768835D01*
X78347263Y-79769742D01*
X78353235Y-79940638D01*
X78353912Y-79960016D01*
X78354666Y-79963868D01*
X78360288Y-79992587D01*
X78366299Y-80023298D01*
X78370885Y-80030811D01*
X78370972Y-80031035D01*
X78374428Y-80092123D01*
X78370098Y-80104932D01*
X78366033Y-80114700D01*
X78353261Y-80178381D01*
X78352296Y-80188014D01*
X78352232Y-80228723D01*
X78352229Y-80229360D01*
X78352138Y-80240716D01*
X78352121Y-80241908D01*
X78351502Y-80272776D01*
X78351480Y-80273670D01*
X78350318Y-80313604D01*
X78350300Y-80314182D01*
X78348643Y-80361602D01*
X78348626Y-80362036D01*
X78346607Y-80413361D01*
X78346592Y-80413733D01*
X78344215Y-80468878D01*
X78344199Y-80469230D01*
X78341627Y-80524341D01*
X78341609Y-80524710D01*
X78338866Y-80579131D01*
X78338844Y-80579551D01*
X78336044Y-80630773D01*
X78336013Y-80631314D01*
X78333240Y-80677411D01*
X78333217Y-80677794D01*
X78332896Y-80682806D01*
X78332781Y-80684396D01*
X78309881Y-80969809D01*
X78309580Y-80972940D01*
X78306126Y-81003697D01*
X78308805Y-81016761D01*
X78310505Y-81018313D01*
X78314960Y-81019277D01*
X81070033Y-81019277D01*
X81085712Y-81014183D01*
X81090470Y-81008374D01*
X81093203Y-81001818D01*
X81093859Y-81000164D01*
X81147887Y-80856539D01*
X81148208Y-80855659D01*
X81150607Y-80848873D01*
X81150928Y-80847935D01*
X81155597Y-80833832D01*
X81156278Y-80831732D01*
X81156466Y-80831148D01*
X81166612Y-80799201D01*
X81166744Y-80798778D01*
X81166745Y-80798778D01*
X81167386Y-80796710D01*
X81167571Y-80796107D01*
X81177723Y-80762622D01*
X81177749Y-80762536D01*
X81178404Y-80760327D01*
X81178408Y-80760313D01*
X81187951Y-80727454D01*
X81188088Y-80726974D01*
X81188089Y-80726974D01*
X81188725Y-80724731D01*
X81188751Y-80724639D01*
X81197110Y-80694444D01*
X81197219Y-80694045D01*
X81198027Y-80691031D01*
X81198070Y-80690868D01*
X81204654Y-80665475D01*
X81204852Y-80664685D01*
X81206027Y-80659877D01*
X81206195Y-80659167D01*
X81210332Y-80641133D01*
X81210730Y-80639227D01*
X81213324Y-80625475D01*
X81213648Y-80623543D01*
X81214678Y-80616609D01*
X81215192Y-80610836D01*
X81216317Y-80573978D01*
X81214386Y-80558751D01*
X81197080Y-80499172D01*
X81188263Y-80482196D01*
X81147659Y-80431507D01*
X81141353Y-80425050D01*
X81137010Y-80421855D01*
X81098073Y-80396919D01*
X81092492Y-80393835D01*
X81081556Y-80388683D01*
X81080173Y-80388058D01*
X81069844Y-80383582D01*
X81068436Y-80382998D01*
X81046298Y-80374219D01*
X81045847Y-80374043D01*
X81040864Y-80372149D01*
X81040382Y-80371970D01*
X81010142Y-80360967D01*
X81009949Y-80360898D01*
X81007023Y-80359861D01*
X81006522Y-80359686D01*
X80970063Y-80347113D01*
X80969518Y-80346927D01*
X80967677Y-80346304D01*
X80967400Y-80346211D01*
X80925290Y-80332237D01*
X80924883Y-80332103D01*
X80923324Y-80331593D01*
X80876532Y-80316532D01*
X80875097Y-80316076D01*
X80875042Y-80316059D01*
X80824955Y-80300358D01*
X80823616Y-80299944D01*
X80823580Y-80299933D01*
X80823576Y-80299932D01*
X80771391Y-80283966D01*
X80771169Y-80283899D01*
X80769966Y-80283535D01*
X80716513Y-80267572D01*
X80716284Y-80267504D01*
X80715073Y-80267147D01*
X80715054Y-80267142D01*
X80714918Y-80267102D01*
X80661501Y-80251550D01*
X80661385Y-80251517D01*
X80661383Y-80251516D01*
X80659955Y-80251105D01*
X80659955Y-80251106D01*
X80659758Y-80251049D01*
X80607286Y-80236197D01*
X80607109Y-80236148D01*
X80607109Y-80236147D01*
X80605532Y-80235708D01*
X80605532Y-80235709D01*
X80605247Y-80235630D01*
X80554894Y-80221846D01*
X80554406Y-80221714D01*
X80552551Y-80221216D01*
X80504727Y-80208659D01*
X80503654Y-80208382D01*
X80503392Y-80208315D01*
X80503392Y-80208314D01*
X80501453Y-80207819D01*
X80501100Y-80207730D01*
X80498151Y-80207003D01*
X80497812Y-80206920D01*
X80330602Y-80167165D01*
X80278363Y-80135311D01*
X80254824Y-80078834D01*
X80268977Y-80019308D01*
X80315416Y-79979469D01*
X80332146Y-79974181D01*
X80354115Y-79969328D01*
X80402996Y-79958531D01*
X80403049Y-79958519D01*
X80403437Y-79958433D01*
X80411054Y-79956597D01*
X80411488Y-79956484D01*
X80411514Y-79956477D01*
X80559339Y-79917827D01*
X80649768Y-79894184D01*
X80649924Y-79894142D01*
X80649990Y-79894124D01*
X80653679Y-79893118D01*
X80653699Y-79893112D01*
X80653829Y-79893077D01*
X80658036Y-79891884D01*
X80659396Y-79891493D01*
X80698706Y-79880051D01*
X80698781Y-79880029D01*
X80698849Y-79880009D01*
X80700640Y-79879478D01*
X80743187Y-79866637D01*
X80744716Y-79866169D01*
X80789245Y-79852349D01*
X80790553Y-79851938D01*
X80835809Y-79837559D01*
X80835909Y-79837527D01*
X80836062Y-79837478D01*
X80837012Y-79837173D01*
X80845310Y-79834480D01*
X80881546Y-79822720D01*
X80881632Y-79822692D01*
X80881742Y-79822656D01*
X80882959Y-79822257D01*
X80925908Y-79808020D01*
X80927243Y-79807572D01*
X80967155Y-79794036D01*
X80967321Y-79793979D01*
X80968709Y-79793502D01*
X80968907Y-79793433D01*
X81004397Y-79781064D01*
X81006627Y-79780273D01*
X81007761Y-79779863D01*
X81036497Y-79769474D01*
X81036575Y-79769445D01*
X81036703Y-79769399D01*
X81036910Y-79769322D01*
X81036956Y-79769305D01*
X81038258Y-79768820D01*
X81040297Y-79768061D01*
X81063574Y-79759148D01*
X81071092Y-79756096D01*
X81071533Y-79755907D01*
X81084525Y-79750331D01*
X81086315Y-79749563D01*
X81114805Y-79734579D01*
X81120718Y-79730847D01*
X81136437Y-79717748D01*
X81155727Y-79701672D01*
X81161980Y-79696461D01*
X81203531Y-79628374D01*
X81210739Y-79582312D01*
X81215112Y-79554372D01*
X81215112Y-79554367D01*
X81215863Y-79549570D01*
X81215524Y-79541329D01*
X81214707Y-79534340D01*
X81212167Y-79512619D01*
X81212165Y-79512607D01*
X81211951Y-79510776D01*
X81208641Y-79493724D01*
X81206690Y-79484753D01*
X81203875Y-79473079D01*
X81200941Y-79460912D01*
X81200923Y-79460839D01*
X81200872Y-79460628D01*
X81199685Y-79455952D01*
X81191834Y-79426468D01*
X81190934Y-79423196D01*
X81181521Y-79390068D01*
X81180708Y-79387283D01*
X81170207Y-79352226D01*
X81169349Y-79349434D01*
X81161261Y-79323773D01*
X81158274Y-79314294D01*
X81158193Y-79314041D01*
X81157903Y-79313148D01*
X81157193Y-79310957D01*
X81145934Y-79277186D01*
X81142911Y-79268741D01*
X81089018Y-79127993D01*
X81083537Y-79115033D01*
X81018656Y-78975239D01*
X81012260Y-78962621D01*
X81011865Y-78961904D01*
X81011850Y-78961876D01*
X80950674Y-78850885D01*
X80938226Y-78828301D01*
X80931033Y-78816249D01*
X80879408Y-78736133D01*
X80848722Y-78688512D01*
X80848709Y-78688492D01*
X80848264Y-78687802D01*
X80840316Y-78676346D01*
X80839082Y-78674690D01*
X80749730Y-78554840D01*
X80749723Y-78554830D01*
X80749228Y-78554167D01*
X80742730Y-78546041D01*
X80741098Y-78544000D01*
X80741081Y-78543979D01*
X80740564Y-78543333D01*
X80691212Y-78485741D01*
X80642140Y-78428477D01*
X80642136Y-78428472D01*
X80641576Y-78427819D01*
X80632225Y-78417625D01*
X80631630Y-78417019D01*
X80631613Y-78417001D01*
X80526325Y-78309755D01*
X80526307Y-78309738D01*
X80525754Y-78309174D01*
X80515745Y-78299646D01*
X80451129Y-78242168D01*
X80402874Y-78199244D01*
X80402853Y-78199226D01*
X80402210Y-78198654D01*
X80397243Y-78194528D01*
X80392224Y-78190360D01*
X80391562Y-78189810D01*
X80346340Y-78154765D01*
X80272055Y-78097199D01*
X80271379Y-78096675D01*
X80260119Y-78088546D01*
X80133707Y-78003663D01*
X80133010Y-78003229D01*
X80132995Y-78003219D01*
X80122587Y-77996734D01*
X80122572Y-77996725D01*
X80121853Y-77996277D01*
X80111093Y-77990073D01*
X79990367Y-77920470D01*
X79989630Y-77920045D01*
X79977208Y-77913442D01*
X79839590Y-77846257D01*
X79838802Y-77845906D01*
X79838790Y-77845900D01*
X79827440Y-77840839D01*
X79826633Y-77840479D01*
X79684039Y-77782738D01*
X79683236Y-77782445D01*
X79671437Y-77778142D01*
X79671408Y-77778132D01*
X79670588Y-77777833D01*
X79596350Y-77753667D01*
X79524123Y-77730155D01*
X79524086Y-77730144D01*
X79523436Y-77729932D01*
X79511347Y-77726404D01*
X79510595Y-77726210D01*
X79510575Y-77726204D01*
X79430851Y-77705585D01*
X79389074Y-77694780D01*
X79385066Y-77693869D01*
X79377955Y-77692253D01*
X79377934Y-77692249D01*
X79377267Y-77692097D01*
X79295956Y-77676134D01*
X79245341Y-77666197D01*
X79245320Y-77666193D01*
X79244570Y-77666046D01*
X79231425Y-77663908D01*
X79098097Y-77646654D01*
X79097309Y-77646578D01*
X79097302Y-77646577D01*
X79094986Y-77646353D01*
X79084966Y-77645384D01*
X78948647Y-77636627D01*
X78936347Y-77636208D01*
X78794673Y-77635650D01*
X78794282Y-77635654D01*
X78794270Y-77635654D01*
X78791448Y-77635683D01*
X78788860Y-77635709D01*
X78784762Y-77635809D01*
X78781706Y-77635884D01*
X78781657Y-77635886D01*
X78781596Y-77635887D01*
X78780404Y-77635923D01*
X78779264Y-77635958D01*
X78779090Y-77635964D01*
X78708656Y-77638513D01*
X78708604Y-77638515D01*
X78708224Y-77638529D01*
X78707835Y-77638548D01*
X78707776Y-77638551D01*
X78703003Y-77638790D01*
X78702988Y-77638791D01*
X78702605Y-77638810D01*
X78702258Y-77638832D01*
X78702225Y-77638834D01*
X78652935Y-77641978D01*
X78638464Y-77642901D01*
X78638004Y-77642938D01*
X78637992Y-77642939D01*
X78636536Y-77643057D01*
X78631564Y-77643458D01*
X78631199Y-77643494D01*
X78631162Y-77643497D01*
X78570970Y-77649388D01*
X78570944Y-77649391D01*
X78570492Y-77649435D01*
X78570075Y-77649483D01*
X78570039Y-77649487D01*
X78564917Y-77650079D01*
X78563420Y-77650252D01*
X78501639Y-77658479D01*
X78495620Y-77659372D01*
X78495278Y-77659428D01*
X78495239Y-77659434D01*
X78454822Y-77666046D01*
X78429350Y-77670213D01*
X78425565Y-77670868D01*
X78396654Y-77676157D01*
X78395324Y-77676409D01*
X78394103Y-77676641D01*
X78394023Y-77676657D01*
X78393994Y-77676662D01*
X78393958Y-77676669D01*
X78393819Y-77676696D01*
X78373204Y-77680751D01*
X78361344Y-77683083D01*
X78358674Y-77683627D01*
X78327954Y-77690095D01*
X78327927Y-77690101D01*
X78327912Y-77690104D01*
X78326946Y-77690315D01*
X78324965Y-77690748D01*
X78324797Y-77690786D01*
X78324788Y-77690788D01*
X78307885Y-77694612D01*
X78297961Y-77696857D01*
X78293767Y-77697852D01*
X78293564Y-77697902D01*
X78293487Y-77697921D01*
X78272788Y-77703065D01*
X78272762Y-77703072D01*
X78272266Y-77703195D01*
X78271791Y-77703324D01*
X78271759Y-77703332D01*
X78268067Y-77704333D01*
X78263969Y-77705443D01*
X78249758Y-77709616D01*
X78215166Y-77723301D01*
X78210032Y-77725895D01*
X78208853Y-77726575D01*
X78208833Y-77726586D01*
X78202648Y-77730155D01*
X78190416Y-77737212D01*
X78133433Y-77793026D01*
X78102146Y-77866397D01*
X78102045Y-77876147D01*
X78101386Y-77939730D01*
X78101319Y-77946157D01*
X78101875Y-77949112D01*
X78102190Y-77950613D01*
X78103407Y-77956409D01*
X78103627Y-77957459D01*
X78106369Y-77969292D01*
X78106432Y-77969557D01*
X78106863Y-77971372D01*
X78106903Y-77971539D01*
X78106961Y-77971777D01*
X78111419Y-77990073D01*
X78111718Y-77991284D01*
X78117377Y-78013909D01*
X78117405Y-78014020D01*
X78117425Y-78014100D01*
X78117517Y-78014465D01*
X78118003Y-78016394D01*
X78118231Y-78017316D01*
X78133564Y-78080736D01*
X78133895Y-78082153D01*
X78150073Y-78153654D01*
X78150318Y-78154765D01*
X78167082Y-78233021D01*
X78167271Y-78233925D01*
X78182491Y-78308605D01*
X78184070Y-78316353D01*
X78184203Y-78317022D01*
X78200503Y-78401027D01*
X78200651Y-78401815D01*
X78215877Y-78484562D01*
X78216064Y-78485610D01*
X78223378Y-78527909D01*
X78214662Y-78588470D01*
X78172014Y-78632342D01*
X78125826Y-78643777D01*
X77513249Y-78643777D01*
X77504621Y-78643400D01*
X77501299Y-78643109D01*
X77465916Y-78640014D01*
X77457553Y-78642255D01*
X77457550Y-78642255D01*
X77428379Y-78650071D01*
X77419952Y-78651940D01*
X77381678Y-78658689D01*
X77374177Y-78663020D01*
X77368683Y-78665019D01*
X77363401Y-78667482D01*
X77355039Y-78669723D01*
X77347946Y-78674690D01*
X77347945Y-78674690D01*
X77323201Y-78692016D01*
X77315942Y-78696641D01*
X77282268Y-78716083D01*
X77276698Y-78722721D01*
X77257298Y-78745841D01*
X77251464Y-78752209D01*
X75970052Y-80033622D01*
X74706170Y-81297504D01*
X74651653Y-81325281D01*
X74636166Y-81326500D01*
X73897970Y-81326500D01*
X73839779Y-81307593D01*
X73819428Y-81287767D01*
X73774236Y-81228871D01*
X73770282Y-81223718D01*
X73644841Y-81127464D01*
X73498762Y-81066956D01*
X73342000Y-81046318D01*
X73185238Y-81066956D01*
X73039159Y-81127464D01*
X72913718Y-81223718D01*
X72817464Y-81349159D01*
X72756956Y-81495238D01*
X72736318Y-81652000D01*
X63793869Y-81652000D01*
X63786718Y-81610645D01*
X63795434Y-81550084D01*
X63838082Y-81506212D01*
X63884270Y-81494777D01*
X71110475Y-81494777D01*
X71119104Y-81495154D01*
X71157816Y-81498541D01*
X71195359Y-81488481D01*
X71203793Y-81486611D01*
X71233526Y-81481369D01*
X71233528Y-81481368D01*
X71242054Y-81479865D01*
X71249553Y-81475535D01*
X71255038Y-81473539D01*
X71260325Y-81471073D01*
X71268693Y-81468831D01*
X71300520Y-81446545D01*
X71307804Y-81441904D01*
X71323005Y-81433128D01*
X71341464Y-81422471D01*
X71366440Y-81392706D01*
X71372274Y-81386338D01*
X73179033Y-79579579D01*
X73233550Y-79551802D01*
X73261955Y-79551430D01*
X73342000Y-79561968D01*
X73498762Y-79541330D01*
X73644841Y-79480822D01*
X73770282Y-79384568D01*
X73866536Y-79259127D01*
X73923422Y-79121793D01*
X73924560Y-79119045D01*
X73927044Y-79113048D01*
X73947682Y-78956286D01*
X73927044Y-78799524D01*
X73866536Y-78653445D01*
X73770282Y-78528004D01*
X73644841Y-78431750D01*
X73498762Y-78371242D01*
X73342000Y-78350604D01*
X73185238Y-78371242D01*
X73039159Y-78431750D01*
X72913718Y-78528004D01*
X72817464Y-78653445D01*
X72756956Y-78799524D01*
X72736318Y-78956286D01*
X72746856Y-79036328D01*
X72735706Y-79096487D01*
X72718707Y-79119253D01*
X71023179Y-80814781D01*
X70968662Y-80842558D01*
X70953175Y-80843777D01*
X63781866Y-80843777D01*
X63723675Y-80824870D01*
X63687711Y-80775370D01*
X63683068Y-80751105D01*
X63683021Y-80750361D01*
X63672296Y-80582917D01*
X63672191Y-80580979D01*
X63672110Y-80579131D01*
X63668581Y-80499172D01*
X63662869Y-80369719D01*
X63662833Y-80368812D01*
X63656321Y-80182458D01*
X63656184Y-80178538D01*
X63653445Y-80164547D01*
X63645488Y-80123894D01*
X63645488Y-80123893D01*
X63643797Y-80115256D01*
X63639211Y-80107743D01*
X63639124Y-80107519D01*
X63635668Y-80046431D01*
X63639998Y-80033622D01*
X63644063Y-80023854D01*
X63656835Y-79960173D01*
X63657800Y-79950540D01*
X63657864Y-79909831D01*
X63657867Y-79909194D01*
X63657958Y-79897838D01*
X63657975Y-79896646D01*
X63658594Y-79865778D01*
X63658616Y-79864884D01*
X63659778Y-79824950D01*
X63659796Y-79824372D01*
X63661458Y-79776811D01*
X63661475Y-79776376D01*
X63663489Y-79725192D01*
X63663504Y-79724820D01*
X63665886Y-79669568D01*
X63665902Y-79669217D01*
X63668469Y-79614213D01*
X63668487Y-79613844D01*
X63671230Y-79559423D01*
X63671252Y-79559003D01*
X63674052Y-79507781D01*
X63674083Y-79507240D01*
X63676856Y-79461143D01*
X63676879Y-79460760D01*
X63677200Y-79455748D01*
X63677315Y-79454158D01*
X63700215Y-79168745D01*
X63700516Y-79165614D01*
X63703970Y-79134857D01*
X63701291Y-79121793D01*
X63699591Y-79120241D01*
X63695136Y-79119277D01*
X60940063Y-79119277D01*
X60924384Y-79124371D01*
X60919626Y-79130180D01*
X60916893Y-79136736D01*
X60916237Y-79138390D01*
X60862215Y-79281998D01*
X60861888Y-79282895D01*
X60859489Y-79289681D01*
X60859168Y-79290619D01*
X60854499Y-79304722D01*
X60853818Y-79306821D01*
X60853630Y-79307406D01*
X60843484Y-79339353D01*
X60843352Y-79339776D01*
X60843351Y-79339776D01*
X60842710Y-79341844D01*
X60842525Y-79342447D01*
X60832373Y-79375932D01*
X60831692Y-79378227D01*
X60822176Y-79410993D01*
X60822008Y-79411580D01*
X60822007Y-79411580D01*
X60821371Y-79413823D01*
X60812986Y-79444110D01*
X60812877Y-79444509D01*
X60812089Y-79447448D01*
X60812026Y-79447686D01*
X60805442Y-79473079D01*
X60805244Y-79473869D01*
X60804069Y-79478677D01*
X60803901Y-79479387D01*
X60799764Y-79497421D01*
X60799366Y-79499327D01*
X60796772Y-79513079D01*
X60796448Y-79515011D01*
X60795418Y-79521945D01*
X60794904Y-79527718D01*
X60793779Y-79564576D01*
X60295500Y-79564576D01*
X60295500Y-78717090D01*
X61146258Y-78717090D01*
X61149679Y-78719277D01*
X62239368Y-78719277D01*
X62252053Y-78715155D01*
X62255048Y-78711034D01*
X62255048Y-78703597D01*
X62655048Y-78703597D01*
X62659170Y-78716282D01*
X62663291Y-78719277D01*
X63740426Y-78719277D01*
X63753111Y-78715155D01*
X63757603Y-78708974D01*
X63772132Y-78608956D01*
X63772660Y-78605706D01*
X63820847Y-78337117D01*
X63821505Y-78333779D01*
X63878550Y-78068598D01*
X63878885Y-78067098D01*
X63881438Y-78056066D01*
X63881793Y-78054505D01*
X63881832Y-78054332D01*
X63889172Y-78021434D01*
X63889190Y-78021351D01*
X63889725Y-78018880D01*
X63889777Y-78018634D01*
X63895728Y-77990255D01*
X63895806Y-77989871D01*
X63896411Y-77986855D01*
X63896553Y-77986130D01*
X63900772Y-77964075D01*
X63900937Y-77963173D01*
X63901963Y-77957278D01*
X63902106Y-77956409D01*
X63904187Y-77943131D01*
X63904597Y-77939777D01*
X63906718Y-77915702D01*
X63906878Y-77912744D01*
X63906035Y-77902674D01*
X63893203Y-77834978D01*
X63885741Y-77816792D01*
X63852415Y-77767162D01*
X63838858Y-77753667D01*
X63784774Y-77717708D01*
X63776279Y-77713192D01*
X63773408Y-77712119D01*
X63751245Y-77704649D01*
X63748130Y-77703712D01*
X63734920Y-77700202D01*
X63734091Y-77699990D01*
X63727838Y-77698448D01*
X63727018Y-77698253D01*
X63705039Y-77693246D01*
X63704334Y-77693088D01*
X63701452Y-77692458D01*
X63701002Y-77692362D01*
X63672769Y-77686438D01*
X63672616Y-77686407D01*
X63670658Y-77686007D01*
X63670274Y-77685930D01*
X63637829Y-77679500D01*
X63636136Y-77679172D01*
X63635935Y-77679134D01*
X63601163Y-77672565D01*
X63601163Y-77672566D01*
X63600943Y-77672524D01*
X63599535Y-77672265D01*
X63599381Y-77672237D01*
X63564018Y-77665865D01*
X63562440Y-77665588D01*
X63561976Y-77665508D01*
X63528173Y-77659741D01*
X63527801Y-77659678D01*
X63525659Y-77659325D01*
X63525459Y-77659293D01*
X63494550Y-77654394D01*
X63494188Y-77654338D01*
X63491041Y-77653868D01*
X63490517Y-77653792D01*
X63464671Y-77650160D01*
X63464079Y-77650079D01*
X63460193Y-77649576D01*
X63459676Y-77649512D01*
X63436500Y-77646764D01*
X63436209Y-77646730D01*
X63433572Y-77646438D01*
X63433071Y-77646384D01*
X63393362Y-77642283D01*
X63393100Y-77642257D01*
X63390532Y-77642010D01*
X63390190Y-77641978D01*
X63349361Y-77638346D01*
X63349182Y-77638331D01*
X63346076Y-77638080D01*
X63345754Y-77638056D01*
X63310339Y-77635495D01*
X63309363Y-77635434D01*
X63302985Y-77635088D01*
X63302052Y-77635046D01*
X63197133Y-77631260D01*
X63195667Y-77631229D01*
X63185097Y-77631160D01*
X63183616Y-77631172D01*
X63030241Y-77634707D01*
X63028558Y-77634775D01*
X63015981Y-77635507D01*
X63014291Y-77635635D01*
X62862246Y-77649838D01*
X62860576Y-77650023D01*
X62848101Y-77651630D01*
X62846442Y-77651873D01*
X62696122Y-77676603D01*
X62694458Y-77676907D01*
X62682165Y-77679373D01*
X62680539Y-77679728D01*
X62670304Y-77682155D01*
X62658913Y-77689091D01*
X62655048Y-77698349D01*
X62655048Y-78703597D01*
X62255048Y-78703597D01*
X62255048Y-77825011D01*
X62251858Y-77815194D01*
X62239071Y-77815564D01*
X62214666Y-77825084D01*
X62213158Y-77825703D01*
X62201691Y-77830642D01*
X62200084Y-77831368D01*
X62061805Y-77896715D01*
X62060230Y-77897493D01*
X62049176Y-77903196D01*
X62047642Y-77904021D01*
X61913562Y-77979198D01*
X61912098Y-77980053D01*
X61901438Y-77986527D01*
X61899989Y-77987442D01*
X61770344Y-78072493D01*
X61769575Y-78073008D01*
X61763857Y-78076917D01*
X61763184Y-78077386D01*
X61751131Y-78085971D01*
X61750347Y-78086541D01*
X61744903Y-78090579D01*
X61744009Y-78091256D01*
X61621875Y-78185532D01*
X61620576Y-78186570D01*
X61610975Y-78194528D01*
X61609641Y-78195674D01*
X61494906Y-78297714D01*
X61493693Y-78298831D01*
X61484721Y-78307382D01*
X61483519Y-78308569D01*
X61376285Y-78418084D01*
X61375177Y-78419256D01*
X61366828Y-78428389D01*
X61365727Y-78429636D01*
X61266448Y-78546041D01*
X61265363Y-78547359D01*
X61257687Y-78557011D01*
X61256708Y-78558285D01*
X61165724Y-78681113D01*
X61164717Y-78682522D01*
X61157741Y-78692649D01*
X61156806Y-78694057D01*
X61149127Y-78706069D01*
X61146258Y-78717090D01*
X60295500Y-78717090D01*
X60295500Y-76260572D01*
X72736318Y-76260572D01*
X72756956Y-76417334D01*
X72817464Y-76563413D01*
X72913718Y-76688854D01*
X73039159Y-76785108D01*
X73185238Y-76845616D01*
X73342000Y-76866254D01*
X73498762Y-76845616D01*
X73644841Y-76785108D01*
X73770282Y-76688854D01*
X73819429Y-76624805D01*
X73869852Y-76590149D01*
X73897970Y-76586072D01*
X83247585Y-76586072D01*
X83305776Y-76604979D01*
X83317589Y-76615068D01*
X85765418Y-79062895D01*
X85771252Y-79069262D01*
X85796232Y-79099032D01*
X85825262Y-79115792D01*
X85829892Y-79118465D01*
X85837176Y-79123106D01*
X85869003Y-79145392D01*
X85877370Y-79147634D01*
X85882651Y-79150097D01*
X85888141Y-79152095D01*
X85895642Y-79156426D01*
X85919795Y-79160685D01*
X85933909Y-79163174D01*
X85942338Y-79165043D01*
X85965833Y-79171338D01*
X85979881Y-79175102D01*
X86018596Y-79171715D01*
X86027225Y-79171338D01*
X88980004Y-79171338D01*
X89038195Y-79190245D01*
X89050008Y-79200334D01*
X90033249Y-80183575D01*
X90061026Y-80238092D01*
X90062245Y-80253579D01*
X90062245Y-98691052D01*
X90043338Y-98749243D01*
X89993838Y-98785207D01*
X89963245Y-98790052D01*
X89750172Y-98790052D01*
X89691981Y-98771145D01*
X89659616Y-98730089D01*
X89658112Y-98722527D01*
X89613797Y-98656206D01*
X89547476Y-98611891D01*
X89537913Y-98609989D01*
X89537911Y-98609988D01*
X89504822Y-98603407D01*
X89469245Y-98596330D01*
X83658995Y-98596330D01*
X83623418Y-98603407D01*
X83590329Y-98609988D01*
X83590327Y-98609989D01*
X83580764Y-98611891D01*
X83514443Y-98656206D01*
X83470128Y-98722527D01*
X83468226Y-98732090D01*
X83468225Y-98732092D01*
X83467412Y-98736181D01*
X83454567Y-98800758D01*
X83454567Y-100931322D01*
X83454571Y-101050317D01*
X83454571Y-101050331D01*
X83454584Y-101178207D01*
X83454584Y-101178223D01*
X83454607Y-101303904D01*
X83454607Y-101303920D01*
X83454639Y-101427176D01*
X83454639Y-101427192D01*
X83454680Y-101547795D01*
X83454680Y-101547811D01*
X83454729Y-101665529D01*
X83454729Y-101665547D01*
X83454787Y-101780151D01*
X83454787Y-101780167D01*
X83454852Y-101891428D01*
X83454852Y-101891448D01*
X83454925Y-101999136D01*
X83454925Y-101999154D01*
X83455005Y-102103040D01*
X83455005Y-102103061D01*
X83455092Y-102202913D01*
X83455092Y-102202936D01*
X83455186Y-102298527D01*
X83455186Y-102298553D01*
X83455287Y-102389651D01*
X83455287Y-102389675D01*
X83455393Y-102476052D01*
X83455393Y-102476085D01*
X83455506Y-102557511D01*
X83455506Y-102557543D01*
X83455624Y-102633787D01*
X83455624Y-102633826D01*
X83455747Y-102704660D01*
X83455747Y-102704710D01*
X83455876Y-102769904D01*
X83455877Y-102769957D01*
X83456010Y-102828863D01*
X83456010Y-102829352D01*
X83456148Y-102882575D01*
X83456148Y-102882664D01*
X83456290Y-102929558D01*
X83456289Y-102929558D01*
X83456290Y-102929679D01*
X83456436Y-102970014D01*
X83456437Y-102970182D01*
X83456586Y-103003727D01*
X83456587Y-103003998D01*
X83456740Y-103030525D01*
X83456743Y-103030907D01*
X83456714Y-103031000D01*
X83456744Y-103031000D01*
X83456900Y-103050279D01*
X83456910Y-103051256D01*
X83456911Y-103051362D01*
X83457058Y-103062306D01*
X83457069Y-103063162D01*
X83457080Y-103063561D01*
X83457170Y-103066970D01*
X83457209Y-103068460D01*
X83457370Y-103072553D01*
X83458129Y-103076364D01*
X83468116Y-103126530D01*
X83469867Y-103135327D01*
X83511562Y-103203325D01*
X83519449Y-103209052D01*
X83519451Y-103209054D01*
X83551024Y-103231980D01*
X83576106Y-103250192D01*
X83629076Y-103262893D01*
X83648941Y-103267657D01*
X83648943Y-103267657D01*
X83653671Y-103268791D01*
X83655901Y-103268878D01*
X83661429Y-103269018D01*
X83671227Y-103269135D01*
X83671329Y-103269136D01*
X83671334Y-103269136D01*
X83672309Y-103269145D01*
X83689753Y-103269261D01*
X83689753Y-103269287D01*
X83689913Y-103269262D01*
X83690169Y-103269264D01*
X83690296Y-103269265D01*
X83690307Y-103269265D01*
X83715090Y-103269379D01*
X83715316Y-103269380D01*
X83747546Y-103269493D01*
X83747687Y-103269493D01*
X83787059Y-103269604D01*
X83787154Y-103269604D01*
X83833468Y-103269713D01*
X83833511Y-103269713D01*
X83833566Y-103269714D01*
X83886714Y-103269821D01*
X83886764Y-103269821D01*
X83946549Y-103269927D01*
X83946593Y-103269927D01*
X84012846Y-103270030D01*
X84012879Y-103270030D01*
X84085431Y-103270131D01*
X84085461Y-103270131D01*
X84164146Y-103270229D01*
X84164169Y-103270229D01*
X84248816Y-103270325D01*
X84248836Y-103270325D01*
X84339280Y-103270419D01*
X84339298Y-103270419D01*
X84435368Y-103270510D01*
X84435385Y-103270510D01*
X84536914Y-103270598D01*
X84536928Y-103270598D01*
X84643749Y-103270683D01*
X84643764Y-103270683D01*
X84755706Y-103270764D01*
X84755716Y-103270764D01*
X84872614Y-103270843D01*
X84872624Y-103270843D01*
X84994307Y-103270919D01*
X84994318Y-103270919D01*
X85120620Y-103270991D01*
X85120631Y-103270991D01*
X85251382Y-103271059D01*
X85251390Y-103271059D01*
X85386423Y-103271124D01*
X85386431Y-103271124D01*
X85525578Y-103271185D01*
X85525585Y-103271185D01*
X85668677Y-103271243D01*
X85668686Y-103271243D01*
X85815555Y-103271296D01*
X85815561Y-103271296D01*
X85966038Y-103271346D01*
X85966046Y-103271346D01*
X86119965Y-103271391D01*
X86119972Y-103271391D01*
X86277163Y-103271432D01*
X86277170Y-103271432D01*
X86437466Y-103271468D01*
X86437471Y-103271468D01*
X86600702Y-103271501D01*
X86600710Y-103271501D01*
X86766710Y-103271528D01*
X86766715Y-103271528D01*
X86935315Y-103271551D01*
X86935323Y-103271551D01*
X87106354Y-103271568D01*
X87106359Y-103271568D01*
X87279653Y-103271581D01*
X87279659Y-103271581D01*
X87455049Y-103271589D01*
X87455055Y-103271589D01*
X87632372Y-103271592D01*
X91600463Y-103271592D01*
X91636040Y-103264515D01*
X91669129Y-103257934D01*
X91669131Y-103257933D01*
X91678694Y-103256031D01*
X91745015Y-103211716D01*
X91789330Y-103145395D01*
X91791272Y-103135636D01*
X91803061Y-103076364D01*
X91804891Y-103067164D01*
X91804891Y-98800758D01*
X91792046Y-98736181D01*
X91791233Y-98732092D01*
X91791232Y-98732090D01*
X91789330Y-98722527D01*
X91745015Y-98656206D01*
X91678694Y-98611891D01*
X91669131Y-98609989D01*
X91669129Y-98609988D01*
X91636040Y-98603407D01*
X91600463Y-98596330D01*
X91298838Y-98596330D01*
X91263261Y-98603407D01*
X91230172Y-98609988D01*
X91230170Y-98609989D01*
X91220607Y-98611891D01*
X91154286Y-98656206D01*
X91109971Y-98722527D01*
X91108490Y-98729973D01*
X91069639Y-98775463D01*
X91017911Y-98790052D01*
X90812245Y-98790052D01*
X90754054Y-98771145D01*
X90718090Y-98721645D01*
X90713245Y-98691052D01*
X90713245Y-80096279D01*
X90713622Y-80087650D01*
X90716254Y-80057567D01*
X90717009Y-80048938D01*
X90714593Y-80039920D01*
X90706949Y-80011396D01*
X90705079Y-80002961D01*
X90704433Y-79999294D01*
X90702576Y-79988766D01*
X90699837Y-79973228D01*
X90699836Y-79973226D01*
X90698333Y-79964700D01*
X90694003Y-79957201D01*
X90692007Y-79951716D01*
X90689541Y-79946429D01*
X90687299Y-79938061D01*
X90665013Y-79906234D01*
X90660372Y-79898950D01*
X90658489Y-79895688D01*
X90640939Y-79865290D01*
X90611174Y-79840314D01*
X90604806Y-79834480D01*
X89661148Y-78890822D01*
X89633371Y-78836305D01*
X89642942Y-78775873D01*
X89686207Y-78732608D01*
X89731152Y-78721818D01*
X97874766Y-78721818D01*
X97932957Y-78740725D01*
X97944770Y-78750814D01*
X101558249Y-82364293D01*
X101586026Y-82418810D01*
X101587245Y-82434297D01*
X101587245Y-98690858D01*
X101568338Y-98749049D01*
X101518838Y-98785013D01*
X101488245Y-98789858D01*
X101275172Y-98789858D01*
X101216981Y-98770951D01*
X101184616Y-98729895D01*
X101183112Y-98722333D01*
X101138797Y-98656012D01*
X101072476Y-98611697D01*
X101062913Y-98609795D01*
X101062911Y-98609794D01*
X101029822Y-98603213D01*
X100994245Y-98596136D01*
X95183995Y-98596136D01*
X95148418Y-98603213D01*
X95115329Y-98609794D01*
X95115327Y-98609795D01*
X95105764Y-98611697D01*
X95039443Y-98656012D01*
X94995128Y-98722333D01*
X94993226Y-98731896D01*
X94993225Y-98731898D01*
X94992519Y-98735449D01*
X94979567Y-98800564D01*
X94979567Y-100931131D01*
X94979571Y-101050120D01*
X94979571Y-101050147D01*
X94979584Y-101178003D01*
X94979584Y-101178047D01*
X94979607Y-101303692D01*
X94979607Y-101303752D01*
X94979639Y-101426956D01*
X94979639Y-101427032D01*
X94979680Y-101547567D01*
X94979680Y-101547658D01*
X94979729Y-101665294D01*
X94979729Y-101665403D01*
X94979787Y-101779907D01*
X94979787Y-101780031D01*
X94979852Y-101891176D01*
X94979852Y-101891321D01*
X94979925Y-101998875D01*
X94979925Y-101999036D01*
X94980005Y-102102770D01*
X94980005Y-102102953D01*
X94980092Y-102202633D01*
X94980092Y-102202839D01*
X94980186Y-102298236D01*
X94980186Y-102298469D01*
X94980287Y-102389347D01*
X94980287Y-102389602D01*
X94980393Y-102475736D01*
X94980393Y-102476028D01*
X94980506Y-102557179D01*
X94980506Y-102557502D01*
X94980624Y-102633439D01*
X94980624Y-102633804D01*
X94980747Y-102704294D01*
X94980747Y-102704712D01*
X94980832Y-102747252D01*
X94980876Y-102769710D01*
X94980877Y-102769762D01*
X94981010Y-102828863D01*
X94981010Y-102829158D01*
X94981148Y-102882381D01*
X94981148Y-102882470D01*
X94981290Y-102929364D01*
X94981289Y-102929364D01*
X94981290Y-102929485D01*
X94981436Y-102969820D01*
X94981437Y-102969988D01*
X94981586Y-103003533D01*
X94981587Y-103003804D01*
X94981740Y-103030331D01*
X94981743Y-103030713D01*
X94981714Y-103030806D01*
X94981744Y-103030806D01*
X94981900Y-103050085D01*
X94981911Y-103051168D01*
X94982058Y-103062112D01*
X94982069Y-103062968D01*
X94982209Y-103068266D01*
X94982370Y-103072359D01*
X94994867Y-103135133D01*
X95036562Y-103203131D01*
X95044449Y-103208858D01*
X95044451Y-103208860D01*
X95076024Y-103231786D01*
X95101106Y-103249998D01*
X95154076Y-103262699D01*
X95173941Y-103267463D01*
X95173943Y-103267463D01*
X95178671Y-103268597D01*
X95180901Y-103268684D01*
X95186429Y-103268824D01*
X95196227Y-103268941D01*
X95196329Y-103268942D01*
X95196334Y-103268942D01*
X95197309Y-103268951D01*
X95214753Y-103269067D01*
X95214753Y-103269093D01*
X95214913Y-103269068D01*
X95215169Y-103269070D01*
X95215296Y-103269071D01*
X95215307Y-103269071D01*
X95240090Y-103269185D01*
X95240316Y-103269186D01*
X95272546Y-103269299D01*
X95272687Y-103269299D01*
X95312059Y-103269410D01*
X95312154Y-103269410D01*
X95358468Y-103269519D01*
X95358511Y-103269519D01*
X95358566Y-103269520D01*
X95411714Y-103269627D01*
X95411764Y-103269627D01*
X95471549Y-103269733D01*
X95471593Y-103269733D01*
X95537846Y-103269836D01*
X95537879Y-103269836D01*
X95610431Y-103269937D01*
X95610461Y-103269937D01*
X95689146Y-103270035D01*
X95689169Y-103270035D01*
X95773816Y-103270131D01*
X95773836Y-103270131D01*
X95864280Y-103270225D01*
X95864298Y-103270225D01*
X95960368Y-103270316D01*
X95960385Y-103270316D01*
X96061914Y-103270404D01*
X96061928Y-103270404D01*
X96168749Y-103270489D01*
X96168764Y-103270489D01*
X96280706Y-103270570D01*
X96280716Y-103270570D01*
X96397614Y-103270649D01*
X96397624Y-103270649D01*
X96519307Y-103270725D01*
X96519318Y-103270725D01*
X96645620Y-103270797D01*
X96645631Y-103270797D01*
X96776382Y-103270865D01*
X96776390Y-103270865D01*
X96911423Y-103270930D01*
X96911431Y-103270930D01*
X97050578Y-103270991D01*
X97050585Y-103270991D01*
X97193677Y-103271049D01*
X97193686Y-103271049D01*
X97340555Y-103271102D01*
X97340561Y-103271102D01*
X97491038Y-103271152D01*
X97491046Y-103271152D01*
X97644965Y-103271197D01*
X97644972Y-103271197D01*
X97802163Y-103271238D01*
X97802170Y-103271238D01*
X97962466Y-103271274D01*
X97962471Y-103271274D01*
X98125702Y-103271307D01*
X98125710Y-103271307D01*
X98291710Y-103271334D01*
X98291715Y-103271334D01*
X98460315Y-103271357D01*
X98460323Y-103271357D01*
X98631354Y-103271374D01*
X98631359Y-103271374D01*
X98804653Y-103271387D01*
X98804659Y-103271387D01*
X98980049Y-103271395D01*
X98980055Y-103271395D01*
X99157372Y-103271398D01*
X103125463Y-103271398D01*
X103161040Y-103264321D01*
X103194129Y-103257740D01*
X103194131Y-103257739D01*
X103203694Y-103255837D01*
X103270015Y-103211522D01*
X103314330Y-103145201D01*
X103318006Y-103126724D01*
X103328819Y-103072359D01*
X103329891Y-103066970D01*
X103329891Y-98800564D01*
X103316939Y-98735449D01*
X103316233Y-98731898D01*
X103316232Y-98731896D01*
X103314330Y-98722333D01*
X103270015Y-98656012D01*
X103203694Y-98611697D01*
X103194131Y-98609795D01*
X103194129Y-98609794D01*
X103161040Y-98603213D01*
X103125463Y-98596136D01*
X102823838Y-98596136D01*
X102788261Y-98603213D01*
X102755172Y-98609794D01*
X102755170Y-98609795D01*
X102745607Y-98611697D01*
X102679286Y-98656012D01*
X102634971Y-98722333D01*
X102633490Y-98729779D01*
X102594639Y-98775269D01*
X102542911Y-98789858D01*
X102337245Y-98789858D01*
X102279054Y-98770951D01*
X102243090Y-98721451D01*
X102238245Y-98690858D01*
X102238245Y-94621529D01*
X103838074Y-94621529D01*
X103874153Y-94857302D01*
X103948255Y-95084018D01*
X104058390Y-95295586D01*
X104201602Y-95486325D01*
X104374042Y-95651113D01*
X104377394Y-95653400D01*
X104377397Y-95653402D01*
X104522483Y-95752373D01*
X104571082Y-95785525D01*
X104574762Y-95787233D01*
X104574767Y-95787236D01*
X104672109Y-95832420D01*
X104787428Y-95885949D01*
X104791344Y-95887035D01*
X105013348Y-95948603D01*
X105013351Y-95948604D01*
X105017272Y-95949691D01*
X105021320Y-95950124D01*
X105021322Y-95950124D01*
X105078739Y-95956260D01*
X105211986Y-95970500D01*
X105350463Y-95970500D01*
X105352492Y-95970333D01*
X105352496Y-95970333D01*
X105523669Y-95956260D01*
X105523672Y-95956259D01*
X105527716Y-95955927D01*
X105531650Y-95954939D01*
X105531655Y-95954938D01*
X105692018Y-95914657D01*
X105759048Y-95897821D01*
X105977784Y-95802712D01*
X106107528Y-95718777D01*
X106174635Y-95675364D01*
X106174638Y-95675362D01*
X106178049Y-95673155D01*
X106354464Y-95512629D01*
X106356983Y-95509440D01*
X106499776Y-95328633D01*
X106499780Y-95328627D01*
X106502293Y-95325445D01*
X106617564Y-95116631D01*
X106697183Y-94891794D01*
X106739012Y-94656972D01*
X106741926Y-94418471D01*
X106705847Y-94182698D01*
X106631745Y-93955982D01*
X106612916Y-93919811D01*
X106523487Y-93748019D01*
X106523485Y-93748016D01*
X106521610Y-93744414D01*
X106378398Y-93553675D01*
X106205958Y-93388887D01*
X106202606Y-93386600D01*
X106202603Y-93386598D01*
X106012271Y-93256762D01*
X106012269Y-93256761D01*
X106008918Y-93254475D01*
X106005238Y-93252767D01*
X106005233Y-93252764D01*
X105887000Y-93197883D01*
X105792572Y-93154051D01*
X105746190Y-93141188D01*
X105566652Y-93091397D01*
X105566649Y-93091396D01*
X105562728Y-93090309D01*
X105558680Y-93089876D01*
X105558678Y-93089876D01*
X105487375Y-93082256D01*
X105368014Y-93069500D01*
X105229537Y-93069500D01*
X105227508Y-93069667D01*
X105227504Y-93069667D01*
X105056331Y-93083740D01*
X105056328Y-93083741D01*
X105052284Y-93084073D01*
X105048350Y-93085061D01*
X105048345Y-93085062D01*
X104887982Y-93125343D01*
X104820952Y-93142179D01*
X104602216Y-93237288D01*
X104578294Y-93252764D01*
X104405365Y-93364636D01*
X104405362Y-93364638D01*
X104401951Y-93366845D01*
X104225536Y-93527371D01*
X104223020Y-93530557D01*
X104223017Y-93530560D01*
X104080224Y-93711367D01*
X104080220Y-93711373D01*
X104077707Y-93714555D01*
X103962436Y-93923369D01*
X103882817Y-94148206D01*
X103840988Y-94383028D01*
X103840938Y-94387087D01*
X103840938Y-94387091D01*
X103840457Y-94426463D01*
X103838074Y-94621529D01*
X102238245Y-94621529D01*
X102238245Y-85851760D01*
X113010021Y-85851760D01*
X113035498Y-86142972D01*
X113061776Y-86260531D01*
X113097452Y-86420135D01*
X113099267Y-86428256D01*
X113200206Y-86702600D01*
X113235484Y-86769510D01*
X113335014Y-86958288D01*
X113335018Y-86958295D01*
X113336542Y-86961185D01*
X113505880Y-87199466D01*
X113705245Y-87413259D01*
X113707781Y-87415342D01*
X113707782Y-87415343D01*
X113928594Y-87596721D01*
X113928599Y-87596725D01*
X113931133Y-87598806D01*
X114179578Y-87752848D01*
X114182575Y-87754195D01*
X114182579Y-87754197D01*
X114339547Y-87824741D01*
X114446212Y-87872678D01*
X114726353Y-87956192D01*
X114729594Y-87956705D01*
X114729597Y-87956706D01*
X114818037Y-87970713D01*
X115015079Y-88001921D01*
X115084430Y-88005070D01*
X115105405Y-88006023D01*
X115105411Y-88006023D01*
X115106509Y-88006073D01*
X115289113Y-88006073D01*
X115506644Y-87991625D01*
X115651671Y-87962383D01*
X115789974Y-87934496D01*
X115789979Y-87934495D01*
X115793201Y-87933845D01*
X115882456Y-87903112D01*
X115997010Y-87863668D01*
X124390883Y-87863668D01*
X124426962Y-88099441D01*
X124447256Y-88161531D01*
X124495643Y-88309570D01*
X124501064Y-88326157D01*
X124502938Y-88329757D01*
X124591535Y-88499950D01*
X124611199Y-88537725D01*
X124754411Y-88728464D01*
X124926851Y-88893252D01*
X124930203Y-88895539D01*
X124930206Y-88895541D01*
X125120204Y-89025149D01*
X125123891Y-89027664D01*
X125127571Y-89029372D01*
X125127576Y-89029375D01*
X125181911Y-89054596D01*
X125340237Y-89128088D01*
X125344153Y-89129174D01*
X125566157Y-89190742D01*
X125566160Y-89190743D01*
X125570081Y-89191830D01*
X125574129Y-89192263D01*
X125574131Y-89192263D01*
X125631548Y-89198399D01*
X125764795Y-89212639D01*
X125903272Y-89212639D01*
X125905301Y-89212472D01*
X125905305Y-89212472D01*
X126076478Y-89198399D01*
X126076481Y-89198398D01*
X126080525Y-89198066D01*
X126084459Y-89197078D01*
X126084464Y-89197077D01*
X126244827Y-89156796D01*
X126311857Y-89139960D01*
X126530593Y-89044851D01*
X126664990Y-88957906D01*
X126727444Y-88917503D01*
X126727447Y-88917501D01*
X126730858Y-88915294D01*
X126775975Y-88874241D01*
X126836379Y-88819277D01*
X126907273Y-88754768D01*
X126909792Y-88751579D01*
X127052585Y-88570772D01*
X127052589Y-88570766D01*
X127055102Y-88567584D01*
X127129474Y-88432858D01*
X127168409Y-88362328D01*
X127168409Y-88362327D01*
X127170373Y-88358770D01*
X127249992Y-88133933D01*
X127291821Y-87899111D01*
X127292133Y-87873617D01*
X127293363Y-87772885D01*
X127294735Y-87660610D01*
X127258656Y-87424837D01*
X127216385Y-87295508D01*
X127185815Y-87201978D01*
X127185813Y-87201974D01*
X127184554Y-87198121D01*
X127176401Y-87182460D01*
X127076296Y-86990158D01*
X127076294Y-86990155D01*
X127074419Y-86986553D01*
X126931207Y-86795814D01*
X126758767Y-86631026D01*
X126755415Y-86628739D01*
X126755412Y-86628737D01*
X126565080Y-86498901D01*
X126565078Y-86498900D01*
X126561727Y-86496614D01*
X126558047Y-86494906D01*
X126558042Y-86494903D01*
X126434906Y-86437746D01*
X126345381Y-86396190D01*
X126302572Y-86384318D01*
X126119461Y-86333536D01*
X126119458Y-86333535D01*
X126115537Y-86332448D01*
X126111489Y-86332015D01*
X126111487Y-86332015D01*
X126040184Y-86324395D01*
X125920823Y-86311639D01*
X125782346Y-86311639D01*
X125780317Y-86311806D01*
X125780313Y-86311806D01*
X125609140Y-86325879D01*
X125609137Y-86325880D01*
X125605093Y-86326212D01*
X125601159Y-86327200D01*
X125601154Y-86327201D01*
X125440791Y-86367482D01*
X125373761Y-86384318D01*
X125280063Y-86425059D01*
X125203421Y-86458384D01*
X125155025Y-86479427D01*
X125087914Y-86522843D01*
X124958174Y-86606775D01*
X124958171Y-86606777D01*
X124954760Y-86608984D01*
X124778345Y-86769510D01*
X124775829Y-86772696D01*
X124775826Y-86772699D01*
X124633033Y-86953506D01*
X124633029Y-86953512D01*
X124630516Y-86956694D01*
X124628553Y-86960250D01*
X124535305Y-87129170D01*
X124515245Y-87165508D01*
X124513891Y-87169331D01*
X124513889Y-87169336D01*
X124468311Y-87298046D01*
X124435626Y-87390345D01*
X124393797Y-87625167D01*
X124393747Y-87629226D01*
X124393747Y-87629230D01*
X124392577Y-87725040D01*
X124390883Y-87863668D01*
X115997010Y-87863668D01*
X116066487Y-87839745D01*
X116066493Y-87839743D01*
X116069599Y-87838673D01*
X116148623Y-87799101D01*
X116244688Y-87750995D01*
X116330982Y-87707782D01*
X116572757Y-87543472D01*
X116648596Y-87475664D01*
X116788228Y-87350819D01*
X116788232Y-87350815D01*
X116790678Y-87348628D01*
X116797839Y-87340274D01*
X116872232Y-87253478D01*
X116980915Y-87126675D01*
X117140126Y-86881511D01*
X117226541Y-86699522D01*
X117264107Y-86620408D01*
X117264109Y-86620403D01*
X117265514Y-86617444D01*
X117354876Y-86339114D01*
X117356076Y-86332448D01*
X117382380Y-86186253D01*
X117406643Y-86051409D01*
X117419903Y-85759386D01*
X117394426Y-85468174D01*
X117353890Y-85286827D01*
X117331372Y-85186087D01*
X117331370Y-85186082D01*
X117330657Y-85182890D01*
X117229718Y-84908546D01*
X117168332Y-84792116D01*
X117094910Y-84652858D01*
X117094906Y-84652851D01*
X117093382Y-84649961D01*
X116924044Y-84411680D01*
X116724679Y-84197887D01*
X116659221Y-84144119D01*
X116501330Y-84014425D01*
X116501325Y-84014421D01*
X116498791Y-84012340D01*
X116307179Y-83893536D01*
X116253143Y-83860032D01*
X116253141Y-83860031D01*
X116250346Y-83858298D01*
X116247349Y-83856951D01*
X116247345Y-83856949D01*
X116062654Y-83773946D01*
X115983712Y-83738468D01*
X115703571Y-83654954D01*
X115700330Y-83654441D01*
X115700327Y-83654440D01*
X115586910Y-83636477D01*
X115414845Y-83609225D01*
X115345494Y-83606076D01*
X115324519Y-83605123D01*
X115324513Y-83605123D01*
X115323415Y-83605073D01*
X115140811Y-83605073D01*
X114923280Y-83619521D01*
X114778253Y-83648764D01*
X114639950Y-83676650D01*
X114639945Y-83676651D01*
X114636723Y-83677301D01*
X114633606Y-83678374D01*
X114633607Y-83678374D01*
X114363437Y-83771401D01*
X114363431Y-83771403D01*
X114360325Y-83772473D01*
X114357386Y-83773945D01*
X114357383Y-83773946D01*
X114251180Y-83827129D01*
X114098942Y-83903364D01*
X113857167Y-84067674D01*
X113854721Y-84069861D01*
X113667846Y-84236947D01*
X113639246Y-84262518D01*
X113637111Y-84265009D01*
X113637108Y-84265012D01*
X113623596Y-84280777D01*
X113449009Y-84484471D01*
X113289798Y-84729635D01*
X113220505Y-84875566D01*
X113182533Y-84955536D01*
X113164410Y-84993702D01*
X113075048Y-85272032D01*
X113074467Y-85275261D01*
X113074466Y-85275265D01*
X113057177Y-85371354D01*
X113023281Y-85559737D01*
X113010021Y-85851760D01*
X102238245Y-85851760D01*
X102238245Y-82499740D01*
X102257152Y-82441549D01*
X102306652Y-82405585D01*
X102333558Y-82402520D01*
X102333472Y-82401542D01*
X102372175Y-82398156D01*
X102380804Y-82397779D01*
X103604680Y-82397779D01*
X103662871Y-82416686D01*
X103698835Y-82466186D01*
X103703680Y-82496779D01*
X103703680Y-84352279D01*
X103708697Y-84377502D01*
X103716028Y-84414355D01*
X103719241Y-84430510D01*
X103763556Y-84496831D01*
X103829877Y-84541146D01*
X103839440Y-84543048D01*
X103839442Y-84543049D01*
X103872531Y-84549630D01*
X103908108Y-84556707D01*
X103958108Y-84556707D01*
X103960241Y-84556520D01*
X103960252Y-84556520D01*
X103979301Y-84554854D01*
X103993593Y-84553604D01*
X104005740Y-84551463D01*
X104064601Y-84531493D01*
X104090378Y-84518083D01*
X104091031Y-84517718D01*
X104091048Y-84517709D01*
X104096642Y-84514583D01*
X104101029Y-84512132D01*
X104103801Y-84510473D01*
X104139138Y-84489320D01*
X104139139Y-84489319D01*
X104139432Y-84489144D01*
X104139655Y-84489006D01*
X104139705Y-84488976D01*
X104143886Y-84486395D01*
X104143941Y-84486360D01*
X104144162Y-84486224D01*
X104160812Y-84475632D01*
X104191595Y-84456050D01*
X104191676Y-84455998D01*
X104191737Y-84455959D01*
X104192336Y-84455570D01*
X104194701Y-84454037D01*
X104194847Y-84453941D01*
X104201424Y-84449591D01*
X104248069Y-84418742D01*
X104250558Y-84417069D01*
X104306109Y-84379147D01*
X104308602Y-84377418D01*
X104362958Y-84339117D01*
X104363150Y-84338979D01*
X104363215Y-84338933D01*
X104365719Y-84337135D01*
X104365795Y-84337080D01*
X104365945Y-84336972D01*
X104404771Y-84308555D01*
X104415370Y-84300798D01*
X104415419Y-84300761D01*
X104415652Y-84300591D01*
X104419949Y-84297358D01*
X104461550Y-84265196D01*
X104464900Y-84262518D01*
X104466443Y-84261285D01*
X104466483Y-84261252D01*
X104466770Y-84261023D01*
X104514748Y-84221359D01*
X104524079Y-84213155D01*
X104692386Y-84055855D01*
X104703102Y-84044873D01*
X104704761Y-84043173D01*
X104704776Y-84043157D01*
X104705536Y-84042378D01*
X104860058Y-83868684D01*
X104871523Y-83854580D01*
X104880156Y-83842939D01*
X105010290Y-83667465D01*
X105010304Y-83667446D01*
X105010939Y-83666589D01*
X105020922Y-83651824D01*
X105027031Y-83641881D01*
X105143583Y-83452162D01*
X105190153Y-83412478D01*
X105251155Y-83407745D01*
X105303288Y-83439773D01*
X105326639Y-83496327D01*
X105324136Y-83527362D01*
X105313973Y-83569182D01*
X105312373Y-83574991D01*
X105240837Y-83806850D01*
X105238692Y-83813061D01*
X105156613Y-84027439D01*
X105153787Y-84034085D01*
X105061955Y-84229852D01*
X105058270Y-84236947D01*
X104953768Y-84419722D01*
X104951816Y-84422989D01*
X104935218Y-84449591D01*
X104933863Y-84451796D01*
X104933653Y-84452140D01*
X104911556Y-84488632D01*
X104911187Y-84489248D01*
X104909077Y-84492828D01*
X104908803Y-84493298D01*
X104894097Y-84518907D01*
X104893157Y-84520623D01*
X104886541Y-84533285D01*
X104885682Y-84535011D01*
X104881277Y-84544329D01*
X104879717Y-84548006D01*
X104871199Y-84570595D01*
X104868201Y-84583887D01*
X104862970Y-84646602D01*
X104865129Y-84665605D01*
X104883422Y-84722816D01*
X104892690Y-84739548D01*
X104934644Y-84789138D01*
X104941116Y-84795419D01*
X104942045Y-84796111D01*
X104960872Y-84809220D01*
X104963519Y-84810940D01*
X104981728Y-84821958D01*
X104982300Y-84822299D01*
X104986093Y-84824529D01*
X104986674Y-84824867D01*
X105023345Y-84845820D01*
X105024887Y-84846692D01*
X105024974Y-84846741D01*
X105077047Y-84875864D01*
X105077284Y-84875996D01*
X105077904Y-84876341D01*
X105078103Y-84876451D01*
X105143801Y-84912761D01*
X105144278Y-84913024D01*
X105144407Y-84913095D01*
X105221735Y-84955490D01*
X105221819Y-84955536D01*
X105222246Y-84955770D01*
X105309436Y-85003276D01*
X105309473Y-85003296D01*
X105309873Y-85003513D01*
X105405144Y-85055147D01*
X105405147Y-85055148D01*
X105405429Y-85055301D01*
X105405459Y-85055317D01*
X105405516Y-85055348D01*
X105507024Y-85110092D01*
X105507243Y-85110210D01*
X105563405Y-85140410D01*
X105563378Y-85140461D01*
X105563471Y-85140557D01*
X105563518Y-85140470D01*
X105662099Y-85193400D01*
X105662125Y-85193414D01*
X105662292Y-85193503D01*
X105753799Y-85242532D01*
X105753849Y-85242584D01*
X105753859Y-85242566D01*
X105753891Y-85242583D01*
X105753891Y-85242582D01*
X105754066Y-85242676D01*
X105836661Y-85286827D01*
X105836877Y-85286942D01*
X105837024Y-85287021D01*
X105874270Y-85306873D01*
X105885489Y-85308863D01*
X105888108Y-85303949D01*
X105888108Y-82631279D01*
X105907015Y-82573088D01*
X105956515Y-82537124D01*
X105987108Y-82532279D01*
X106189108Y-82532279D01*
X106247299Y-82551186D01*
X106283263Y-82600686D01*
X106288108Y-82631279D01*
X106288108Y-85349871D01*
X106291470Y-85360217D01*
X106296431Y-85357163D01*
X106316106Y-85337334D01*
X106322218Y-85329827D01*
X106322339Y-85329643D01*
X106324875Y-85325362D01*
X106341699Y-85293369D01*
X106343797Y-85288838D01*
X106352295Y-85267751D01*
X106352745Y-85266592D01*
X106355838Y-85258333D01*
X106356254Y-85257180D01*
X106369042Y-85220295D01*
X106369221Y-85219767D01*
X106370770Y-85215097D01*
X106371004Y-85214375D01*
X106385672Y-85168025D01*
X106385862Y-85167416D01*
X106386899Y-85164018D01*
X106387059Y-85163485D01*
X106408053Y-85092158D01*
X106408254Y-85091452D01*
X106409889Y-85085532D01*
X106410093Y-85084767D01*
X106472124Y-84844324D01*
X106472399Y-84843207D01*
X106474240Y-84835340D01*
X106474493Y-84834199D01*
X106529489Y-84572603D01*
X106529693Y-84571582D01*
X106531001Y-84564694D01*
X106531167Y-84563767D01*
X106543247Y-84492566D01*
X109408108Y-84492566D01*
X109414085Y-84510962D01*
X109416751Y-84513396D01*
X109426952Y-84519474D01*
X109427295Y-84519678D01*
X109429432Y-84520932D01*
X109453353Y-84534768D01*
X109454273Y-84535286D01*
X109454716Y-84535530D01*
X109461953Y-84539920D01*
X109462996Y-84540615D01*
X109467118Y-84543082D01*
X109493643Y-84557243D01*
X109507219Y-84562097D01*
X109568546Y-84574295D01*
X109587670Y-84574295D01*
X109646582Y-84562577D01*
X109664250Y-84555258D01*
X109714190Y-84521890D01*
X109727719Y-84508361D01*
X109761087Y-84458421D01*
X109768406Y-84440753D01*
X109781078Y-84377043D01*
X109782026Y-84367421D01*
X109782026Y-82287959D01*
X109777904Y-82275274D01*
X109773783Y-82272279D01*
X109423788Y-82272279D01*
X109411103Y-82276401D01*
X109408108Y-82280522D01*
X109408108Y-84492566D01*
X106543247Y-84492566D01*
X106579180Y-84280777D01*
X106579300Y-84280032D01*
X106580224Y-84273959D01*
X106580351Y-84273075D01*
X106621310Y-83969018D01*
X106621410Y-83968232D01*
X106622028Y-83963053D01*
X106622135Y-83962099D01*
X106656009Y-83637185D01*
X106656079Y-83636477D01*
X106656513Y-83631689D01*
X106656562Y-83631102D01*
X106667650Y-83487928D01*
X106690993Y-83431371D01*
X106743122Y-83399336D01*
X106804125Y-83404061D01*
X106850701Y-83443739D01*
X106864995Y-83487145D01*
X106867437Y-83515728D01*
X106868417Y-83527201D01*
X106868953Y-83532627D01*
X106874141Y-83578801D01*
X106875366Y-83587865D01*
X106875449Y-83588394D01*
X106875451Y-83588404D01*
X106880123Y-83617984D01*
X106881252Y-83625136D01*
X106883585Y-83637447D01*
X106890704Y-83669594D01*
X106890900Y-83670363D01*
X106892390Y-83676212D01*
X106893881Y-83682068D01*
X106894091Y-83682795D01*
X106894100Y-83682829D01*
X106896633Y-83691606D01*
X106902767Y-83712864D01*
X106905448Y-83721443D01*
X106905619Y-83721949D01*
X106905622Y-83721960D01*
X106913791Y-83746212D01*
X106916638Y-83754666D01*
X106917751Y-83757880D01*
X106917828Y-83758096D01*
X106917853Y-83758168D01*
X106923644Y-83774459D01*
X106926215Y-83781692D01*
X106927103Y-83784142D01*
X106941348Y-83822655D01*
X106943197Y-83827467D01*
X106943293Y-83827709D01*
X106943308Y-83827746D01*
X106953348Y-83852921D01*
X106953355Y-83852938D01*
X106953788Y-83854023D01*
X106961997Y-83872023D01*
X106967103Y-83881920D01*
X106969152Y-83884794D01*
X106969154Y-83884797D01*
X106993849Y-83919432D01*
X107000951Y-83929393D01*
X107007846Y-83934232D01*
X107058258Y-83969614D01*
X107058260Y-83969615D01*
X107066239Y-83975215D01*
X107075756Y-83977336D01*
X107082330Y-83978801D01*
X107144093Y-83992565D01*
X107153694Y-83990883D01*
X107153696Y-83990883D01*
X107217866Y-83979641D01*
X107217867Y-83979641D01*
X107222660Y-83978801D01*
X107223919Y-83978313D01*
X107226335Y-83977283D01*
X107226337Y-83977282D01*
X107235687Y-83973294D01*
X107235695Y-83973290D01*
X107236458Y-83972965D01*
X107253001Y-83965248D01*
X107254998Y-83964304D01*
X107255007Y-83964300D01*
X107288940Y-83948022D01*
X107289000Y-83947993D01*
X107289036Y-83947976D01*
X107289567Y-83947720D01*
X107338728Y-83923931D01*
X107339056Y-83923772D01*
X107401257Y-83893536D01*
X107401481Y-83893427D01*
X107474542Y-83857802D01*
X107474718Y-83857716D01*
X107556460Y-83817761D01*
X107556615Y-83817685D01*
X107644860Y-83774459D01*
X107644966Y-83774407D01*
X107661810Y-83766144D01*
X107662064Y-83766019D01*
X107761592Y-83717024D01*
X107761843Y-83716900D01*
X107762105Y-83716771D01*
X107762165Y-83716741D01*
X107762329Y-83716660D01*
X107843464Y-83676313D01*
X107844800Y-83675642D01*
X107909260Y-83642997D01*
X107911637Y-83641774D01*
X107911775Y-83641702D01*
X107960854Y-83616035D01*
X107960910Y-83616005D01*
X107961138Y-83615886D01*
X107965427Y-83613577D01*
X108001686Y-83593500D01*
X108009743Y-83588795D01*
X108025073Y-83579368D01*
X108033468Y-83574206D01*
X108033483Y-83574196D01*
X108034477Y-83573585D01*
X108050709Y-83562494D01*
X108051665Y-83561771D01*
X108051683Y-83561758D01*
X108063311Y-83552963D01*
X108063314Y-83552960D01*
X108065635Y-83551205D01*
X108067729Y-83549194D01*
X108067735Y-83549189D01*
X108098131Y-83520000D01*
X108098135Y-83519996D01*
X108100233Y-83517981D01*
X108107068Y-83509667D01*
X108116229Y-83495594D01*
X108127632Y-83478075D01*
X108131790Y-83471687D01*
X108151140Y-83401659D01*
X108184863Y-83350605D01*
X108242153Y-83329124D01*
X108301129Y-83345420D01*
X108334143Y-83381865D01*
X108341634Y-83396078D01*
X108342744Y-83398070D01*
X108461612Y-83600398D01*
X108462839Y-83602382D01*
X108471756Y-83616081D01*
X108473057Y-83617984D01*
X108610100Y-83808819D01*
X108611447Y-83810607D01*
X108621557Y-83823413D01*
X108622995Y-83825151D01*
X108777453Y-84003462D01*
X108778934Y-84005096D01*
X108790112Y-84016879D01*
X108791673Y-84018451D01*
X108962736Y-84183155D01*
X108964400Y-84184687D01*
X108976480Y-84195313D01*
X108978181Y-84196744D01*
X108995881Y-84210955D01*
X109006534Y-84214993D01*
X109007810Y-84213403D01*
X109008108Y-84211778D01*
X109008108Y-81856599D01*
X109408108Y-81856599D01*
X109412230Y-81869284D01*
X109416351Y-81872279D01*
X109766346Y-81872279D01*
X109779031Y-81868157D01*
X109782026Y-81864036D01*
X109782026Y-79784702D01*
X109781789Y-79779863D01*
X109778861Y-79749969D01*
X109775366Y-79735968D01*
X109751502Y-79678182D01*
X109740892Y-79662266D01*
X109698465Y-79619749D01*
X109682577Y-79609108D01*
X109627106Y-79586062D01*
X109608354Y-79582312D01*
X109548288Y-79582247D01*
X109529526Y-79585959D01*
X109469495Y-79610750D01*
X109460950Y-79615306D01*
X109447924Y-79623989D01*
X109442475Y-79627372D01*
X109421219Y-79639632D01*
X109408797Y-79653913D01*
X109408108Y-79657297D01*
X109408108Y-81856599D01*
X109008108Y-81856599D01*
X109008108Y-79951473D01*
X109004587Y-79940638D01*
X109003838Y-79940638D01*
X109000468Y-79942566D01*
X108890655Y-80039920D01*
X108889156Y-80041306D01*
X108878305Y-80051772D01*
X108876808Y-80053279D01*
X108718918Y-80218945D01*
X108717502Y-80220494D01*
X108707630Y-80231760D01*
X108706328Y-80233310D01*
X108563015Y-80411326D01*
X108561731Y-80412993D01*
X108552629Y-80425346D01*
X108551433Y-80427044D01*
X108425116Y-80614791D01*
X108423920Y-80616659D01*
X108415499Y-80630485D01*
X108414390Y-80632401D01*
X108376295Y-80701806D01*
X108331721Y-80743721D01*
X108271023Y-80751430D01*
X108217387Y-80721989D01*
X108191298Y-80666645D01*
X108193883Y-80628546D01*
X108204619Y-80588484D01*
X108229628Y-80495159D01*
X108231277Y-80489651D01*
X108301083Y-80279132D01*
X108303259Y-80273212D01*
X108305710Y-80267147D01*
X108381431Y-80079725D01*
X108384299Y-80073294D01*
X108390942Y-80059720D01*
X108469650Y-79898888D01*
X108473458Y-79891845D01*
X108476314Y-79887038D01*
X108568239Y-79732303D01*
X108570591Y-79728539D01*
X108632544Y-79634190D01*
X108636038Y-79628374D01*
X108637964Y-79625168D01*
X108637966Y-79625164D01*
X108640980Y-79620146D01*
X108643097Y-79613412D01*
X108661972Y-79553353D01*
X108661972Y-79553352D01*
X108664895Y-79544052D01*
X108660772Y-79497421D01*
X108658729Y-79474310D01*
X108658729Y-79474309D01*
X108657870Y-79464598D01*
X108620975Y-79393880D01*
X108613501Y-79387620D01*
X108613500Y-79387619D01*
X108563552Y-79345786D01*
X108563549Y-79345784D01*
X108559825Y-79342665D01*
X108555564Y-79340333D01*
X108555562Y-79340331D01*
X108478515Y-79298154D01*
X108478199Y-79297982D01*
X108428775Y-79271039D01*
X108428298Y-79270780D01*
X108361608Y-79234654D01*
X108361272Y-79234472D01*
X108285388Y-79193549D01*
X108285385Y-79193547D01*
X108285375Y-79193542D01*
X108285140Y-79193415D01*
X108202300Y-79148888D01*
X108202103Y-79148782D01*
X108114542Y-79101841D01*
X108114370Y-79101750D01*
X108024326Y-79053588D01*
X108024171Y-79053505D01*
X107933880Y-79005311D01*
X107933723Y-79005227D01*
X107845424Y-78958195D01*
X107845257Y-78958106D01*
X107841833Y-78956286D01*
X107796823Y-78932365D01*
X107761185Y-78913425D01*
X107760988Y-78913321D01*
X107683380Y-78872184D01*
X107683353Y-78872170D01*
X107683343Y-78872164D01*
X107683129Y-78872051D01*
X107682977Y-78871970D01*
X107669592Y-78864899D01*
X107649540Y-78850887D01*
X107623472Y-78827379D01*
X107618365Y-78824335D01*
X107566671Y-78793527D01*
X107538038Y-78776462D01*
X107462872Y-78749778D01*
X107426181Y-78744429D01*
X107417333Y-78743139D01*
X107411497Y-78741872D01*
X107408519Y-78741558D01*
X107400043Y-78739096D01*
X107394995Y-78739465D01*
X107393221Y-78738674D01*
X107393085Y-78739604D01*
X107364456Y-78735430D01*
X107359593Y-78735681D01*
X107359591Y-78735681D01*
X107289651Y-78739292D01*
X107289648Y-78739292D01*
X107284796Y-78739543D01*
X107280089Y-78740735D01*
X107280086Y-78740735D01*
X107215065Y-78757195D01*
X107215058Y-78757197D01*
X107212720Y-78757789D01*
X107210444Y-78758610D01*
X107210440Y-78758611D01*
X107196334Y-78763698D01*
X107175022Y-78771384D01*
X107172836Y-78772424D01*
X107172835Y-78772425D01*
X106996490Y-78856370D01*
X104646538Y-79975010D01*
X104585871Y-79982949D01*
X104538569Y-79959927D01*
X104538388Y-79959767D01*
X104466082Y-79896109D01*
X104465605Y-79895711D01*
X104465579Y-79895688D01*
X104458487Y-79889761D01*
X104458485Y-79889760D01*
X104458000Y-79889354D01*
X104447555Y-79881073D01*
X104447407Y-79880958D01*
X104447360Y-79880921D01*
X104444625Y-79878795D01*
X104444602Y-79878777D01*
X104444509Y-79878705D01*
X104395563Y-79841382D01*
X104391872Y-79838632D01*
X104391615Y-79838445D01*
X104391554Y-79838400D01*
X104337532Y-79799098D01*
X104337472Y-79799055D01*
X104337324Y-79798947D01*
X104337222Y-79798874D01*
X104337147Y-79798820D01*
X104334494Y-79796926D01*
X104334389Y-79796851D01*
X104334334Y-79796812D01*
X104334277Y-79796772D01*
X104277844Y-79757220D01*
X104277626Y-79757067D01*
X104274876Y-79755174D01*
X104267721Y-79750331D01*
X104219578Y-79717748D01*
X104219512Y-79717704D01*
X104219288Y-79717552D01*
X104219182Y-79717481D01*
X104219132Y-79717448D01*
X104216361Y-79715609D01*
X104216197Y-79715500D01*
X104165173Y-79682301D01*
X104160847Y-79679563D01*
X104117775Y-79653049D01*
X104109624Y-79648287D01*
X104099335Y-79642591D01*
X104079493Y-79631606D01*
X104079488Y-79631604D01*
X104077894Y-79630721D01*
X104076237Y-79629958D01*
X104076232Y-79629955D01*
X104052157Y-79618862D01*
X104052142Y-79618856D01*
X104050493Y-79618096D01*
X104033493Y-79611738D01*
X104029360Y-79610953D01*
X104029359Y-79610953D01*
X103969573Y-79599602D01*
X103969569Y-79599602D01*
X103965431Y-79598816D01*
X103931560Y-79598228D01*
X103916732Y-79597970D01*
X103916731Y-79597970D01*
X103911658Y-79597882D01*
X103829877Y-79613412D01*
X103821591Y-79618949D01*
X103821590Y-79618949D01*
X103790098Y-79639992D01*
X103763556Y-79657727D01*
X103719241Y-79724048D01*
X103717339Y-79733611D01*
X103717338Y-79733613D01*
X103714085Y-79749969D01*
X103703680Y-79802279D01*
X103703680Y-81647779D01*
X103684773Y-81705970D01*
X103635273Y-81741934D01*
X103604680Y-81746779D01*
X102538114Y-81746779D01*
X102479923Y-81727872D01*
X102468110Y-81717783D01*
X100605346Y-79855019D01*
X98742108Y-77991782D01*
X98714331Y-77937265D01*
X98723902Y-77876833D01*
X98767167Y-77833568D01*
X98812112Y-77822778D01*
X117714714Y-77822778D01*
X117772905Y-77841685D01*
X117808869Y-77891185D01*
X117813714Y-77921778D01*
X117813714Y-79777278D01*
X117818731Y-79802501D01*
X117826253Y-79840314D01*
X117829275Y-79855509D01*
X117873590Y-79921830D01*
X117939911Y-79966145D01*
X117949474Y-79968047D01*
X117949476Y-79968048D01*
X117980306Y-79974180D01*
X118018142Y-79981706D01*
X118068142Y-79981706D01*
X118070275Y-79981519D01*
X118070286Y-79981519D01*
X118090647Y-79979738D01*
X118103627Y-79978603D01*
X118115774Y-79976462D01*
X118174635Y-79956492D01*
X118200412Y-79943082D01*
X118201065Y-79942717D01*
X118201082Y-79942708D01*
X118206676Y-79939582D01*
X118211063Y-79937131D01*
X118222689Y-79930172D01*
X118249172Y-79914319D01*
X118249173Y-79914318D01*
X118249466Y-79914143D01*
X118249689Y-79914005D01*
X118249739Y-79913975D01*
X118253920Y-79911394D01*
X118253975Y-79911359D01*
X118254196Y-79911223D01*
X118256384Y-79909831D01*
X118301629Y-79881049D01*
X118301710Y-79880997D01*
X118301771Y-79880958D01*
X118303122Y-79880082D01*
X118304735Y-79879036D01*
X118304881Y-79878940D01*
X118311458Y-79874590D01*
X118358103Y-79843741D01*
X118360592Y-79842068D01*
X118416143Y-79804146D01*
X118418636Y-79802417D01*
X118472992Y-79764116D01*
X118473184Y-79763978D01*
X118473249Y-79763932D01*
X118475753Y-79762134D01*
X118475829Y-79762079D01*
X118475979Y-79761971D01*
X118511507Y-79735968D01*
X118525404Y-79725797D01*
X118525453Y-79725760D01*
X118525686Y-79725590D01*
X118529983Y-79722357D01*
X118571584Y-79690195D01*
X118572819Y-79689207D01*
X118576477Y-79686284D01*
X118576517Y-79686251D01*
X118576804Y-79686022D01*
X118624782Y-79646358D01*
X118634113Y-79638154D01*
X118802420Y-79480854D01*
X118804544Y-79478677D01*
X118814795Y-79468172D01*
X118814810Y-79468156D01*
X118815570Y-79467377D01*
X118970092Y-79293683D01*
X118973345Y-79289681D01*
X118980873Y-79280421D01*
X118980883Y-79280409D01*
X118981557Y-79279579D01*
X118982787Y-79277920D01*
X119120324Y-79092464D01*
X119120338Y-79092445D01*
X119120973Y-79091588D01*
X119130956Y-79076823D01*
X119135601Y-79069263D01*
X119253617Y-78877161D01*
X119300187Y-78837477D01*
X119361189Y-78832744D01*
X119413322Y-78864772D01*
X119436673Y-78921326D01*
X119434170Y-78952361D01*
X119424007Y-78994181D01*
X119422407Y-78999990D01*
X119350871Y-79231849D01*
X119348726Y-79238060D01*
X119266647Y-79452438D01*
X119263821Y-79459084D01*
X119171989Y-79654851D01*
X119168304Y-79661946D01*
X119063802Y-79844721D01*
X119061850Y-79847988D01*
X119045252Y-79874590D01*
X119043897Y-79876795D01*
X119043687Y-79877139D01*
X119021590Y-79913631D01*
X119021221Y-79914247D01*
X119019111Y-79917827D01*
X119018837Y-79918297D01*
X119004131Y-79943906D01*
X119003191Y-79945622D01*
X118996575Y-79958284D01*
X118995716Y-79960010D01*
X118991311Y-79969328D01*
X118989751Y-79973005D01*
X118981233Y-79995594D01*
X118978235Y-80008886D01*
X118973004Y-80071601D01*
X118975163Y-80090604D01*
X118993456Y-80147815D01*
X119002724Y-80164547D01*
X119044678Y-80214137D01*
X119051150Y-80220418D01*
X119052079Y-80221110D01*
X119070906Y-80234219D01*
X119073553Y-80235939D01*
X119091762Y-80246957D01*
X119092334Y-80247298D01*
X119096127Y-80249528D01*
X119096708Y-80249866D01*
X119133379Y-80270819D01*
X119134921Y-80271691D01*
X119135008Y-80271740D01*
X119187081Y-80300863D01*
X119187318Y-80300995D01*
X119187938Y-80301340D01*
X119188137Y-80301450D01*
X119253835Y-80337760D01*
X119254312Y-80338023D01*
X119254441Y-80338094D01*
X119331769Y-80380489D01*
X119331853Y-80380535D01*
X119332280Y-80380769D01*
X119419470Y-80428275D01*
X119419507Y-80428295D01*
X119419907Y-80428512D01*
X119515178Y-80480146D01*
X119515181Y-80480147D01*
X119515463Y-80480300D01*
X119515493Y-80480316D01*
X119515550Y-80480347D01*
X119617058Y-80535091D01*
X119617277Y-80535209D01*
X119673439Y-80565409D01*
X119673412Y-80565460D01*
X119673505Y-80565556D01*
X119673552Y-80565469D01*
X119772133Y-80618399D01*
X119772159Y-80618413D01*
X119772326Y-80618502D01*
X119863833Y-80667531D01*
X119863883Y-80667583D01*
X119863893Y-80667565D01*
X119863925Y-80667582D01*
X119863925Y-80667581D01*
X119864100Y-80667675D01*
X119946695Y-80711826D01*
X119946911Y-80711941D01*
X119947058Y-80712020D01*
X119984304Y-80731872D01*
X119995523Y-80733862D01*
X119998142Y-80728948D01*
X119998142Y-78056278D01*
X120017049Y-77998087D01*
X120066549Y-77962123D01*
X120097142Y-77957278D01*
X120299142Y-77957278D01*
X120357333Y-77976185D01*
X120393297Y-78025685D01*
X120398142Y-78056278D01*
X120398142Y-80774870D01*
X120401504Y-80785216D01*
X120406465Y-80782162D01*
X120426140Y-80762333D01*
X120432252Y-80754826D01*
X120432373Y-80754642D01*
X120434909Y-80750361D01*
X120451733Y-80718368D01*
X120453831Y-80713837D01*
X120462321Y-80692771D01*
X120462779Y-80691591D01*
X120465871Y-80683336D01*
X120466288Y-80682179D01*
X120479076Y-80645294D01*
X120479255Y-80644766D01*
X120480804Y-80640096D01*
X120481069Y-80639277D01*
X120495706Y-80593024D01*
X120495896Y-80592415D01*
X120496943Y-80588984D01*
X120497093Y-80588484D01*
X120518087Y-80517157D01*
X120518288Y-80516451D01*
X120519923Y-80510531D01*
X120520127Y-80509766D01*
X120582158Y-80269323D01*
X120582433Y-80268206D01*
X120584274Y-80260339D01*
X120584536Y-80259155D01*
X120639523Y-79997602D01*
X120639727Y-79996581D01*
X120641035Y-79989693D01*
X120641201Y-79988766D01*
X120653281Y-79917565D01*
X123518142Y-79917565D01*
X123524119Y-79935961D01*
X123526785Y-79938395D01*
X123536986Y-79944473D01*
X123537329Y-79944677D01*
X123539466Y-79945931D01*
X123563387Y-79959767D01*
X123564307Y-79960285D01*
X123564750Y-79960529D01*
X123571987Y-79964919D01*
X123573030Y-79965614D01*
X123577152Y-79968081D01*
X123603677Y-79982242D01*
X123617253Y-79987096D01*
X123678580Y-79999294D01*
X123697704Y-79999294D01*
X123756616Y-79987576D01*
X123774284Y-79980257D01*
X123824224Y-79946889D01*
X123837753Y-79933360D01*
X123871121Y-79883420D01*
X123878440Y-79865752D01*
X123891112Y-79802042D01*
X123892060Y-79792420D01*
X123892060Y-77712958D01*
X123887938Y-77700273D01*
X123883817Y-77697278D01*
X123533822Y-77697278D01*
X123521137Y-77701400D01*
X123518142Y-77705521D01*
X123518142Y-79917565D01*
X120653281Y-79917565D01*
X120689214Y-79705776D01*
X120689334Y-79705031D01*
X120690258Y-79698958D01*
X120690385Y-79698074D01*
X120731344Y-79394017D01*
X120731444Y-79393231D01*
X120732062Y-79388052D01*
X120732169Y-79387098D01*
X120766043Y-79062184D01*
X120766113Y-79061476D01*
X120766547Y-79056688D01*
X120766596Y-79056101D01*
X120777684Y-78912927D01*
X120801027Y-78856370D01*
X120853156Y-78824335D01*
X120914159Y-78829060D01*
X120960735Y-78868738D01*
X120975029Y-78912144D01*
X120977471Y-78940727D01*
X120978451Y-78952200D01*
X120978987Y-78957626D01*
X120979020Y-78957923D01*
X120979021Y-78957929D01*
X120979548Y-78962621D01*
X120984175Y-79003800D01*
X120985400Y-79012864D01*
X120985483Y-79013393D01*
X120985485Y-79013403D01*
X120990157Y-79042983D01*
X120991286Y-79050135D01*
X120991416Y-79050822D01*
X120991420Y-79050844D01*
X120991940Y-79053588D01*
X120993619Y-79062446D01*
X120993781Y-79063177D01*
X120993786Y-79063202D01*
X120996594Y-79075881D01*
X121000738Y-79094593D01*
X121000934Y-79095362D01*
X121002424Y-79101211D01*
X121003915Y-79107067D01*
X121004125Y-79107794D01*
X121004134Y-79107828D01*
X121007204Y-79118465D01*
X121012801Y-79137863D01*
X121015482Y-79146442D01*
X121015653Y-79146948D01*
X121015656Y-79146959D01*
X121021118Y-79163174D01*
X121026672Y-79179665D01*
X121027785Y-79182879D01*
X121027862Y-79183095D01*
X121027887Y-79183167D01*
X121033678Y-79199458D01*
X121036249Y-79206691D01*
X121037137Y-79209141D01*
X121051382Y-79247654D01*
X121053231Y-79252466D01*
X121053327Y-79252708D01*
X121053342Y-79252745D01*
X121063382Y-79277920D01*
X121063389Y-79277937D01*
X121063822Y-79279022D01*
X121072031Y-79297022D01*
X121077137Y-79306919D01*
X121079186Y-79309793D01*
X121079188Y-79309796D01*
X121104849Y-79345786D01*
X121110985Y-79354392D01*
X121117880Y-79359231D01*
X121168292Y-79394613D01*
X121168294Y-79394614D01*
X121176273Y-79400214D01*
X121185790Y-79402335D01*
X121192364Y-79403800D01*
X121254127Y-79417564D01*
X121263728Y-79415882D01*
X121263730Y-79415882D01*
X121327900Y-79404640D01*
X121327901Y-79404640D01*
X121332694Y-79403800D01*
X121333953Y-79403312D01*
X121336369Y-79402282D01*
X121336371Y-79402281D01*
X121345721Y-79398293D01*
X121345729Y-79398289D01*
X121346492Y-79397964D01*
X121363035Y-79390247D01*
X121365032Y-79389303D01*
X121365041Y-79389299D01*
X121398974Y-79373021D01*
X121399034Y-79372992D01*
X121399070Y-79372975D01*
X121399601Y-79372719D01*
X121448762Y-79348930D01*
X121449090Y-79348771D01*
X121511291Y-79318535D01*
X121511515Y-79318426D01*
X121584576Y-79282801D01*
X121584752Y-79282715D01*
X121666494Y-79242760D01*
X121666649Y-79242684D01*
X121754894Y-79199458D01*
X121755000Y-79199406D01*
X121771844Y-79191143D01*
X121772098Y-79191018D01*
X121871626Y-79142023D01*
X121871877Y-79141899D01*
X121872139Y-79141770D01*
X121872199Y-79141740D01*
X121872363Y-79141659D01*
X121953498Y-79101312D01*
X121954834Y-79100641D01*
X121963037Y-79096487D01*
X121975303Y-79090275D01*
X122019294Y-79067996D01*
X122021671Y-79066773D01*
X122023245Y-79065950D01*
X122070888Y-79041034D01*
X122070944Y-79041004D01*
X122071172Y-79040885D01*
X122075461Y-79038576D01*
X122111720Y-79018499D01*
X122119777Y-79013794D01*
X122133572Y-79005311D01*
X122143502Y-78999205D01*
X122143517Y-78999195D01*
X122144511Y-78998584D01*
X122160743Y-78987493D01*
X122161699Y-78986770D01*
X122161717Y-78986757D01*
X122173345Y-78977962D01*
X122173348Y-78977959D01*
X122175669Y-78976204D01*
X122177763Y-78974193D01*
X122177769Y-78974188D01*
X122208165Y-78944999D01*
X122208169Y-78944995D01*
X122210267Y-78942980D01*
X122217102Y-78934666D01*
X122231253Y-78912927D01*
X122237666Y-78903074D01*
X122241824Y-78896686D01*
X122261174Y-78826658D01*
X122294897Y-78775604D01*
X122352187Y-78754123D01*
X122411163Y-78770419D01*
X122444177Y-78806864D01*
X122451668Y-78821077D01*
X122452778Y-78823069D01*
X122571646Y-79025397D01*
X122572873Y-79027381D01*
X122581790Y-79041080D01*
X122583091Y-79042983D01*
X122720134Y-79233818D01*
X122721481Y-79235606D01*
X122731591Y-79248412D01*
X122733029Y-79250150D01*
X122887487Y-79428461D01*
X122888968Y-79430095D01*
X122900146Y-79441878D01*
X122901707Y-79443450D01*
X123072770Y-79608154D01*
X123074434Y-79609686D01*
X123086514Y-79620312D01*
X123088215Y-79621743D01*
X123105915Y-79635954D01*
X123116568Y-79639992D01*
X123117844Y-79638402D01*
X123118142Y-79636777D01*
X123118142Y-77281598D01*
X123518142Y-77281598D01*
X123522264Y-77294283D01*
X123526385Y-77297278D01*
X123876380Y-77297278D01*
X123889065Y-77293156D01*
X123892060Y-77289035D01*
X123892060Y-75209701D01*
X123891823Y-75204862D01*
X123888895Y-75174968D01*
X123885400Y-75160967D01*
X123861536Y-75103181D01*
X123850926Y-75087265D01*
X123808499Y-75044748D01*
X123792611Y-75034107D01*
X123737140Y-75011061D01*
X123718388Y-75007311D01*
X123658322Y-75007246D01*
X123639560Y-75010958D01*
X123579529Y-75035749D01*
X123570984Y-75040305D01*
X123557958Y-75048988D01*
X123552509Y-75052371D01*
X123531253Y-75064631D01*
X123518831Y-75078912D01*
X123518142Y-75082296D01*
X123518142Y-77281598D01*
X123118142Y-77281598D01*
X123118142Y-75376472D01*
X123114621Y-75365637D01*
X123113872Y-75365637D01*
X123110502Y-75367565D01*
X123000689Y-75464919D01*
X122999190Y-75466305D01*
X122988339Y-75476771D01*
X122986842Y-75478278D01*
X122828952Y-75643944D01*
X122827536Y-75645493D01*
X122817664Y-75656759D01*
X122816362Y-75658309D01*
X122673049Y-75836325D01*
X122671765Y-75837992D01*
X122662663Y-75850345D01*
X122661467Y-75852043D01*
X122535150Y-76039790D01*
X122533954Y-76041658D01*
X122525533Y-76055484D01*
X122524424Y-76057400D01*
X122486329Y-76126805D01*
X122441755Y-76168720D01*
X122381057Y-76176429D01*
X122327421Y-76146988D01*
X122301332Y-76091644D01*
X122303917Y-76053545D01*
X122329593Y-75957731D01*
X122339662Y-75920158D01*
X122341311Y-75914650D01*
X122411117Y-75704131D01*
X122413293Y-75698211D01*
X122415136Y-75693651D01*
X122491465Y-75504724D01*
X122494333Y-75498293D01*
X122528696Y-75428075D01*
X122579684Y-75323887D01*
X122583492Y-75316844D01*
X122583620Y-75316629D01*
X122678273Y-75157302D01*
X122680625Y-75153538D01*
X122687711Y-75142747D01*
X122742578Y-75059189D01*
X122745122Y-75054954D01*
X122747998Y-75050167D01*
X122748000Y-75050163D01*
X122751014Y-75045145D01*
X122753131Y-75038411D01*
X122772006Y-74978352D01*
X122772006Y-74978351D01*
X122774929Y-74969051D01*
X122767904Y-74889597D01*
X122731009Y-74818879D01*
X122723535Y-74812619D01*
X122723534Y-74812618D01*
X122673586Y-74770785D01*
X122673583Y-74770783D01*
X122669859Y-74767664D01*
X122665598Y-74765332D01*
X122665596Y-74765330D01*
X122588549Y-74723153D01*
X122588233Y-74722981D01*
X122538809Y-74696038D01*
X122538332Y-74695779D01*
X122471642Y-74659653D01*
X122471306Y-74659471D01*
X122395422Y-74618548D01*
X122395419Y-74618546D01*
X122395409Y-74618541D01*
X122395174Y-74618414D01*
X122312334Y-74573887D01*
X122312137Y-74573781D01*
X122224576Y-74526840D01*
X122224404Y-74526749D01*
X122134360Y-74478587D01*
X122134205Y-74478504D01*
X122043914Y-74430310D01*
X122043757Y-74430226D01*
X121955458Y-74383194D01*
X121955291Y-74383105D01*
X121871219Y-74338424D01*
X121871022Y-74338320D01*
X121793414Y-74297183D01*
X121793387Y-74297169D01*
X121793377Y-74297163D01*
X121793163Y-74297050D01*
X121793011Y-74296969D01*
X121779626Y-74289898D01*
X121759574Y-74275886D01*
X121733506Y-74252378D01*
X121723946Y-74246680D01*
X121676742Y-74218548D01*
X121648072Y-74201461D01*
X121572906Y-74174777D01*
X121536215Y-74169428D01*
X121527367Y-74168138D01*
X121521531Y-74166871D01*
X121518553Y-74166557D01*
X121510077Y-74164095D01*
X121505029Y-74164464D01*
X121503255Y-74163673D01*
X121503119Y-74164603D01*
X121474490Y-74160429D01*
X121469627Y-74160680D01*
X121469625Y-74160680D01*
X121399685Y-74164291D01*
X121399682Y-74164291D01*
X121394830Y-74164542D01*
X121390123Y-74165734D01*
X121390120Y-74165734D01*
X121325099Y-74182194D01*
X121325092Y-74182196D01*
X121322754Y-74182788D01*
X121320478Y-74183609D01*
X121320474Y-74183610D01*
X121306368Y-74188697D01*
X121285056Y-74196383D01*
X121282870Y-74197423D01*
X121282869Y-74197424D01*
X121115650Y-74277025D01*
X118756572Y-75400009D01*
X118695905Y-75407948D01*
X118648603Y-75384926D01*
X118576593Y-75321528D01*
X118576116Y-75321108D01*
X118575639Y-75320710D01*
X118575613Y-75320687D01*
X118568521Y-75314760D01*
X118568519Y-75314759D01*
X118568034Y-75314353D01*
X118557589Y-75306072D01*
X118557445Y-75305960D01*
X118557394Y-75305920D01*
X118554659Y-75303794D01*
X118554636Y-75303776D01*
X118554543Y-75303704D01*
X118505597Y-75266381D01*
X118501906Y-75263631D01*
X118501649Y-75263444D01*
X118501588Y-75263399D01*
X118447566Y-75224097D01*
X118447506Y-75224054D01*
X118447358Y-75223946D01*
X118447256Y-75223873D01*
X118447181Y-75223819D01*
X118444528Y-75221925D01*
X118444423Y-75221850D01*
X118444368Y-75221811D01*
X118444311Y-75221771D01*
X118387878Y-75182219D01*
X118387660Y-75182066D01*
X118384910Y-75180173D01*
X118377220Y-75174968D01*
X118329612Y-75142747D01*
X118329546Y-75142703D01*
X118329322Y-75142551D01*
X118329216Y-75142480D01*
X118329166Y-75142447D01*
X118326395Y-75140608D01*
X118326231Y-75140499D01*
X118275207Y-75107300D01*
X118270881Y-75104562D01*
X118227809Y-75078048D01*
X118219658Y-75073286D01*
X118204024Y-75064631D01*
X118189527Y-75056605D01*
X118189522Y-75056603D01*
X118187928Y-75055720D01*
X118186271Y-75054957D01*
X118186266Y-75054954D01*
X118162191Y-75043861D01*
X118162176Y-75043855D01*
X118160527Y-75043095D01*
X118143527Y-75036737D01*
X118139394Y-75035952D01*
X118139393Y-75035952D01*
X118079607Y-75024601D01*
X118079603Y-75024601D01*
X118075465Y-75023815D01*
X118041594Y-75023227D01*
X118026766Y-75022969D01*
X118026765Y-75022969D01*
X118021692Y-75022881D01*
X117939911Y-75038411D01*
X117931625Y-75043948D01*
X117931624Y-75043948D01*
X117888144Y-75073001D01*
X117873590Y-75082726D01*
X117829275Y-75149047D01*
X117813714Y-75227278D01*
X117813714Y-77072778D01*
X117794807Y-77130969D01*
X117745307Y-77166933D01*
X117714714Y-77171778D01*
X112907901Y-77171778D01*
X112849710Y-77152871D01*
X112813746Y-77103371D01*
X112813746Y-77042185D01*
X112849710Y-76992685D01*
X112866058Y-76983056D01*
X112920727Y-76957563D01*
X113114299Y-76822023D01*
X113281393Y-76654929D01*
X113414452Y-76464902D01*
X113414452Y-76464901D01*
X113416933Y-76461358D01*
X113516801Y-76247191D01*
X113577961Y-76018936D01*
X113598557Y-75783528D01*
X113577961Y-75548120D01*
X113516801Y-75319865D01*
X113416933Y-75105699D01*
X113404026Y-75087265D01*
X113283872Y-74915668D01*
X113281393Y-74912127D01*
X113114299Y-74745033D01*
X112933649Y-74618541D01*
X112924272Y-74611975D01*
X112924270Y-74611974D01*
X112920727Y-74609493D01*
X112706561Y-74509625D01*
X112478306Y-74448465D01*
X112393467Y-74441042D01*
X112304028Y-74433217D01*
X112304020Y-74433217D01*
X112301864Y-74433028D01*
X112183932Y-74433028D01*
X112181776Y-74433217D01*
X112181768Y-74433217D01*
X112092329Y-74441042D01*
X112007490Y-74448465D01*
X111779235Y-74509625D01*
X111565069Y-74609493D01*
X111561526Y-74611974D01*
X111561524Y-74611975D01*
X111552147Y-74618541D01*
X111371497Y-74745033D01*
X111204403Y-74912127D01*
X111158032Y-74978352D01*
X111071345Y-75102153D01*
X111071344Y-75102155D01*
X111068863Y-75105698D01*
X110968995Y-75319865D01*
X110907835Y-75548120D01*
X110887239Y-75783528D01*
X110907835Y-76018936D01*
X110968995Y-76247191D01*
X111068863Y-76461357D01*
X111204403Y-76654929D01*
X111371497Y-76822023D01*
X111565069Y-76957563D01*
X111619736Y-76983055D01*
X111664483Y-77024782D01*
X111676157Y-77084843D01*
X111650299Y-77140296D01*
X111596785Y-77169959D01*
X111577895Y-77171778D01*
X86743112Y-77171778D01*
X86684921Y-77152871D01*
X86673108Y-77142782D01*
X83583813Y-74053487D01*
X89449378Y-74053487D01*
X89449385Y-74053532D01*
X89454908Y-74059748D01*
X89561186Y-74130761D01*
X89569140Y-74135079D01*
X89763419Y-74218548D01*
X89772031Y-74221346D01*
X89978279Y-74268015D01*
X89987239Y-74269195D01*
X90198551Y-74277497D01*
X90207563Y-74277025D01*
X90416855Y-74246680D01*
X90425637Y-74244571D01*
X90625885Y-74176596D01*
X90634141Y-74172920D01*
X90818649Y-74069590D01*
X90825762Y-74064701D01*
X90832816Y-74053522D01*
X90832814Y-74053487D01*
X95949378Y-74053487D01*
X95949385Y-74053532D01*
X95954908Y-74059748D01*
X96061186Y-74130761D01*
X96069140Y-74135079D01*
X96263419Y-74218548D01*
X96272031Y-74221346D01*
X96478279Y-74268015D01*
X96487239Y-74269195D01*
X96698551Y-74277497D01*
X96707563Y-74277025D01*
X96916855Y-74246680D01*
X96925637Y-74244571D01*
X97125885Y-74176596D01*
X97134141Y-74172920D01*
X97318649Y-74069590D01*
X97325762Y-74064701D01*
X97332816Y-74053522D01*
X97332631Y-74050688D01*
X97330632Y-74047654D01*
X96651093Y-73368115D01*
X96639210Y-73362061D01*
X96634179Y-73362857D01*
X95955432Y-74041604D01*
X95949378Y-74053487D01*
X90832814Y-74053487D01*
X90832631Y-74050688D01*
X90830632Y-74047654D01*
X90151093Y-73368115D01*
X90139210Y-73362061D01*
X90134179Y-73362857D01*
X89455432Y-74041604D01*
X89449378Y-74053487D01*
X83583813Y-74053487D01*
X82577493Y-73047167D01*
X88935576Y-73047167D01*
X88949406Y-73258186D01*
X88950819Y-73267107D01*
X89002873Y-73472068D01*
X89005893Y-73480596D01*
X89094424Y-73672635D01*
X89098942Y-73680460D01*
X89152812Y-73756685D01*
X89163497Y-73764664D01*
X89164248Y-73764674D01*
X89170377Y-73760973D01*
X89846078Y-73085272D01*
X89851320Y-73074983D01*
X90427882Y-73074983D01*
X90428678Y-73080014D01*
X91109511Y-73760847D01*
X91121394Y-73766901D01*
X91124196Y-73766458D01*
X91127042Y-73764183D01*
X91130293Y-73760275D01*
X91135411Y-73752828D01*
X91238741Y-73568320D01*
X91242417Y-73560064D01*
X91310392Y-73359816D01*
X91312501Y-73351034D01*
X91343079Y-73140135D01*
X91343572Y-73134347D01*
X91345072Y-73077099D01*
X91344882Y-73071287D01*
X91342666Y-73047167D01*
X95435576Y-73047167D01*
X95449406Y-73258186D01*
X95450819Y-73267107D01*
X95502873Y-73472068D01*
X95505893Y-73480596D01*
X95594424Y-73672635D01*
X95598942Y-73680460D01*
X95652812Y-73756685D01*
X95663497Y-73764664D01*
X95664248Y-73764674D01*
X95670377Y-73760973D01*
X96346078Y-73085272D01*
X96351320Y-73074983D01*
X96927882Y-73074983D01*
X96928678Y-73080014D01*
X97609511Y-73760847D01*
X97621394Y-73766901D01*
X97624196Y-73766458D01*
X97627042Y-73764183D01*
X97630293Y-73760275D01*
X97635411Y-73752828D01*
X97738741Y-73568320D01*
X97742417Y-73560064D01*
X97810392Y-73359816D01*
X97812501Y-73351034D01*
X97843079Y-73140135D01*
X97843572Y-73134347D01*
X97845072Y-73077099D01*
X97844882Y-73071287D01*
X97825383Y-72859084D01*
X97823736Y-72850198D01*
X97766335Y-72646672D01*
X97763094Y-72638228D01*
X97669567Y-72448574D01*
X97664844Y-72440866D01*
X97627766Y-72391213D01*
X97616876Y-72383517D01*
X97615425Y-72383536D01*
X97610334Y-72386702D01*
X96933936Y-73063100D01*
X96927882Y-73074983D01*
X96351320Y-73074983D01*
X96352132Y-73073389D01*
X96351336Y-73068358D01*
X95671898Y-72388920D01*
X95660015Y-72382866D01*
X95657898Y-72383201D01*
X95654168Y-72386262D01*
X95632101Y-72414254D01*
X95627177Y-72421837D01*
X95528712Y-72608988D01*
X95525258Y-72617328D01*
X95462548Y-72819284D01*
X95460667Y-72828134D01*
X95435812Y-73038134D01*
X95435576Y-73047167D01*
X91342666Y-73047167D01*
X91325383Y-72859084D01*
X91323736Y-72850198D01*
X91266335Y-72646672D01*
X91263094Y-72638228D01*
X91169567Y-72448574D01*
X91164844Y-72440866D01*
X91127766Y-72391213D01*
X91116876Y-72383517D01*
X91115425Y-72383536D01*
X91110334Y-72386702D01*
X90433936Y-73063100D01*
X90427882Y-73074983D01*
X89851320Y-73074983D01*
X89852132Y-73073389D01*
X89851336Y-73068358D01*
X89171898Y-72388920D01*
X89160015Y-72382866D01*
X89157898Y-72383201D01*
X89154168Y-72386262D01*
X89132101Y-72414254D01*
X89127177Y-72421837D01*
X89028712Y-72608988D01*
X89025258Y-72617328D01*
X88962548Y-72819284D01*
X88960667Y-72828134D01*
X88935812Y-73038134D01*
X88935576Y-73047167D01*
X82577493Y-73047167D01*
X81624877Y-72094551D01*
X89447035Y-72094551D01*
X89451731Y-72103067D01*
X90128921Y-72780257D01*
X90140804Y-72786311D01*
X90145835Y-72785515D01*
X90825541Y-72105809D01*
X90831276Y-72094551D01*
X95947035Y-72094551D01*
X95951731Y-72103067D01*
X96628921Y-72780257D01*
X96640804Y-72786311D01*
X96645835Y-72785515D01*
X97325541Y-72105809D01*
X97331419Y-72094271D01*
X97325326Y-72087593D01*
X97190968Y-72002819D01*
X97182914Y-71998716D01*
X96986498Y-71920354D01*
X96977840Y-71917789D01*
X96770433Y-71876533D01*
X96761440Y-71875588D01*
X96549992Y-71872819D01*
X96540977Y-71873529D01*
X96332563Y-71909341D01*
X96323839Y-71911679D01*
X96125443Y-71984870D01*
X96117275Y-71988766D01*
X95955292Y-72085136D01*
X95947035Y-72094551D01*
X90831276Y-72094551D01*
X90831419Y-72094271D01*
X90825326Y-72087593D01*
X90690968Y-72002819D01*
X90682914Y-71998716D01*
X90486498Y-71920354D01*
X90477840Y-71917789D01*
X90270433Y-71876533D01*
X90261440Y-71875588D01*
X90049992Y-71872819D01*
X90040977Y-71873529D01*
X89832563Y-71909341D01*
X89823839Y-71911679D01*
X89625443Y-71984870D01*
X89617275Y-71988766D01*
X89455292Y-72085136D01*
X89447035Y-72094551D01*
X81624877Y-72094551D01*
X80456041Y-70925715D01*
X101938081Y-70925715D01*
X101974160Y-71161488D01*
X102007768Y-71264313D01*
X102045030Y-71378315D01*
X102048262Y-71388204D01*
X102050136Y-71391804D01*
X102133307Y-71551574D01*
X102158397Y-71599772D01*
X102160835Y-71603019D01*
X102294837Y-71781491D01*
X102301609Y-71790511D01*
X102474049Y-71955299D01*
X102477401Y-71957586D01*
X102477404Y-71957588D01*
X102657161Y-72080210D01*
X102671089Y-72089711D01*
X102674769Y-72091419D01*
X102674774Y-72091422D01*
X102739241Y-72121346D01*
X102887435Y-72190135D01*
X102891351Y-72191221D01*
X103113355Y-72252789D01*
X103113358Y-72252790D01*
X103117279Y-72253877D01*
X103121327Y-72254310D01*
X103121329Y-72254310D01*
X103178746Y-72260446D01*
X103311993Y-72274686D01*
X103450470Y-72274686D01*
X103452499Y-72274519D01*
X103452503Y-72274519D01*
X103623676Y-72260446D01*
X103623679Y-72260445D01*
X103627723Y-72260113D01*
X103631657Y-72259125D01*
X103631662Y-72259124D01*
X103800762Y-72216649D01*
X103859055Y-72202007D01*
X104044563Y-72121346D01*
X104074061Y-72108520D01*
X104074062Y-72108519D01*
X104077791Y-72106898D01*
X104238673Y-72002819D01*
X104274642Y-71979550D01*
X104274645Y-71979548D01*
X104278056Y-71977341D01*
X104454471Y-71816815D01*
X104463217Y-71805741D01*
X104599783Y-71632819D01*
X104599787Y-71632813D01*
X104602300Y-71629631D01*
X104717571Y-71420817D01*
X104723620Y-71403737D01*
X104795835Y-71199806D01*
X104797190Y-71195980D01*
X104839019Y-70961158D01*
X104839262Y-70941330D01*
X104841490Y-70758909D01*
X104841933Y-70722657D01*
X104805854Y-70486884D01*
X104740386Y-70286584D01*
X104733013Y-70264025D01*
X104733011Y-70264021D01*
X104731752Y-70260168D01*
X104719889Y-70237380D01*
X104623494Y-70052205D01*
X104623492Y-70052202D01*
X104621617Y-70048600D01*
X104507473Y-69896576D01*
X104480843Y-69861108D01*
X104478405Y-69857861D01*
X104305965Y-69693073D01*
X104302613Y-69690786D01*
X104302610Y-69690784D01*
X104112278Y-69560948D01*
X104112276Y-69560947D01*
X104108925Y-69558661D01*
X104105245Y-69556953D01*
X104105240Y-69556950D01*
X103999746Y-69507982D01*
X103892579Y-69458237D01*
X103846197Y-69445374D01*
X103666659Y-69395583D01*
X103666656Y-69395582D01*
X103662735Y-69394495D01*
X103658687Y-69394062D01*
X103658685Y-69394062D01*
X103587382Y-69386442D01*
X103468021Y-69373686D01*
X103329544Y-69373686D01*
X103327515Y-69373853D01*
X103327511Y-69373853D01*
X103156338Y-69387926D01*
X103156335Y-69387927D01*
X103152291Y-69388259D01*
X103148357Y-69389247D01*
X103148352Y-69389248D01*
X102987989Y-69429529D01*
X102920959Y-69446365D01*
X102889718Y-69459949D01*
X102766173Y-69513668D01*
X102702223Y-69541474D01*
X102661548Y-69567788D01*
X102505372Y-69668822D01*
X102505369Y-69668824D01*
X102501958Y-69671031D01*
X102325543Y-69831557D01*
X102323027Y-69834743D01*
X102323024Y-69834746D01*
X102180231Y-70015553D01*
X102180227Y-70015559D01*
X102177714Y-70018741D01*
X102175751Y-70022297D01*
X102069977Y-70213908D01*
X102062443Y-70227555D01*
X102061089Y-70231378D01*
X102061087Y-70231383D01*
X102003121Y-70395075D01*
X101982824Y-70452392D01*
X101940995Y-70687214D01*
X101940945Y-70691273D01*
X101940945Y-70691277D01*
X101940302Y-70743944D01*
X101938081Y-70925715D01*
X80456041Y-70925715D01*
X78072952Y-68542626D01*
X88934777Y-68542626D01*
X88938909Y-68605664D01*
X88942321Y-68657721D01*
X88949207Y-68762790D01*
X88950323Y-68767183D01*
X88950323Y-68767185D01*
X88973880Y-68859940D01*
X89003518Y-68976638D01*
X89095890Y-69177007D01*
X89223229Y-69357188D01*
X89381271Y-69511147D01*
X89564724Y-69633726D01*
X89767443Y-69720821D01*
X89845172Y-69738409D01*
X89978213Y-69768514D01*
X89978218Y-69768515D01*
X89982639Y-69769515D01*
X90092872Y-69773846D01*
X90198572Y-69777999D01*
X90198573Y-69777999D01*
X90203105Y-69778177D01*
X90421459Y-69746517D01*
X90425758Y-69745058D01*
X90425761Y-69745057D01*
X90626085Y-69677056D01*
X90630386Y-69675596D01*
X90638538Y-69671031D01*
X90818932Y-69570005D01*
X90822891Y-69567788D01*
X90992525Y-69426704D01*
X91133609Y-69257070D01*
X91186166Y-69163222D01*
X91239199Y-69068526D01*
X91239200Y-69068524D01*
X91241417Y-69064565D01*
X91279419Y-68952615D01*
X91310878Y-68859940D01*
X91310879Y-68859937D01*
X91312338Y-68855638D01*
X91325163Y-68767185D01*
X91343578Y-68640183D01*
X91343578Y-68640177D01*
X91343998Y-68637284D01*
X91344930Y-68601710D01*
X91345574Y-68577100D01*
X91345574Y-68577095D01*
X91345650Y-68574186D01*
X91344645Y-68563243D01*
X91342750Y-68542626D01*
X95434777Y-68542626D01*
X95438909Y-68605664D01*
X95442321Y-68657721D01*
X95449207Y-68762790D01*
X95450323Y-68767183D01*
X95450323Y-68767185D01*
X95473880Y-68859940D01*
X95503518Y-68976638D01*
X95595890Y-69177007D01*
X95723229Y-69357188D01*
X95881271Y-69511147D01*
X96064724Y-69633726D01*
X96267443Y-69720821D01*
X96345172Y-69738409D01*
X96478213Y-69768514D01*
X96478218Y-69768515D01*
X96482639Y-69769515D01*
X96592872Y-69773846D01*
X96698572Y-69777999D01*
X96698573Y-69777999D01*
X96703105Y-69778177D01*
X96921459Y-69746517D01*
X96925758Y-69745058D01*
X96925761Y-69745057D01*
X97126085Y-69677056D01*
X97130386Y-69675596D01*
X97138538Y-69671031D01*
X97318932Y-69570005D01*
X97322891Y-69567788D01*
X97492525Y-69426704D01*
X97633609Y-69257070D01*
X97686166Y-69163222D01*
X97739199Y-69068526D01*
X97739200Y-69068524D01*
X97741417Y-69064565D01*
X97779419Y-68952615D01*
X97810878Y-68859940D01*
X97810879Y-68859937D01*
X97812338Y-68855638D01*
X97825163Y-68767185D01*
X97843578Y-68640183D01*
X97843578Y-68640177D01*
X97843998Y-68637284D01*
X97844930Y-68601710D01*
X97845574Y-68577100D01*
X97845574Y-68577095D01*
X97845650Y-68574186D01*
X97844645Y-68563243D01*
X97825876Y-68358995D01*
X97825461Y-68354475D01*
X97765572Y-68142122D01*
X97763564Y-68138050D01*
X97763562Y-68138045D01*
X97669995Y-67948311D01*
X97667987Y-67944239D01*
X97535974Y-67767453D01*
X97407716Y-67648892D01*
X97377286Y-67620763D01*
X97377285Y-67620762D01*
X97373956Y-67617685D01*
X97368316Y-67614126D01*
X97191194Y-67502371D01*
X97187357Y-67499950D01*
X96982428Y-67418192D01*
X96766031Y-67375148D01*
X96657354Y-67373725D01*
X96549953Y-67372319D01*
X96549948Y-67372319D01*
X96545413Y-67372260D01*
X96540940Y-67373029D01*
X96540935Y-67373029D01*
X96332442Y-67408854D01*
X96332436Y-67408856D01*
X96327964Y-67409624D01*
X96300183Y-67419873D01*
X96125227Y-67484417D01*
X96125224Y-67484418D01*
X96120964Y-67485990D01*
X96117061Y-67488312D01*
X96117059Y-67488313D01*
X96097499Y-67499950D01*
X95931348Y-67598800D01*
X95927933Y-67601795D01*
X95927930Y-67601797D01*
X95820043Y-67696411D01*
X95765464Y-67744276D01*
X95762656Y-67747838D01*
X95642071Y-67900801D01*
X95628870Y-67917546D01*
X95526138Y-68112806D01*
X95460710Y-68323519D01*
X95460176Y-68328029D01*
X95460176Y-68328030D01*
X95457046Y-68354475D01*
X95434777Y-68542626D01*
X91342750Y-68542626D01*
X91325876Y-68358995D01*
X91325461Y-68354475D01*
X91265572Y-68142122D01*
X91263564Y-68138050D01*
X91263562Y-68138045D01*
X91169995Y-67948311D01*
X91167987Y-67944239D01*
X91035974Y-67767453D01*
X90907716Y-67648892D01*
X90877286Y-67620763D01*
X90877285Y-67620762D01*
X90873956Y-67617685D01*
X90868316Y-67614126D01*
X90691194Y-67502371D01*
X90687357Y-67499950D01*
X90482428Y-67418192D01*
X90266031Y-67375148D01*
X90157354Y-67373725D01*
X90049953Y-67372319D01*
X90049948Y-67372319D01*
X90045413Y-67372260D01*
X90040940Y-67373029D01*
X90040935Y-67373029D01*
X89832442Y-67408854D01*
X89832436Y-67408856D01*
X89827964Y-67409624D01*
X89800183Y-67419873D01*
X89625227Y-67484417D01*
X89625224Y-67484418D01*
X89620964Y-67485990D01*
X89617061Y-67488312D01*
X89617059Y-67488313D01*
X89597499Y-67499950D01*
X89431348Y-67598800D01*
X89427933Y-67601795D01*
X89427930Y-67601797D01*
X89320043Y-67696411D01*
X89265464Y-67744276D01*
X89262656Y-67747838D01*
X89142071Y-67900801D01*
X89128870Y-67917546D01*
X89026138Y-68112806D01*
X88960710Y-68323519D01*
X88960176Y-68328029D01*
X88960176Y-68328030D01*
X88957046Y-68354475D01*
X88934777Y-68542626D01*
X78072952Y-68542626D01*
X77486697Y-67956371D01*
X77480862Y-67950003D01*
X77479442Y-67948311D01*
X77455883Y-67920234D01*
X77422220Y-67900799D01*
X77414939Y-67896160D01*
X77412484Y-67894441D01*
X77383112Y-67873874D01*
X77374744Y-67871632D01*
X77369457Y-67869166D01*
X77363972Y-67867170D01*
X77356473Y-67862840D01*
X77347947Y-67861337D01*
X77347945Y-67861336D01*
X77318212Y-67856094D01*
X77309777Y-67854224D01*
X77280602Y-67846406D01*
X77272235Y-67844164D01*
X77263606Y-67844919D01*
X77233523Y-67847551D01*
X77224894Y-67847928D01*
X75739970Y-67847928D01*
X75681779Y-67829021D01*
X75661428Y-67809195D01*
X75627035Y-67764372D01*
X75612282Y-67745146D01*
X75486841Y-67648892D01*
X75340762Y-67588384D01*
X75184000Y-67567746D01*
X75027238Y-67588384D01*
X74881159Y-67648892D01*
X74755718Y-67745146D01*
X74659464Y-67870587D01*
X74598956Y-68016666D01*
X74578318Y-68173428D01*
X74598956Y-68330190D01*
X74659464Y-68476269D01*
X74755718Y-68601710D01*
X74881159Y-68697964D01*
X75027238Y-68758472D01*
X75184000Y-68779110D01*
X75340762Y-68758472D01*
X75486841Y-68697964D01*
X75612282Y-68601710D01*
X75661429Y-68537661D01*
X75711852Y-68503005D01*
X75739970Y-68498928D01*
X77067594Y-68498928D01*
X77125785Y-68517835D01*
X77137598Y-68527924D01*
X78984314Y-70374640D01*
X79012091Y-70429157D01*
X79002520Y-70489589D01*
X78959255Y-70532854D01*
X78914310Y-70543644D01*
X75739970Y-70543644D01*
X75681779Y-70524737D01*
X75661428Y-70504911D01*
X75616236Y-70446015D01*
X75612282Y-70440862D01*
X75486841Y-70344608D01*
X75340762Y-70284100D01*
X75184000Y-70263462D01*
X75027238Y-70284100D01*
X74881159Y-70344608D01*
X74755718Y-70440862D01*
X74659464Y-70566303D01*
X74598956Y-70712382D01*
X74578318Y-70869144D01*
X74598956Y-71025906D01*
X74659464Y-71171985D01*
X74755718Y-71297426D01*
X74881159Y-71393680D01*
X75027238Y-71454188D01*
X75184000Y-71474826D01*
X75340762Y-71454188D01*
X75486841Y-71393680D01*
X75612282Y-71297426D01*
X75661429Y-71233377D01*
X75711852Y-71198721D01*
X75739970Y-71194644D01*
X79127593Y-71194644D01*
X79185784Y-71213551D01*
X79197597Y-71223640D01*
X81044311Y-73070354D01*
X81072088Y-73124871D01*
X81062517Y-73185303D01*
X81019252Y-73228568D01*
X80974307Y-73239358D01*
X75739970Y-73239358D01*
X75681779Y-73220451D01*
X75661428Y-73200625D01*
X75616236Y-73141729D01*
X75612282Y-73136576D01*
X75486841Y-73040322D01*
X75340762Y-72979814D01*
X75196062Y-72960764D01*
X75190434Y-72960023D01*
X75184000Y-72959176D01*
X75177566Y-72960023D01*
X75171938Y-72960764D01*
X75027238Y-72979814D01*
X74881159Y-73040322D01*
X74755718Y-73136576D01*
X74659464Y-73262017D01*
X74598956Y-73408096D01*
X74578318Y-73564858D01*
X74598956Y-73721620D01*
X74659464Y-73867699D01*
X74755718Y-73993140D01*
X74881159Y-74089394D01*
X75027238Y-74149902D01*
X75184000Y-74170540D01*
X75340762Y-74149902D01*
X75486841Y-74089394D01*
X75612282Y-73993140D01*
X75661429Y-73929091D01*
X75711852Y-73894435D01*
X75739970Y-73890358D01*
X81187589Y-73890358D01*
X81245780Y-73909265D01*
X81257593Y-73919354D01*
X83104307Y-75766068D01*
X83132084Y-75820585D01*
X83122513Y-75881017D01*
X83079248Y-75924282D01*
X83034303Y-75935072D01*
X73897970Y-75935072D01*
X73839779Y-75916165D01*
X73819428Y-75896339D01*
X73807958Y-75881390D01*
X73770282Y-75832290D01*
X73644841Y-75736036D01*
X73498762Y-75675528D01*
X73342000Y-75654890D01*
X73185238Y-75675528D01*
X73039159Y-75736036D01*
X72913718Y-75832290D01*
X72817464Y-75957731D01*
X72756956Y-76103810D01*
X72736318Y-76260572D01*
X60295500Y-76260572D01*
X60295500Y-75935834D01*
X60314407Y-75877643D01*
X60324496Y-75865830D01*
X63725830Y-72464496D01*
X63780347Y-72436719D01*
X63795834Y-72435500D01*
X68489291Y-72435500D01*
X68547482Y-72454407D01*
X68583446Y-72503907D01*
X68587425Y-72521430D01*
X68594250Y-72572686D01*
X68595143Y-72578705D01*
X68605984Y-72644975D01*
X68606639Y-72648760D01*
X68609682Y-72665392D01*
X68611905Y-72677545D01*
X68611928Y-72677671D01*
X68612412Y-72680222D01*
X68612433Y-72680331D01*
X68618281Y-72710066D01*
X68618854Y-72712981D01*
X68619398Y-72715651D01*
X68625866Y-72746371D01*
X68626519Y-72749360D01*
X68632628Y-72776364D01*
X68633623Y-72780558D01*
X68633673Y-72780761D01*
X68633692Y-72780838D01*
X68638836Y-72801537D01*
X68638966Y-72802059D01*
X68641214Y-72810356D01*
X68645387Y-72824567D01*
X68659072Y-72859159D01*
X68661666Y-72864293D01*
X68662346Y-72865472D01*
X68662357Y-72865492D01*
X68667078Y-72873674D01*
X68672983Y-72883909D01*
X68728797Y-72940892D01*
X68802168Y-72972179D01*
X68823531Y-72972401D01*
X68877064Y-72972956D01*
X68877068Y-72972956D01*
X68881928Y-72973006D01*
X68884883Y-72972450D01*
X68886384Y-72972135D01*
X68892746Y-72970800D01*
X68892781Y-72970792D01*
X68893230Y-72970698D01*
X68895103Y-72970264D01*
X68904802Y-72968017D01*
X68904931Y-72967986D01*
X68905063Y-72967956D01*
X68905451Y-72967864D01*
X68907143Y-72967462D01*
X68907310Y-72967422D01*
X68925844Y-72962906D01*
X68927055Y-72962607D01*
X68949871Y-72956900D01*
X68950237Y-72956808D01*
X68952222Y-72956308D01*
X68953087Y-72956094D01*
X69016507Y-72940761D01*
X69017924Y-72940430D01*
X69089425Y-72924252D01*
X69090536Y-72924007D01*
X69133156Y-72914877D01*
X69168853Y-72907230D01*
X69169696Y-72907054D01*
X69252191Y-72890242D01*
X69252793Y-72890122D01*
X69336798Y-72873822D01*
X69337586Y-72873674D01*
X69420333Y-72858448D01*
X69421381Y-72858261D01*
X69428246Y-72857074D01*
X69501111Y-72844475D01*
X69501626Y-72844387D01*
X69509162Y-72843135D01*
X69510268Y-72842958D01*
X69597247Y-72829515D01*
X69703973Y-72813021D01*
X69706021Y-72812727D01*
X69767278Y-72804655D01*
X72355048Y-72804655D01*
X72359170Y-72817340D01*
X72365351Y-72821832D01*
X72465369Y-72836361D01*
X72468619Y-72836889D01*
X72737208Y-72885076D01*
X72740546Y-72885734D01*
X73005727Y-72942779D01*
X73007227Y-72943114D01*
X73018255Y-72945666D01*
X73019820Y-72946022D01*
X73052797Y-72953380D01*
X73052974Y-72953419D01*
X73055387Y-72953941D01*
X73055536Y-72953973D01*
X73083991Y-72959940D01*
X73084454Y-72960035D01*
X73087470Y-72960640D01*
X73088104Y-72960764D01*
X73110250Y-72965001D01*
X73111152Y-72965166D01*
X73117004Y-72966185D01*
X73117916Y-72966335D01*
X73131194Y-72968416D01*
X73134548Y-72968826D01*
X73158623Y-72970947D01*
X73161581Y-72971107D01*
X73171651Y-72970264D01*
X73239347Y-72957432D01*
X73257533Y-72949970D01*
X73307163Y-72916644D01*
X73320658Y-72903087D01*
X73356617Y-72849003D01*
X73361133Y-72840508D01*
X73362206Y-72837637D01*
X73369676Y-72815474D01*
X73370613Y-72812359D01*
X73374123Y-72799149D01*
X73374335Y-72798320D01*
X73375877Y-72792067D01*
X73376072Y-72791247D01*
X73381079Y-72769268D01*
X73381237Y-72768563D01*
X73381867Y-72765681D01*
X73381963Y-72765231D01*
X73387906Y-72736906D01*
X73387918Y-72736845D01*
X73388318Y-72734887D01*
X73388395Y-72734503D01*
X73394825Y-72702058D01*
X73395171Y-72700271D01*
X73395191Y-72700164D01*
X73401760Y-72665392D01*
X73401759Y-72665392D01*
X73401801Y-72665172D01*
X73402076Y-72663678D01*
X73402088Y-72663610D01*
X73408460Y-72628247D01*
X73408741Y-72626647D01*
X73408817Y-72626205D01*
X73414623Y-72592173D01*
X73414647Y-72592030D01*
X73415013Y-72589806D01*
X73415052Y-72589562D01*
X73419931Y-72558779D01*
X73419987Y-72558417D01*
X73420457Y-72555270D01*
X73420543Y-72554674D01*
X73424165Y-72528900D01*
X73424246Y-72528308D01*
X73424749Y-72524422D01*
X73424813Y-72523905D01*
X73427561Y-72500729D01*
X73427595Y-72500438D01*
X73427887Y-72497801D01*
X73427941Y-72497300D01*
X73432057Y-72457445D01*
X73432068Y-72457329D01*
X73432315Y-72454761D01*
X73432348Y-72454407D01*
X73435986Y-72413514D01*
X73435994Y-72413411D01*
X73436245Y-72410305D01*
X73436269Y-72409983D01*
X73438830Y-72374568D01*
X73438891Y-72373592D01*
X73439237Y-72367214D01*
X73439279Y-72366281D01*
X73443065Y-72261362D01*
X73443096Y-72259896D01*
X73443165Y-72249326D01*
X73443153Y-72247845D01*
X73439618Y-72094470D01*
X73439550Y-72092787D01*
X73438818Y-72080210D01*
X73438690Y-72078520D01*
X73424487Y-71926475D01*
X73424302Y-71924805D01*
X73422695Y-71912330D01*
X73422452Y-71910671D01*
X73397722Y-71760351D01*
X73397418Y-71758687D01*
X73394952Y-71746394D01*
X73394597Y-71744768D01*
X73392170Y-71734533D01*
X73385234Y-71723142D01*
X73375976Y-71719277D01*
X72370728Y-71719277D01*
X72358043Y-71723399D01*
X72355048Y-71727520D01*
X72355048Y-72804655D01*
X69767278Y-72804655D01*
X69896750Y-72787594D01*
X69898913Y-72787334D01*
X69915667Y-72785515D01*
X70090583Y-72766524D01*
X70092752Y-72766314D01*
X70287940Y-72749580D01*
X70289985Y-72749426D01*
X70491408Y-72736525D01*
X70493323Y-72736421D01*
X70556564Y-72733630D01*
X70704606Y-72727098D01*
X70705513Y-72727062D01*
X70891867Y-72720550D01*
X70895787Y-72720413D01*
X70920115Y-72715651D01*
X70950431Y-72709717D01*
X70950432Y-72709717D01*
X70959069Y-72708026D01*
X70966582Y-72703440D01*
X70966806Y-72703353D01*
X71027894Y-72699897D01*
X71040703Y-72704227D01*
X71050471Y-72708292D01*
X71114152Y-72721064D01*
X71123785Y-72722029D01*
X71164494Y-72722093D01*
X71165131Y-72722096D01*
X71176487Y-72722187D01*
X71177679Y-72722204D01*
X71208547Y-72722823D01*
X71209441Y-72722845D01*
X71249375Y-72724007D01*
X71249953Y-72724025D01*
X71297487Y-72725686D01*
X71297924Y-72725703D01*
X71349241Y-72727723D01*
X71349610Y-72727738D01*
X71404649Y-72730110D01*
X71405001Y-72730126D01*
X71460112Y-72732698D01*
X71460481Y-72732716D01*
X71514902Y-72735459D01*
X71515322Y-72735481D01*
X71566544Y-72738281D01*
X71567085Y-72738312D01*
X71613182Y-72741085D01*
X71613565Y-72741108D01*
X71618577Y-72741429D01*
X71620167Y-72741544D01*
X71905580Y-72764444D01*
X71908711Y-72764745D01*
X71939468Y-72768199D01*
X71952532Y-72765520D01*
X71954084Y-72763820D01*
X71955048Y-72759365D01*
X71955048Y-71303597D01*
X72355048Y-71303597D01*
X72359170Y-71316282D01*
X72363291Y-71319277D01*
X73249314Y-71319277D01*
X73259131Y-71316087D01*
X73258761Y-71303300D01*
X73249241Y-71278895D01*
X73248622Y-71277387D01*
X73243683Y-71265920D01*
X73242957Y-71264313D01*
X73177610Y-71126034D01*
X73176832Y-71124459D01*
X73171129Y-71113405D01*
X73170304Y-71111871D01*
X73095127Y-70977791D01*
X73094272Y-70976327D01*
X73087798Y-70965667D01*
X73086883Y-70964218D01*
X73001832Y-70834573D01*
X73001317Y-70833804D01*
X72997408Y-70828086D01*
X72996939Y-70827413D01*
X72988354Y-70815360D01*
X72987784Y-70814576D01*
X72983746Y-70809132D01*
X72983069Y-70808238D01*
X72888793Y-70686104D01*
X72887755Y-70684805D01*
X72879797Y-70675204D01*
X72878651Y-70673870D01*
X72776611Y-70559135D01*
X72775494Y-70557922D01*
X72766943Y-70548950D01*
X72765756Y-70547748D01*
X72656241Y-70440514D01*
X72655069Y-70439406D01*
X72645936Y-70431057D01*
X72644689Y-70429956D01*
X72528284Y-70330677D01*
X72526943Y-70329573D01*
X72517314Y-70321916D01*
X72516040Y-70320937D01*
X72393212Y-70229953D01*
X72391803Y-70228946D01*
X72381676Y-70221970D01*
X72380268Y-70221035D01*
X72368256Y-70213356D01*
X72357235Y-70210487D01*
X72355048Y-70213908D01*
X72355048Y-71303597D01*
X71955048Y-71303597D01*
X71955048Y-70004292D01*
X71949954Y-69988613D01*
X71944145Y-69983855D01*
X71937589Y-69981122D01*
X71935935Y-69980466D01*
X71792310Y-69926438D01*
X71791430Y-69926117D01*
X71784644Y-69923718D01*
X71783706Y-69923397D01*
X71769603Y-69918728D01*
X71767504Y-69918047D01*
X71767029Y-69917894D01*
X71734972Y-69907713D01*
X71734549Y-69907581D01*
X71734549Y-69907580D01*
X71732481Y-69906939D01*
X71731878Y-69906754D01*
X71698561Y-69896653D01*
X71698307Y-69896576D01*
X71696098Y-69895921D01*
X71663225Y-69886374D01*
X71662745Y-69886237D01*
X71662745Y-69886236D01*
X71660721Y-69885662D01*
X71660410Y-69885574D01*
X71630215Y-69877215D01*
X71629798Y-69877101D01*
X71626877Y-69876318D01*
X71626639Y-69876255D01*
X71601246Y-69869671D01*
X71600456Y-69869473D01*
X71595648Y-69868298D01*
X71594938Y-69868130D01*
X71576904Y-69863993D01*
X71574998Y-69863595D01*
X71561246Y-69861001D01*
X71559314Y-69860677D01*
X71552380Y-69859647D01*
X71546607Y-69859133D01*
X71509749Y-69858008D01*
X71494522Y-69859939D01*
X71434943Y-69877245D01*
X71417967Y-69886062D01*
X71367278Y-69926666D01*
X71360821Y-69932972D01*
X71357626Y-69937315D01*
X71332690Y-69976252D01*
X71329606Y-69981833D01*
X71324454Y-69992769D01*
X71323829Y-69994152D01*
X71319353Y-70004481D01*
X71318769Y-70005889D01*
X71309990Y-70028027D01*
X71309814Y-70028478D01*
X71307920Y-70033461D01*
X71307741Y-70033943D01*
X71296703Y-70064279D01*
X71295632Y-70067302D01*
X71295432Y-70067875D01*
X71282884Y-70104262D01*
X71282698Y-70104807D01*
X71282018Y-70106816D01*
X71268008Y-70149035D01*
X71267874Y-70149442D01*
X71267364Y-70151001D01*
X71252303Y-70197793D01*
X71252246Y-70197971D01*
X71251832Y-70199276D01*
X71251830Y-70199283D01*
X71236129Y-70249370D01*
X71236063Y-70249582D01*
X71235715Y-70250709D01*
X71219701Y-70303053D01*
X71219670Y-70303156D01*
X71219306Y-70304359D01*
X71219294Y-70304399D01*
X71203316Y-70357902D01*
X71203275Y-70358041D01*
X71202918Y-70359252D01*
X71202913Y-70359271D01*
X71202873Y-70359407D01*
X71187287Y-70412942D01*
X71186876Y-70414370D01*
X71186877Y-70414370D01*
X71186820Y-70414567D01*
X71171968Y-70467039D01*
X71171919Y-70467216D01*
X71171918Y-70467216D01*
X71171479Y-70468793D01*
X71171480Y-70468793D01*
X71171368Y-70469197D01*
X71157617Y-70519431D01*
X71157485Y-70519919D01*
X71156987Y-70521774D01*
X71144430Y-70569598D01*
X71144153Y-70570671D01*
X71144086Y-70570933D01*
X71144085Y-70570933D01*
X71143590Y-70572872D01*
X71143501Y-70573225D01*
X71142774Y-70576174D01*
X71142691Y-70576513D01*
X71102936Y-70743723D01*
X71071082Y-70795962D01*
X71014605Y-70819501D01*
X70955079Y-70805348D01*
X70915240Y-70758909D01*
X70909951Y-70742176D01*
X70894302Y-70671329D01*
X70894290Y-70671276D01*
X70894204Y-70670888D01*
X70892368Y-70663271D01*
X70829955Y-70424557D01*
X70829913Y-70424401D01*
X70829895Y-70424335D01*
X70828889Y-70420646D01*
X70828883Y-70420626D01*
X70828848Y-70420496D01*
X70827655Y-70416289D01*
X70827264Y-70414929D01*
X70815822Y-70375619D01*
X70815249Y-70373685D01*
X70802408Y-70331138D01*
X70801940Y-70329609D01*
X70788120Y-70285080D01*
X70787709Y-70283772D01*
X70773330Y-70238516D01*
X70772944Y-70237313D01*
X70771020Y-70231383D01*
X70758506Y-70192826D01*
X70758491Y-70192779D01*
X70758427Y-70192583D01*
X70758028Y-70191366D01*
X70743791Y-70148417D01*
X70743343Y-70147082D01*
X70729807Y-70107170D01*
X70729250Y-70105550D01*
X70716835Y-70069928D01*
X70716044Y-70067698D01*
X70711571Y-70055325D01*
X70705245Y-70037828D01*
X70705215Y-70037747D01*
X70705170Y-70037622D01*
X70703832Y-70034028D01*
X70699340Y-70022297D01*
X70695101Y-70011226D01*
X70695097Y-70011217D01*
X70694919Y-70010751D01*
X70691867Y-70003233D01*
X70685334Y-69988010D01*
X70670350Y-69959520D01*
X70666618Y-69953607D01*
X70648283Y-69931605D01*
X70637443Y-69918598D01*
X70632232Y-69912345D01*
X70564145Y-69870794D01*
X70528835Y-69865268D01*
X70490143Y-69859213D01*
X70490138Y-69859213D01*
X70485341Y-69858462D01*
X70477100Y-69858801D01*
X70475238Y-69859019D01*
X70475235Y-69859019D01*
X70448390Y-69862158D01*
X70448378Y-69862160D01*
X70446547Y-69862374D01*
X70429495Y-69865684D01*
X70429028Y-69865786D01*
X70429021Y-69865787D01*
X70421043Y-69867522D01*
X70421033Y-69867524D01*
X70420524Y-69867635D01*
X70409890Y-69870200D01*
X70396683Y-69873384D01*
X70396610Y-69873402D01*
X70396399Y-69873453D01*
X70391723Y-69874640D01*
X70362239Y-69882491D01*
X70362048Y-69882543D01*
X70361998Y-69882557D01*
X70359257Y-69883311D01*
X70359215Y-69883323D01*
X70358967Y-69883391D01*
X70349567Y-69886062D01*
X70326000Y-69892758D01*
X70325942Y-69892775D01*
X70325839Y-69892804D01*
X70325747Y-69892831D01*
X70323054Y-69893617D01*
X70288206Y-69904055D01*
X70288133Y-69904077D01*
X70287997Y-69904118D01*
X70287724Y-69904202D01*
X70285380Y-69904922D01*
X70285332Y-69904937D01*
X70285205Y-69904976D01*
X70285069Y-69905019D01*
X70250065Y-69916051D01*
X70249985Y-69916076D01*
X70249933Y-69916093D01*
X70249868Y-69916114D01*
X70249812Y-69916132D01*
X70248919Y-69916422D01*
X70246728Y-69917132D01*
X70212957Y-69928391D01*
X70204512Y-69931414D01*
X70063764Y-69985307D01*
X70050804Y-69990788D01*
X69911010Y-70055669D01*
X69910271Y-70056044D01*
X69910264Y-70056047D01*
X69899145Y-70061683D01*
X69899131Y-70061690D01*
X69898392Y-70062065D01*
X69897675Y-70062460D01*
X69897647Y-70062475D01*
X69764832Y-70135680D01*
X69764072Y-70136099D01*
X69752020Y-70143292D01*
X69744067Y-70148417D01*
X69624283Y-70225603D01*
X69624263Y-70225616D01*
X69623573Y-70226061D01*
X69622885Y-70226538D01*
X69622878Y-70226543D01*
X69619415Y-70228946D01*
X69612117Y-70234009D01*
X69611469Y-70234492D01*
X69611458Y-70234500D01*
X69490611Y-70324595D01*
X69489938Y-70325097D01*
X69489291Y-70325615D01*
X69489276Y-70325626D01*
X69479771Y-70333227D01*
X69479750Y-70333244D01*
X69479104Y-70333761D01*
X69478459Y-70334314D01*
X69478449Y-70334322D01*
X69372818Y-70424841D01*
X69363590Y-70432749D01*
X69353396Y-70442100D01*
X69352790Y-70442695D01*
X69352772Y-70442712D01*
X69245526Y-70548000D01*
X69245509Y-70548018D01*
X69244945Y-70548571D01*
X69235417Y-70558580D01*
X69177939Y-70623196D01*
X69135015Y-70671451D01*
X69134997Y-70671472D01*
X69134425Y-70672115D01*
X69125581Y-70682763D01*
X69125066Y-70683427D01*
X69125056Y-70683440D01*
X69072943Y-70750688D01*
X69032446Y-70802946D01*
X69024317Y-70814206D01*
X68939434Y-70940618D01*
X68932048Y-70952472D01*
X68931630Y-70953197D01*
X68931624Y-70953207D01*
X68893421Y-71019470D01*
X68855816Y-71084695D01*
X68855408Y-71085463D01*
X68855405Y-71085468D01*
X68850227Y-71095210D01*
X68849213Y-71097117D01*
X68835865Y-71124459D01*
X68786103Y-71226389D01*
X68782028Y-71234735D01*
X68776250Y-71247692D01*
X68718509Y-71390286D01*
X68718219Y-71391080D01*
X68718216Y-71391089D01*
X68713913Y-71402888D01*
X68713903Y-71402917D01*
X68713604Y-71403737D01*
X68713327Y-71404589D01*
X68665926Y-71550202D01*
X68665915Y-71550239D01*
X68665703Y-71550889D01*
X68662175Y-71562978D01*
X68630551Y-71685251D01*
X68627868Y-71697058D01*
X68627740Y-71697712D01*
X68627729Y-71697762D01*
X68626393Y-71704570D01*
X68596631Y-71758029D01*
X68541130Y-71783784D01*
X68529247Y-71784500D01*
X63638535Y-71784500D01*
X63629906Y-71784123D01*
X63626031Y-71783784D01*
X63591194Y-71780736D01*
X63582830Y-71782977D01*
X63553651Y-71790795D01*
X63545222Y-71792664D01*
X63531108Y-71795153D01*
X63506955Y-71799412D01*
X63499454Y-71803743D01*
X63493964Y-71805741D01*
X63488683Y-71808204D01*
X63480316Y-71810446D01*
X63450944Y-71831013D01*
X63448489Y-71832732D01*
X63441208Y-71837371D01*
X63407545Y-71856806D01*
X63393513Y-71873529D01*
X63382569Y-71886571D01*
X63376735Y-71892939D01*
X59752943Y-75516731D01*
X59746576Y-75522565D01*
X59716806Y-75547545D01*
X59712477Y-75555044D01*
X59697373Y-75581205D01*
X59692732Y-75588489D01*
X59670446Y-75620316D01*
X59668204Y-75628684D01*
X59665738Y-75633971D01*
X59663742Y-75639456D01*
X59659412Y-75646955D01*
X59657909Y-75655481D01*
X59657908Y-75655483D01*
X59652666Y-75685216D01*
X59650796Y-75693650D01*
X59640736Y-75731193D01*
X59641491Y-75739822D01*
X59644123Y-75769905D01*
X59644500Y-75778534D01*
X59644500Y-83652894D01*
X59644123Y-83661523D01*
X59640736Y-83700235D01*
X58590000Y-83700235D01*
X58590000Y-72916746D01*
X58590018Y-72914877D01*
X58590166Y-72907041D01*
X58590831Y-72871829D01*
X58584662Y-72858366D01*
X58578145Y-72839150D01*
X58577330Y-72835579D01*
X58577330Y-72835578D01*
X58574850Y-72824708D01*
X58567901Y-72815988D01*
X58566845Y-72813793D01*
X58558945Y-72800943D01*
X58557464Y-72799011D01*
X58552820Y-72788876D01*
X58541419Y-72779417D01*
X58527209Y-72764923D01*
X58517985Y-72753347D01*
X58507943Y-72748504D01*
X58506035Y-72746980D01*
X58493350Y-72738831D01*
X58491174Y-72737730D01*
X58482595Y-72730613D01*
X58471776Y-72727919D01*
X58471775Y-72727919D01*
X58468228Y-72727036D01*
X58449136Y-72720138D01*
X58445840Y-72718548D01*
X58445837Y-72718547D01*
X58435798Y-72713705D01*
X58424650Y-72713695D01*
X58422283Y-72713153D01*
X58407301Y-72711309D01*
X58404872Y-72711261D01*
X58394051Y-72708567D01*
X58383134Y-72710831D01*
X58371989Y-72710611D01*
X58372009Y-72709623D01*
X58362142Y-72710066D01*
X58249164Y-72697010D01*
X58230409Y-72692972D01*
X58101083Y-72651667D01*
X58083464Y-72644089D01*
X57964525Y-72578609D01*
X57948699Y-72567774D01*
X57844635Y-72480593D01*
X57831191Y-72466905D01*
X57745897Y-72361288D01*
X57735346Y-72345265D01*
X57672023Y-72225177D01*
X57664760Y-72207418D01*
X57625789Y-72077368D01*
X57622089Y-72058543D01*
X57611091Y-71945580D01*
X57610625Y-71935812D01*
X57610644Y-71925057D01*
X57613143Y-71914190D01*
X57610441Y-71902249D01*
X57608000Y-71880400D01*
X57608000Y-70043584D01*
X58425903Y-70043584D01*
X58461982Y-70279357D01*
X58501850Y-70401334D01*
X58523384Y-70467216D01*
X58536084Y-70506073D01*
X58537958Y-70509673D01*
X58640360Y-70706385D01*
X58646219Y-70717641D01*
X58789431Y-70908380D01*
X58961871Y-71073168D01*
X58965223Y-71075455D01*
X58965226Y-71075457D01*
X59155558Y-71205293D01*
X59158911Y-71207580D01*
X59162591Y-71209288D01*
X59162596Y-71209291D01*
X59219135Y-71235535D01*
X59375257Y-71308004D01*
X59379173Y-71309090D01*
X59601177Y-71370658D01*
X59601180Y-71370659D01*
X59605101Y-71371746D01*
X59609149Y-71372179D01*
X59609151Y-71372179D01*
X59666568Y-71378315D01*
X59799815Y-71392555D01*
X59938292Y-71392555D01*
X59940321Y-71392388D01*
X59940325Y-71392388D01*
X60111498Y-71378315D01*
X60111501Y-71378314D01*
X60115545Y-71377982D01*
X60119479Y-71376994D01*
X60119484Y-71376993D01*
X60279847Y-71336712D01*
X60346877Y-71319876D01*
X60456245Y-71272321D01*
X60561883Y-71226389D01*
X60561884Y-71226388D01*
X60565613Y-71224767D01*
X60672597Y-71155556D01*
X60762464Y-71097419D01*
X60762467Y-71097417D01*
X60765878Y-71095210D01*
X60942293Y-70934684D01*
X60946204Y-70929732D01*
X61087605Y-70750688D01*
X61087609Y-70750682D01*
X61090122Y-70747500D01*
X61136873Y-70662811D01*
X61203429Y-70542244D01*
X61203429Y-70542243D01*
X61205393Y-70538686D01*
X61207459Y-70532854D01*
X61269412Y-70357902D01*
X61285012Y-70313849D01*
X61326841Y-70079027D01*
X61326953Y-70069928D01*
X61328642Y-69931605D01*
X61329755Y-69840526D01*
X61293676Y-69604753D01*
X61225309Y-69395583D01*
X61220835Y-69381894D01*
X61220833Y-69381890D01*
X61219574Y-69378037D01*
X61109439Y-69166469D01*
X60966227Y-68975730D01*
X60793787Y-68810942D01*
X60790435Y-68808655D01*
X60790432Y-68808653D01*
X60600100Y-68678817D01*
X60600098Y-68678816D01*
X60596747Y-68676530D01*
X60593067Y-68674822D01*
X60593062Y-68674819D01*
X60495720Y-68629635D01*
X60380401Y-68576106D01*
X60334019Y-68563243D01*
X60154481Y-68513452D01*
X60154478Y-68513451D01*
X60150557Y-68512364D01*
X60146509Y-68511931D01*
X60146507Y-68511931D01*
X60062983Y-68503005D01*
X59955843Y-68491555D01*
X59817366Y-68491555D01*
X59815337Y-68491722D01*
X59815333Y-68491722D01*
X59644160Y-68505795D01*
X59644157Y-68505796D01*
X59640113Y-68506128D01*
X59636179Y-68507116D01*
X59636174Y-68507117D01*
X59512738Y-68538122D01*
X59408781Y-68564234D01*
X59190045Y-68659343D01*
X59130346Y-68697964D01*
X58993194Y-68786691D01*
X58993191Y-68786693D01*
X58989780Y-68788900D01*
X58813365Y-68949426D01*
X58810849Y-68952612D01*
X58810846Y-68952615D01*
X58668053Y-69133422D01*
X58668049Y-69133428D01*
X58665536Y-69136610D01*
X58550265Y-69345424D01*
X58548911Y-69349247D01*
X58548909Y-69349252D01*
X58492700Y-69507982D01*
X58470646Y-69570261D01*
X58428817Y-69805083D01*
X58428767Y-69809142D01*
X58428767Y-69809146D01*
X58427439Y-69917894D01*
X58425903Y-70043584D01*
X57608000Y-70043584D01*
X57608000Y-68113960D01*
X57610518Y-68091773D01*
X57613143Y-68080358D01*
X57610682Y-68069483D01*
X57610702Y-68058336D01*
X57610863Y-68058336D01*
X57610076Y-68048331D01*
X57616898Y-67944239D01*
X57622975Y-67851525D01*
X57624663Y-67838700D01*
X57668069Y-67620484D01*
X57671421Y-67607978D01*
X57742931Y-67397315D01*
X57747887Y-67385350D01*
X57846285Y-67185820D01*
X57852760Y-67174605D01*
X57976361Y-66989624D01*
X57984244Y-66979351D01*
X58130930Y-66812087D01*
X58140087Y-66802930D01*
X58307351Y-66656244D01*
X58317624Y-66648361D01*
X58502605Y-66524760D01*
X58513820Y-66518285D01*
X58713350Y-66419887D01*
X58725315Y-66414931D01*
X58935978Y-66343421D01*
X58948485Y-66340069D01*
X59166700Y-66296663D01*
X59179523Y-66294975D01*
X59375819Y-66282109D01*
X59385628Y-66282899D01*
X59385628Y-66282625D01*
X59396778Y-66282645D01*
X59407642Y-66285143D01*
X59418514Y-66282683D01*
X59418516Y-66282683D01*
X59419583Y-66282441D01*
X59441432Y-66280000D01*
X126856040Y-66280000D01*
X126878227Y-66282518D01*
G37*
%TD.AperFunction*%
%TD*%
M02*
