%TF.GenerationSoftware,KiCad,Pcbnew,8.0.4*%
%TF.CreationDate,2024-08-10T15:07:54-04:00*%
%TF.ProjectId,sp-slab-osh,73702d73-6c61-4622-9d6f-73682e6b6963,rev?*%
%TF.SameCoordinates,Original*%
%TF.FileFunction,Soldermask,Top*%
%TF.FilePolarity,Negative*%
%FSLAX46Y46*%
G04 Gerber Fmt 4.6, Leading zero omitted, Abs format (unit mm)*
G04 Created by KiCad (PCBNEW 8.0.4) date 2024-08-10 15:07:54*
%MOMM*%
%LPD*%
G01*
G04 APERTURE LIST*
%ADD10C,0.000000*%
%ADD11C,1.200000*%
%ADD12C,1.000000*%
%ADD13C,1.100000*%
%ADD14C,1.950000*%
G04 APERTURE END LIST*
D10*
G36*
X63189420Y-77825030D02*
G01*
X63295510Y-77828860D01*
X63295870Y-77828880D01*
X63331940Y-77831480D01*
X63332100Y-77831500D01*
X63373160Y-77835150D01*
X63373300Y-77835160D01*
X63413380Y-77839300D01*
X63413540Y-77839320D01*
X63437130Y-77842120D01*
X63437340Y-77842140D01*
X63463830Y-77845870D01*
X63464000Y-77845890D01*
X63495220Y-77850840D01*
X63495340Y-77850860D01*
X63529540Y-77856700D01*
X63529630Y-77856710D01*
X63565060Y-77863100D01*
X63565150Y-77863110D01*
X63600050Y-77869710D01*
X63600140Y-77869720D01*
X63632750Y-77876180D01*
X63632860Y-77876210D01*
X63661430Y-77882200D01*
X63661600Y-77882240D01*
X63684360Y-77887420D01*
X63684710Y-77887510D01*
X63699920Y-77891550D01*
X63701150Y-77891970D01*
X63706930Y-77894340D01*
X63712350Y-77899740D01*
X63713120Y-77903790D01*
X63712990Y-77910090D01*
X63712870Y-77911440D01*
X63710450Y-77926860D01*
X63710400Y-77927190D01*
X63706010Y-77950110D01*
X63705980Y-77950280D01*
X63699940Y-77979080D01*
X63699910Y-77979210D01*
X63692530Y-78012280D01*
X63692510Y-78012350D01*
X63689430Y-78025700D01*
X63630880Y-78297880D01*
X63580930Y-78576300D01*
X63539700Y-78860120D01*
X63507290Y-79148630D01*
X63483830Y-79440970D01*
X63483340Y-79448720D01*
X63480460Y-79496530D01*
X63477590Y-79549070D01*
X63474790Y-79604520D01*
X63472160Y-79661020D01*
X63469760Y-79716730D01*
X63467670Y-79769800D01*
X63465970Y-79818360D01*
X63464740Y-79860580D01*
X63464060Y-79894490D01*
X63463950Y-79908730D01*
X63463880Y-79955100D01*
X63460940Y-79962160D01*
X63453710Y-79965080D01*
X63239740Y-79961490D01*
X63239590Y-79961490D01*
X62985100Y-79953490D01*
X62984790Y-79953470D01*
X62737290Y-79938030D01*
X62736970Y-79938010D01*
X62495150Y-79914950D01*
X62494810Y-79914910D01*
X62257360Y-79884070D01*
X62257010Y-79884020D01*
X62022600Y-79845220D01*
X62022260Y-79845160D01*
X61789590Y-79798240D01*
X61789250Y-79798160D01*
X61556990Y-79742940D01*
X61556830Y-79742900D01*
X61554680Y-79742350D01*
X61554620Y-79742340D01*
X61506790Y-79729780D01*
X61506690Y-79729750D01*
X61455860Y-79715840D01*
X61455780Y-79715820D01*
X61402990Y-79700870D01*
X61402920Y-79700850D01*
X61349230Y-79685220D01*
X61349160Y-79685200D01*
X61295620Y-79669210D01*
X61295560Y-79669190D01*
X61243210Y-79653180D01*
X61243150Y-79653160D01*
X61193050Y-79637460D01*
X61192980Y-79637430D01*
X61146190Y-79622370D01*
X61146100Y-79622340D01*
X61103660Y-79608260D01*
X61103550Y-79608220D01*
X61066520Y-79595450D01*
X61066360Y-79595400D01*
X61035780Y-79584270D01*
X61035510Y-79584170D01*
X61012440Y-79575020D01*
X61011860Y-79574770D01*
X60997350Y-79567930D01*
X60995170Y-79566540D01*
X60990270Y-79562410D01*
X60986740Y-79555620D01*
X60986810Y-79553290D01*
X60988410Y-79542500D01*
X60988560Y-79541740D01*
X60992990Y-79522410D01*
X60993060Y-79522130D01*
X60999770Y-79496230D01*
X60999820Y-79496070D01*
X61008260Y-79465570D01*
X61008290Y-79465450D01*
X61017920Y-79432310D01*
X61017950Y-79432200D01*
X61028200Y-79398400D01*
X61028240Y-79398280D01*
X61038560Y-79365780D01*
X61038590Y-79365670D01*
X61043420Y-79351100D01*
X61043550Y-79350720D01*
X61098050Y-79205850D01*
X61098320Y-79205200D01*
X61162770Y-79064720D01*
X61163080Y-79064090D01*
X61237100Y-78928530D01*
X61237450Y-78927930D01*
X61320640Y-78797800D01*
X61321030Y-78797240D01*
X61413010Y-78673070D01*
X61413440Y-78672530D01*
X61513810Y-78554840D01*
X61514280Y-78554330D01*
X61622660Y-78443640D01*
X61623160Y-78443170D01*
X61739170Y-78340000D01*
X61739700Y-78339550D01*
X61862940Y-78244420D01*
X61863250Y-78244190D01*
X61876010Y-78235110D01*
X61876320Y-78234890D01*
X62007070Y-78149120D01*
X62007670Y-78148760D01*
X62143240Y-78072740D01*
X62143860Y-78072420D01*
X62283740Y-78006320D01*
X62284380Y-78006040D01*
X62428060Y-77949990D01*
X62428720Y-77949760D01*
X62575680Y-77903910D01*
X62576350Y-77903730D01*
X62726080Y-77868230D01*
X62726770Y-77868090D01*
X62878750Y-77843090D01*
X62879450Y-77843000D01*
X63033170Y-77828640D01*
X63033870Y-77828600D01*
X63188820Y-77825020D01*
X63189420Y-77825030D01*
G37*
G36*
X78935580Y-77830640D02*
G01*
X78936180Y-77830660D01*
X79072500Y-77839420D01*
X79073150Y-77839480D01*
X79206470Y-77856730D01*
X79207120Y-77856840D01*
X79339810Y-77882890D01*
X79340390Y-77883020D01*
X79462660Y-77914640D01*
X79463260Y-77914810D01*
X79610410Y-77962710D01*
X79611070Y-77962960D01*
X79753660Y-78020700D01*
X79754290Y-78020980D01*
X79891910Y-78088160D01*
X79892520Y-78088490D01*
X80024740Y-78164720D01*
X80025320Y-78165080D01*
X80151740Y-78249960D01*
X80152280Y-78250360D01*
X80272470Y-78343500D01*
X80272990Y-78343930D01*
X80386520Y-78444920D01*
X80387010Y-78445390D01*
X80493490Y-78553840D01*
X80493940Y-78554340D01*
X80592930Y-78669850D01*
X80593350Y-78670380D01*
X80684440Y-78792560D01*
X80684830Y-78793120D01*
X80767600Y-78921570D01*
X80767950Y-78922160D01*
X80841990Y-79056480D01*
X80842300Y-79057090D01*
X80907180Y-79196890D01*
X80907450Y-79197520D01*
X80961340Y-79338270D01*
X80961490Y-79338680D01*
X80972750Y-79372450D01*
X80972800Y-79372610D01*
X80983920Y-79407880D01*
X80983960Y-79408020D01*
X80994460Y-79443080D01*
X80994500Y-79443210D01*
X81003910Y-79476340D01*
X81003960Y-79476500D01*
X81011810Y-79505980D01*
X81011860Y-79506210D01*
X81017680Y-79530340D01*
X81017780Y-79530780D01*
X81021090Y-79547830D01*
X81021260Y-79549320D01*
X81021600Y-79557560D01*
X81018970Y-79564750D01*
X81016950Y-79566430D01*
X81011030Y-79570160D01*
X81009640Y-79570900D01*
X80994420Y-79577430D01*
X80994050Y-79577580D01*
X80970770Y-79586490D01*
X80970600Y-79586560D01*
X80940520Y-79597430D01*
X80940410Y-79597470D01*
X80904790Y-79609890D01*
X80904710Y-79609910D01*
X80864800Y-79623450D01*
X80864730Y-79623470D01*
X80821780Y-79637710D01*
X80821730Y-79637730D01*
X80777000Y-79652240D01*
X80776940Y-79652260D01*
X80731680Y-79666640D01*
X80731620Y-79666660D01*
X80687090Y-79680480D01*
X80687010Y-79680500D01*
X80644470Y-79693350D01*
X80644370Y-79693370D01*
X80605060Y-79704820D01*
X80604990Y-79704840D01*
X80600790Y-79706030D01*
X80600590Y-79706080D01*
X80361880Y-79768500D01*
X80361500Y-79768590D01*
X80116490Y-79822710D01*
X80116130Y-79822780D01*
X79866030Y-79868420D01*
X79865670Y-79868480D01*
X79611680Y-79905450D01*
X79611330Y-79905490D01*
X79354670Y-79933600D01*
X79354310Y-79933640D01*
X79096170Y-79952700D01*
X79095930Y-79952710D01*
X78998460Y-79957510D01*
X78998350Y-79957520D01*
X78946760Y-79959510D01*
X78946700Y-79959520D01*
X78892460Y-79961270D01*
X78892400Y-79961270D01*
X78837320Y-79962750D01*
X78837270Y-79962750D01*
X78783140Y-79963920D01*
X78783090Y-79963920D01*
X78731720Y-79964760D01*
X78731650Y-79964760D01*
X78684840Y-79965220D01*
X78684750Y-79965220D01*
X78644290Y-79965290D01*
X78644160Y-79965290D01*
X78611850Y-79964920D01*
X78611660Y-79964920D01*
X78596950Y-79964480D01*
X78596840Y-79964470D01*
X78557810Y-79962870D01*
X78550860Y-79959660D01*
X78548220Y-79953230D01*
X78541530Y-79761570D01*
X78532020Y-79546110D01*
X78518730Y-79338650D01*
X78501450Y-79137110D01*
X78479920Y-78938830D01*
X78453950Y-78741730D01*
X78423260Y-78543170D01*
X78421590Y-78533110D01*
X78407370Y-78450890D01*
X78391620Y-78365300D01*
X78374860Y-78278870D01*
X78357490Y-78193660D01*
X78340060Y-78112290D01*
X78323060Y-78037150D01*
X78306920Y-77970400D01*
X78306050Y-77966940D01*
X78306040Y-77966920D01*
X78300340Y-77944110D01*
X78300320Y-77944050D01*
X78295810Y-77925510D01*
X78295780Y-77925400D01*
X78293040Y-77913570D01*
X78292950Y-77913160D01*
X78292400Y-77910210D01*
X78293970Y-77902720D01*
X78297710Y-77899430D01*
X78302850Y-77896840D01*
X78304540Y-77896170D01*
X78318750Y-77892000D01*
X78319160Y-77891890D01*
X78340660Y-77886540D01*
X78340860Y-77886490D01*
X78367870Y-77880390D01*
X78368010Y-77880360D01*
X78398730Y-77873890D01*
X78398860Y-77873860D01*
X78431510Y-77867440D01*
X78431640Y-77867410D01*
X78460550Y-77862130D01*
X78460740Y-77862090D01*
X78527010Y-77851250D01*
X78527310Y-77851210D01*
X78589090Y-77842980D01*
X78589430Y-77842940D01*
X78650500Y-77836960D01*
X78650840Y-77836940D01*
X78714980Y-77832850D01*
X78715260Y-77832830D01*
X78786240Y-77830260D01*
X78786360Y-77830260D01*
X78793620Y-77830080D01*
X78793910Y-77830080D01*
X78935580Y-77830640D01*
G37*
D11*
X61363030Y-93295350D02*
G75*
G02*
X60163030Y-93295350I-600000J0D01*
G01*
X60163030Y-93295350D02*
G75*
G02*
X61363030Y-93295350I600000J0D01*
G01*
D10*
G36*
X121543220Y-74371790D02*
G01*
X121546890Y-74373090D01*
X121630690Y-74423030D01*
X121633580Y-74425650D01*
X121691890Y-74503850D01*
X121693560Y-74507370D01*
X121717500Y-74601930D01*
X121717700Y-74605830D01*
X121703630Y-74702360D01*
X121702330Y-74706030D01*
X121652390Y-74789830D01*
X121649770Y-74792720D01*
X121571570Y-74851030D01*
X121569890Y-74852040D01*
X118994520Y-76077990D01*
X119055700Y-76172550D01*
X119056150Y-76173320D01*
X119164220Y-76378080D01*
X119164590Y-76378870D01*
X119254240Y-76592190D01*
X119254550Y-76593010D01*
X119325270Y-76813390D01*
X119325500Y-76814230D01*
X119376800Y-77040190D01*
X119376950Y-77041050D01*
X119408310Y-77271070D01*
X119408390Y-77271960D01*
X119419290Y-77504550D01*
X119419300Y-77505450D01*
X119409250Y-77739120D01*
X119409160Y-77740030D01*
X119377650Y-77973280D01*
X119377520Y-77974020D01*
X119346710Y-78118880D01*
X119346520Y-78119610D01*
X119280760Y-78343830D01*
X119280460Y-78344690D01*
X119194300Y-78563000D01*
X119193940Y-78563800D01*
X119088700Y-78774100D01*
X119088280Y-78774860D01*
X118965290Y-78975050D01*
X118964800Y-78975770D01*
X118825390Y-79163770D01*
X118824830Y-79164460D01*
X118670300Y-79338150D01*
X118669660Y-79338810D01*
X118501350Y-79496110D01*
X118500900Y-79496510D01*
X118452920Y-79536170D01*
X118452660Y-79536380D01*
X118411060Y-79568540D01*
X118410850Y-79568700D01*
X118361140Y-79605080D01*
X118361000Y-79605180D01*
X118306640Y-79643480D01*
X118306520Y-79643570D01*
X118250970Y-79681490D01*
X118250850Y-79681570D01*
X118197560Y-79716820D01*
X118197410Y-79716910D01*
X118149830Y-79747180D01*
X118149600Y-79747320D01*
X118111200Y-79770310D01*
X118110680Y-79770600D01*
X118084900Y-79784010D01*
X118082020Y-79784990D01*
X118069880Y-79787130D01*
X118068140Y-79787280D01*
X118018140Y-79787280D01*
X118011070Y-79784350D01*
X118008140Y-79777280D01*
X118008140Y-75227280D01*
X118011070Y-75220210D01*
X118018310Y-75217280D01*
X118072090Y-75218220D01*
X118075420Y-75218850D01*
X118092420Y-75225210D01*
X118093760Y-75225820D01*
X118125490Y-75243390D01*
X118125880Y-75243620D01*
X118168960Y-75270140D01*
X118169170Y-75270270D01*
X118220190Y-75303470D01*
X118220340Y-75303570D01*
X118275930Y-75341190D01*
X118276070Y-75341280D01*
X118332830Y-75381070D01*
X118332970Y-75381170D01*
X118387520Y-75420860D01*
X118387700Y-75420990D01*
X118436650Y-75458310D01*
X118436800Y-75458430D01*
X118447240Y-75466710D01*
X118447640Y-75467040D01*
X118624290Y-75622570D01*
X118624960Y-75623210D01*
X118660600Y-75661030D01*
X121346390Y-74382520D01*
X121348230Y-74381860D01*
X121442800Y-74357920D01*
X121446690Y-74357720D01*
X121543220Y-74371790D01*
G37*
D11*
X126442810Y-87762140D02*
G75*
G02*
X125242810Y-87762140I-600000J0D01*
G01*
X125242810Y-87762140D02*
G75*
G02*
X126442810Y-87762140I600000J0D01*
G01*
X105890000Y-94520000D02*
G75*
G02*
X104690000Y-94520000I-600000J0D01*
G01*
X104690000Y-94520000D02*
G75*
G02*
X105890000Y-94520000I600000J0D01*
G01*
D12*
X97140010Y-73074190D02*
G75*
G02*
X96140010Y-73074190I-500000J0D01*
G01*
X96140010Y-73074190D02*
G75*
G02*
X97140010Y-73074190I500000J0D01*
G01*
D11*
X88490930Y-83342230D02*
G75*
G02*
X87290930Y-83342230I-600000J0D01*
G01*
X87290930Y-83342230D02*
G75*
G02*
X88490930Y-83342230I600000J0D01*
G01*
D10*
G36*
X102632480Y-98793490D02*
G01*
X102635410Y-98800560D01*
X102635410Y-100721440D01*
X102632480Y-100728510D01*
X102625410Y-100731440D01*
X101981470Y-100731440D01*
X101341670Y-100731440D01*
X101067790Y-101005340D01*
X100793910Y-101279240D01*
X100793910Y-102562940D01*
X100790980Y-102570010D01*
X100783910Y-102572940D01*
X99351190Y-102572940D01*
X99344120Y-102570010D01*
X99341190Y-102562940D01*
X99341190Y-101283210D01*
X98801360Y-100743340D01*
X97666600Y-100743340D01*
X97398680Y-101011290D01*
X97130750Y-101279240D01*
X97130750Y-101919020D01*
X97130750Y-102562940D01*
X97127820Y-102570010D01*
X97120750Y-102572940D01*
X95688030Y-102572940D01*
X95680960Y-102570010D01*
X95678030Y-102562940D01*
X95678030Y-101130220D01*
X95680960Y-101123150D01*
X95688030Y-101120220D01*
X96971770Y-101120220D01*
X97239700Y-100852270D01*
X97507620Y-100584320D01*
X97507620Y-99300620D01*
X97510550Y-99293550D01*
X97517620Y-99290620D01*
X98950340Y-99290620D01*
X98957410Y-99293550D01*
X98960340Y-99300620D01*
X98960340Y-100584360D01*
X99228290Y-100852290D01*
X99496240Y-101120220D01*
X100634930Y-101120220D01*
X100908810Y-100846320D01*
X101182690Y-100572410D01*
X101182690Y-98800560D01*
X101185620Y-98793490D01*
X101192690Y-98790560D01*
X102625410Y-98790560D01*
X102632480Y-98793490D01*
G37*
D13*
X83061590Y-89675820D02*
G75*
G02*
X81961590Y-89675820I-550000J0D01*
G01*
X81961590Y-89675820D02*
G75*
G02*
X83061590Y-89675820I550000J0D01*
G01*
D10*
G36*
X68845860Y-87361340D02*
G01*
X68847210Y-87361460D01*
X68862630Y-87363880D01*
X68862960Y-87363930D01*
X68885880Y-87368320D01*
X68886050Y-87368350D01*
X68914850Y-87374390D01*
X68914980Y-87374420D01*
X68948050Y-87381800D01*
X68948120Y-87381820D01*
X68961470Y-87384900D01*
X69233650Y-87443450D01*
X69512070Y-87493400D01*
X69795890Y-87534630D01*
X70084400Y-87567040D01*
X70376740Y-87590500D01*
X70384490Y-87590990D01*
X70432300Y-87593870D01*
X70484840Y-87596740D01*
X70540290Y-87599540D01*
X70596790Y-87602170D01*
X70652500Y-87604570D01*
X70705570Y-87606660D01*
X70754130Y-87608360D01*
X70796350Y-87609590D01*
X70830260Y-87610270D01*
X70844500Y-87610380D01*
X70890870Y-87610450D01*
X70897930Y-87613390D01*
X70900850Y-87620620D01*
X70897260Y-87834590D01*
X70897260Y-87834740D01*
X70889260Y-88089230D01*
X70889240Y-88089540D01*
X70873800Y-88337040D01*
X70873780Y-88337360D01*
X70850720Y-88579180D01*
X70850680Y-88579520D01*
X70819840Y-88816970D01*
X70819790Y-88817320D01*
X70780990Y-89051730D01*
X70780930Y-89052070D01*
X70734010Y-89284740D01*
X70733930Y-89285080D01*
X70678710Y-89517340D01*
X70678670Y-89517500D01*
X70678120Y-89519650D01*
X70678110Y-89519710D01*
X70665550Y-89567540D01*
X70665520Y-89567640D01*
X70651610Y-89618470D01*
X70651590Y-89618550D01*
X70636640Y-89671340D01*
X70636620Y-89671410D01*
X70620990Y-89725100D01*
X70620970Y-89725170D01*
X70604980Y-89778710D01*
X70604960Y-89778770D01*
X70588950Y-89831120D01*
X70588930Y-89831180D01*
X70573230Y-89881280D01*
X70573200Y-89881350D01*
X70558140Y-89928140D01*
X70558110Y-89928230D01*
X70544030Y-89970670D01*
X70543990Y-89970780D01*
X70531220Y-90007810D01*
X70531170Y-90007970D01*
X70520040Y-90038550D01*
X70519940Y-90038820D01*
X70510790Y-90061890D01*
X70510540Y-90062470D01*
X70503700Y-90076980D01*
X70502310Y-90079160D01*
X70498180Y-90084060D01*
X70491390Y-90087590D01*
X70489060Y-90087520D01*
X70478270Y-90085920D01*
X70477510Y-90085770D01*
X70458180Y-90081340D01*
X70457900Y-90081270D01*
X70432000Y-90074560D01*
X70431840Y-90074510D01*
X70401340Y-90066070D01*
X70401220Y-90066040D01*
X70368080Y-90056410D01*
X70367970Y-90056380D01*
X70334170Y-90046130D01*
X70334050Y-90046090D01*
X70301550Y-90035770D01*
X70301440Y-90035740D01*
X70286870Y-90030910D01*
X70286490Y-90030780D01*
X70141620Y-89976280D01*
X70140970Y-89976010D01*
X70000490Y-89911560D01*
X69999860Y-89911250D01*
X69864300Y-89837230D01*
X69863700Y-89836880D01*
X69733570Y-89753690D01*
X69733010Y-89753300D01*
X69608840Y-89661320D01*
X69608300Y-89660890D01*
X69490610Y-89560520D01*
X69490100Y-89560050D01*
X69379410Y-89451670D01*
X69378940Y-89451170D01*
X69275770Y-89335160D01*
X69275320Y-89334630D01*
X69180190Y-89211390D01*
X69179960Y-89211080D01*
X69170880Y-89198320D01*
X69170660Y-89198010D01*
X69084890Y-89067260D01*
X69084530Y-89066660D01*
X69008510Y-88931090D01*
X69008190Y-88930470D01*
X68942090Y-88790590D01*
X68941810Y-88789950D01*
X68885760Y-88646270D01*
X68885530Y-88645610D01*
X68839680Y-88498650D01*
X68839500Y-88497980D01*
X68804000Y-88348250D01*
X68803860Y-88347560D01*
X68778860Y-88195580D01*
X68778770Y-88194880D01*
X68764410Y-88041160D01*
X68764370Y-88040460D01*
X68760790Y-87885510D01*
X68760800Y-87884910D01*
X68764630Y-87778820D01*
X68764650Y-87778460D01*
X68767250Y-87742390D01*
X68767270Y-87742230D01*
X68770920Y-87701170D01*
X68770930Y-87701030D01*
X68775070Y-87660950D01*
X68775090Y-87660790D01*
X68777890Y-87637200D01*
X68777910Y-87636990D01*
X68781640Y-87610500D01*
X68781660Y-87610330D01*
X68786610Y-87579110D01*
X68786630Y-87578990D01*
X68792470Y-87544790D01*
X68792480Y-87544700D01*
X68798870Y-87509270D01*
X68798880Y-87509180D01*
X68805480Y-87474280D01*
X68805490Y-87474190D01*
X68811950Y-87441580D01*
X68811980Y-87441470D01*
X68817970Y-87412900D01*
X68818010Y-87412730D01*
X68823190Y-87389970D01*
X68823280Y-87389620D01*
X68827320Y-87374410D01*
X68827740Y-87373180D01*
X68830110Y-87367400D01*
X68835510Y-87361980D01*
X68839560Y-87361210D01*
X68845860Y-87361340D01*
G37*
D11*
X103990010Y-70824190D02*
G75*
G02*
X102790010Y-70824190I-600000J0D01*
G01*
X102790010Y-70824190D02*
G75*
G02*
X103990010Y-70824190I600000J0D01*
G01*
D10*
G36*
X89476320Y-98793690D02*
G01*
X89479250Y-98800760D01*
X89479250Y-99649000D01*
X89479250Y-100497230D01*
X89476320Y-100504300D01*
X89259080Y-100721680D01*
X89041840Y-100939050D01*
X89034770Y-100941980D01*
X88046430Y-100941980D01*
X88039350Y-100939050D01*
X87828030Y-100727700D01*
X87616710Y-100516350D01*
X87613780Y-100509280D01*
X87613780Y-99112390D01*
X85804190Y-99112390D01*
X85804190Y-100509340D01*
X85801260Y-100516410D01*
X85589910Y-100727730D01*
X85378560Y-100939050D01*
X85371490Y-100941980D01*
X83974590Y-100941980D01*
X83974590Y-102751570D01*
X85784190Y-102751570D01*
X85784190Y-101354620D01*
X85787120Y-101347550D01*
X85998470Y-101136230D01*
X86209810Y-100924910D01*
X86216890Y-100921980D01*
X87201140Y-100921980D01*
X87208210Y-100924910D01*
X87421510Y-101138240D01*
X87634820Y-101351580D01*
X87637750Y-101358650D01*
X87637750Y-102060110D01*
X87637750Y-102751570D01*
X89447340Y-102751570D01*
X89447340Y-101354620D01*
X89450270Y-101347550D01*
X89667570Y-101130280D01*
X89884880Y-100913000D01*
X89891950Y-100910070D01*
X91288840Y-100910070D01*
X91288840Y-98800760D01*
X91291770Y-98793690D01*
X91298840Y-98790760D01*
X91600470Y-98790760D01*
X91607540Y-98793690D01*
X91610470Y-98800760D01*
X91610470Y-103067170D01*
X91607540Y-103074240D01*
X91600470Y-103077170D01*
X87632380Y-103077170D01*
X87455060Y-103077170D01*
X87279670Y-103077160D01*
X87106380Y-103077140D01*
X86935350Y-103077130D01*
X86766750Y-103077100D01*
X86600750Y-103077080D01*
X86437520Y-103077040D01*
X86277220Y-103077010D01*
X86120030Y-103076970D01*
X85966110Y-103076920D01*
X85815630Y-103076870D01*
X85668760Y-103076820D01*
X85525670Y-103076760D01*
X85386520Y-103076700D01*
X85251490Y-103076640D01*
X85120740Y-103076570D01*
X84994430Y-103076500D01*
X84872750Y-103076420D01*
X84755850Y-103076340D01*
X84643910Y-103076260D01*
X84537090Y-103076170D01*
X84435560Y-103076090D01*
X84339490Y-103076000D01*
X84249040Y-103075900D01*
X84164390Y-103075810D01*
X84085710Y-103075710D01*
X84013150Y-103075610D01*
X83946900Y-103075500D01*
X83887110Y-103075400D01*
X83833960Y-103075290D01*
X83787620Y-103075180D01*
X83787610Y-103075180D01*
X83748240Y-103075070D01*
X83748230Y-103075070D01*
X83716000Y-103074960D01*
X83715990Y-103074960D01*
X83691070Y-103074840D01*
X83691050Y-103074840D01*
X83673610Y-103074730D01*
X83673550Y-103074730D01*
X83663760Y-103074610D01*
X83663480Y-103074600D01*
X83661250Y-103074510D01*
X83654300Y-103071310D01*
X83651650Y-103064920D01*
X83651490Y-103060820D01*
X83651480Y-103060560D01*
X83651330Y-103048760D01*
X83651330Y-103048710D01*
X83651170Y-103029430D01*
X83651170Y-103029410D01*
X83651020Y-103002880D01*
X83651020Y-103002870D01*
X83650870Y-102969320D01*
X83650870Y-102969310D01*
X83650720Y-102928980D01*
X83650720Y-102928970D01*
X83650580Y-102882080D01*
X83650440Y-102828850D01*
X83650310Y-102769530D01*
X83650310Y-102769520D01*
X83650180Y-102704330D01*
X83650060Y-102633490D01*
X83649940Y-102557250D01*
X83649940Y-102557240D01*
X83649830Y-102475820D01*
X83649720Y-102389440D01*
X83649620Y-102298340D01*
X83649520Y-102202750D01*
X83649440Y-102102900D01*
X83649440Y-102102890D01*
X83649360Y-101999010D01*
X83649280Y-101891320D01*
X83649220Y-101780060D01*
X83649160Y-101665450D01*
X83649110Y-101547730D01*
X83649070Y-101427130D01*
X83649040Y-101303870D01*
X83649020Y-101178190D01*
X83649000Y-101050310D01*
X83649000Y-100931320D01*
X83649000Y-98800760D01*
X83651930Y-98793690D01*
X83659000Y-98790760D01*
X89469250Y-98790760D01*
X89476320Y-98793690D01*
G37*
D12*
X90640010Y-68574190D02*
G75*
G02*
X89640010Y-68574190I-500000J0D01*
G01*
X89640010Y-68574190D02*
G75*
G02*
X90640010Y-68574190I500000J0D01*
G01*
D10*
G36*
X63398250Y-80173640D02*
G01*
X63398440Y-80173640D01*
X63413150Y-80174080D01*
X63413260Y-80174090D01*
X63452290Y-80175690D01*
X63459240Y-80178900D01*
X63461880Y-80185330D01*
X63468570Y-80376990D01*
X63478080Y-80592450D01*
X63491370Y-80799910D01*
X63508650Y-81001450D01*
X63530180Y-81199730D01*
X63556150Y-81396830D01*
X63586840Y-81595390D01*
X63588510Y-81605450D01*
X63602730Y-81687670D01*
X63618480Y-81773260D01*
X63635240Y-81859690D01*
X63652610Y-81944900D01*
X63670040Y-82026270D01*
X63687040Y-82101410D01*
X63703180Y-82168160D01*
X63704050Y-82171620D01*
X63704060Y-82171640D01*
X63709760Y-82194450D01*
X63709780Y-82194510D01*
X63714290Y-82213050D01*
X63714320Y-82213160D01*
X63717060Y-82224990D01*
X63717150Y-82225400D01*
X63717700Y-82228350D01*
X63716130Y-82235840D01*
X63712390Y-82239130D01*
X63707250Y-82241720D01*
X63705560Y-82242390D01*
X63691350Y-82246560D01*
X63690940Y-82246670D01*
X63669440Y-82252020D01*
X63669240Y-82252070D01*
X63642230Y-82258170D01*
X63642090Y-82258200D01*
X63611370Y-82264670D01*
X63611240Y-82264700D01*
X63578590Y-82271120D01*
X63578460Y-82271150D01*
X63549550Y-82276430D01*
X63549360Y-82276470D01*
X63483090Y-82287310D01*
X63482790Y-82287350D01*
X63421010Y-82295580D01*
X63420670Y-82295620D01*
X63359600Y-82301600D01*
X63359260Y-82301620D01*
X63295120Y-82305710D01*
X63294840Y-82305730D01*
X63223860Y-82308300D01*
X63223740Y-82308300D01*
X63216480Y-82308480D01*
X63216190Y-82308480D01*
X63074520Y-82307920D01*
X63073920Y-82307900D01*
X62937600Y-82299140D01*
X62936950Y-82299080D01*
X62803630Y-82281830D01*
X62802980Y-82281720D01*
X62670290Y-82255670D01*
X62669710Y-82255540D01*
X62547440Y-82223920D01*
X62546840Y-82223750D01*
X62399690Y-82175850D01*
X62399030Y-82175600D01*
X62256440Y-82117860D01*
X62255810Y-82117580D01*
X62118190Y-82050400D01*
X62117580Y-82050070D01*
X61985360Y-81973840D01*
X61984780Y-81973480D01*
X61858360Y-81888600D01*
X61857820Y-81888200D01*
X61737630Y-81795060D01*
X61737110Y-81794630D01*
X61623580Y-81693640D01*
X61623090Y-81693170D01*
X61516610Y-81584720D01*
X61516160Y-81584220D01*
X61417170Y-81468710D01*
X61416750Y-81468180D01*
X61325660Y-81346000D01*
X61325270Y-81345440D01*
X61242500Y-81216990D01*
X61242150Y-81216400D01*
X61168110Y-81082080D01*
X61167800Y-81081470D01*
X61102920Y-80941670D01*
X61102650Y-80941040D01*
X61048760Y-80800290D01*
X61048610Y-80799880D01*
X61037350Y-80766110D01*
X61037300Y-80765950D01*
X61026180Y-80730680D01*
X61026140Y-80730540D01*
X61015640Y-80695480D01*
X61015600Y-80695350D01*
X61006190Y-80662220D01*
X61006140Y-80662060D01*
X60998290Y-80632580D01*
X60998240Y-80632350D01*
X60992420Y-80608220D01*
X60992320Y-80607780D01*
X60989010Y-80590730D01*
X60988840Y-80589240D01*
X60988500Y-80581000D01*
X60991130Y-80573810D01*
X60993150Y-80572130D01*
X60999070Y-80568400D01*
X61000460Y-80567660D01*
X61015680Y-80561130D01*
X61016050Y-80560980D01*
X61039330Y-80552070D01*
X61039500Y-80552000D01*
X61069580Y-80541130D01*
X61069690Y-80541090D01*
X61105310Y-80528670D01*
X61105390Y-80528650D01*
X61145300Y-80515110D01*
X61145370Y-80515090D01*
X61188320Y-80500850D01*
X61188370Y-80500830D01*
X61233100Y-80486320D01*
X61233160Y-80486300D01*
X61278420Y-80471920D01*
X61278480Y-80471900D01*
X61323010Y-80458080D01*
X61323090Y-80458060D01*
X61365630Y-80445210D01*
X61365730Y-80445190D01*
X61405040Y-80433740D01*
X61405110Y-80433720D01*
X61409310Y-80432530D01*
X61409510Y-80432480D01*
X61648220Y-80370060D01*
X61648600Y-80369970D01*
X61893610Y-80315850D01*
X61893970Y-80315780D01*
X62144070Y-80270140D01*
X62144430Y-80270080D01*
X62398420Y-80233110D01*
X62398770Y-80233070D01*
X62655430Y-80204960D01*
X62655790Y-80204920D01*
X62913930Y-80185860D01*
X62914170Y-80185850D01*
X63011640Y-80181050D01*
X63011750Y-80181040D01*
X63063340Y-80179050D01*
X63063400Y-80179040D01*
X63117640Y-80177290D01*
X63117700Y-80177290D01*
X63172780Y-80175810D01*
X63172830Y-80175810D01*
X63226960Y-80174640D01*
X63227010Y-80174640D01*
X63278380Y-80173800D01*
X63278450Y-80173800D01*
X63325260Y-80173340D01*
X63325350Y-80173340D01*
X63365810Y-80173270D01*
X63365940Y-80173270D01*
X63398250Y-80173640D01*
G37*
D12*
X97140010Y-68574190D02*
G75*
G02*
X96140010Y-68574190I-500000J0D01*
G01*
X96140010Y-68574190D02*
G75*
G02*
X97140010Y-68574190I500000J0D01*
G01*
D10*
G36*
X109586430Y-79776730D02*
G01*
X109588110Y-79782280D01*
X109588110Y-84372280D01*
X109585180Y-84379350D01*
X109578110Y-84382280D01*
X109572560Y-84380600D01*
X109557960Y-84370870D01*
X109551280Y-84367380D01*
X109550900Y-84367170D01*
X109526530Y-84353070D01*
X109526410Y-84353010D01*
X109493190Y-84333210D01*
X109493150Y-84333180D01*
X109492280Y-84332660D01*
X109491900Y-84332420D01*
X109288090Y-84196830D01*
X109287370Y-84196300D01*
X109098720Y-84044840D01*
X109098050Y-84044250D01*
X108925370Y-83877990D01*
X108924750Y-83877330D01*
X108768830Y-83697330D01*
X108768270Y-83696620D01*
X108629900Y-83503940D01*
X108629400Y-83503170D01*
X108509370Y-83298870D01*
X108508940Y-83298060D01*
X108408050Y-83083190D01*
X108407700Y-83082330D01*
X108326730Y-82857960D01*
X108326510Y-82857270D01*
X108289210Y-82724090D01*
X108289100Y-82723660D01*
X108259960Y-82598560D01*
X108259870Y-82598110D01*
X108238490Y-82483060D01*
X108238400Y-82482510D01*
X108223890Y-82370010D01*
X108223840Y-82369450D01*
X108215300Y-82252000D01*
X108215280Y-82251540D01*
X108211810Y-82121650D01*
X108211800Y-82121430D01*
X108211610Y-82077970D01*
X108211620Y-82077550D01*
X108220360Y-81845690D01*
X108220430Y-81844860D01*
X108247190Y-81624070D01*
X108247340Y-81623180D01*
X108292940Y-81409910D01*
X108293180Y-81409030D01*
X108358430Y-81199730D01*
X108358720Y-81198910D01*
X108444440Y-80990060D01*
X108444650Y-80989570D01*
X108476570Y-80922180D01*
X108476840Y-80921650D01*
X108584920Y-80724730D01*
X108585390Y-80723960D01*
X108712900Y-80534440D01*
X108713410Y-80533750D01*
X108858020Y-80354130D01*
X108858570Y-80353500D01*
X109017930Y-80186290D01*
X109018530Y-80185700D01*
X109190320Y-80033410D01*
X109190990Y-80032860D01*
X109372860Y-79898000D01*
X109373520Y-79897550D01*
X109510120Y-79812220D01*
X109510430Y-79812040D01*
X109547580Y-79790610D01*
X109572560Y-79773960D01*
X109580070Y-79772470D01*
X109586430Y-79776730D01*
G37*
D14*
X116189960Y-85805570D02*
G75*
G02*
X114239960Y-85805570I-975000J0D01*
G01*
X114239960Y-85805570D02*
G75*
G02*
X116189960Y-85805570I975000J0D01*
G01*
D12*
X90640010Y-73074190D02*
G75*
G02*
X89640010Y-73074190I-500000J0D01*
G01*
X89640010Y-73074190D02*
G75*
G02*
X90640010Y-73074190I500000J0D01*
G01*
D10*
G36*
X106373160Y-80358610D02*
G01*
X106377970Y-80363420D01*
X106382590Y-80373300D01*
X106382860Y-80373940D01*
X106393100Y-80400460D01*
X106393170Y-80400620D01*
X106407250Y-80439090D01*
X106407280Y-80439180D01*
X106415790Y-80463080D01*
X106415840Y-80463220D01*
X106423940Y-80487090D01*
X106424060Y-80487440D01*
X106431180Y-80511280D01*
X106431310Y-80511750D01*
X106437650Y-80537490D01*
X106437750Y-80537970D01*
X106443490Y-80567510D01*
X106443570Y-80567920D01*
X106448900Y-80603190D01*
X106448940Y-80603500D01*
X106454060Y-80646400D01*
X106454080Y-80646620D01*
X106459180Y-80699080D01*
X106459190Y-80699220D01*
X106464440Y-80763150D01*
X106464450Y-80763250D01*
X106470060Y-80840560D01*
X106470060Y-80840620D01*
X106476210Y-80933240D01*
X106476210Y-80933270D01*
X106483090Y-81043110D01*
X106483100Y-81043130D01*
X106490900Y-81172090D01*
X106490900Y-81172100D01*
X106497740Y-81287110D01*
X106497750Y-81287210D01*
X106501980Y-81373000D01*
X106501980Y-81373130D01*
X106505750Y-81478030D01*
X106505750Y-81478120D01*
X106509040Y-81598680D01*
X106509040Y-81598750D01*
X106511820Y-81731520D01*
X106511820Y-81731570D01*
X106514060Y-81873090D01*
X106514060Y-81873140D01*
X106515730Y-82019950D01*
X106515730Y-82019990D01*
X106516820Y-82168650D01*
X106516820Y-82168690D01*
X106517300Y-82315730D01*
X106517300Y-82315770D01*
X106517140Y-82457740D01*
X106517140Y-82457790D01*
X106516320Y-82591230D01*
X106516310Y-82591300D01*
X106514800Y-82712750D01*
X106514800Y-82712840D01*
X106512570Y-82818850D01*
X106512560Y-82818980D01*
X106509750Y-82902350D01*
X106509750Y-82902550D01*
X106490050Y-83269690D01*
X106490040Y-83269930D01*
X106463200Y-83616440D01*
X106463180Y-83616710D01*
X106429220Y-83942460D01*
X106429180Y-83942760D01*
X106388110Y-84247630D01*
X106388060Y-84247960D01*
X106339900Y-84531810D01*
X106339830Y-84532190D01*
X106284600Y-84794880D01*
X106284500Y-84795320D01*
X106222220Y-85036730D01*
X106222130Y-85037050D01*
X106200960Y-85108990D01*
X106200900Y-85109190D01*
X106186000Y-85156250D01*
X106185920Y-85156510D01*
X106172840Y-85194240D01*
X106172660Y-85194700D01*
X106163000Y-85218670D01*
X106162060Y-85220460D01*
X106157880Y-85226780D01*
X106151530Y-85231050D01*
X106145160Y-85230250D01*
X106134250Y-85224930D01*
X106134010Y-85224810D01*
X106105050Y-85209760D01*
X106105000Y-85209730D01*
X106059840Y-85185910D01*
X106059820Y-85185900D01*
X106000300Y-85154300D01*
X106000280Y-85154300D01*
X105928240Y-85115890D01*
X105928230Y-85115890D01*
X105845480Y-85071660D01*
X105845480Y-85071650D01*
X105753880Y-85022580D01*
X105753870Y-85022570D01*
X105655250Y-84969620D01*
X105599080Y-84939420D01*
X105599070Y-84939410D01*
X105497570Y-84884670D01*
X105497550Y-84884660D01*
X105402270Y-84833030D01*
X105402250Y-84833010D01*
X105315030Y-84785490D01*
X105315000Y-84785480D01*
X105237630Y-84743060D01*
X105237600Y-84743040D01*
X105171900Y-84706730D01*
X105171860Y-84706700D01*
X105119630Y-84677500D01*
X105119550Y-84677450D01*
X105082620Y-84656350D01*
X105082400Y-84656220D01*
X105062560Y-84644220D01*
X105061510Y-84643480D01*
X105058550Y-84641120D01*
X105054840Y-84634430D01*
X105055730Y-84629030D01*
X105061410Y-84617020D01*
X105061780Y-84616320D01*
X105077110Y-84589620D01*
X105077220Y-84589420D01*
X105099670Y-84552350D01*
X105099740Y-84552240D01*
X105119300Y-84520890D01*
X105232500Y-84322910D01*
X105333880Y-84106780D01*
X105423270Y-83873310D01*
X105500300Y-83623630D01*
X105564640Y-83358890D01*
X105615960Y-83080100D01*
X105653920Y-82788390D01*
X105664190Y-82681080D01*
X105673450Y-82551420D01*
X105679800Y-82411340D01*
X105683380Y-82263370D01*
X105684310Y-82109940D01*
X105682700Y-81953840D01*
X105678690Y-81797260D01*
X105672390Y-81642980D01*
X105663930Y-81493550D01*
X105653430Y-81351400D01*
X105641030Y-81219210D01*
X105626840Y-81099390D01*
X105611010Y-80994630D01*
X105593690Y-80907540D01*
X105575010Y-80840500D01*
X105574980Y-80840410D01*
X105563010Y-80805020D01*
X105562960Y-80804880D01*
X105554660Y-80779110D01*
X105554530Y-80778680D01*
X105551840Y-80768870D01*
X105552800Y-80761280D01*
X105556590Y-80757510D01*
X105566290Y-80752060D01*
X105566610Y-80751880D01*
X105593980Y-80737800D01*
X105594040Y-80737770D01*
X105636440Y-80716360D01*
X105636470Y-80716350D01*
X105691270Y-80688900D01*
X105691290Y-80688900D01*
X105755880Y-80656720D01*
X105755890Y-80656710D01*
X105827630Y-80621090D01*
X105827640Y-80621090D01*
X105903920Y-80583320D01*
X105903930Y-80583320D01*
X105982120Y-80544710D01*
X105982130Y-80544700D01*
X106059610Y-80506530D01*
X106059620Y-80506530D01*
X106133750Y-80470100D01*
X106133760Y-80470090D01*
X106201940Y-80436700D01*
X106201950Y-80436690D01*
X106261540Y-80407630D01*
X106261560Y-80407620D01*
X106309930Y-80384190D01*
X106309980Y-80384160D01*
X106344510Y-80367650D01*
X106344660Y-80367590D01*
X106362730Y-80359290D01*
X106363500Y-80358980D01*
X106365510Y-80358250D01*
X106373160Y-80358610D01*
G37*
D13*
X112792900Y-75783530D02*
G75*
G02*
X111692900Y-75783530I-550000J0D01*
G01*
X111692900Y-75783530D02*
G75*
G02*
X112792900Y-75783530I550000J0D01*
G01*
D10*
G36*
X73171610Y-87358200D02*
G01*
X73174900Y-87361940D01*
X73177490Y-87367080D01*
X73178160Y-87368770D01*
X73182330Y-87382980D01*
X73182440Y-87383390D01*
X73187790Y-87404890D01*
X73187840Y-87405090D01*
X73193940Y-87432100D01*
X73193970Y-87432240D01*
X73200440Y-87462960D01*
X73200470Y-87463090D01*
X73206890Y-87495740D01*
X73206920Y-87495870D01*
X73212200Y-87524780D01*
X73212240Y-87524970D01*
X73223080Y-87591240D01*
X73223120Y-87591540D01*
X73231350Y-87653320D01*
X73231390Y-87653660D01*
X73237370Y-87714730D01*
X73237390Y-87715070D01*
X73241480Y-87779210D01*
X73241500Y-87779490D01*
X73244070Y-87850470D01*
X73244070Y-87850590D01*
X73244250Y-87857850D01*
X73244250Y-87858140D01*
X73243690Y-87999810D01*
X73243670Y-88000410D01*
X73234910Y-88136730D01*
X73234850Y-88137380D01*
X73217600Y-88270700D01*
X73217490Y-88271350D01*
X73191440Y-88404040D01*
X73191310Y-88404620D01*
X73159690Y-88526890D01*
X73159520Y-88527490D01*
X73111620Y-88674640D01*
X73111370Y-88675300D01*
X73053630Y-88817890D01*
X73053350Y-88818520D01*
X72986170Y-88956140D01*
X72985840Y-88956750D01*
X72909610Y-89088970D01*
X72909250Y-89089550D01*
X72824370Y-89215970D01*
X72823970Y-89216510D01*
X72730830Y-89336700D01*
X72730400Y-89337220D01*
X72629410Y-89450750D01*
X72628940Y-89451240D01*
X72520490Y-89557720D01*
X72519990Y-89558170D01*
X72404480Y-89657160D01*
X72403950Y-89657580D01*
X72281770Y-89748670D01*
X72281210Y-89749060D01*
X72152760Y-89831830D01*
X72152170Y-89832180D01*
X72017850Y-89906220D01*
X72017240Y-89906530D01*
X71877440Y-89971410D01*
X71876810Y-89971680D01*
X71736060Y-90025570D01*
X71735650Y-90025720D01*
X71701880Y-90036980D01*
X71701720Y-90037030D01*
X71666450Y-90048150D01*
X71666310Y-90048190D01*
X71631250Y-90058690D01*
X71631120Y-90058730D01*
X71597990Y-90068140D01*
X71597830Y-90068190D01*
X71568350Y-90076040D01*
X71568120Y-90076090D01*
X71543990Y-90081910D01*
X71543550Y-90082010D01*
X71526500Y-90085320D01*
X71525010Y-90085490D01*
X71516770Y-90085830D01*
X71509580Y-90083200D01*
X71507900Y-90081180D01*
X71504170Y-90075260D01*
X71503430Y-90073870D01*
X71496900Y-90058650D01*
X71496750Y-90058280D01*
X71487840Y-90035000D01*
X71487770Y-90034830D01*
X71476900Y-90004750D01*
X71476860Y-90004640D01*
X71464440Y-89969020D01*
X71464420Y-89968940D01*
X71450880Y-89929030D01*
X71450860Y-89928960D01*
X71436620Y-89886010D01*
X71436600Y-89885960D01*
X71422090Y-89841230D01*
X71422070Y-89841170D01*
X71407690Y-89795910D01*
X71407670Y-89795850D01*
X71393850Y-89751320D01*
X71393830Y-89751240D01*
X71380980Y-89708700D01*
X71380960Y-89708600D01*
X71369510Y-89669290D01*
X71369490Y-89669220D01*
X71368300Y-89665020D01*
X71368250Y-89664820D01*
X71305830Y-89426110D01*
X71305740Y-89425730D01*
X71251620Y-89180720D01*
X71251550Y-89180360D01*
X71205910Y-88930260D01*
X71205850Y-88929900D01*
X71168880Y-88675910D01*
X71168840Y-88675560D01*
X71140730Y-88418900D01*
X71140690Y-88418540D01*
X71121630Y-88160400D01*
X71121620Y-88160160D01*
X71116820Y-88062690D01*
X71116810Y-88062580D01*
X71114820Y-88010990D01*
X71114810Y-88010930D01*
X71113060Y-87956690D01*
X71113060Y-87956630D01*
X71111580Y-87901550D01*
X71111580Y-87901500D01*
X71110410Y-87847370D01*
X71110410Y-87847320D01*
X71109570Y-87795950D01*
X71109570Y-87795880D01*
X71109110Y-87749070D01*
X71109110Y-87748980D01*
X71109040Y-87708520D01*
X71109040Y-87708390D01*
X71109410Y-87676080D01*
X71109410Y-87675890D01*
X71109850Y-87661180D01*
X71109860Y-87661070D01*
X71111460Y-87622040D01*
X71114670Y-87615090D01*
X71121100Y-87612450D01*
X71312760Y-87605760D01*
X71528220Y-87596250D01*
X71735680Y-87582960D01*
X71937220Y-87565680D01*
X72135500Y-87544150D01*
X72332600Y-87518180D01*
X72531160Y-87487490D01*
X72541220Y-87485820D01*
X72623440Y-87471600D01*
X72709030Y-87455850D01*
X72795460Y-87439090D01*
X72880670Y-87421720D01*
X72962040Y-87404290D01*
X73037180Y-87387290D01*
X73103930Y-87371150D01*
X73107390Y-87370280D01*
X73107410Y-87370270D01*
X73130220Y-87364570D01*
X73130280Y-87364550D01*
X73148820Y-87360040D01*
X73148930Y-87360010D01*
X73160760Y-87357270D01*
X73161170Y-87357180D01*
X73164120Y-87356630D01*
X73171610Y-87358200D01*
G37*
G36*
X71521040Y-70051040D02*
G01*
X71531830Y-70052640D01*
X71532590Y-70052790D01*
X71551920Y-70057220D01*
X71552200Y-70057290D01*
X71578100Y-70064000D01*
X71578260Y-70064050D01*
X71608760Y-70072490D01*
X71608880Y-70072520D01*
X71642020Y-70082150D01*
X71642130Y-70082180D01*
X71675930Y-70092430D01*
X71676050Y-70092470D01*
X71708550Y-70102790D01*
X71708660Y-70102820D01*
X71723230Y-70107650D01*
X71723610Y-70107780D01*
X71868480Y-70162280D01*
X71869130Y-70162550D01*
X72009610Y-70227000D01*
X72010240Y-70227310D01*
X72145800Y-70301330D01*
X72146400Y-70301680D01*
X72276530Y-70384870D01*
X72277090Y-70385260D01*
X72401260Y-70477240D01*
X72401800Y-70477670D01*
X72519490Y-70578040D01*
X72520000Y-70578510D01*
X72630690Y-70686890D01*
X72631160Y-70687390D01*
X72734330Y-70803400D01*
X72734780Y-70803930D01*
X72829910Y-70927170D01*
X72830140Y-70927480D01*
X72839220Y-70940240D01*
X72839440Y-70940550D01*
X72925210Y-71071300D01*
X72925570Y-71071900D01*
X73001590Y-71207470D01*
X73001910Y-71208090D01*
X73068010Y-71347970D01*
X73068290Y-71348610D01*
X73124340Y-71492290D01*
X73124570Y-71492950D01*
X73170420Y-71639910D01*
X73170600Y-71640580D01*
X73206100Y-71790310D01*
X73206240Y-71791000D01*
X73231240Y-71942980D01*
X73231330Y-71943680D01*
X73245690Y-72097400D01*
X73245730Y-72098100D01*
X73249310Y-72253050D01*
X73249300Y-72253650D01*
X73245470Y-72359740D01*
X73245450Y-72360100D01*
X73242850Y-72396170D01*
X73242830Y-72396330D01*
X73239180Y-72437390D01*
X73239170Y-72437530D01*
X73235030Y-72477610D01*
X73235010Y-72477770D01*
X73232210Y-72501360D01*
X73232190Y-72501570D01*
X73228460Y-72528060D01*
X73228440Y-72528230D01*
X73223490Y-72559450D01*
X73223470Y-72559570D01*
X73217630Y-72593770D01*
X73217620Y-72593860D01*
X73211230Y-72629290D01*
X73211220Y-72629380D01*
X73204620Y-72664280D01*
X73204610Y-72664370D01*
X73198150Y-72696980D01*
X73198120Y-72697090D01*
X73192130Y-72725660D01*
X73192090Y-72725830D01*
X73186910Y-72748590D01*
X73186820Y-72748940D01*
X73182780Y-72764150D01*
X73182360Y-72765380D01*
X73179990Y-72771160D01*
X73174590Y-72776580D01*
X73170540Y-72777350D01*
X73164240Y-72777220D01*
X73162890Y-72777100D01*
X73147470Y-72774680D01*
X73147140Y-72774630D01*
X73124220Y-72770240D01*
X73124050Y-72770210D01*
X73095250Y-72764170D01*
X73095120Y-72764140D01*
X73062050Y-72756760D01*
X73061980Y-72756740D01*
X73048630Y-72753660D01*
X72776450Y-72695110D01*
X72498030Y-72645160D01*
X72214210Y-72603930D01*
X71925700Y-72571520D01*
X71633360Y-72548060D01*
X71625610Y-72547570D01*
X71577800Y-72544690D01*
X71525260Y-72541820D01*
X71469810Y-72539020D01*
X71413310Y-72536390D01*
X71357600Y-72533990D01*
X71304530Y-72531900D01*
X71255970Y-72530200D01*
X71213750Y-72528970D01*
X71179840Y-72528290D01*
X71165600Y-72528180D01*
X71119230Y-72528110D01*
X71112170Y-72525170D01*
X71109250Y-72517940D01*
X71112840Y-72303970D01*
X71112840Y-72303820D01*
X71120840Y-72049330D01*
X71120860Y-72049020D01*
X71136300Y-71801520D01*
X71136320Y-71801200D01*
X71159380Y-71559380D01*
X71159420Y-71559040D01*
X71190260Y-71321590D01*
X71190310Y-71321240D01*
X71229110Y-71086830D01*
X71229170Y-71086490D01*
X71276090Y-70853820D01*
X71276170Y-70853480D01*
X71331390Y-70621220D01*
X71331430Y-70621060D01*
X71331980Y-70618910D01*
X71331990Y-70618850D01*
X71344550Y-70571020D01*
X71344580Y-70570920D01*
X71358490Y-70520090D01*
X71358510Y-70520010D01*
X71373460Y-70467220D01*
X71373480Y-70467150D01*
X71389110Y-70413460D01*
X71389130Y-70413390D01*
X71405120Y-70359850D01*
X71405140Y-70359790D01*
X71421150Y-70307440D01*
X71421170Y-70307380D01*
X71436870Y-70257280D01*
X71436900Y-70257210D01*
X71451960Y-70210420D01*
X71451990Y-70210330D01*
X71466070Y-70167890D01*
X71466110Y-70167780D01*
X71478880Y-70130750D01*
X71478930Y-70130590D01*
X71490060Y-70100010D01*
X71490160Y-70099740D01*
X71499310Y-70076670D01*
X71499560Y-70076090D01*
X71506400Y-70061580D01*
X71507790Y-70059400D01*
X71511920Y-70054500D01*
X71518710Y-70050970D01*
X71521040Y-70051040D01*
G37*
G36*
X78770360Y-80177070D02*
G01*
X78770510Y-80177070D01*
X79025000Y-80185070D01*
X79025310Y-80185090D01*
X79272810Y-80200530D01*
X79273130Y-80200550D01*
X79514950Y-80223610D01*
X79515290Y-80223650D01*
X79752740Y-80254490D01*
X79753090Y-80254540D01*
X79987500Y-80293340D01*
X79987840Y-80293400D01*
X80220510Y-80340320D01*
X80220850Y-80340400D01*
X80453110Y-80395620D01*
X80453270Y-80395660D01*
X80455420Y-80396210D01*
X80455480Y-80396220D01*
X80503310Y-80408780D01*
X80503410Y-80408810D01*
X80554240Y-80422720D01*
X80554320Y-80422740D01*
X80607110Y-80437690D01*
X80607180Y-80437710D01*
X80660870Y-80453340D01*
X80660940Y-80453360D01*
X80714480Y-80469350D01*
X80714540Y-80469370D01*
X80766890Y-80485380D01*
X80766950Y-80485400D01*
X80817050Y-80501100D01*
X80817120Y-80501130D01*
X80863910Y-80516190D01*
X80864000Y-80516220D01*
X80906440Y-80530300D01*
X80906550Y-80530340D01*
X80943580Y-80543110D01*
X80943740Y-80543160D01*
X80974320Y-80554290D01*
X80974590Y-80554390D01*
X80997660Y-80563540D01*
X80998240Y-80563790D01*
X81012750Y-80570630D01*
X81014930Y-80572020D01*
X81019830Y-80576150D01*
X81023360Y-80582940D01*
X81023290Y-80585270D01*
X81021690Y-80596060D01*
X81021540Y-80596820D01*
X81017110Y-80616150D01*
X81017040Y-80616430D01*
X81010330Y-80642330D01*
X81010280Y-80642490D01*
X81001840Y-80672990D01*
X81001810Y-80673110D01*
X80992180Y-80706250D01*
X80992150Y-80706360D01*
X80981900Y-80740160D01*
X80981860Y-80740280D01*
X80971540Y-80772780D01*
X80971510Y-80772890D01*
X80966680Y-80787460D01*
X80966550Y-80787840D01*
X80912050Y-80932710D01*
X80911780Y-80933360D01*
X80847330Y-81073840D01*
X80847020Y-81074470D01*
X80773000Y-81210030D01*
X80772650Y-81210630D01*
X80689460Y-81340760D01*
X80689070Y-81341320D01*
X80597090Y-81465490D01*
X80596660Y-81466030D01*
X80496290Y-81583720D01*
X80495820Y-81584230D01*
X80387440Y-81694920D01*
X80386940Y-81695390D01*
X80270930Y-81798560D01*
X80270400Y-81799010D01*
X80147160Y-81894140D01*
X80146850Y-81894370D01*
X80134090Y-81903450D01*
X80133780Y-81903670D01*
X80003030Y-81989440D01*
X80002430Y-81989800D01*
X79866860Y-82065820D01*
X79866240Y-82066140D01*
X79726360Y-82132240D01*
X79725720Y-82132520D01*
X79582040Y-82188570D01*
X79581380Y-82188800D01*
X79434420Y-82234650D01*
X79433750Y-82234830D01*
X79284020Y-82270330D01*
X79283330Y-82270470D01*
X79131350Y-82295470D01*
X79130650Y-82295560D01*
X78976930Y-82309920D01*
X78976230Y-82309960D01*
X78821280Y-82313540D01*
X78820680Y-82313530D01*
X78714590Y-82309700D01*
X78714230Y-82309680D01*
X78678160Y-82307080D01*
X78678000Y-82307060D01*
X78636940Y-82303410D01*
X78636800Y-82303400D01*
X78596720Y-82299260D01*
X78596560Y-82299240D01*
X78572970Y-82296440D01*
X78572760Y-82296420D01*
X78546270Y-82292690D01*
X78546100Y-82292670D01*
X78514880Y-82287720D01*
X78514760Y-82287700D01*
X78480560Y-82281860D01*
X78480470Y-82281850D01*
X78445040Y-82275460D01*
X78444950Y-82275450D01*
X78410050Y-82268850D01*
X78409960Y-82268840D01*
X78377350Y-82262380D01*
X78377240Y-82262350D01*
X78348670Y-82256360D01*
X78348500Y-82256320D01*
X78325740Y-82251140D01*
X78325390Y-82251050D01*
X78310180Y-82247010D01*
X78308950Y-82246590D01*
X78303170Y-82244220D01*
X78297750Y-82238820D01*
X78296980Y-82234770D01*
X78297110Y-82228470D01*
X78297230Y-82227120D01*
X78299650Y-82211700D01*
X78299700Y-82211370D01*
X78304090Y-82188450D01*
X78304120Y-82188280D01*
X78310160Y-82159480D01*
X78310190Y-82159350D01*
X78317570Y-82126280D01*
X78317590Y-82126210D01*
X78320670Y-82112860D01*
X78379220Y-81840680D01*
X78429170Y-81562260D01*
X78470400Y-81278440D01*
X78502810Y-80989930D01*
X78526270Y-80697590D01*
X78526760Y-80689840D01*
X78529640Y-80642030D01*
X78532510Y-80589490D01*
X78535310Y-80534040D01*
X78537940Y-80477540D01*
X78540340Y-80421830D01*
X78542430Y-80368760D01*
X78544130Y-80320200D01*
X78545360Y-80277980D01*
X78546040Y-80244070D01*
X78546150Y-80229830D01*
X78546220Y-80183460D01*
X78549160Y-80176400D01*
X78556390Y-80173480D01*
X78770360Y-80177070D01*
G37*
G36*
X91107480Y-98793690D02*
G01*
X91110410Y-98800760D01*
X91110410Y-100721640D01*
X91107480Y-100728710D01*
X91100410Y-100731640D01*
X90456470Y-100731640D01*
X89816670Y-100731640D01*
X89542790Y-101005540D01*
X89268910Y-101279440D01*
X89268910Y-102563140D01*
X89265980Y-102570210D01*
X89258910Y-102573140D01*
X87826190Y-102573140D01*
X87819120Y-102570210D01*
X87816190Y-102563140D01*
X87816190Y-101283410D01*
X87276360Y-100743540D01*
X86141600Y-100743540D01*
X85873680Y-101011490D01*
X85605750Y-101279440D01*
X85605750Y-101919220D01*
X85605750Y-102563140D01*
X85602820Y-102570210D01*
X85595750Y-102573140D01*
X84163030Y-102573140D01*
X84155960Y-102570210D01*
X84153030Y-102563140D01*
X84153030Y-101130420D01*
X84155960Y-101123350D01*
X84163030Y-101120420D01*
X85446770Y-101120420D01*
X85714700Y-100852470D01*
X85982620Y-100584520D01*
X85982620Y-99300820D01*
X85985550Y-99293750D01*
X85992620Y-99290820D01*
X87425340Y-99290820D01*
X87432410Y-99293750D01*
X87435340Y-99300820D01*
X87435340Y-100584560D01*
X87703290Y-100852490D01*
X87971240Y-101120420D01*
X89109930Y-101120420D01*
X89383810Y-100846520D01*
X89657690Y-100572610D01*
X89657690Y-98800760D01*
X89660620Y-98793690D01*
X89667690Y-98790760D01*
X91100410Y-98790760D01*
X91107480Y-98793690D01*
G37*
G36*
X107379140Y-78932930D02*
G01*
X107390870Y-78938480D01*
X107391150Y-78938620D01*
X107420530Y-78953670D01*
X107420600Y-78953700D01*
X107465390Y-78977060D01*
X107465420Y-78977080D01*
X107523390Y-79007550D01*
X107523410Y-79007560D01*
X107592310Y-79043960D01*
X107592320Y-79043970D01*
X107669930Y-79085110D01*
X107669940Y-79085110D01*
X107754010Y-79129790D01*
X107754020Y-79129800D01*
X107842320Y-79176830D01*
X107842330Y-79176830D01*
X107932620Y-79225030D01*
X107932630Y-79225030D01*
X108022670Y-79273190D01*
X108022680Y-79273200D01*
X108110240Y-79320140D01*
X108110250Y-79320150D01*
X108193090Y-79364670D01*
X108193100Y-79364680D01*
X108268990Y-79405600D01*
X108269000Y-79405610D01*
X108335690Y-79441740D01*
X108335720Y-79441750D01*
X108385140Y-79468690D01*
X108385160Y-79468700D01*
X108466470Y-79513210D01*
X108471260Y-79519180D01*
X108470440Y-79526790D01*
X108470020Y-79527470D01*
X108404450Y-79627330D01*
X108300240Y-79802750D01*
X108205080Y-79997200D01*
X108119480Y-80209070D01*
X108044040Y-80436580D01*
X107979370Y-80677890D01*
X107926050Y-80931290D01*
X107884670Y-81195040D01*
X107881290Y-81221320D01*
X107869030Y-81322190D01*
X107859110Y-81413910D01*
X107851290Y-81500730D01*
X107845350Y-81586710D01*
X107841080Y-81676300D01*
X107838240Y-81773580D01*
X107836620Y-81882740D01*
X107836000Y-82008190D01*
X107836010Y-82083570D01*
X107838000Y-82280580D01*
X107843340Y-82468110D01*
X107851860Y-82644360D01*
X107863400Y-82807780D01*
X107877820Y-82956770D01*
X107894930Y-83089560D01*
X107914570Y-83204530D01*
X107936550Y-83299990D01*
X107959140Y-83370510D01*
X107959590Y-83374300D01*
X107959130Y-83380580D01*
X107956880Y-83386200D01*
X107950050Y-83394510D01*
X107948350Y-83396140D01*
X107933430Y-83407430D01*
X107932630Y-83407970D01*
X107907900Y-83423180D01*
X107907510Y-83423410D01*
X107871250Y-83443480D01*
X107871040Y-83443600D01*
X107821540Y-83469490D01*
X107821420Y-83469550D01*
X107756960Y-83502190D01*
X107756890Y-83502220D01*
X107675760Y-83542570D01*
X107675720Y-83542590D01*
X107576200Y-83591580D01*
X107576180Y-83591590D01*
X107559340Y-83599850D01*
X107559330Y-83599850D01*
X107471090Y-83643080D01*
X107471080Y-83643080D01*
X107389340Y-83683040D01*
X107389330Y-83683040D01*
X107316270Y-83718670D01*
X107316260Y-83718670D01*
X107254060Y-83748910D01*
X107254040Y-83748920D01*
X107204880Y-83772710D01*
X107204850Y-83772720D01*
X107170910Y-83789000D01*
X107170810Y-83789050D01*
X107154270Y-83796770D01*
X107153650Y-83797030D01*
X107152390Y-83797520D01*
X107144740Y-83797340D01*
X107139890Y-83792780D01*
X107134790Y-83782880D01*
X107134380Y-83782000D01*
X107123790Y-83755440D01*
X107123700Y-83755210D01*
X107109460Y-83716700D01*
X107109420Y-83716580D01*
X107100950Y-83692760D01*
X107100900Y-83692610D01*
X107089710Y-83659380D01*
X107089580Y-83658960D01*
X107080690Y-83628170D01*
X107080530Y-83627560D01*
X107073420Y-83595410D01*
X107073300Y-83594810D01*
X107067410Y-83557540D01*
X107067360Y-83557090D01*
X107062170Y-83510920D01*
X107062140Y-83510650D01*
X107057110Y-83451800D01*
X107057100Y-83451670D01*
X107051700Y-83376370D01*
X107051700Y-83376320D01*
X107047970Y-83320370D01*
X107047970Y-83320350D01*
X107038390Y-83172200D01*
X107038390Y-83172170D01*
X107030340Y-83042160D01*
X107030340Y-83042110D01*
X107023660Y-82925860D01*
X107023650Y-82925800D01*
X107018160Y-82818920D01*
X107018160Y-82818840D01*
X107013680Y-82716960D01*
X107013680Y-82716880D01*
X107010040Y-82615630D01*
X107010040Y-82615550D01*
X107007070Y-82510540D01*
X107007060Y-82510470D01*
X107004580Y-82397330D01*
X107004580Y-82397280D01*
X107002420Y-82271620D01*
X107002420Y-82271590D01*
X107000410Y-82129040D01*
X107000410Y-82129030D01*
X107000330Y-82123210D01*
X107000330Y-82123100D01*
X106999490Y-81686950D01*
X106999490Y-81686710D01*
X107008640Y-81270660D01*
X107008650Y-81270400D01*
X107027780Y-80874470D01*
X107027800Y-80874180D01*
X107056910Y-80498410D01*
X107056940Y-80498080D01*
X107096040Y-80142490D01*
X107096080Y-80142130D01*
X107145160Y-79806740D01*
X107145210Y-79806380D01*
X107193120Y-79545350D01*
X107193170Y-79545100D01*
X107215630Y-79438100D01*
X107215660Y-79437950D01*
X107238760Y-79335760D01*
X107238800Y-79335610D01*
X107261920Y-79240440D01*
X107261960Y-79240270D01*
X107284470Y-79154320D01*
X107284530Y-79154110D01*
X107305800Y-79079580D01*
X107305890Y-79079290D01*
X107325310Y-79018360D01*
X107325480Y-79017890D01*
X107342420Y-78972770D01*
X107342880Y-78971740D01*
X107356710Y-78944620D01*
X107359470Y-78941280D01*
X107368720Y-78934080D01*
X107376090Y-78932040D01*
X107379140Y-78932930D01*
G37*
G36*
X120483190Y-75783610D02*
G01*
X120488000Y-75788420D01*
X120492620Y-75798300D01*
X120492890Y-75798940D01*
X120503130Y-75825460D01*
X120503200Y-75825620D01*
X120517280Y-75864090D01*
X120517310Y-75864180D01*
X120525820Y-75888080D01*
X120525870Y-75888220D01*
X120533970Y-75912090D01*
X120534090Y-75912440D01*
X120541210Y-75936280D01*
X120541340Y-75936750D01*
X120547680Y-75962490D01*
X120547780Y-75962970D01*
X120553520Y-75992510D01*
X120553600Y-75992920D01*
X120558930Y-76028190D01*
X120558970Y-76028500D01*
X120564090Y-76071400D01*
X120564110Y-76071620D01*
X120569210Y-76124080D01*
X120569220Y-76124220D01*
X120574470Y-76188150D01*
X120574480Y-76188250D01*
X120580090Y-76265560D01*
X120580090Y-76265620D01*
X120586240Y-76358240D01*
X120586240Y-76358270D01*
X120593120Y-76468110D01*
X120593130Y-76468130D01*
X120600930Y-76597090D01*
X120600930Y-76597100D01*
X120607770Y-76712110D01*
X120607780Y-76712210D01*
X120612010Y-76798000D01*
X120612010Y-76798130D01*
X120615780Y-76903030D01*
X120615780Y-76903120D01*
X120619070Y-77023680D01*
X120619070Y-77023750D01*
X120621850Y-77156520D01*
X120621850Y-77156570D01*
X120624090Y-77298090D01*
X120624090Y-77298140D01*
X120625760Y-77444950D01*
X120625760Y-77444990D01*
X120626850Y-77593650D01*
X120626850Y-77593690D01*
X120627330Y-77740730D01*
X120627330Y-77740770D01*
X120627170Y-77882740D01*
X120627170Y-77882790D01*
X120626350Y-78016230D01*
X120626340Y-78016300D01*
X120624830Y-78137750D01*
X120624830Y-78137840D01*
X120622600Y-78243850D01*
X120622590Y-78243980D01*
X120619780Y-78327350D01*
X120619780Y-78327550D01*
X120600080Y-78694690D01*
X120600070Y-78694930D01*
X120573230Y-79041440D01*
X120573210Y-79041710D01*
X120539250Y-79367460D01*
X120539210Y-79367760D01*
X120498140Y-79672630D01*
X120498090Y-79672960D01*
X120449930Y-79956810D01*
X120449860Y-79957190D01*
X120394630Y-80219880D01*
X120394530Y-80220320D01*
X120332250Y-80461730D01*
X120332160Y-80462050D01*
X120310990Y-80533990D01*
X120310930Y-80534190D01*
X120296030Y-80581250D01*
X120295950Y-80581510D01*
X120282870Y-80619240D01*
X120282690Y-80619700D01*
X120273030Y-80643670D01*
X120272090Y-80645460D01*
X120267910Y-80651780D01*
X120261560Y-80656050D01*
X120255190Y-80655250D01*
X120244280Y-80649930D01*
X120244040Y-80649810D01*
X120215080Y-80634760D01*
X120215030Y-80634730D01*
X120169870Y-80610910D01*
X120169850Y-80610900D01*
X120110330Y-80579300D01*
X120110310Y-80579300D01*
X120038270Y-80540890D01*
X120038260Y-80540890D01*
X119955510Y-80496660D01*
X119955510Y-80496650D01*
X119863910Y-80447580D01*
X119863900Y-80447570D01*
X119765280Y-80394620D01*
X119709110Y-80364420D01*
X119709100Y-80364410D01*
X119607600Y-80309670D01*
X119607580Y-80309660D01*
X119512300Y-80258030D01*
X119512280Y-80258010D01*
X119425060Y-80210490D01*
X119425030Y-80210480D01*
X119347660Y-80168060D01*
X119347630Y-80168040D01*
X119281930Y-80131730D01*
X119281890Y-80131700D01*
X119229660Y-80102500D01*
X119229580Y-80102450D01*
X119192650Y-80081350D01*
X119192430Y-80081220D01*
X119172590Y-80069220D01*
X119171540Y-80068480D01*
X119168580Y-80066120D01*
X119164870Y-80059430D01*
X119165760Y-80054030D01*
X119171440Y-80042020D01*
X119171810Y-80041320D01*
X119187140Y-80014620D01*
X119187250Y-80014420D01*
X119209700Y-79977350D01*
X119209770Y-79977240D01*
X119229330Y-79945890D01*
X119342530Y-79747910D01*
X119443910Y-79531780D01*
X119533300Y-79298310D01*
X119610330Y-79048630D01*
X119674670Y-78783890D01*
X119725990Y-78505100D01*
X119763950Y-78213390D01*
X119774220Y-78106080D01*
X119783480Y-77976420D01*
X119789830Y-77836340D01*
X119793410Y-77688370D01*
X119794340Y-77534940D01*
X119792730Y-77378840D01*
X119788720Y-77222260D01*
X119782420Y-77067980D01*
X119773960Y-76918550D01*
X119763460Y-76776400D01*
X119751060Y-76644210D01*
X119736870Y-76524390D01*
X119721040Y-76419630D01*
X119703720Y-76332540D01*
X119685040Y-76265500D01*
X119685010Y-76265410D01*
X119673040Y-76230020D01*
X119672990Y-76229880D01*
X119664690Y-76204110D01*
X119664560Y-76203680D01*
X119661870Y-76193870D01*
X119662830Y-76186280D01*
X119666620Y-76182510D01*
X119676320Y-76177060D01*
X119676640Y-76176880D01*
X119704010Y-76162800D01*
X119704070Y-76162770D01*
X119746470Y-76141360D01*
X119746500Y-76141350D01*
X119801300Y-76113900D01*
X119801320Y-76113900D01*
X119865910Y-76081720D01*
X119865920Y-76081710D01*
X119937660Y-76046090D01*
X119937670Y-76046090D01*
X120013950Y-76008320D01*
X120013960Y-76008320D01*
X120092150Y-75969710D01*
X120092160Y-75969700D01*
X120169640Y-75931530D01*
X120169650Y-75931530D01*
X120243780Y-75895100D01*
X120243790Y-75895090D01*
X120311970Y-75861700D01*
X120311980Y-75861690D01*
X120371570Y-75832630D01*
X120371590Y-75832620D01*
X120419960Y-75809190D01*
X120420010Y-75809160D01*
X120454540Y-75792650D01*
X120454690Y-75792590D01*
X120472760Y-75784290D01*
X120473530Y-75783980D01*
X120475540Y-75783250D01*
X120483190Y-75783610D01*
G37*
G36*
X70500520Y-70055360D02*
G01*
X70502200Y-70057380D01*
X70505930Y-70063300D01*
X70506670Y-70064690D01*
X70513200Y-70079910D01*
X70513350Y-70080280D01*
X70522260Y-70103560D01*
X70522330Y-70103730D01*
X70533200Y-70133810D01*
X70533240Y-70133920D01*
X70545660Y-70169540D01*
X70545680Y-70169620D01*
X70559220Y-70209530D01*
X70559240Y-70209600D01*
X70573480Y-70252550D01*
X70573500Y-70252600D01*
X70588010Y-70297330D01*
X70588030Y-70297390D01*
X70602410Y-70342650D01*
X70602430Y-70342710D01*
X70616250Y-70387240D01*
X70616270Y-70387320D01*
X70629120Y-70429860D01*
X70629140Y-70429960D01*
X70640590Y-70469270D01*
X70640610Y-70469340D01*
X70641800Y-70473540D01*
X70641850Y-70473740D01*
X70704270Y-70712450D01*
X70704360Y-70712830D01*
X70758480Y-70957840D01*
X70758550Y-70958200D01*
X70804190Y-71208300D01*
X70804250Y-71208660D01*
X70841220Y-71462650D01*
X70841260Y-71463000D01*
X70869370Y-71719660D01*
X70869410Y-71720020D01*
X70888470Y-71978160D01*
X70888480Y-71978400D01*
X70893280Y-72075870D01*
X70893290Y-72075980D01*
X70895280Y-72127570D01*
X70895290Y-72127630D01*
X70897040Y-72181870D01*
X70897040Y-72181930D01*
X70898520Y-72237010D01*
X70898520Y-72237060D01*
X70899690Y-72291190D01*
X70899690Y-72291240D01*
X70900530Y-72342610D01*
X70900530Y-72342680D01*
X70900990Y-72389490D01*
X70900990Y-72389580D01*
X70901060Y-72430040D01*
X70901060Y-72430170D01*
X70900690Y-72462480D01*
X70900690Y-72462670D01*
X70900250Y-72477380D01*
X70900240Y-72477490D01*
X70898640Y-72516520D01*
X70895430Y-72523470D01*
X70889000Y-72526110D01*
X70697340Y-72532800D01*
X70481880Y-72542310D01*
X70274420Y-72555600D01*
X70072880Y-72572880D01*
X69874600Y-72594410D01*
X69677500Y-72620380D01*
X69478940Y-72651070D01*
X69468880Y-72652740D01*
X69386660Y-72666960D01*
X69301070Y-72682710D01*
X69214640Y-72699470D01*
X69129430Y-72716840D01*
X69048060Y-72734270D01*
X68972920Y-72751270D01*
X68906170Y-72767410D01*
X68902710Y-72768280D01*
X68902690Y-72768290D01*
X68879880Y-72773990D01*
X68879820Y-72774010D01*
X68861280Y-72778520D01*
X68861170Y-72778550D01*
X68849340Y-72781290D01*
X68848930Y-72781380D01*
X68845980Y-72781930D01*
X68838490Y-72780360D01*
X68835200Y-72776620D01*
X68832610Y-72771480D01*
X68831940Y-72769790D01*
X68827770Y-72755580D01*
X68827660Y-72755170D01*
X68822310Y-72733670D01*
X68822260Y-72733470D01*
X68816160Y-72706460D01*
X68816130Y-72706320D01*
X68809660Y-72675600D01*
X68809630Y-72675470D01*
X68803210Y-72642820D01*
X68803180Y-72642690D01*
X68797900Y-72613780D01*
X68797860Y-72613590D01*
X68787020Y-72547320D01*
X68786980Y-72547020D01*
X68778750Y-72485240D01*
X68778710Y-72484900D01*
X68772730Y-72423830D01*
X68772710Y-72423490D01*
X68768620Y-72359350D01*
X68768600Y-72359070D01*
X68766030Y-72288090D01*
X68766030Y-72287970D01*
X68765850Y-72280710D01*
X68765850Y-72280420D01*
X68766410Y-72138750D01*
X68766430Y-72138150D01*
X68775190Y-72001830D01*
X68775250Y-72001180D01*
X68792500Y-71867860D01*
X68792610Y-71867210D01*
X68818660Y-71734520D01*
X68818790Y-71733940D01*
X68850410Y-71611670D01*
X68850580Y-71611070D01*
X68898480Y-71463920D01*
X68898730Y-71463260D01*
X68956470Y-71320670D01*
X68956750Y-71320040D01*
X69023930Y-71182420D01*
X69024260Y-71181810D01*
X69100490Y-71049590D01*
X69100850Y-71049010D01*
X69185730Y-70922590D01*
X69186130Y-70922050D01*
X69279270Y-70801860D01*
X69279700Y-70801340D01*
X69380690Y-70687810D01*
X69381160Y-70687320D01*
X69489610Y-70580840D01*
X69490110Y-70580390D01*
X69605620Y-70481400D01*
X69606150Y-70480980D01*
X69728330Y-70389890D01*
X69728890Y-70389500D01*
X69857340Y-70306730D01*
X69857930Y-70306380D01*
X69992250Y-70232340D01*
X69992860Y-70232030D01*
X70132660Y-70167150D01*
X70133290Y-70166880D01*
X70274040Y-70112990D01*
X70274450Y-70112840D01*
X70308220Y-70101580D01*
X70308380Y-70101530D01*
X70343650Y-70090410D01*
X70343790Y-70090370D01*
X70378850Y-70079870D01*
X70378980Y-70079830D01*
X70412110Y-70070420D01*
X70412270Y-70070370D01*
X70441750Y-70062520D01*
X70441980Y-70062470D01*
X70466110Y-70056650D01*
X70466550Y-70056550D01*
X70483600Y-70053240D01*
X70485090Y-70053070D01*
X70493330Y-70052730D01*
X70500520Y-70055360D01*
G37*
G36*
X123696460Y-75201730D02*
G01*
X123698140Y-75207280D01*
X123698140Y-79797280D01*
X123695210Y-79804350D01*
X123688140Y-79807280D01*
X123682590Y-79805600D01*
X123667990Y-79795870D01*
X123661310Y-79792380D01*
X123660930Y-79792170D01*
X123636560Y-79778070D01*
X123636440Y-79778010D01*
X123603220Y-79758210D01*
X123603180Y-79758180D01*
X123602310Y-79757660D01*
X123601930Y-79757420D01*
X123398120Y-79621830D01*
X123397400Y-79621300D01*
X123208750Y-79469840D01*
X123208080Y-79469250D01*
X123035400Y-79302990D01*
X123034780Y-79302330D01*
X122878860Y-79122330D01*
X122878300Y-79121620D01*
X122739930Y-78928940D01*
X122739430Y-78928170D01*
X122619400Y-78723870D01*
X122618970Y-78723060D01*
X122518080Y-78508190D01*
X122517730Y-78507330D01*
X122436760Y-78282960D01*
X122436540Y-78282270D01*
X122399240Y-78149090D01*
X122399130Y-78148660D01*
X122369990Y-78023560D01*
X122369900Y-78023110D01*
X122348520Y-77908060D01*
X122348430Y-77907510D01*
X122333920Y-77795010D01*
X122333870Y-77794450D01*
X122325330Y-77677000D01*
X122325310Y-77676540D01*
X122321840Y-77546650D01*
X122321830Y-77546430D01*
X122321640Y-77502970D01*
X122321650Y-77502550D01*
X122330390Y-77270690D01*
X122330460Y-77269860D01*
X122357220Y-77049070D01*
X122357370Y-77048180D01*
X122402970Y-76834910D01*
X122403210Y-76834030D01*
X122468460Y-76624730D01*
X122468750Y-76623910D01*
X122554470Y-76415060D01*
X122554680Y-76414570D01*
X122586600Y-76347180D01*
X122586870Y-76346650D01*
X122694950Y-76149730D01*
X122695420Y-76148960D01*
X122822930Y-75959440D01*
X122823440Y-75958750D01*
X122968050Y-75779130D01*
X122968600Y-75778500D01*
X123127960Y-75611290D01*
X123128560Y-75610700D01*
X123300350Y-75458410D01*
X123301020Y-75457860D01*
X123482890Y-75323000D01*
X123483550Y-75322550D01*
X123620150Y-75237220D01*
X123620460Y-75237040D01*
X123657610Y-75215610D01*
X123682590Y-75198960D01*
X123690100Y-75197470D01*
X123696460Y-75201730D01*
G37*
G36*
X101001320Y-98793490D02*
G01*
X101004250Y-98800560D01*
X101004250Y-99648800D01*
X101004250Y-100497030D01*
X101001320Y-100504100D01*
X100784080Y-100721480D01*
X100566840Y-100938850D01*
X100559770Y-100941780D01*
X99571430Y-100941780D01*
X99564350Y-100938850D01*
X99353030Y-100727500D01*
X99141710Y-100516150D01*
X99138780Y-100509080D01*
X99138780Y-99112190D01*
X97329190Y-99112190D01*
X97329190Y-100509140D01*
X97326260Y-100516210D01*
X97114910Y-100727530D01*
X96903560Y-100938850D01*
X96896490Y-100941780D01*
X95499590Y-100941780D01*
X95499590Y-102751370D01*
X97309190Y-102751370D01*
X97309190Y-101354420D01*
X97312120Y-101347350D01*
X97523470Y-101136030D01*
X97734810Y-100924710D01*
X97741890Y-100921780D01*
X98726140Y-100921780D01*
X98733210Y-100924710D01*
X98946510Y-101138040D01*
X99159820Y-101351380D01*
X99162750Y-101358450D01*
X99162750Y-102059910D01*
X99162750Y-102751370D01*
X100972340Y-102751370D01*
X100972340Y-101354420D01*
X100975270Y-101347350D01*
X101192570Y-101130080D01*
X101409880Y-100912800D01*
X101416950Y-100909870D01*
X102813840Y-100909870D01*
X102813840Y-98800560D01*
X102816770Y-98793490D01*
X102823840Y-98790560D01*
X103125470Y-98790560D01*
X103132540Y-98793490D01*
X103135470Y-98800560D01*
X103135470Y-103066970D01*
X103132540Y-103074040D01*
X103125470Y-103076970D01*
X99157380Y-103076970D01*
X98980060Y-103076970D01*
X98804670Y-103076960D01*
X98631380Y-103076940D01*
X98460350Y-103076930D01*
X98291750Y-103076900D01*
X98125750Y-103076880D01*
X97962520Y-103076840D01*
X97802220Y-103076810D01*
X97645030Y-103076770D01*
X97491110Y-103076720D01*
X97340630Y-103076670D01*
X97193760Y-103076620D01*
X97050670Y-103076560D01*
X96911520Y-103076500D01*
X96776490Y-103076440D01*
X96645740Y-103076370D01*
X96519430Y-103076300D01*
X96397750Y-103076220D01*
X96280850Y-103076140D01*
X96168910Y-103076060D01*
X96062090Y-103075970D01*
X95960560Y-103075890D01*
X95864490Y-103075800D01*
X95774040Y-103075700D01*
X95689390Y-103075610D01*
X95610710Y-103075510D01*
X95538150Y-103075410D01*
X95471900Y-103075300D01*
X95412110Y-103075200D01*
X95358960Y-103075090D01*
X95312620Y-103074980D01*
X95312610Y-103074980D01*
X95273240Y-103074870D01*
X95273230Y-103074870D01*
X95241000Y-103074760D01*
X95240990Y-103074760D01*
X95216070Y-103074640D01*
X95216050Y-103074640D01*
X95198610Y-103074530D01*
X95198550Y-103074530D01*
X95188760Y-103074410D01*
X95188480Y-103074400D01*
X95186250Y-103074310D01*
X95179300Y-103071110D01*
X95176650Y-103064720D01*
X95176490Y-103060620D01*
X95176480Y-103060360D01*
X95176330Y-103048560D01*
X95176330Y-103048510D01*
X95176170Y-103029230D01*
X95176170Y-103029210D01*
X95176020Y-103002680D01*
X95176020Y-103002670D01*
X95175870Y-102969120D01*
X95175870Y-102969110D01*
X95175720Y-102928780D01*
X95175720Y-102928770D01*
X95175580Y-102881880D01*
X95175440Y-102828650D01*
X95175310Y-102769330D01*
X95175310Y-102769320D01*
X95175180Y-102704130D01*
X95175060Y-102633290D01*
X95174940Y-102557050D01*
X95174940Y-102557040D01*
X95174830Y-102475620D01*
X95174720Y-102389240D01*
X95174620Y-102298140D01*
X95174520Y-102202550D01*
X95174440Y-102102700D01*
X95174440Y-102102690D01*
X95174360Y-101998810D01*
X95174280Y-101891120D01*
X95174220Y-101779860D01*
X95174160Y-101665250D01*
X95174110Y-101547530D01*
X95174070Y-101426930D01*
X95174040Y-101303670D01*
X95174020Y-101177990D01*
X95174000Y-101050110D01*
X95174000Y-100931120D01*
X95174000Y-98800560D01*
X95176930Y-98793490D01*
X95184000Y-98790560D01*
X100994250Y-98790560D01*
X101001320Y-98793490D01*
G37*
G36*
X107433190Y-78946790D02*
G01*
X107436860Y-78948090D01*
X107520660Y-78998030D01*
X107523550Y-79000650D01*
X107581860Y-79078850D01*
X107583530Y-79082370D01*
X107607470Y-79176930D01*
X107607670Y-79180830D01*
X107593600Y-79277360D01*
X107592300Y-79281030D01*
X107542360Y-79364830D01*
X107539740Y-79367720D01*
X107461540Y-79426030D01*
X107459860Y-79427040D01*
X104884490Y-80652990D01*
X104945670Y-80747550D01*
X104946120Y-80748320D01*
X105054190Y-80953080D01*
X105054560Y-80953870D01*
X105144210Y-81167190D01*
X105144520Y-81168010D01*
X105215240Y-81388390D01*
X105215470Y-81389230D01*
X105266770Y-81615190D01*
X105266920Y-81616050D01*
X105298280Y-81846070D01*
X105298360Y-81846960D01*
X105309260Y-82079550D01*
X105309270Y-82080450D01*
X105299220Y-82314120D01*
X105299130Y-82315030D01*
X105267620Y-82548280D01*
X105267490Y-82549020D01*
X105236680Y-82693880D01*
X105236490Y-82694610D01*
X105170730Y-82918830D01*
X105170430Y-82919690D01*
X105084270Y-83138000D01*
X105083910Y-83138800D01*
X104978670Y-83349100D01*
X104978250Y-83349860D01*
X104855260Y-83550050D01*
X104854770Y-83550770D01*
X104715360Y-83738770D01*
X104714800Y-83739460D01*
X104560270Y-83913150D01*
X104559630Y-83913810D01*
X104391320Y-84071110D01*
X104390870Y-84071510D01*
X104342890Y-84111170D01*
X104342630Y-84111380D01*
X104301030Y-84143540D01*
X104300820Y-84143700D01*
X104251110Y-84180080D01*
X104250970Y-84180180D01*
X104196610Y-84218480D01*
X104196490Y-84218570D01*
X104140940Y-84256490D01*
X104140820Y-84256570D01*
X104087530Y-84291820D01*
X104087380Y-84291910D01*
X104039800Y-84322180D01*
X104039570Y-84322320D01*
X104001170Y-84345310D01*
X104000650Y-84345600D01*
X103974870Y-84359010D01*
X103971990Y-84359990D01*
X103959850Y-84362130D01*
X103958110Y-84362280D01*
X103908110Y-84362280D01*
X103901040Y-84359350D01*
X103898110Y-84352280D01*
X103898110Y-79802280D01*
X103901040Y-79795210D01*
X103908280Y-79792280D01*
X103962060Y-79793220D01*
X103965390Y-79793850D01*
X103982390Y-79800210D01*
X103983730Y-79800820D01*
X104015460Y-79818390D01*
X104015850Y-79818620D01*
X104058930Y-79845140D01*
X104059140Y-79845270D01*
X104110160Y-79878470D01*
X104110310Y-79878570D01*
X104165900Y-79916190D01*
X104166040Y-79916280D01*
X104222800Y-79956070D01*
X104222940Y-79956170D01*
X104277490Y-79995860D01*
X104277670Y-79995990D01*
X104326620Y-80033310D01*
X104326770Y-80033430D01*
X104337210Y-80041710D01*
X104337610Y-80042040D01*
X104514260Y-80197570D01*
X104514930Y-80198210D01*
X104550570Y-80236030D01*
X107236360Y-78957520D01*
X107238200Y-78956860D01*
X107332770Y-78932920D01*
X107336660Y-78932720D01*
X107433190Y-78946790D01*
G37*
D11*
X60477830Y-69942060D02*
G75*
G02*
X59277830Y-69942060I-600000J0D01*
G01*
X59277830Y-69942060D02*
G75*
G02*
X60477830Y-69942060I600000J0D01*
G01*
D10*
G36*
X121489170Y-74357930D02*
G01*
X121500900Y-74363480D01*
X121501180Y-74363620D01*
X121530560Y-74378670D01*
X121530630Y-74378700D01*
X121575420Y-74402060D01*
X121575450Y-74402080D01*
X121633420Y-74432550D01*
X121633440Y-74432560D01*
X121702340Y-74468960D01*
X121702350Y-74468970D01*
X121779960Y-74510110D01*
X121779970Y-74510110D01*
X121864040Y-74554790D01*
X121864050Y-74554800D01*
X121952350Y-74601830D01*
X121952360Y-74601830D01*
X122042650Y-74650030D01*
X122042660Y-74650030D01*
X122132700Y-74698190D01*
X122132710Y-74698200D01*
X122220270Y-74745140D01*
X122220280Y-74745150D01*
X122303120Y-74789670D01*
X122303130Y-74789680D01*
X122379020Y-74830600D01*
X122379030Y-74830610D01*
X122445720Y-74866740D01*
X122445750Y-74866750D01*
X122495170Y-74893690D01*
X122495190Y-74893700D01*
X122576500Y-74938210D01*
X122581290Y-74944180D01*
X122580470Y-74951790D01*
X122580050Y-74952470D01*
X122514480Y-75052330D01*
X122410270Y-75227750D01*
X122315110Y-75422200D01*
X122229510Y-75634070D01*
X122154070Y-75861580D01*
X122089400Y-76102890D01*
X122036080Y-76356290D01*
X121994700Y-76620040D01*
X121991320Y-76646320D01*
X121979060Y-76747190D01*
X121969140Y-76838910D01*
X121961320Y-76925730D01*
X121955380Y-77011710D01*
X121951110Y-77101300D01*
X121948270Y-77198580D01*
X121946650Y-77307740D01*
X121946030Y-77433190D01*
X121946040Y-77508570D01*
X121948030Y-77705580D01*
X121953370Y-77893110D01*
X121961890Y-78069360D01*
X121973430Y-78232780D01*
X121987850Y-78381770D01*
X122004960Y-78514560D01*
X122024600Y-78629530D01*
X122046580Y-78724990D01*
X122069170Y-78795510D01*
X122069620Y-78799300D01*
X122069160Y-78805580D01*
X122066910Y-78811200D01*
X122060080Y-78819510D01*
X122058380Y-78821140D01*
X122043460Y-78832430D01*
X122042660Y-78832970D01*
X122017930Y-78848180D01*
X122017540Y-78848410D01*
X121981280Y-78868480D01*
X121981070Y-78868600D01*
X121931570Y-78894490D01*
X121931450Y-78894550D01*
X121866990Y-78927190D01*
X121866920Y-78927220D01*
X121785790Y-78967570D01*
X121785750Y-78967590D01*
X121686230Y-79016580D01*
X121686210Y-79016590D01*
X121669370Y-79024850D01*
X121669360Y-79024850D01*
X121581120Y-79068080D01*
X121581110Y-79068080D01*
X121499370Y-79108040D01*
X121499360Y-79108040D01*
X121426300Y-79143670D01*
X121426290Y-79143670D01*
X121364090Y-79173910D01*
X121364070Y-79173920D01*
X121314910Y-79197710D01*
X121314880Y-79197720D01*
X121280940Y-79214000D01*
X121280840Y-79214050D01*
X121264300Y-79221770D01*
X121263680Y-79222030D01*
X121262420Y-79222520D01*
X121254770Y-79222340D01*
X121249920Y-79217780D01*
X121244820Y-79207880D01*
X121244410Y-79207000D01*
X121233820Y-79180440D01*
X121233730Y-79180210D01*
X121219490Y-79141700D01*
X121219450Y-79141580D01*
X121210980Y-79117760D01*
X121210930Y-79117610D01*
X121199740Y-79084380D01*
X121199610Y-79083960D01*
X121190720Y-79053170D01*
X121190560Y-79052560D01*
X121183450Y-79020410D01*
X121183330Y-79019810D01*
X121177440Y-78982540D01*
X121177390Y-78982090D01*
X121172200Y-78935920D01*
X121172170Y-78935650D01*
X121167140Y-78876800D01*
X121167130Y-78876670D01*
X121161730Y-78801370D01*
X121161730Y-78801320D01*
X121158000Y-78745370D01*
X121158000Y-78745350D01*
X121148420Y-78597200D01*
X121148420Y-78597170D01*
X121140370Y-78467160D01*
X121140370Y-78467110D01*
X121133690Y-78350860D01*
X121133680Y-78350800D01*
X121128190Y-78243920D01*
X121128190Y-78243840D01*
X121123710Y-78141960D01*
X121123710Y-78141880D01*
X121120070Y-78040630D01*
X121120070Y-78040550D01*
X121117100Y-77935540D01*
X121117090Y-77935470D01*
X121114610Y-77822330D01*
X121114610Y-77822280D01*
X121112450Y-77696620D01*
X121112450Y-77696590D01*
X121110440Y-77554040D01*
X121110440Y-77554030D01*
X121110360Y-77548210D01*
X121110360Y-77548100D01*
X121109520Y-77111950D01*
X121109520Y-77111710D01*
X121118670Y-76695660D01*
X121118680Y-76695400D01*
X121137810Y-76299470D01*
X121137830Y-76299180D01*
X121166940Y-75923410D01*
X121166970Y-75923080D01*
X121206070Y-75567490D01*
X121206110Y-75567130D01*
X121255190Y-75231740D01*
X121255240Y-75231380D01*
X121303150Y-74970350D01*
X121303200Y-74970100D01*
X121325660Y-74863100D01*
X121325690Y-74862950D01*
X121348790Y-74760760D01*
X121348830Y-74760610D01*
X121371950Y-74665440D01*
X121371990Y-74665270D01*
X121394500Y-74579320D01*
X121394560Y-74579110D01*
X121415830Y-74504580D01*
X121415920Y-74504290D01*
X121435340Y-74443360D01*
X121435510Y-74442890D01*
X121452450Y-74397770D01*
X121452910Y-74396740D01*
X121466740Y-74369620D01*
X121469500Y-74366280D01*
X121478750Y-74359080D01*
X121486120Y-74357040D01*
X121489170Y-74357930D01*
G37*
D11*
X81790000Y-94520000D02*
G75*
G02*
X80590000Y-94520000I-600000J0D01*
G01*
X80590000Y-94520000D02*
G75*
G02*
X81790000Y-94520000I600000J0D01*
G01*
M02*
