%TF.GenerationSoftware,KiCad,Pcbnew,8.0.4*%
%TF.CreationDate,2024-08-10T15:07:54-04:00*%
%TF.ProjectId,sp-slab-osh,73702d73-6c61-4622-9d6f-73682e6b6963,rev?*%
%TF.SameCoordinates,Original*%
%TF.FileFunction,Copper,L1,Top*%
%TF.FilePolarity,Positive*%
%FSLAX46Y46*%
G04 Gerber Fmt 4.6, Leading zero omitted, Abs format (unit mm)*
G04 Created by KiCad (PCBNEW 8.0.4) date 2024-08-10 15:07:54*
%MOMM*%
%LPD*%
G01*
G04 APERTURE LIST*
%TA.AperFunction,NonConductor*%
%ADD10C,0.000000*%
%TD*%
%TA.AperFunction,NonConductor*%
%ADD11C,0.400000*%
%TD*%
%TA.AperFunction,NonConductor*%
%ADD12C,1.000000*%
%TD*%
%TA.AperFunction,ViaPad*%
%ADD13C,0.398790*%
%TD*%
%TA.AperFunction,ViaPad*%
%ADD14C,0.800000*%
%TD*%
%TA.AperFunction,ViaPad*%
%ADD15C,1.099830*%
%TD*%
%TA.AperFunction,ViaPad*%
%ADD16C,2.400310*%
%TD*%
%TA.AperFunction,ViaPad*%
%ADD17C,3.898910*%
%TD*%
%TA.AperFunction,ViaPad*%
%ADD18C,2.199650*%
%TD*%
%TA.AperFunction,Conductor*%
%ADD19C,0.250000*%
%TD*%
%TA.AperFunction,Conductor*%
%ADD20C,1.000000*%
%TD*%
G04 APERTURE END LIST*
D10*
%TA.AperFunction,NonConductor*%
G36*
X121541770Y-74381680D02*
G01*
X121625570Y-74431620D01*
X121683870Y-74509830D01*
X121707810Y-74604390D01*
X121693740Y-74700910D01*
X121643800Y-74784710D01*
X121565590Y-74843010D01*
X118979930Y-76073860D01*
X119047310Y-76177990D01*
X119155380Y-76382740D01*
X119245030Y-76596060D01*
X119315750Y-76816450D01*
X119367050Y-77042400D01*
X119398400Y-77272420D01*
X119409310Y-77505020D01*
X119399250Y-77738690D01*
X119367740Y-77971940D01*
X119336930Y-78116800D01*
X119271160Y-78341020D01*
X119184990Y-78559330D01*
X119079760Y-78769620D01*
X118956770Y-78969820D01*
X118817350Y-79157810D01*
X118662830Y-79331500D01*
X118494520Y-79488800D01*
X118446550Y-79528470D01*
X118404950Y-79560630D01*
X118355240Y-79597010D01*
X118300880Y-79635310D01*
X118245330Y-79673230D01*
X118192040Y-79708480D01*
X118144470Y-79738740D01*
X118106060Y-79761730D01*
X118080290Y-79775140D01*
X118068140Y-79777280D01*
X118018140Y-79777280D01*
X118018140Y-75227280D01*
X118071910Y-75228210D01*
X118088910Y-75234570D01*
X118120640Y-75252140D01*
X118163710Y-75278650D01*
X118214740Y-75311850D01*
X118270330Y-75349470D01*
X118327090Y-75389260D01*
X118381640Y-75428940D01*
X118430580Y-75466260D01*
X118441030Y-75474550D01*
X118617680Y-75630070D01*
X118658320Y-75673190D01*
X121350690Y-74391550D01*
X121445250Y-74367610D01*
X121541770Y-74381680D01*
G37*
%TD.AperFunction*%
D11*
X75384000Y-68173430D02*
G75*
G02*
X74984000Y-68173430I-200000J0D01*
G01*
X74984000Y-68173430D02*
G75*
G02*
X75384000Y-68173430I200000J0D01*
G01*
D10*
%TA.AperFunction,NonConductor*%
G36*
X100994250Y-99648800D02*
G01*
X100994250Y-100497030D01*
X100777010Y-100714410D01*
X100559770Y-100931780D01*
X99571430Y-100931780D01*
X99360100Y-100720430D01*
X99148780Y-100509080D01*
X99148780Y-99102190D01*
X97319190Y-99102190D01*
X97319190Y-100509140D01*
X97107840Y-100720460D01*
X96896490Y-100931780D01*
X95489590Y-100931780D01*
X95489590Y-102761370D01*
X97319190Y-102761370D01*
X97319190Y-101354420D01*
X97530540Y-101143100D01*
X97741890Y-100931780D01*
X98726140Y-100931780D01*
X98939440Y-101145110D01*
X99152750Y-101358450D01*
X99152750Y-102059910D01*
X99152750Y-102761370D01*
X100982340Y-102761370D01*
X100982340Y-101354420D01*
X101199650Y-101137150D01*
X101416950Y-100919870D01*
X102823840Y-100919870D01*
X102823840Y-98800560D01*
X103125470Y-98800560D01*
X103125470Y-103066970D01*
X99157380Y-103066970D01*
X98980060Y-103066970D01*
X98804670Y-103066960D01*
X98631380Y-103066940D01*
X98460350Y-103066930D01*
X98291750Y-103066900D01*
X98125750Y-103066880D01*
X97962520Y-103066840D01*
X97802220Y-103066810D01*
X97645030Y-103066770D01*
X97491110Y-103066720D01*
X97340630Y-103066670D01*
X97193760Y-103066620D01*
X97050670Y-103066560D01*
X96911530Y-103066500D01*
X96776490Y-103066440D01*
X96645740Y-103066370D01*
X96519440Y-103066300D01*
X96397760Y-103066220D01*
X96280860Y-103066140D01*
X96168920Y-103066060D01*
X96062100Y-103065970D01*
X95960570Y-103065890D01*
X95864500Y-103065800D01*
X95774050Y-103065700D01*
X95689410Y-103065610D01*
X95610720Y-103065510D01*
X95538170Y-103065410D01*
X95471920Y-103065300D01*
X95412130Y-103065200D01*
X95358980Y-103065090D01*
X95312640Y-103064980D01*
X95273270Y-103064870D01*
X95241040Y-103064760D01*
X95216120Y-103064640D01*
X95198670Y-103064530D01*
X95188870Y-103064410D01*
X95186640Y-103064320D01*
X95186480Y-103060230D01*
X95186330Y-103048430D01*
X95186170Y-103029150D01*
X95186020Y-103002620D01*
X95185870Y-102969080D01*
X95185720Y-102928740D01*
X95185580Y-102881850D01*
X95185440Y-102828630D01*
X95185310Y-102769300D01*
X95185180Y-102704110D01*
X95185060Y-102633280D01*
X95184940Y-102557030D01*
X95184830Y-102475600D01*
X95184720Y-102389230D01*
X95184620Y-102298130D01*
X95184520Y-102202540D01*
X95184440Y-102102690D01*
X95184360Y-101998800D01*
X95184280Y-101891110D01*
X95184220Y-101779850D01*
X95184160Y-101665250D01*
X95184110Y-101547530D01*
X95184070Y-101426930D01*
X95184040Y-101303670D01*
X95184020Y-101177990D01*
X95184000Y-101050110D01*
X95184000Y-100931120D01*
X95184000Y-98800560D01*
X100994250Y-98800560D01*
X100994250Y-99648800D01*
G37*
%TD.AperFunction*%
%TA.AperFunction,NonConductor*%
G36*
X126878230Y-66282520D02*
G01*
X126889640Y-66285140D01*
X126900520Y-66282680D01*
X126911670Y-66282700D01*
X126911660Y-66283200D01*
X126921570Y-66282480D01*
X127000220Y-66288670D01*
X127085600Y-66295390D01*
X127100940Y-66297820D01*
X127192540Y-66319820D01*
X127284150Y-66341810D01*
X127298920Y-66346610D01*
X127385960Y-66382660D01*
X127472990Y-66418710D01*
X127486830Y-66425760D01*
X127647480Y-66524210D01*
X127660050Y-66533340D01*
X127803310Y-66655700D01*
X127814300Y-66666690D01*
X127936660Y-66809950D01*
X127945790Y-66822520D01*
X128044240Y-66983170D01*
X128051290Y-66997010D01*
X128123390Y-67171080D01*
X128128190Y-67185850D01*
X128172180Y-67369060D01*
X128174610Y-67384400D01*
X128187480Y-67547920D01*
X128186760Y-67557630D01*
X128187380Y-67557630D01*
X128187360Y-67568770D01*
X128184860Y-67579640D01*
X128187320Y-67590520D01*
X128187560Y-67591580D01*
X128190000Y-67613430D01*
X128190000Y-95696040D01*
X128187480Y-95718230D01*
X128184860Y-95729640D01*
X128187320Y-95740520D01*
X128187300Y-95751670D01*
X128186800Y-95751660D01*
X128187520Y-95761570D01*
X128185500Y-95787240D01*
X128174610Y-95925600D01*
X128172180Y-95940940D01*
X128128190Y-96124150D01*
X128123390Y-96138920D01*
X128051290Y-96312990D01*
X128044240Y-96326830D01*
X127945790Y-96487480D01*
X127936660Y-96500050D01*
X127814300Y-96643310D01*
X127803310Y-96654300D01*
X127660050Y-96776660D01*
X127647480Y-96785790D01*
X127486830Y-96884240D01*
X127472990Y-96891290D01*
X127385960Y-96927340D01*
X127298920Y-96963390D01*
X127284150Y-96968190D01*
X127192540Y-96990180D01*
X127100940Y-97012180D01*
X127085600Y-97014610D01*
X126959780Y-97024510D01*
X126922080Y-97027480D01*
X126912370Y-97026760D01*
X126912370Y-97027380D01*
X126901230Y-97027360D01*
X126890360Y-97024860D01*
X126878610Y-97027520D01*
X126878420Y-97027560D01*
X126856570Y-97030000D01*
X107924220Y-97030000D01*
X107901870Y-97027440D01*
X107890720Y-97024860D01*
X107890000Y-97024860D01*
X107885030Y-97025990D01*
X107883890Y-97026100D01*
X107647450Y-97043010D01*
X107409830Y-97094700D01*
X107181990Y-97179680D01*
X106968560Y-97296220D01*
X106773890Y-97441950D01*
X106601950Y-97613890D01*
X106456220Y-97808560D01*
X106339680Y-98021990D01*
X106254700Y-98249830D01*
X106203010Y-98487450D01*
X106186270Y-98721450D01*
X106186210Y-98722260D01*
X106186030Y-98724240D01*
X106184860Y-98729280D01*
X106184860Y-98730000D01*
X106186100Y-98735450D01*
X106187520Y-98741680D01*
X106190000Y-98763700D01*
X106190000Y-104546040D01*
X106187480Y-104568230D01*
X106184860Y-104579640D01*
X106187320Y-104590520D01*
X106187300Y-104601670D01*
X106186800Y-104601660D01*
X106187520Y-104611570D01*
X106174610Y-104775600D01*
X106172180Y-104790940D01*
X106128190Y-104974150D01*
X106123390Y-104988920D01*
X106051290Y-105162990D01*
X106044240Y-105176830D01*
X105945790Y-105337480D01*
X105936660Y-105350050D01*
X105814300Y-105493310D01*
X105803310Y-105504300D01*
X105660050Y-105626660D01*
X105647480Y-105635790D01*
X105486830Y-105734240D01*
X105472990Y-105741290D01*
X105385950Y-105777340D01*
X105298920Y-105813390D01*
X105284150Y-105818190D01*
X105192540Y-105840180D01*
X105100940Y-105862180D01*
X105085600Y-105864610D01*
X104959780Y-105874510D01*
X104922080Y-105877480D01*
X104912370Y-105876760D01*
X104912370Y-105877380D01*
X104901230Y-105877360D01*
X104890360Y-105874860D01*
X104878610Y-105877520D01*
X104878420Y-105877560D01*
X104856570Y-105880000D01*
X81923960Y-105880000D01*
X81901770Y-105877480D01*
X81901750Y-105877480D01*
X81890360Y-105874860D01*
X81879480Y-105877320D01*
X81868340Y-105877300D01*
X81868340Y-105876800D01*
X81858430Y-105877520D01*
X81779780Y-105871330D01*
X81694400Y-105864610D01*
X81679060Y-105862180D01*
X81587460Y-105840180D01*
X81495850Y-105818190D01*
X81481080Y-105813390D01*
X81394050Y-105777340D01*
X81307010Y-105741290D01*
X81293170Y-105734240D01*
X81132520Y-105635790D01*
X81119950Y-105626660D01*
X80976690Y-105504300D01*
X80965700Y-105493310D01*
X80843340Y-105350050D01*
X80834210Y-105337480D01*
X80735760Y-105176830D01*
X80728710Y-105162990D01*
X80656610Y-104988920D01*
X80651810Y-104974150D01*
X80607820Y-104790940D01*
X80605390Y-104775600D01*
X80592520Y-104612080D01*
X80593240Y-104602370D01*
X80592620Y-104602370D01*
X80592640Y-104591230D01*
X80595140Y-104580360D01*
X80592440Y-104568420D01*
X80590000Y-104546570D01*
X80590000Y-98764220D01*
X80592560Y-98741870D01*
X80593880Y-98736180D01*
X80595140Y-98730720D01*
X80595140Y-98730000D01*
X80594010Y-98725030D01*
X80593900Y-98723880D01*
X80593730Y-98721450D01*
X80576990Y-98487450D01*
X80525300Y-98249830D01*
X80440320Y-98021990D01*
X80323780Y-97808560D01*
X80178060Y-97613890D01*
X80006110Y-97441950D01*
X79811440Y-97296220D01*
X79598010Y-97179680D01*
X79370170Y-97094700D01*
X79132550Y-97043010D01*
X78897720Y-97026210D01*
X78895760Y-97026030D01*
X78890720Y-97024860D01*
X78890000Y-97024860D01*
X78884550Y-97026100D01*
X78878320Y-97027520D01*
X78856300Y-97030000D01*
X59923960Y-97030000D01*
X59901770Y-97027480D01*
X59901750Y-97027480D01*
X59890360Y-97024860D01*
X59879480Y-97027320D01*
X59868340Y-97027300D01*
X59868340Y-97026800D01*
X59858430Y-97027520D01*
X59779780Y-97021330D01*
X59694400Y-97014610D01*
X59679060Y-97012180D01*
X59587460Y-96990180D01*
X59495850Y-96968190D01*
X59481080Y-96963390D01*
X59394050Y-96927340D01*
X59307010Y-96891290D01*
X59293170Y-96884240D01*
X59132520Y-96785790D01*
X59119950Y-96776660D01*
X58976690Y-96654300D01*
X58965700Y-96643310D01*
X58843340Y-96500050D01*
X58834210Y-96487480D01*
X58735760Y-96326830D01*
X58728710Y-96312990D01*
X58656610Y-96138920D01*
X58651810Y-96124150D01*
X58607820Y-95940940D01*
X58605390Y-95925600D01*
X58592520Y-95762080D01*
X58593240Y-95752370D01*
X58592620Y-95752370D01*
X58592640Y-95741230D01*
X58595140Y-95730360D01*
X58592440Y-95718420D01*
X58590000Y-95696570D01*
X58590000Y-93396880D01*
X59311100Y-93396880D01*
X59347180Y-93632650D01*
X59421290Y-93859370D01*
X59423160Y-93862970D01*
X59452750Y-93919810D01*
X59531420Y-94070940D01*
X59674630Y-94261680D01*
X59847070Y-94426460D01*
X59850420Y-94428750D01*
X59850430Y-94428750D01*
X60040760Y-94558590D01*
X60044110Y-94560880D01*
X60047790Y-94562580D01*
X60047800Y-94562590D01*
X60145140Y-94607770D01*
X60260460Y-94661300D01*
X60264370Y-94662390D01*
X60486380Y-94723950D01*
X60490300Y-94725040D01*
X60494350Y-94725470D01*
X60551770Y-94731610D01*
X60685020Y-94745850D01*
X60823490Y-94745850D01*
X60825520Y-94745680D01*
X60825530Y-94745680D01*
X60996700Y-94731610D01*
X61000750Y-94731280D01*
X61004680Y-94730290D01*
X61004690Y-94730290D01*
X61165050Y-94690010D01*
X61232080Y-94673170D01*
X61350850Y-94621530D01*
X79738070Y-94621530D01*
X79774150Y-94857300D01*
X79848260Y-95084020D01*
X79958390Y-95295590D01*
X80101600Y-95486330D01*
X80274040Y-95651110D01*
X80277390Y-95653400D01*
X80277400Y-95653400D01*
X80422480Y-95752370D01*
X80471080Y-95785530D01*
X80474760Y-95787230D01*
X80474770Y-95787240D01*
X80572110Y-95832420D01*
X80687430Y-95885950D01*
X80691340Y-95887040D01*
X80913350Y-95948600D01*
X80917270Y-95949690D01*
X80921320Y-95950120D01*
X80978740Y-95956260D01*
X81111990Y-95970500D01*
X81250460Y-95970500D01*
X81252490Y-95970330D01*
X81252500Y-95970330D01*
X81423670Y-95956260D01*
X81427720Y-95955930D01*
X81431650Y-95954940D01*
X81431660Y-95954940D01*
X81592020Y-95914660D01*
X81659050Y-95897820D01*
X81877780Y-95802710D01*
X82007530Y-95718780D01*
X82074640Y-95675360D01*
X82078050Y-95673160D01*
X82254460Y-95512630D01*
X82256980Y-95509440D01*
X82399780Y-95328630D01*
X82402290Y-95325450D01*
X82517560Y-95116630D01*
X82597180Y-94891790D01*
X82639010Y-94656970D01*
X82641930Y-94418470D01*
X82605850Y-94182700D01*
X82531750Y-93955980D01*
X82512920Y-93919810D01*
X82423490Y-93748020D01*
X82421610Y-93744410D01*
X82278400Y-93553680D01*
X82105960Y-93388890D01*
X82102610Y-93386600D01*
X82102600Y-93386600D01*
X81912270Y-93256760D01*
X81908920Y-93254480D01*
X81905240Y-93252770D01*
X81905230Y-93252760D01*
X81787000Y-93197880D01*
X81692570Y-93154050D01*
X81646190Y-93141190D01*
X81466650Y-93091400D01*
X81462730Y-93090310D01*
X81458680Y-93089880D01*
X81387380Y-93082260D01*
X81268010Y-93069500D01*
X81129540Y-93069500D01*
X81127510Y-93069670D01*
X81127500Y-93069670D01*
X80956330Y-93083740D01*
X80952280Y-93084070D01*
X80948350Y-93085060D01*
X80787980Y-93125340D01*
X80720950Y-93142180D01*
X80502220Y-93237290D01*
X80478290Y-93252760D01*
X80305370Y-93364640D01*
X80305360Y-93364640D01*
X80301950Y-93366850D01*
X80125540Y-93527370D01*
X80123020Y-93530560D01*
X79980220Y-93711370D01*
X79977710Y-93714560D01*
X79862440Y-93923370D01*
X79782820Y-94148210D01*
X79740990Y-94383030D01*
X79740940Y-94387090D01*
X79740460Y-94426460D01*
X79738070Y-94621530D01*
X61350850Y-94621530D01*
X61450810Y-94578060D01*
X61557800Y-94508850D01*
X61647670Y-94450710D01*
X61651080Y-94448510D01*
X61827490Y-94287980D01*
X61830010Y-94284790D01*
X61972810Y-94103980D01*
X61975320Y-94100800D01*
X62090590Y-93891980D01*
X62170210Y-93667140D01*
X62212040Y-93432320D01*
X62212540Y-93391690D01*
X62214430Y-93237290D01*
X62214960Y-93193820D01*
X62178880Y-92958050D01*
X62104780Y-92731330D01*
X61994640Y-92519760D01*
X61851430Y-92329030D01*
X61678990Y-92164240D01*
X61675640Y-92161950D01*
X61675630Y-92161950D01*
X61485300Y-92032110D01*
X61481950Y-92029830D01*
X61478270Y-92028120D01*
X61478260Y-92028110D01*
X61380920Y-91982930D01*
X61265600Y-91929400D01*
X61219220Y-91916540D01*
X61039680Y-91866750D01*
X61035760Y-91865660D01*
X61031710Y-91865230D01*
X60960410Y-91857610D01*
X60841040Y-91844850D01*
X60702570Y-91844850D01*
X60700540Y-91845020D01*
X60700530Y-91845020D01*
X60529360Y-91859090D01*
X60525310Y-91859420D01*
X60521380Y-91860410D01*
X60361010Y-91900690D01*
X60293980Y-91917530D01*
X60075250Y-92012640D01*
X60051320Y-92028110D01*
X59878400Y-92139990D01*
X59878390Y-92139990D01*
X59874980Y-92142200D01*
X59698570Y-92302720D01*
X59696050Y-92305910D01*
X59553250Y-92486720D01*
X59550740Y-92489910D01*
X59435470Y-92698720D01*
X59355850Y-92923560D01*
X59314020Y-93158380D01*
X59311100Y-93396880D01*
X58590000Y-93396880D01*
X58590000Y-90134260D01*
X58590000Y-88822470D01*
X68750970Y-88822470D01*
X68751340Y-88835250D01*
X68760860Y-88859660D01*
X68761470Y-88861170D01*
X68766410Y-88872630D01*
X68767140Y-88874240D01*
X68832490Y-89012520D01*
X68833260Y-89014100D01*
X68838970Y-89025150D01*
X68839790Y-89026680D01*
X68914970Y-89160760D01*
X68915820Y-89162230D01*
X68922300Y-89172890D01*
X68923210Y-89174340D01*
X69008260Y-89303980D01*
X69008780Y-89304750D01*
X69012690Y-89310470D01*
X69013160Y-89311140D01*
X69021740Y-89323190D01*
X69022310Y-89323980D01*
X69026350Y-89329420D01*
X69027030Y-89330320D01*
X69121300Y-89452450D01*
X69122340Y-89453750D01*
X69130300Y-89463350D01*
X69131450Y-89464680D01*
X69233490Y-89579420D01*
X69234600Y-89580630D01*
X69243150Y-89589600D01*
X69244340Y-89590810D01*
X69353860Y-89698040D01*
X69355030Y-89699150D01*
X69364160Y-89707500D01*
X69365410Y-89708600D01*
X69481810Y-89807880D01*
X69483130Y-89808960D01*
X69492780Y-89816640D01*
X69494060Y-89817620D01*
X69616880Y-89908600D01*
X69618290Y-89909610D01*
X69628420Y-89916580D01*
X69629830Y-89917520D01*
X69641840Y-89925200D01*
X69652860Y-89928070D01*
X69655050Y-89924650D01*
X69655050Y-88834960D01*
X69650930Y-88822270D01*
X69646810Y-88819280D01*
X68760780Y-88819280D01*
X68750970Y-88822470D01*
X58590000Y-88822470D01*
X58590000Y-87889230D01*
X68566930Y-87889230D01*
X68566940Y-87890710D01*
X68570480Y-88044080D01*
X68570550Y-88045770D01*
X68571280Y-88058340D01*
X68571410Y-88060030D01*
X68585610Y-88212080D01*
X68585790Y-88213750D01*
X68587400Y-88226220D01*
X68587640Y-88227880D01*
X68612370Y-88378200D01*
X68612680Y-88379870D01*
X68615140Y-88392160D01*
X68615500Y-88393790D01*
X68617930Y-88404020D01*
X68624860Y-88415410D01*
X68634120Y-88419280D01*
X69639370Y-88419280D01*
X69652050Y-88415160D01*
X69655050Y-88411030D01*
X69655050Y-87379190D01*
X70055050Y-87379190D01*
X70055050Y-90134260D01*
X70060140Y-90149940D01*
X70065950Y-90154700D01*
X70072510Y-90157430D01*
X70074160Y-90158090D01*
X70217790Y-90212120D01*
X70218670Y-90212440D01*
X70225450Y-90214840D01*
X70226390Y-90215160D01*
X70240490Y-90219830D01*
X70242590Y-90220510D01*
X70243070Y-90220660D01*
X70275120Y-90230840D01*
X70275550Y-90230970D01*
X70277620Y-90231620D01*
X70278190Y-90231790D01*
X70311540Y-90241900D01*
X70311790Y-90241980D01*
X70313990Y-90242630D01*
X70314000Y-90242630D01*
X70346870Y-90252180D01*
X70347350Y-90252320D01*
X70349380Y-90252890D01*
X70349690Y-90252980D01*
X70379880Y-90261340D01*
X70380280Y-90261450D01*
X70383220Y-90262240D01*
X70383460Y-90262300D01*
X70408850Y-90268880D01*
X70409640Y-90269080D01*
X70414450Y-90270260D01*
X70415160Y-90270420D01*
X70433190Y-90274560D01*
X70435100Y-90274960D01*
X70448850Y-90277550D01*
X70450780Y-90277880D01*
X70457720Y-90278910D01*
X70463490Y-90279420D01*
X70500350Y-90280550D01*
X70515570Y-90278620D01*
X70575150Y-90261310D01*
X70592130Y-90252490D01*
X70642820Y-90211890D01*
X70649280Y-90205580D01*
X70652470Y-90201240D01*
X70677410Y-90162300D01*
X70680490Y-90156720D01*
X70685640Y-90145790D01*
X70686270Y-90144400D01*
X70690740Y-90134070D01*
X70691330Y-90132670D01*
X70700110Y-90110530D01*
X70700280Y-90110080D01*
X70702180Y-90105090D01*
X70702390Y-90104530D01*
X70713390Y-90074280D01*
X70713430Y-90074180D01*
X70714460Y-90071250D01*
X70714660Y-90070680D01*
X70727220Y-90034260D01*
X70727400Y-90033750D01*
X70728080Y-90031740D01*
X70728110Y-90031630D01*
X70742090Y-89989520D01*
X70742220Y-89989110D01*
X70742730Y-89987550D01*
X70757790Y-89940760D01*
X70757850Y-89940580D01*
X70758260Y-89939280D01*
X70758270Y-89939270D01*
X70773970Y-89889180D01*
X70774030Y-89888970D01*
X70774380Y-89887850D01*
X70774390Y-89887810D01*
X70790400Y-89835500D01*
X70790430Y-89835400D01*
X70790790Y-89834200D01*
X70790800Y-89834160D01*
X70806780Y-89780650D01*
X70806820Y-89780510D01*
X70807180Y-89779300D01*
X70807180Y-89779280D01*
X70807220Y-89779150D01*
X70822810Y-89725610D01*
X70823220Y-89724180D01*
X70823280Y-89723990D01*
X70838130Y-89671520D01*
X70838180Y-89671340D01*
X70838620Y-89669760D01*
X70838730Y-89669360D01*
X70852490Y-89619090D01*
X70852610Y-89618640D01*
X70853110Y-89616780D01*
X70853120Y-89616730D01*
X70865670Y-89568960D01*
X70865940Y-89567880D01*
X70866010Y-89567620D01*
X70866510Y-89565680D01*
X70866600Y-89565330D01*
X70867320Y-89562380D01*
X70867410Y-89562040D01*
X70907160Y-89394830D01*
X70939010Y-89342590D01*
X70995490Y-89319050D01*
X71055020Y-89333210D01*
X71094860Y-89379650D01*
X71100150Y-89396380D01*
X71115790Y-89467230D01*
X71115810Y-89467280D01*
X71115890Y-89467670D01*
X71117730Y-89475280D01*
X71180140Y-89714000D01*
X71180180Y-89714150D01*
X71180200Y-89714220D01*
X71181210Y-89717910D01*
X71181250Y-89718060D01*
X71182440Y-89722270D01*
X71182830Y-89723630D01*
X71194270Y-89762940D01*
X71194850Y-89764870D01*
X71199570Y-89780510D01*
X71207660Y-89807340D01*
X71207690Y-89807420D01*
X71208100Y-89808770D01*
X71208160Y-89808950D01*
X71221980Y-89853470D01*
X71222350Y-89854660D01*
X71222390Y-89854780D01*
X71232880Y-89887810D01*
X71236770Y-89900040D01*
X71237150Y-89901240D01*
X71237210Y-89901430D01*
X71249500Y-89939270D01*
X71251670Y-89945970D01*
X71252040Y-89947120D01*
X71252070Y-89947180D01*
X71252070Y-89947190D01*
X71266310Y-89990140D01*
X71266750Y-89991470D01*
X71280210Y-90031160D01*
X71280290Y-90031380D01*
X71280820Y-90032940D01*
X71280850Y-90033000D01*
X71293250Y-90068590D01*
X71293260Y-90068630D01*
X71293970Y-90070620D01*
X71294050Y-90070860D01*
X71304850Y-90100730D01*
X71304880Y-90100800D01*
X71304930Y-90100930D01*
X71306260Y-90104530D01*
X71315180Y-90127800D01*
X71318230Y-90135320D01*
X71324760Y-90150540D01*
X71339750Y-90179030D01*
X71343480Y-90184950D01*
X71345570Y-90187450D01*
X71364330Y-90209970D01*
X71377860Y-90226210D01*
X71445950Y-90267760D01*
X71477950Y-90272770D01*
X71519950Y-90279340D01*
X71519960Y-90279340D01*
X71524760Y-90280090D01*
X71533000Y-90279750D01*
X71534860Y-90279540D01*
X71561710Y-90276400D01*
X71561720Y-90276390D01*
X71563550Y-90276180D01*
X71580600Y-90272870D01*
X71581080Y-90272770D01*
X71589050Y-90271030D01*
X71589060Y-90271030D01*
X71589570Y-90270920D01*
X71600210Y-90268350D01*
X71613410Y-90265170D01*
X71613490Y-90265150D01*
X71613700Y-90265100D01*
X71618370Y-90263910D01*
X71647860Y-90256060D01*
X71648050Y-90256010D01*
X71648100Y-90256000D01*
X71650840Y-90255240D01*
X71650880Y-90255230D01*
X71651130Y-90255160D01*
X71661910Y-90252100D01*
X71684100Y-90245800D01*
X71684150Y-90245780D01*
X71684260Y-90245750D01*
X71687040Y-90244940D01*
X71694740Y-90242630D01*
X71721890Y-90234500D01*
X71721960Y-90234480D01*
X71722100Y-90234440D01*
X71723130Y-90234120D01*
X71724720Y-90233630D01*
X71724760Y-90233620D01*
X71724890Y-90233580D01*
X71734820Y-90230450D01*
X71760030Y-90222500D01*
X71760110Y-90222480D01*
X71760160Y-90222460D01*
X71760230Y-90222440D01*
X71760280Y-90222420D01*
X71761180Y-90222130D01*
X71763370Y-90221420D01*
X71797140Y-90210160D01*
X71805580Y-90207140D01*
X71946330Y-90153250D01*
X71959290Y-90147770D01*
X72099090Y-90082890D01*
X72099830Y-90082510D01*
X72110950Y-90076870D01*
X72110970Y-90076860D01*
X72111700Y-90076490D01*
X72112420Y-90076090D01*
X72112450Y-90076080D01*
X72245260Y-90002870D01*
X72245270Y-90002870D01*
X72246020Y-90002460D01*
X72258080Y-89995260D01*
X72332690Y-89947180D01*
X72385810Y-89912950D01*
X72385830Y-89912940D01*
X72386520Y-89912490D01*
X72397980Y-89904550D01*
X72404030Y-89900040D01*
X72519490Y-89813960D01*
X72519500Y-89813950D01*
X72520160Y-89813460D01*
X72520810Y-89812940D01*
X72520820Y-89812930D01*
X72530330Y-89805330D01*
X72530350Y-89805310D01*
X72530990Y-89804790D01*
X72559160Y-89780650D01*
X72645850Y-89706370D01*
X72646510Y-89705810D01*
X72656700Y-89696450D01*
X72657310Y-89695860D01*
X72657320Y-89695840D01*
X72677720Y-89675820D01*
X81155930Y-89675820D01*
X81176520Y-89911220D01*
X81237680Y-90139480D01*
X81337550Y-90353640D01*
X81473090Y-90547220D01*
X81640190Y-90714310D01*
X81833760Y-90849850D01*
X82047920Y-90949720D01*
X82276180Y-91010880D01*
X82361020Y-91018300D01*
X82450460Y-91026130D01*
X82450470Y-91026130D01*
X82452620Y-91026320D01*
X82570550Y-91026320D01*
X82572710Y-91026130D01*
X82572720Y-91026130D01*
X82662160Y-91018300D01*
X82747000Y-91010880D01*
X82975250Y-90949720D01*
X83189420Y-90849850D01*
X83382990Y-90714310D01*
X83550080Y-90547220D01*
X83683140Y-90357190D01*
X83685620Y-90353650D01*
X83785490Y-90139480D01*
X83846650Y-89911220D01*
X83867250Y-89675820D01*
X83846650Y-89440410D01*
X83785490Y-89212150D01*
X83685620Y-88997990D01*
X83550080Y-88804410D01*
X83382990Y-88637320D01*
X83189420Y-88501780D01*
X82975250Y-88401910D01*
X82747000Y-88340750D01*
X82662160Y-88333330D01*
X82572720Y-88325500D01*
X82572710Y-88325500D01*
X82570550Y-88325320D01*
X82452620Y-88325320D01*
X82450470Y-88325500D01*
X82450460Y-88325500D01*
X82361020Y-88333330D01*
X82276180Y-88340750D01*
X82047920Y-88401910D01*
X81833760Y-88501780D01*
X81640190Y-88637320D01*
X81473090Y-88804410D01*
X81412000Y-88891670D01*
X81340030Y-88994440D01*
X81337550Y-88997990D01*
X81237680Y-89212150D01*
X81176520Y-89440410D01*
X81155930Y-89675820D01*
X72677720Y-89675820D01*
X72764570Y-89590550D01*
X72764590Y-89590540D01*
X72765150Y-89589980D01*
X72774680Y-89579970D01*
X72867400Y-89475740D01*
X72875080Y-89467100D01*
X72875100Y-89467080D01*
X72875670Y-89466440D01*
X72884520Y-89455790D01*
X72886100Y-89453750D01*
X72977130Y-89336280D01*
X72977650Y-89335610D01*
X72985780Y-89324350D01*
X73070660Y-89197940D01*
X73071200Y-89197080D01*
X73077590Y-89186820D01*
X73077600Y-89186800D01*
X73078050Y-89186080D01*
X73085660Y-89172890D01*
X73153860Y-89054600D01*
X73154280Y-89053860D01*
X73160880Y-89041440D01*
X73207540Y-88945880D01*
X73227680Y-88904610D01*
X73227690Y-88904600D01*
X73228070Y-88903820D01*
X73233850Y-88890860D01*
X73291590Y-88748270D01*
X73291880Y-88747470D01*
X73296180Y-88735670D01*
X73296190Y-88735640D01*
X73296490Y-88734820D01*
X73327240Y-88640370D01*
X73344170Y-88588350D01*
X73344180Y-88588320D01*
X73344390Y-88587670D01*
X73347920Y-88575580D01*
X73349160Y-88570770D01*
X73379350Y-88454050D01*
X73379550Y-88453300D01*
X73382230Y-88441500D01*
X73404170Y-88329760D01*
X73408130Y-88309570D01*
X73408130Y-88309550D01*
X73408280Y-88308800D01*
X73410420Y-88295650D01*
X73427670Y-88162330D01*
X73428940Y-88149200D01*
X73437700Y-88012880D01*
X73438120Y-88000580D01*
X73438680Y-87858900D01*
X73438620Y-87853090D01*
X73438440Y-87845830D01*
X73438370Y-87843440D01*
X73438230Y-87839750D01*
X73435810Y-87772890D01*
X73435810Y-87772830D01*
X73435800Y-87772450D01*
X73435740Y-87771340D01*
X73435540Y-87767230D01*
X73435530Y-87767220D01*
X73435520Y-87766830D01*
X73435330Y-87763990D01*
X73431460Y-87703180D01*
X73431420Y-87702690D01*
X73430870Y-87695790D01*
X73428720Y-87673870D01*
X73424940Y-87635200D01*
X73424930Y-87635170D01*
X73424890Y-87634720D01*
X73424070Y-87627650D01*
X73415850Y-87565870D01*
X73414950Y-87559850D01*
X73404110Y-87493580D01*
X73403460Y-87489790D01*
X73398170Y-87460880D01*
X73397660Y-87458220D01*
X73393390Y-87436500D01*
X73391300Y-87425860D01*
X73391280Y-87425750D01*
X73391240Y-87425570D01*
X73390700Y-87422900D01*
X73384230Y-87392180D01*
X73383580Y-87389190D01*
X73377470Y-87362190D01*
X73376470Y-87358000D01*
X73376420Y-87357790D01*
X73376400Y-87357720D01*
X73371260Y-87337020D01*
X73371250Y-87336990D01*
X73371130Y-87336500D01*
X73368880Y-87328200D01*
X73364710Y-87313990D01*
X73351020Y-87279400D01*
X73348430Y-87274260D01*
X73347750Y-87273080D01*
X73347740Y-87273060D01*
X73340230Y-87260050D01*
X73337110Y-87254650D01*
X73281300Y-87197660D01*
X73207930Y-87166380D01*
X73186570Y-87166150D01*
X73133030Y-87165600D01*
X73128170Y-87165550D01*
X73125210Y-87166100D01*
X73123710Y-87166420D01*
X73117350Y-87167750D01*
X73117320Y-87167760D01*
X73116870Y-87167860D01*
X73116350Y-87167980D01*
X73106750Y-87170200D01*
X73105030Y-87170600D01*
X73104770Y-87170660D01*
X73102950Y-87171090D01*
X73102790Y-87171130D01*
X73084250Y-87175650D01*
X73083040Y-87175950D01*
X73060230Y-87181650D01*
X73059860Y-87181750D01*
X73057870Y-87182250D01*
X73057010Y-87182460D01*
X72993590Y-87197790D01*
X72992170Y-87198120D01*
X72920670Y-87214300D01*
X72919560Y-87214550D01*
X72885190Y-87221910D01*
X72841240Y-87231320D01*
X72840400Y-87231500D01*
X72757910Y-87248310D01*
X72757300Y-87248430D01*
X72673300Y-87264730D01*
X72672510Y-87264880D01*
X72589760Y-87280110D01*
X72588720Y-87280290D01*
X72546420Y-87287610D01*
X72485860Y-87278890D01*
X72441980Y-87236240D01*
X72430550Y-87190060D01*
X72430550Y-86540880D01*
X72449460Y-86482690D01*
X72459540Y-86470880D01*
X73559070Y-85371350D01*
X73565420Y-85365530D01*
X73595190Y-85340550D01*
X73614640Y-85306870D01*
X73619260Y-85299620D01*
X73636590Y-85274870D01*
X73641550Y-85267780D01*
X73643800Y-85259420D01*
X73646260Y-85254140D01*
X73648260Y-85248640D01*
X73652590Y-85241140D01*
X73659340Y-85202870D01*
X73661210Y-85194440D01*
X73669020Y-85165270D01*
X73671260Y-85156900D01*
X73667880Y-85118200D01*
X73667500Y-85109570D01*
X73667500Y-84903680D01*
X73686410Y-84845490D01*
X73706230Y-84825140D01*
X73706590Y-84824870D01*
X73770280Y-84776000D01*
X73866540Y-84650560D01*
X73920830Y-84519470D01*
X73924560Y-84510470D01*
X73927040Y-84504480D01*
X73947680Y-84347710D01*
X73927040Y-84190950D01*
X73866540Y-84044870D01*
X73770280Y-83919430D01*
X73644840Y-83823180D01*
X73525990Y-83773950D01*
X73504760Y-83765150D01*
X73498760Y-83762670D01*
X73342000Y-83742030D01*
X73185240Y-83762670D01*
X73179240Y-83765150D01*
X73158020Y-83773950D01*
X73039160Y-83823180D01*
X72913720Y-83919430D01*
X72817460Y-84044870D01*
X72756960Y-84190950D01*
X72736320Y-84347710D01*
X72756960Y-84504480D01*
X72759440Y-84510470D01*
X72763170Y-84519470D01*
X72817460Y-84650560D01*
X72913720Y-84776000D01*
X72977410Y-84824870D01*
X72977770Y-84825140D01*
X73012420Y-84875570D01*
X73016500Y-84903680D01*
X73016500Y-84952260D01*
X72997590Y-85010450D01*
X72987500Y-85022270D01*
X71887990Y-86121780D01*
X71881620Y-86127610D01*
X71851850Y-86152590D01*
X71847530Y-86160090D01*
X71832420Y-86186250D01*
X71827780Y-86193540D01*
X71805490Y-86225360D01*
X71803250Y-86233730D01*
X71800790Y-86239020D01*
X71798790Y-86244500D01*
X71794460Y-86252000D01*
X71792960Y-86260530D01*
X71787710Y-86290260D01*
X71785840Y-86298700D01*
X71775780Y-86336240D01*
X71776540Y-86344870D01*
X71779170Y-86374950D01*
X71779550Y-86383580D01*
X71779550Y-87292460D01*
X71760640Y-87350650D01*
X71711140Y-87386610D01*
X71686880Y-87391260D01*
X71518690Y-87402030D01*
X71516770Y-87402130D01*
X71453530Y-87404920D01*
X71305490Y-87411460D01*
X71304580Y-87411490D01*
X71118230Y-87418000D01*
X71114310Y-87418140D01*
X71110460Y-87418900D01*
X71059670Y-87428840D01*
X71059660Y-87428840D01*
X71051030Y-87430530D01*
X71043510Y-87435110D01*
X71043290Y-87435200D01*
X70982200Y-87438660D01*
X70969390Y-87434330D01*
X70959630Y-87430260D01*
X70895940Y-87417490D01*
X70886310Y-87416530D01*
X70845600Y-87416460D01*
X70844970Y-87416460D01*
X70833610Y-87416370D01*
X70832420Y-87416350D01*
X70801550Y-87415730D01*
X70800660Y-87415710D01*
X70760720Y-87414550D01*
X70760140Y-87414530D01*
X70712610Y-87412870D01*
X70712170Y-87412850D01*
X70660860Y-87410830D01*
X70660490Y-87410820D01*
X70605450Y-87408440D01*
X70605100Y-87408430D01*
X70549980Y-87405860D01*
X70549620Y-87405840D01*
X70495190Y-87403100D01*
X70494770Y-87403070D01*
X70443550Y-87400270D01*
X70443010Y-87400240D01*
X70396910Y-87397470D01*
X70396530Y-87397450D01*
X70391520Y-87397130D01*
X70389930Y-87397010D01*
X70104520Y-87374110D01*
X70101390Y-87373810D01*
X70070630Y-87370360D01*
X70057560Y-87373030D01*
X70056010Y-87374730D01*
X70055050Y-87379190D01*
X69655050Y-87379190D01*
X69655050Y-87333900D01*
X69650930Y-87321210D01*
X69644750Y-87316720D01*
X69544730Y-87302190D01*
X69541480Y-87301670D01*
X69272890Y-87253480D01*
X69269550Y-87252820D01*
X69004370Y-87195780D01*
X69002870Y-87195440D01*
X68991840Y-87192890D01*
X68990280Y-87192530D01*
X68957300Y-87185170D01*
X68957120Y-87185140D01*
X68954710Y-87184610D01*
X68954560Y-87184580D01*
X68926110Y-87178610D01*
X68925640Y-87178520D01*
X68922630Y-87177910D01*
X68921990Y-87177790D01*
X68899850Y-87173550D01*
X68898940Y-87173390D01*
X68893090Y-87172370D01*
X68892180Y-87172220D01*
X68878900Y-87170140D01*
X68875550Y-87169730D01*
X68851470Y-87167610D01*
X68848520Y-87167450D01*
X68838450Y-87168290D01*
X68770750Y-87181120D01*
X68752560Y-87188580D01*
X68702930Y-87221910D01*
X68689440Y-87235470D01*
X68653480Y-87289550D01*
X68648960Y-87298050D01*
X68647890Y-87300920D01*
X68640420Y-87323080D01*
X68639480Y-87326200D01*
X68635990Y-87339340D01*
X68635760Y-87340230D01*
X68634220Y-87346490D01*
X68634020Y-87347310D01*
X68629030Y-87369240D01*
X68628860Y-87369990D01*
X68628230Y-87372870D01*
X68628130Y-87373320D01*
X68622190Y-87401650D01*
X68621780Y-87403670D01*
X68621700Y-87404050D01*
X68615270Y-87436500D01*
X68614930Y-87438280D01*
X68614910Y-87438390D01*
X68608340Y-87473160D01*
X68608300Y-87473380D01*
X68608020Y-87474880D01*
X68608010Y-87474940D01*
X68601640Y-87510310D01*
X68601360Y-87511890D01*
X68601280Y-87512350D01*
X68595470Y-87546380D01*
X68595080Y-87548750D01*
X68595040Y-87548990D01*
X68590170Y-87579780D01*
X68590110Y-87580140D01*
X68589640Y-87583280D01*
X68589550Y-87583880D01*
X68585930Y-87609650D01*
X68585850Y-87610250D01*
X68585350Y-87614130D01*
X68585290Y-87614580D01*
X68582540Y-87637830D01*
X68582500Y-87638120D01*
X68582220Y-87640680D01*
X68582160Y-87641250D01*
X68578040Y-87681110D01*
X68577790Y-87683680D01*
X68577750Y-87684140D01*
X68574110Y-87725040D01*
X68573850Y-87728250D01*
X68573830Y-87728570D01*
X68571270Y-87763990D01*
X68571210Y-87764960D01*
X68570860Y-87771340D01*
X68570820Y-87772270D01*
X68567030Y-87877190D01*
X68567000Y-87878640D01*
X68566930Y-87889230D01*
X58590000Y-87889230D01*
X58590000Y-83700240D01*
X58590000Y-75731190D01*
X59640740Y-75731190D01*
X59641490Y-75739820D01*
X59644120Y-75769910D01*
X59644500Y-75778530D01*
X59644500Y-83652890D01*
X59644120Y-83661520D01*
X59640740Y-83700240D01*
X59642980Y-83708600D01*
X59650800Y-83737780D01*
X59652670Y-83746210D01*
X59654160Y-83754670D01*
X59659410Y-83784470D01*
X59663740Y-83791970D01*
X59665740Y-83797460D01*
X59668200Y-83802740D01*
X59670450Y-83811110D01*
X59682090Y-83827750D01*
X59692730Y-83842940D01*
X59697370Y-83850220D01*
X59716810Y-83883880D01*
X59742230Y-83905210D01*
X59746570Y-83908860D01*
X59752940Y-83914690D01*
X62718710Y-86880460D01*
X62746480Y-86934980D01*
X62746860Y-86963380D01*
X62736320Y-87043430D01*
X62756960Y-87200190D01*
X62817460Y-87346270D01*
X62913720Y-87471710D01*
X63039160Y-87567960D01*
X63185240Y-87628470D01*
X63342000Y-87649110D01*
X63498760Y-87628470D01*
X63644840Y-87567960D01*
X63770280Y-87471710D01*
X63866540Y-87346270D01*
X63927040Y-87200190D01*
X63947680Y-87043430D01*
X63927040Y-86886670D01*
X63866540Y-86740590D01*
X63770280Y-86615150D01*
X63644840Y-86518890D01*
X63498760Y-86458380D01*
X63342000Y-86437750D01*
X63261960Y-86448280D01*
X63201800Y-86437130D01*
X63179030Y-86420140D01*
X60324500Y-83565600D01*
X60296720Y-83511080D01*
X60295500Y-83495590D01*
X60295500Y-83443760D01*
X86439000Y-83443760D01*
X86475080Y-83679530D01*
X86499500Y-83754250D01*
X86547760Y-83901890D01*
X86549180Y-83906250D01*
X86551050Y-83909850D01*
X86620050Y-84042380D01*
X86659320Y-84117820D01*
X86717500Y-84195310D01*
X86781670Y-84280780D01*
X86802530Y-84308560D01*
X86974970Y-84473340D01*
X86978320Y-84475630D01*
X87137020Y-84583890D01*
X87172010Y-84607760D01*
X87175690Y-84609460D01*
X87175690Y-84609470D01*
X87262930Y-84649960D01*
X87388350Y-84708180D01*
X87392270Y-84709270D01*
X87614270Y-84770830D01*
X87614280Y-84770830D01*
X87618200Y-84771920D01*
X87622250Y-84772350D01*
X87679660Y-84778490D01*
X87812910Y-84792730D01*
X87951390Y-84792730D01*
X87953420Y-84792560D01*
X88124590Y-84778490D01*
X88124600Y-84778490D01*
X88128640Y-84778160D01*
X88132580Y-84777170D01*
X88332770Y-84726880D01*
X88359970Y-84720050D01*
X88521170Y-84649960D01*
X88574980Y-84626560D01*
X88578710Y-84624940D01*
X88716920Y-84535530D01*
X88775560Y-84497590D01*
X88778970Y-84495390D01*
X88785720Y-84489250D01*
X88950460Y-84339340D01*
X88955390Y-84334860D01*
X88957910Y-84331670D01*
X89100700Y-84150860D01*
X89100710Y-84150860D01*
X89103220Y-84147680D01*
X89156660Y-84050870D01*
X89216530Y-83942420D01*
X89218490Y-83938860D01*
X89220130Y-83934230D01*
X89288220Y-83741950D01*
X89298110Y-83714020D01*
X89339940Y-83479200D01*
X89340270Y-83452160D01*
X89341510Y-83350610D01*
X89342850Y-83240700D01*
X89306770Y-83004930D01*
X89248740Y-82827380D01*
X89233930Y-82782070D01*
X89232670Y-82778210D01*
X89151670Y-82622610D01*
X89124410Y-82570250D01*
X89122540Y-82566640D01*
X89023860Y-82435220D01*
X88981760Y-82379150D01*
X88979320Y-82375910D01*
X88806880Y-82211120D01*
X88803530Y-82208830D01*
X88613200Y-82078990D01*
X88613190Y-82078990D01*
X88609840Y-82076710D01*
X88606160Y-82075000D01*
X88606160Y-82074990D01*
X88508820Y-82029810D01*
X88393500Y-81976280D01*
X88286420Y-81946590D01*
X88167580Y-81913630D01*
X88167570Y-81913630D01*
X88163650Y-81912540D01*
X88159610Y-81912110D01*
X88159600Y-81912110D01*
X88088300Y-81904490D01*
X87968940Y-81891730D01*
X87830460Y-81891730D01*
X87828430Y-81891900D01*
X87657260Y-81905970D01*
X87657250Y-81905970D01*
X87653210Y-81906300D01*
X87649280Y-81907290D01*
X87649270Y-81907290D01*
X87521800Y-81939310D01*
X87421880Y-81964410D01*
X87374750Y-81984900D01*
X87207050Y-82057820D01*
X87203140Y-82059520D01*
X87164930Y-82084240D01*
X87006290Y-82186870D01*
X87002880Y-82189080D01*
X86999870Y-82191810D01*
X86952890Y-82234560D01*
X86826460Y-82349600D01*
X86823950Y-82352790D01*
X86823940Y-82352790D01*
X86681150Y-82533600D01*
X86678630Y-82536790D01*
X86563360Y-82745600D01*
X86483740Y-82970440D01*
X86441910Y-83205260D01*
X86441860Y-83209320D01*
X86440620Y-83311190D01*
X86439000Y-83443760D01*
X60295500Y-83443760D01*
X60295500Y-79564580D01*
X60793780Y-79564580D01*
X60795710Y-79579800D01*
X60813020Y-79639380D01*
X60821830Y-79656360D01*
X60862440Y-79707050D01*
X60868740Y-79713500D01*
X60873090Y-79716700D01*
X60912020Y-79741640D01*
X60917600Y-79744720D01*
X60928540Y-79749870D01*
X60929920Y-79750500D01*
X60940250Y-79754970D01*
X60941660Y-79755560D01*
X60963800Y-79764340D01*
X60964250Y-79764510D01*
X60969230Y-79766410D01*
X60969710Y-79766580D01*
X60999950Y-79777590D01*
X61000150Y-79777660D01*
X61003070Y-79778690D01*
X61003570Y-79778870D01*
X61040030Y-79791440D01*
X61040580Y-79791630D01*
X61042420Y-79792250D01*
X61042700Y-79792340D01*
X61084810Y-79806320D01*
X61085210Y-79806450D01*
X61086770Y-79806960D01*
X61133560Y-79822020D01*
X61135000Y-79822480D01*
X61135050Y-79822500D01*
X61185100Y-79838180D01*
X61185140Y-79838200D01*
X61186480Y-79838610D01*
X61238710Y-79854590D01*
X61238930Y-79854660D01*
X61240130Y-79855020D01*
X61293580Y-79870980D01*
X61293800Y-79871050D01*
X61295020Y-79871410D01*
X61295040Y-79871410D01*
X61295180Y-79871450D01*
X61348600Y-79887000D01*
X61348710Y-79887040D01*
X61350140Y-79887450D01*
X61350340Y-79887510D01*
X61402810Y-79902360D01*
X61402990Y-79902410D01*
X61404560Y-79902850D01*
X61404850Y-79902920D01*
X61455200Y-79916710D01*
X61455690Y-79916840D01*
X61457500Y-79917330D01*
X61457550Y-79917340D01*
X61505370Y-79929900D01*
X61506440Y-79930170D01*
X61506700Y-79930240D01*
X61508640Y-79930740D01*
X61509000Y-79930820D01*
X61511950Y-79931550D01*
X61512280Y-79931630D01*
X61679490Y-79971390D01*
X61731730Y-80003240D01*
X61755270Y-80059720D01*
X61741120Y-80119250D01*
X61694680Y-80159090D01*
X61677950Y-80164370D01*
X61665310Y-80167170D01*
X61607100Y-80180020D01*
X61607050Y-80180040D01*
X61606660Y-80180120D01*
X61599040Y-80181960D01*
X61598610Y-80182070D01*
X61598580Y-80182080D01*
X61481950Y-80212570D01*
X61360330Y-80244370D01*
X61360170Y-80244410D01*
X61360110Y-80244430D01*
X61356420Y-80245440D01*
X61356270Y-80245480D01*
X61352060Y-80246670D01*
X61350700Y-80247060D01*
X61311390Y-80258500D01*
X61311320Y-80258530D01*
X61311250Y-80258550D01*
X61309460Y-80259080D01*
X61266910Y-80271920D01*
X61265380Y-80272390D01*
X61220850Y-80286210D01*
X61219540Y-80286620D01*
X61174290Y-80301000D01*
X61173080Y-80301380D01*
X61128350Y-80315900D01*
X61127140Y-80316300D01*
X61084190Y-80330530D01*
X61082850Y-80330980D01*
X61042940Y-80344520D01*
X61042800Y-80344570D01*
X61042780Y-80344580D01*
X61041390Y-80345050D01*
X61041190Y-80345120D01*
X61037800Y-80346300D01*
X61005700Y-80357490D01*
X61003470Y-80358280D01*
X61003410Y-80358300D01*
X61003390Y-80358310D01*
X60993080Y-80362040D01*
X60973390Y-80369160D01*
X60973170Y-80369240D01*
X60973140Y-80369250D01*
X60973120Y-80369260D01*
X60969800Y-80370490D01*
X60946520Y-80379410D01*
X60939000Y-80382460D01*
X60938560Y-80382650D01*
X60931000Y-80385890D01*
X60923780Y-80388990D01*
X60895290Y-80403980D01*
X60889380Y-80407710D01*
X60848120Y-80442090D01*
X60806570Y-80510180D01*
X60805060Y-80519810D01*
X60795490Y-80580980D01*
X60794230Y-80588980D01*
X60794570Y-80597230D01*
X60794790Y-80599090D01*
X60797880Y-80625480D01*
X60798150Y-80627780D01*
X60801460Y-80644830D01*
X60803410Y-80653800D01*
X60803530Y-80654330D01*
X60809160Y-80677640D01*
X60809170Y-80677720D01*
X60809220Y-80677930D01*
X60810410Y-80682600D01*
X60818260Y-80712090D01*
X60818310Y-80712280D01*
X60818330Y-80712330D01*
X60818840Y-80714180D01*
X60819160Y-80715360D01*
X60819260Y-80715710D01*
X60828500Y-80748240D01*
X60828580Y-80748490D01*
X60829390Y-80751270D01*
X60836610Y-80775370D01*
X60839890Y-80786330D01*
X60840750Y-80789120D01*
X60851860Y-80824390D01*
X60852900Y-80827600D01*
X60864160Y-80861370D01*
X60867190Y-80869810D01*
X60921080Y-81010560D01*
X60926560Y-81023520D01*
X60991440Y-81163320D01*
X60997840Y-81175930D01*
X60998230Y-81176650D01*
X60998250Y-81176680D01*
X61023510Y-81222510D01*
X61071870Y-81310250D01*
X61079060Y-81322310D01*
X61096370Y-81349160D01*
X61158710Y-81445910D01*
X61161830Y-81450750D01*
X61169780Y-81462210D01*
X61170260Y-81462860D01*
X61170270Y-81462870D01*
X61260370Y-81583710D01*
X61260870Y-81584390D01*
X61261390Y-81585030D01*
X61261400Y-81585050D01*
X61269000Y-81594550D01*
X61269020Y-81594580D01*
X61269530Y-81595220D01*
X61270090Y-81595870D01*
X61270090Y-81595880D01*
X61319900Y-81653990D01*
X61368520Y-81710740D01*
X61377870Y-81720930D01*
X61378470Y-81721540D01*
X61378480Y-81721550D01*
X61483770Y-81828800D01*
X61483790Y-81828820D01*
X61484340Y-81829380D01*
X61494350Y-81838910D01*
X61522600Y-81864040D01*
X61607220Y-81939310D01*
X61607240Y-81939330D01*
X61607890Y-81939900D01*
X61608550Y-81940460D01*
X61608570Y-81940470D01*
X61615130Y-81945920D01*
X61618530Y-81948740D01*
X61619200Y-81949260D01*
X61619210Y-81949270D01*
X61664440Y-81984320D01*
X61738720Y-82041880D01*
X61749980Y-82050010D01*
X61876390Y-82134890D01*
X61877090Y-82135330D01*
X61877100Y-82135340D01*
X61887510Y-82141820D01*
X61887520Y-82141830D01*
X61888240Y-82142280D01*
X61888970Y-82142700D01*
X61888980Y-82142700D01*
X61975180Y-82192400D01*
X62020470Y-82218510D01*
X62032890Y-82225110D01*
X62067150Y-82241840D01*
X62137950Y-82276400D01*
X62170510Y-82292300D01*
X62171290Y-82292650D01*
X62171310Y-82292650D01*
X62178800Y-82295990D01*
X62183460Y-82298080D01*
X62326060Y-82355820D01*
X62326850Y-82356110D01*
X62326860Y-82356110D01*
X62338660Y-82360410D01*
X62338690Y-82360420D01*
X62339510Y-82360720D01*
X62386150Y-82375910D01*
X62485970Y-82408400D01*
X62486010Y-82408410D01*
X62486660Y-82408620D01*
X62498750Y-82412150D01*
X62499500Y-82412340D01*
X62499520Y-82412350D01*
X62553980Y-82426440D01*
X62621020Y-82443770D01*
X62625030Y-82444690D01*
X62632140Y-82446300D01*
X62632160Y-82446310D01*
X62632830Y-82446460D01*
X62709430Y-82461500D01*
X62764760Y-82472360D01*
X62764780Y-82472360D01*
X62765530Y-82472510D01*
X62778670Y-82474650D01*
X62912000Y-82491900D01*
X62912790Y-82491980D01*
X62915110Y-82492200D01*
X62925130Y-82493170D01*
X63061450Y-82501930D01*
X63073750Y-82502350D01*
X63215420Y-82502900D01*
X63215810Y-82502900D01*
X63215830Y-82502900D01*
X63218650Y-82502870D01*
X63221240Y-82502850D01*
X63225330Y-82502750D01*
X63228390Y-82502670D01*
X63228440Y-82502670D01*
X63228500Y-82502670D01*
X63229690Y-82502630D01*
X63230830Y-82502600D01*
X63231010Y-82502590D01*
X63301440Y-82500040D01*
X63301490Y-82500040D01*
X63301870Y-82500030D01*
X63302260Y-82500010D01*
X63302320Y-82500000D01*
X63307090Y-82499760D01*
X63307110Y-82499760D01*
X63307490Y-82499740D01*
X63307840Y-82499720D01*
X63307870Y-82499720D01*
X63361540Y-82496300D01*
X63371630Y-82495650D01*
X63372090Y-82495620D01*
X63372100Y-82495620D01*
X63373560Y-82495500D01*
X63378530Y-82495100D01*
X63378900Y-82495060D01*
X63378930Y-82495060D01*
X63439130Y-82489170D01*
X63439150Y-82489160D01*
X63439600Y-82489120D01*
X63440020Y-82489070D01*
X63440060Y-82489070D01*
X63446300Y-82488350D01*
X63446310Y-82488350D01*
X63446680Y-82488300D01*
X63508460Y-82480080D01*
X63514480Y-82479180D01*
X63514820Y-82479130D01*
X63514860Y-82479120D01*
X63580530Y-82468380D01*
X63580750Y-82468340D01*
X63584530Y-82467690D01*
X63613440Y-82462400D01*
X63614770Y-82462140D01*
X63615990Y-82461910D01*
X63616070Y-82461900D01*
X63616100Y-82461890D01*
X63616140Y-82461890D01*
X63616280Y-82461860D01*
X63644030Y-82456400D01*
X63648750Y-82455470D01*
X63651420Y-82454930D01*
X63682140Y-82448460D01*
X63682170Y-82448450D01*
X63682180Y-82448450D01*
X63683150Y-82448240D01*
X63685130Y-82447810D01*
X63691780Y-82446300D01*
X63711770Y-82441780D01*
X63711790Y-82441780D01*
X63712140Y-82441700D01*
X63716330Y-82440700D01*
X63716530Y-82440650D01*
X63716610Y-82440630D01*
X63737310Y-82435490D01*
X63737330Y-82435480D01*
X63737830Y-82435360D01*
X63738310Y-82435230D01*
X63738340Y-82435220D01*
X63743200Y-82433910D01*
X63746130Y-82433110D01*
X63760340Y-82428940D01*
X63794930Y-82415250D01*
X63800060Y-82412660D01*
X63801240Y-82411980D01*
X63801260Y-82411970D01*
X63810590Y-82406590D01*
X63819680Y-82401340D01*
X63876660Y-82345530D01*
X63907950Y-82272160D01*
X63908260Y-82241840D01*
X63908730Y-82197260D01*
X63908780Y-82192400D01*
X63908220Y-82189440D01*
X63906470Y-82181100D01*
X63903730Y-82169260D01*
X63903190Y-82167020D01*
X63898680Y-82148480D01*
X63898380Y-82147270D01*
X63892670Y-82124450D01*
X63892580Y-82124090D01*
X63892080Y-82122100D01*
X63891870Y-82121240D01*
X63876530Y-82057820D01*
X63876200Y-82056400D01*
X63860020Y-81984900D01*
X63859780Y-81983790D01*
X63843010Y-81905530D01*
X63842810Y-81904570D01*
X63840250Y-81892010D01*
X63826010Y-81822130D01*
X63825890Y-81821530D01*
X63809590Y-81737530D01*
X63809450Y-81736740D01*
X63794220Y-81653990D01*
X63794030Y-81652940D01*
X63793870Y-81652000D01*
X72736320Y-81652000D01*
X72756960Y-81808760D01*
X72817460Y-81954840D01*
X72913720Y-82080280D01*
X73039160Y-82176540D01*
X73185240Y-82237040D01*
X73342000Y-82257680D01*
X73498760Y-82237040D01*
X73525880Y-82225810D01*
X78103220Y-82225810D01*
X78104060Y-82235880D01*
X78116890Y-82303580D01*
X78124360Y-82321760D01*
X78157680Y-82371390D01*
X78171240Y-82384890D01*
X78225320Y-82420850D01*
X78233820Y-82425360D01*
X78236690Y-82426440D01*
X78258850Y-82433910D01*
X78261970Y-82434840D01*
X78275180Y-82438350D01*
X78276010Y-82438560D01*
X78282260Y-82440110D01*
X78283080Y-82440300D01*
X78305060Y-82445310D01*
X78305760Y-82445470D01*
X78308640Y-82446100D01*
X78309090Y-82446190D01*
X78337330Y-82452120D01*
X78337480Y-82452150D01*
X78339440Y-82452550D01*
X78339820Y-82452620D01*
X78372270Y-82459050D01*
X78373960Y-82459380D01*
X78374160Y-82459420D01*
X78408930Y-82465990D01*
X78409150Y-82466030D01*
X78410560Y-82466290D01*
X78410720Y-82466320D01*
X78446080Y-82472690D01*
X78447660Y-82472970D01*
X78448120Y-82473050D01*
X78481920Y-82478810D01*
X78482300Y-82478880D01*
X78484440Y-82479230D01*
X78484640Y-82479260D01*
X78515550Y-82484160D01*
X78515910Y-82484220D01*
X78519060Y-82484690D01*
X78519580Y-82484760D01*
X78545430Y-82488390D01*
X78546020Y-82488480D01*
X78549900Y-82488980D01*
X78550420Y-82489040D01*
X78573600Y-82491790D01*
X78573890Y-82491820D01*
X78576520Y-82492120D01*
X78577030Y-82492170D01*
X78616730Y-82496270D01*
X78617000Y-82496300D01*
X78619560Y-82496540D01*
X78619910Y-82496580D01*
X78660740Y-82500210D01*
X78660910Y-82500220D01*
X78664020Y-82500470D01*
X78664340Y-82500500D01*
X78699760Y-82503060D01*
X78700730Y-82503120D01*
X78707110Y-82503470D01*
X78708040Y-82503510D01*
X78812960Y-82507290D01*
X78814430Y-82507330D01*
X78825000Y-82507390D01*
X78826480Y-82507380D01*
X78979860Y-82503850D01*
X78981540Y-82503780D01*
X78994120Y-82503050D01*
X78995810Y-82502920D01*
X79147850Y-82488720D01*
X79149520Y-82488530D01*
X79162000Y-82486920D01*
X79163650Y-82486680D01*
X79313970Y-82461950D01*
X79315640Y-82461650D01*
X79327930Y-82459180D01*
X79329560Y-82458830D01*
X79339790Y-82456400D01*
X79351180Y-82449460D01*
X79355050Y-82440210D01*
X79355050Y-82313540D01*
X79355050Y-81434960D01*
X79352634Y-81427520D01*
X79755050Y-81427520D01*
X79755050Y-82313540D01*
X79758240Y-82323360D01*
X79771030Y-82322990D01*
X79795430Y-82313470D01*
X79796940Y-82312850D01*
X79808410Y-82307910D01*
X79810010Y-82307190D01*
X79948290Y-82241840D01*
X79949870Y-82241060D01*
X79960920Y-82235360D01*
X79962450Y-82234530D01*
X80096530Y-82159360D01*
X80098000Y-82158500D01*
X80108660Y-82152030D01*
X80110110Y-82151110D01*
X80239750Y-82066060D01*
X80240520Y-82065550D01*
X80246240Y-82061640D01*
X80246910Y-82061170D01*
X80258970Y-82052580D01*
X80259750Y-82052010D01*
X80265190Y-82047980D01*
X80266090Y-82047300D01*
X80388220Y-81953020D01*
X80389520Y-81951980D01*
X80399120Y-81944030D01*
X80400460Y-81942880D01*
X80515190Y-81840840D01*
X80516400Y-81839720D01*
X80525380Y-81831170D01*
X80526580Y-81829990D01*
X80633810Y-81720470D01*
X80634920Y-81719300D01*
X80643270Y-81710170D01*
X80644370Y-81708920D01*
X80743650Y-81592510D01*
X80744730Y-81591200D01*
X80752410Y-81581540D01*
X80753390Y-81580270D01*
X80844370Y-81457440D01*
X80845380Y-81456030D01*
X80852360Y-81445910D01*
X80853290Y-81444500D01*
X80860970Y-81432490D01*
X80863840Y-81421460D01*
X80860420Y-81419280D01*
X79770730Y-81419280D01*
X79758040Y-81423400D01*
X79755050Y-81427520D01*
X79352634Y-81427520D01*
X79350930Y-81422270D01*
X79346810Y-81419280D01*
X78269670Y-81419280D01*
X78256990Y-81423400D01*
X78252490Y-81429580D01*
X78237960Y-81529600D01*
X78237440Y-81532850D01*
X78189250Y-81801440D01*
X78188590Y-81804780D01*
X78131550Y-82069960D01*
X78131210Y-82071460D01*
X78128660Y-82082490D01*
X78128300Y-82084050D01*
X78128260Y-82084220D01*
X78120920Y-82117120D01*
X78120370Y-82119670D01*
X78120320Y-82119920D01*
X78114390Y-82148220D01*
X78114310Y-82148580D01*
X78113690Y-82151700D01*
X78113540Y-82152420D01*
X78109320Y-82174480D01*
X78109160Y-82175380D01*
X78108140Y-82181230D01*
X78107990Y-82182140D01*
X78105910Y-82195420D01*
X78105500Y-82198780D01*
X78103380Y-82222850D01*
X78103220Y-82225810D01*
X73525880Y-82225810D01*
X73644840Y-82176540D01*
X73770280Y-82080280D01*
X73819430Y-82016230D01*
X73869850Y-81981580D01*
X73897970Y-81977500D01*
X74793470Y-81977500D01*
X74802100Y-81977880D01*
X74840810Y-81981260D01*
X74878350Y-81971200D01*
X74886780Y-81969330D01*
X74916520Y-81964090D01*
X74925050Y-81962590D01*
X74932540Y-81958260D01*
X74938030Y-81956260D01*
X74943320Y-81953800D01*
X74951680Y-81951550D01*
X74983510Y-81929270D01*
X74990800Y-81924630D01*
X75009850Y-81913630D01*
X75024460Y-81905190D01*
X75049430Y-81875430D01*
X75055270Y-81869060D01*
X77600550Y-79323770D01*
X77655070Y-79296000D01*
X77670560Y-79294780D01*
X78228230Y-79294780D01*
X78286420Y-79313680D01*
X78322390Y-79363180D01*
X78327030Y-79387450D01*
X78337800Y-79555610D01*
X78337900Y-79557550D01*
X78339730Y-79598820D01*
X78347230Y-79768840D01*
X78347260Y-79769740D01*
X78353240Y-79940640D01*
X78353910Y-79960020D01*
X78354670Y-79963870D01*
X78360290Y-79992590D01*
X78366300Y-80023300D01*
X78370890Y-80030810D01*
X78370970Y-80031040D01*
X78374430Y-80092120D01*
X78370100Y-80104930D01*
X78366030Y-80114700D01*
X78353260Y-80178380D01*
X78352300Y-80188010D01*
X78352230Y-80228720D01*
X78352230Y-80229360D01*
X78352140Y-80240720D01*
X78352120Y-80241910D01*
X78351500Y-80272780D01*
X78351480Y-80273670D01*
X78350320Y-80313600D01*
X78350300Y-80314180D01*
X78348640Y-80361600D01*
X78348630Y-80362040D01*
X78346610Y-80413360D01*
X78346590Y-80413730D01*
X78344220Y-80468880D01*
X78344200Y-80469230D01*
X78341630Y-80524340D01*
X78341610Y-80524710D01*
X78338870Y-80579130D01*
X78338840Y-80579550D01*
X78336040Y-80630770D01*
X78336010Y-80631310D01*
X78333240Y-80677410D01*
X78333220Y-80677790D01*
X78332900Y-80682810D01*
X78332780Y-80684400D01*
X78309880Y-80969810D01*
X78309580Y-80972940D01*
X78306130Y-81003700D01*
X78308810Y-81016760D01*
X78310510Y-81018310D01*
X78314960Y-81019280D01*
X81070030Y-81019280D01*
X81085710Y-81014180D01*
X81090470Y-81008370D01*
X81093200Y-81001820D01*
X81093860Y-81000160D01*
X81147890Y-80856540D01*
X81148210Y-80855660D01*
X81150610Y-80848870D01*
X81150930Y-80847940D01*
X81155600Y-80833830D01*
X81156280Y-80831730D01*
X81156470Y-80831150D01*
X81166610Y-80799200D01*
X81166740Y-80798780D01*
X81166750Y-80798780D01*
X81167390Y-80796710D01*
X81167570Y-80796110D01*
X81177720Y-80762620D01*
X81177750Y-80762540D01*
X81178400Y-80760330D01*
X81178410Y-80760310D01*
X81187950Y-80727450D01*
X81188090Y-80726970D01*
X81188730Y-80724730D01*
X81188750Y-80724640D01*
X81197110Y-80694440D01*
X81197220Y-80694050D01*
X81198030Y-80691030D01*
X81198070Y-80690870D01*
X81204650Y-80665480D01*
X81204850Y-80664690D01*
X81206030Y-80659880D01*
X81206200Y-80659170D01*
X81210330Y-80641130D01*
X81210730Y-80639230D01*
X81213320Y-80625480D01*
X81213650Y-80623540D01*
X81214680Y-80616610D01*
X81215190Y-80610840D01*
X81216320Y-80573980D01*
X81214390Y-80558750D01*
X81197080Y-80499170D01*
X81188260Y-80482200D01*
X81147660Y-80431510D01*
X81141350Y-80425050D01*
X81137010Y-80421860D01*
X81098070Y-80396920D01*
X81092490Y-80393840D01*
X81081560Y-80388680D01*
X81080170Y-80388060D01*
X81069840Y-80383580D01*
X81068440Y-80383000D01*
X81046300Y-80374220D01*
X81045850Y-80374040D01*
X81040860Y-80372150D01*
X81040380Y-80371970D01*
X81010140Y-80360970D01*
X81009950Y-80360900D01*
X81007020Y-80359860D01*
X81006520Y-80359690D01*
X80970060Y-80347110D01*
X80969520Y-80346930D01*
X80967680Y-80346300D01*
X80967400Y-80346210D01*
X80925290Y-80332240D01*
X80924880Y-80332100D01*
X80923320Y-80331590D01*
X80876530Y-80316530D01*
X80875100Y-80316080D01*
X80875040Y-80316060D01*
X80824960Y-80300360D01*
X80823620Y-80299940D01*
X80823580Y-80299930D01*
X80771390Y-80283970D01*
X80771170Y-80283900D01*
X80769970Y-80283540D01*
X80716510Y-80267570D01*
X80716280Y-80267500D01*
X80715070Y-80267150D01*
X80715050Y-80267140D01*
X80714920Y-80267100D01*
X80661500Y-80251550D01*
X80661390Y-80251520D01*
X80661380Y-80251520D01*
X80659960Y-80251110D01*
X80659760Y-80251050D01*
X80607290Y-80236200D01*
X80607110Y-80236150D01*
X80605530Y-80235710D01*
X80605250Y-80235630D01*
X80554890Y-80221850D01*
X80554410Y-80221710D01*
X80552550Y-80221220D01*
X80504730Y-80208660D01*
X80503650Y-80208380D01*
X80503390Y-80208320D01*
X80503390Y-80208310D01*
X80501450Y-80207820D01*
X80501100Y-80207730D01*
X80498150Y-80207000D01*
X80497810Y-80206920D01*
X80330600Y-80167170D01*
X80278360Y-80135310D01*
X80254820Y-80078830D01*
X80268980Y-80019310D01*
X80315420Y-79979470D01*
X80332150Y-79974180D01*
X80354120Y-79969330D01*
X80403000Y-79958530D01*
X80403050Y-79958520D01*
X80403440Y-79958430D01*
X80411050Y-79956600D01*
X80411490Y-79956480D01*
X80411510Y-79956480D01*
X80559340Y-79917830D01*
X80649770Y-79894180D01*
X80649920Y-79894140D01*
X80649990Y-79894120D01*
X80653680Y-79893120D01*
X80653700Y-79893110D01*
X80653830Y-79893080D01*
X80658040Y-79891880D01*
X80659400Y-79891490D01*
X80698710Y-79880050D01*
X80698780Y-79880030D01*
X80698850Y-79880010D01*
X80700640Y-79879480D01*
X80743190Y-79866640D01*
X80744720Y-79866170D01*
X80789250Y-79852350D01*
X80790550Y-79851940D01*
X80835810Y-79837560D01*
X80835910Y-79837530D01*
X80836060Y-79837480D01*
X80837010Y-79837170D01*
X80845310Y-79834480D01*
X80881550Y-79822720D01*
X80881630Y-79822690D01*
X80881740Y-79822660D01*
X80882960Y-79822260D01*
X80925910Y-79808020D01*
X80927240Y-79807570D01*
X80967160Y-79794040D01*
X80967320Y-79793980D01*
X80968710Y-79793500D01*
X80968910Y-79793430D01*
X81004400Y-79781060D01*
X81006630Y-79780270D01*
X81007760Y-79779860D01*
X81036500Y-79769470D01*
X81036580Y-79769450D01*
X81036700Y-79769400D01*
X81036910Y-79769320D01*
X81036960Y-79769310D01*
X81038260Y-79768820D01*
X81040300Y-79768060D01*
X81063570Y-79759150D01*
X81071090Y-79756100D01*
X81071530Y-79755910D01*
X81084530Y-79750330D01*
X81086320Y-79749560D01*
X81114810Y-79734580D01*
X81120720Y-79730850D01*
X81136440Y-79717750D01*
X81155730Y-79701670D01*
X81161980Y-79696460D01*
X81203530Y-79628370D01*
X81210740Y-79582310D01*
X81215110Y-79554370D01*
X81215860Y-79549570D01*
X81215520Y-79541330D01*
X81214710Y-79534340D01*
X81212170Y-79512620D01*
X81212170Y-79512610D01*
X81211950Y-79510780D01*
X81208640Y-79493720D01*
X81206690Y-79484750D01*
X81203880Y-79473080D01*
X81200940Y-79460910D01*
X81200920Y-79460840D01*
X81200870Y-79460630D01*
X81199690Y-79455950D01*
X81191830Y-79426470D01*
X81190930Y-79423200D01*
X81181520Y-79390070D01*
X81180710Y-79387280D01*
X81170210Y-79352230D01*
X81169350Y-79349430D01*
X81161260Y-79323770D01*
X81158270Y-79314290D01*
X81158190Y-79314040D01*
X81157900Y-79313150D01*
X81157190Y-79310960D01*
X81145930Y-79277190D01*
X81142910Y-79268740D01*
X81089020Y-79127990D01*
X81083540Y-79115030D01*
X81018660Y-78975240D01*
X81012260Y-78962620D01*
X81011870Y-78961900D01*
X81011850Y-78961880D01*
X80950670Y-78850890D01*
X80938230Y-78828300D01*
X80931030Y-78816250D01*
X80879410Y-78736130D01*
X80848720Y-78688510D01*
X80848710Y-78688490D01*
X80848260Y-78687800D01*
X80840320Y-78676350D01*
X80839080Y-78674690D01*
X80749730Y-78554840D01*
X80749720Y-78554830D01*
X80749230Y-78554170D01*
X80742730Y-78546040D01*
X80741100Y-78544000D01*
X80741080Y-78543980D01*
X80740560Y-78543330D01*
X80691210Y-78485740D01*
X80642140Y-78428480D01*
X80642140Y-78428470D01*
X80641580Y-78427820D01*
X80632230Y-78417630D01*
X80631630Y-78417020D01*
X80631610Y-78417000D01*
X80526330Y-78309760D01*
X80526310Y-78309740D01*
X80525750Y-78309170D01*
X80515750Y-78299650D01*
X80451130Y-78242170D01*
X80402870Y-78199240D01*
X80402850Y-78199230D01*
X80402210Y-78198650D01*
X80397240Y-78194530D01*
X80392220Y-78190360D01*
X80391560Y-78189810D01*
X80346340Y-78154770D01*
X80272060Y-78097200D01*
X80271380Y-78096680D01*
X80260120Y-78088550D01*
X80133710Y-78003660D01*
X80133010Y-78003230D01*
X80133000Y-78003220D01*
X80122590Y-77996730D01*
X80122570Y-77996730D01*
X80121850Y-77996280D01*
X80111090Y-77990070D01*
X79990370Y-77920470D01*
X79989630Y-77920050D01*
X79977210Y-77913440D01*
X79839590Y-77846260D01*
X79838800Y-77845910D01*
X79838790Y-77845900D01*
X79827440Y-77840840D01*
X79826630Y-77840480D01*
X79684040Y-77782740D01*
X79683240Y-77782450D01*
X79671440Y-77778140D01*
X79671410Y-77778130D01*
X79670590Y-77777830D01*
X79596350Y-77753670D01*
X79524120Y-77730160D01*
X79524090Y-77730140D01*
X79523440Y-77729930D01*
X79511350Y-77726400D01*
X79510600Y-77726210D01*
X79510580Y-77726200D01*
X79430850Y-77705590D01*
X79389070Y-77694780D01*
X79385070Y-77693870D01*
X79377960Y-77692250D01*
X79377930Y-77692250D01*
X79377270Y-77692100D01*
X79295960Y-77676130D01*
X79245340Y-77666200D01*
X79245320Y-77666190D01*
X79244570Y-77666050D01*
X79231430Y-77663910D01*
X79098100Y-77646650D01*
X79097310Y-77646580D01*
X79097300Y-77646580D01*
X79094990Y-77646350D01*
X79084970Y-77645380D01*
X78948650Y-77636630D01*
X78936350Y-77636210D01*
X78794670Y-77635650D01*
X78794280Y-77635650D01*
X78794270Y-77635650D01*
X78791450Y-77635680D01*
X78788860Y-77635710D01*
X78784760Y-77635810D01*
X78781710Y-77635880D01*
X78781660Y-77635890D01*
X78781600Y-77635890D01*
X78780400Y-77635920D01*
X78779260Y-77635960D01*
X78779090Y-77635960D01*
X78708660Y-77638510D01*
X78708600Y-77638520D01*
X78708220Y-77638530D01*
X78707840Y-77638550D01*
X78707780Y-77638550D01*
X78703000Y-77638790D01*
X78702990Y-77638790D01*
X78702610Y-77638810D01*
X78702260Y-77638830D01*
X78702230Y-77638830D01*
X78652940Y-77641980D01*
X78638460Y-77642900D01*
X78638000Y-77642940D01*
X78637990Y-77642940D01*
X78636540Y-77643060D01*
X78631560Y-77643460D01*
X78631200Y-77643490D01*
X78631160Y-77643500D01*
X78570970Y-77649390D01*
X78570940Y-77649390D01*
X78570490Y-77649440D01*
X78570080Y-77649480D01*
X78570040Y-77649490D01*
X78564920Y-77650080D01*
X78563420Y-77650250D01*
X78501640Y-77658480D01*
X78495620Y-77659370D01*
X78495280Y-77659430D01*
X78495240Y-77659430D01*
X78454820Y-77666050D01*
X78429350Y-77670210D01*
X78425570Y-77670870D01*
X78396650Y-77676160D01*
X78395320Y-77676410D01*
X78394100Y-77676640D01*
X78394020Y-77676660D01*
X78393990Y-77676660D01*
X78393960Y-77676670D01*
X78393820Y-77676700D01*
X78373200Y-77680750D01*
X78361340Y-77683080D01*
X78358670Y-77683630D01*
X78327950Y-77690100D01*
X78327930Y-77690100D01*
X78327910Y-77690100D01*
X78326950Y-77690320D01*
X78324970Y-77690750D01*
X78324800Y-77690790D01*
X78324790Y-77690790D01*
X78307890Y-77694610D01*
X78297960Y-77696860D01*
X78293770Y-77697850D01*
X78293560Y-77697900D01*
X78293490Y-77697920D01*
X78272790Y-77703070D01*
X78272760Y-77703070D01*
X78272270Y-77703200D01*
X78271790Y-77703320D01*
X78271760Y-77703330D01*
X78268070Y-77704330D01*
X78263970Y-77705440D01*
X78249760Y-77709620D01*
X78215170Y-77723300D01*
X78210030Y-77725900D01*
X78208850Y-77726580D01*
X78208830Y-77726590D01*
X78202650Y-77730160D01*
X78190420Y-77737210D01*
X78133430Y-77793030D01*
X78102150Y-77866400D01*
X78102050Y-77876150D01*
X78101390Y-77939730D01*
X78101320Y-77946160D01*
X78101880Y-77949110D01*
X78102190Y-77950610D01*
X78103410Y-77956410D01*
X78103630Y-77957460D01*
X78106370Y-77969290D01*
X78106430Y-77969560D01*
X78106860Y-77971370D01*
X78106900Y-77971540D01*
X78106960Y-77971780D01*
X78111420Y-77990070D01*
X78111720Y-77991280D01*
X78117380Y-78013910D01*
X78117410Y-78014020D01*
X78117430Y-78014100D01*
X78117520Y-78014470D01*
X78118000Y-78016390D01*
X78118230Y-78017320D01*
X78133560Y-78080740D01*
X78133900Y-78082150D01*
X78150070Y-78153650D01*
X78150320Y-78154770D01*
X78167080Y-78233020D01*
X78167270Y-78233930D01*
X78182490Y-78308610D01*
X78184070Y-78316350D01*
X78184200Y-78317020D01*
X78200500Y-78401030D01*
X78200650Y-78401820D01*
X78215880Y-78484560D01*
X78216060Y-78485610D01*
X78223380Y-78527910D01*
X78214660Y-78588470D01*
X78172010Y-78632340D01*
X78125830Y-78643780D01*
X77513250Y-78643780D01*
X77504620Y-78643400D01*
X77501300Y-78643110D01*
X77465920Y-78640010D01*
X77457550Y-78642260D01*
X77428380Y-78650070D01*
X77419950Y-78651940D01*
X77381680Y-78658690D01*
X77374180Y-78663020D01*
X77368680Y-78665020D01*
X77363400Y-78667480D01*
X77355040Y-78669720D01*
X77347950Y-78674690D01*
X77323200Y-78692020D01*
X77315940Y-78696640D01*
X77282270Y-78716080D01*
X77276700Y-78722720D01*
X77257300Y-78745840D01*
X77251460Y-78752210D01*
X75970050Y-80033620D01*
X74706170Y-81297500D01*
X74651650Y-81325280D01*
X74636170Y-81326500D01*
X73897970Y-81326500D01*
X73839780Y-81307590D01*
X73819430Y-81287770D01*
X73774240Y-81228870D01*
X73770280Y-81223720D01*
X73644840Y-81127460D01*
X73498760Y-81066960D01*
X73342000Y-81046320D01*
X73185240Y-81066960D01*
X73039160Y-81127460D01*
X72913720Y-81223720D01*
X72817460Y-81349160D01*
X72756960Y-81495240D01*
X72736320Y-81652000D01*
X63793870Y-81652000D01*
X63786720Y-81610650D01*
X63795430Y-81550080D01*
X63838080Y-81506210D01*
X63884270Y-81494780D01*
X71110480Y-81494780D01*
X71119100Y-81495150D01*
X71157820Y-81498540D01*
X71195360Y-81488480D01*
X71203790Y-81486610D01*
X71233530Y-81481370D01*
X71242050Y-81479870D01*
X71249550Y-81475540D01*
X71255040Y-81473540D01*
X71260330Y-81471070D01*
X71268690Y-81468830D01*
X71300520Y-81446550D01*
X71307800Y-81441900D01*
X71323010Y-81433130D01*
X71341460Y-81422470D01*
X71366440Y-81392710D01*
X71372270Y-81386340D01*
X73179030Y-79579580D01*
X73233550Y-79551800D01*
X73261960Y-79551430D01*
X73342000Y-79561970D01*
X73498760Y-79541330D01*
X73644840Y-79480820D01*
X73770280Y-79384570D01*
X73866540Y-79259130D01*
X73923420Y-79121790D01*
X73924560Y-79119050D01*
X73927040Y-79113050D01*
X73947680Y-78956290D01*
X73927040Y-78799520D01*
X73866540Y-78653450D01*
X73770280Y-78528000D01*
X73644840Y-78431750D01*
X73498760Y-78371240D01*
X73342000Y-78350600D01*
X73185240Y-78371240D01*
X73039160Y-78431750D01*
X72913720Y-78528000D01*
X72817460Y-78653450D01*
X72756960Y-78799520D01*
X72736320Y-78956290D01*
X72746860Y-79036330D01*
X72735710Y-79096490D01*
X72718710Y-79119250D01*
X71023180Y-80814780D01*
X70968660Y-80842560D01*
X70953180Y-80843780D01*
X63781870Y-80843780D01*
X63723680Y-80824870D01*
X63687710Y-80775370D01*
X63683070Y-80751110D01*
X63683020Y-80750360D01*
X63672300Y-80582920D01*
X63672190Y-80580980D01*
X63672110Y-80579130D01*
X63668580Y-80499170D01*
X63662870Y-80369720D01*
X63662830Y-80368810D01*
X63656320Y-80182460D01*
X63656180Y-80178540D01*
X63653450Y-80164550D01*
X63645490Y-80123890D01*
X63643800Y-80115260D01*
X63639210Y-80107740D01*
X63639120Y-80107520D01*
X63635670Y-80046430D01*
X63640000Y-80033620D01*
X63644060Y-80023850D01*
X63656840Y-79960170D01*
X63657800Y-79950540D01*
X63657860Y-79909830D01*
X63657870Y-79909190D01*
X63657960Y-79897840D01*
X63657980Y-79896650D01*
X63658590Y-79865780D01*
X63658620Y-79864880D01*
X63659780Y-79824950D01*
X63659800Y-79824370D01*
X63661460Y-79776810D01*
X63661480Y-79776380D01*
X63663490Y-79725190D01*
X63663500Y-79724820D01*
X63665890Y-79669570D01*
X63665900Y-79669220D01*
X63668470Y-79614210D01*
X63668490Y-79613840D01*
X63671230Y-79559420D01*
X63671250Y-79559000D01*
X63674050Y-79507780D01*
X63674080Y-79507240D01*
X63676860Y-79461140D01*
X63676880Y-79460760D01*
X63677200Y-79455750D01*
X63677320Y-79454160D01*
X63700220Y-79168750D01*
X63700520Y-79165610D01*
X63703970Y-79134860D01*
X63701290Y-79121790D01*
X63699590Y-79120240D01*
X63695140Y-79119280D01*
X60940060Y-79119280D01*
X60924380Y-79124370D01*
X60919630Y-79130180D01*
X60916890Y-79136740D01*
X60916240Y-79138390D01*
X60862220Y-79282000D01*
X60861890Y-79282900D01*
X60859490Y-79289680D01*
X60859170Y-79290620D01*
X60854500Y-79304720D01*
X60853820Y-79306820D01*
X60853630Y-79307410D01*
X60843480Y-79339350D01*
X60843350Y-79339780D01*
X60842710Y-79341840D01*
X60842530Y-79342450D01*
X60832370Y-79375930D01*
X60831690Y-79378230D01*
X60822180Y-79410990D01*
X60822010Y-79411580D01*
X60821370Y-79413820D01*
X60812990Y-79444110D01*
X60812880Y-79444510D01*
X60812090Y-79447450D01*
X60812030Y-79447690D01*
X60805440Y-79473080D01*
X60805240Y-79473870D01*
X60804070Y-79478680D01*
X60803900Y-79479390D01*
X60799760Y-79497420D01*
X60799370Y-79499330D01*
X60796770Y-79513080D01*
X60796450Y-79515010D01*
X60795420Y-79521950D01*
X60794900Y-79527720D01*
X60793780Y-79564580D01*
X60295500Y-79564580D01*
X60295500Y-78717090D01*
X61146260Y-78717090D01*
X61149680Y-78719280D01*
X62239370Y-78719280D01*
X62252050Y-78715160D01*
X62255050Y-78711030D01*
X62255050Y-78703600D01*
X62255050Y-77825010D01*
X62251860Y-77815190D01*
X62239070Y-77815560D01*
X62214670Y-77825080D01*
X62213160Y-77825700D01*
X62201690Y-77830640D01*
X62200080Y-77831370D01*
X62061810Y-77896720D01*
X62060230Y-77897490D01*
X62049180Y-77903200D01*
X62047640Y-77904020D01*
X61913560Y-77979200D01*
X61912100Y-77980050D01*
X61901440Y-77986530D01*
X61899990Y-77987440D01*
X61770340Y-78072490D01*
X61769580Y-78073010D01*
X61763860Y-78076920D01*
X61763180Y-78077390D01*
X61751130Y-78085970D01*
X61750350Y-78086540D01*
X61744900Y-78090580D01*
X61744010Y-78091260D01*
X61621880Y-78185530D01*
X61620580Y-78186570D01*
X61610980Y-78194530D01*
X61609640Y-78195670D01*
X61494910Y-78297710D01*
X61493690Y-78298830D01*
X61484720Y-78307380D01*
X61483520Y-78308570D01*
X61376290Y-78418080D01*
X61375180Y-78419260D01*
X61366830Y-78428390D01*
X61365730Y-78429640D01*
X61266450Y-78546040D01*
X61265360Y-78547360D01*
X61257690Y-78557010D01*
X61256710Y-78558290D01*
X61165720Y-78681110D01*
X61164720Y-78682520D01*
X61157740Y-78692650D01*
X61156810Y-78694060D01*
X61149130Y-78706070D01*
X61146260Y-78717090D01*
X60295500Y-78717090D01*
X60295500Y-77698350D01*
X62655050Y-77698350D01*
X62655050Y-78703600D01*
X62659170Y-78716280D01*
X62663290Y-78719280D01*
X63740430Y-78719280D01*
X63753110Y-78715160D01*
X63757600Y-78708970D01*
X63772130Y-78608960D01*
X63772660Y-78605710D01*
X63820850Y-78337120D01*
X63821510Y-78333780D01*
X63878550Y-78068600D01*
X63878890Y-78067100D01*
X63881440Y-78056070D01*
X63881790Y-78054510D01*
X63881830Y-78054330D01*
X63889170Y-78021430D01*
X63889190Y-78021350D01*
X63889730Y-78018880D01*
X63889780Y-78018630D01*
X63895730Y-77990260D01*
X63895810Y-77989870D01*
X63896410Y-77986860D01*
X63896550Y-77986130D01*
X63900770Y-77964080D01*
X63900940Y-77963170D01*
X63901960Y-77957280D01*
X63902110Y-77956410D01*
X63904190Y-77943130D01*
X63904600Y-77939780D01*
X63906720Y-77915700D01*
X63906880Y-77912740D01*
X63906040Y-77902670D01*
X63893200Y-77834980D01*
X63885740Y-77816790D01*
X63852420Y-77767160D01*
X63838860Y-77753670D01*
X63784770Y-77717710D01*
X63776280Y-77713190D01*
X63773410Y-77712120D01*
X63751250Y-77704650D01*
X63748130Y-77703710D01*
X63734920Y-77700200D01*
X63734090Y-77699990D01*
X63727840Y-77698450D01*
X63727020Y-77698250D01*
X63705040Y-77693250D01*
X63704330Y-77693090D01*
X63701450Y-77692460D01*
X63701000Y-77692360D01*
X63672770Y-77686440D01*
X63672620Y-77686410D01*
X63670660Y-77686010D01*
X63670270Y-77685930D01*
X63637830Y-77679500D01*
X63636140Y-77679170D01*
X63635940Y-77679130D01*
X63601160Y-77672570D01*
X63600940Y-77672520D01*
X63599540Y-77672270D01*
X63599380Y-77672240D01*
X63564020Y-77665870D01*
X63562440Y-77665590D01*
X63561980Y-77665510D01*
X63528170Y-77659740D01*
X63527800Y-77659680D01*
X63525660Y-77659330D01*
X63525460Y-77659290D01*
X63494550Y-77654390D01*
X63494190Y-77654340D01*
X63491040Y-77653870D01*
X63490520Y-77653790D01*
X63464670Y-77650160D01*
X63464080Y-77650080D01*
X63460190Y-77649580D01*
X63459680Y-77649510D01*
X63436500Y-77646760D01*
X63436210Y-77646730D01*
X63433570Y-77646440D01*
X63433070Y-77646380D01*
X63393360Y-77642280D01*
X63393100Y-77642260D01*
X63390530Y-77642010D01*
X63390190Y-77641980D01*
X63349360Y-77638350D01*
X63349180Y-77638330D01*
X63346080Y-77638080D01*
X63345750Y-77638060D01*
X63310340Y-77635500D01*
X63309360Y-77635430D01*
X63302990Y-77635090D01*
X63302050Y-77635050D01*
X63197130Y-77631260D01*
X63195670Y-77631230D01*
X63185100Y-77631160D01*
X63183620Y-77631170D01*
X63030240Y-77634710D01*
X63028560Y-77634780D01*
X63015980Y-77635510D01*
X63014290Y-77635640D01*
X62862250Y-77649840D01*
X62860580Y-77650020D01*
X62848100Y-77651630D01*
X62846440Y-77651870D01*
X62696120Y-77676600D01*
X62694460Y-77676910D01*
X62682170Y-77679370D01*
X62680540Y-77679730D01*
X62670300Y-77682160D01*
X62658910Y-77689090D01*
X62655050Y-77698350D01*
X60295500Y-77698350D01*
X60295500Y-76260570D01*
X72736320Y-76260570D01*
X72756960Y-76417330D01*
X72817460Y-76563410D01*
X72913720Y-76688850D01*
X73039160Y-76785110D01*
X73185240Y-76845620D01*
X73342000Y-76866250D01*
X73498760Y-76845620D01*
X73644840Y-76785110D01*
X73770280Y-76688850D01*
X73819430Y-76624810D01*
X73869850Y-76590150D01*
X73897970Y-76586070D01*
X83247590Y-76586070D01*
X83305780Y-76604980D01*
X83317590Y-76615070D01*
X85765420Y-79062900D01*
X85771250Y-79069260D01*
X85796230Y-79099030D01*
X85825260Y-79115790D01*
X85829890Y-79118470D01*
X85837180Y-79123110D01*
X85869000Y-79145390D01*
X85877370Y-79147630D01*
X85882650Y-79150100D01*
X85888140Y-79152100D01*
X85895640Y-79156430D01*
X85919800Y-79160690D01*
X85933910Y-79163170D01*
X85942340Y-79165040D01*
X85965830Y-79171340D01*
X85979880Y-79175100D01*
X86018600Y-79171720D01*
X86027230Y-79171340D01*
X88980000Y-79171340D01*
X89038200Y-79190250D01*
X89050010Y-79200330D01*
X90033250Y-80183580D01*
X90061030Y-80238090D01*
X90062250Y-80253580D01*
X90062250Y-98538650D01*
X90043340Y-98596840D01*
X89993840Y-98602800D01*
X89963250Y-98586850D01*
X89750170Y-98586850D01*
X89691980Y-98602800D01*
X89662000Y-98602800D01*
X89658110Y-98602800D01*
X89613800Y-98602800D01*
X89547480Y-98611890D01*
X89537910Y-98609990D01*
X89504820Y-98603410D01*
X89469250Y-98596330D01*
X83659000Y-98596330D01*
X83623420Y-98603410D01*
X83590330Y-98609990D01*
X83580760Y-98611890D01*
X83514440Y-98656210D01*
X83470130Y-98722530D01*
X83468230Y-98732090D01*
X83467410Y-98736180D01*
X83454570Y-98800760D01*
X83454570Y-100931320D01*
X83454570Y-101050320D01*
X83454570Y-101050330D01*
X83454580Y-101178210D01*
X83454580Y-101178220D01*
X83454610Y-101303900D01*
X83454610Y-101303920D01*
X83454640Y-101427180D01*
X83454640Y-101427190D01*
X83454680Y-101547800D01*
X83454680Y-101547810D01*
X83454730Y-101665530D01*
X83454730Y-101665550D01*
X83454790Y-101780150D01*
X83454790Y-101780170D01*
X83454850Y-101891430D01*
X83454850Y-101891450D01*
X83454930Y-101999140D01*
X83454930Y-101999150D01*
X83455010Y-102103040D01*
X83455010Y-102103060D01*
X83455090Y-102202910D01*
X83455090Y-102202940D01*
X83455190Y-102298530D01*
X83455190Y-102298550D01*
X83455290Y-102389650D01*
X83455290Y-102389680D01*
X83455390Y-102476050D01*
X83455390Y-102476090D01*
X83455510Y-102557510D01*
X83455510Y-102557540D01*
X83455620Y-102633790D01*
X83455620Y-102633830D01*
X83455750Y-102704660D01*
X83455750Y-102704710D01*
X83455880Y-102769900D01*
X83455880Y-102769960D01*
X83456010Y-102828860D01*
X83456010Y-102829350D01*
X83456150Y-102882580D01*
X83456150Y-102882660D01*
X83456290Y-102929560D01*
X83456290Y-102929680D01*
X83456440Y-102970010D01*
X83456440Y-102970180D01*
X83456590Y-103003730D01*
X83456590Y-103004000D01*
X83456740Y-103030530D01*
X83456740Y-103030910D01*
X83456710Y-103031000D01*
X83456740Y-103031000D01*
X83456900Y-103050280D01*
X83456910Y-103051260D01*
X83456910Y-103051360D01*
X83457060Y-103062310D01*
X83457070Y-103063160D01*
X83457080Y-103063560D01*
X83457170Y-103066970D01*
X83457210Y-103068460D01*
X83457370Y-103072550D01*
X83458130Y-103076360D01*
X83468120Y-103126530D01*
X83469870Y-103135330D01*
X83511560Y-103203330D01*
X83519450Y-103209050D01*
X83551020Y-103231980D01*
X83576110Y-103250190D01*
X83629080Y-103262890D01*
X83648940Y-103267660D01*
X83653670Y-103268790D01*
X83655900Y-103268880D01*
X83661430Y-103269020D01*
X83671230Y-103269140D01*
X83671330Y-103269140D01*
X83672310Y-103269150D01*
X83689750Y-103269260D01*
X83689750Y-103269290D01*
X83689910Y-103269260D01*
X83690170Y-103269260D01*
X83690300Y-103269270D01*
X83690310Y-103269270D01*
X83715090Y-103269380D01*
X83715320Y-103269380D01*
X83747550Y-103269490D01*
X83747690Y-103269490D01*
X83787060Y-103269600D01*
X83787150Y-103269600D01*
X83833470Y-103269710D01*
X83833510Y-103269710D01*
X83833570Y-103269710D01*
X83886710Y-103269820D01*
X83886760Y-103269820D01*
X83946550Y-103269930D01*
X83946590Y-103269930D01*
X84012850Y-103270030D01*
X84012880Y-103270030D01*
X84085430Y-103270130D01*
X84085460Y-103270130D01*
X84164150Y-103270230D01*
X84164170Y-103270230D01*
X84248820Y-103270330D01*
X84248840Y-103270330D01*
X84339280Y-103270420D01*
X84339300Y-103270420D01*
X84435370Y-103270510D01*
X84435390Y-103270510D01*
X84536910Y-103270600D01*
X84536930Y-103270600D01*
X84643750Y-103270680D01*
X84643760Y-103270680D01*
X84755710Y-103270760D01*
X84755720Y-103270760D01*
X84872610Y-103270840D01*
X84872620Y-103270840D01*
X84994310Y-103270920D01*
X84994320Y-103270920D01*
X85120620Y-103270990D01*
X85120630Y-103270990D01*
X85251380Y-103271060D01*
X85251390Y-103271060D01*
X85386420Y-103271120D01*
X85386430Y-103271120D01*
X85525580Y-103271190D01*
X85525590Y-103271190D01*
X85668680Y-103271240D01*
X85668690Y-103271240D01*
X85815560Y-103271300D01*
X85966040Y-103271350D01*
X85966050Y-103271350D01*
X86119970Y-103271390D01*
X86277160Y-103271430D01*
X86277170Y-103271430D01*
X86437470Y-103271470D01*
X86600700Y-103271500D01*
X86600710Y-103271500D01*
X86766710Y-103271530D01*
X86766720Y-103271530D01*
X86935320Y-103271550D01*
X87106350Y-103271570D01*
X87106360Y-103271570D01*
X87279650Y-103271580D01*
X87279660Y-103271580D01*
X87455050Y-103271590D01*
X87455060Y-103271590D01*
X87632370Y-103271590D01*
X91600460Y-103271590D01*
X91636040Y-103264520D01*
X91669130Y-103257930D01*
X91678690Y-103256030D01*
X91745020Y-103211720D01*
X91789330Y-103145400D01*
X91791270Y-103135640D01*
X91803060Y-103076360D01*
X91804890Y-103067160D01*
X91804890Y-98800760D01*
X91792050Y-98736180D01*
X91791230Y-98732090D01*
X91789330Y-98722530D01*
X91745020Y-98656210D01*
X91678690Y-98611890D01*
X91669130Y-98609990D01*
X91636040Y-98603410D01*
X91600460Y-98596330D01*
X91298840Y-98596330D01*
X91263260Y-98603410D01*
X91230170Y-98609990D01*
X91220610Y-98611890D01*
X91154290Y-98552000D01*
X91135200Y-98552000D01*
X91108490Y-98552000D01*
X91069640Y-98552000D01*
X91017910Y-98586850D01*
X90812250Y-98586850D01*
X90754050Y-98602800D01*
X90718090Y-98569250D01*
X90713250Y-98538650D01*
X90713250Y-80096280D01*
X90713620Y-80087650D01*
X90716250Y-80057570D01*
X90717010Y-80048940D01*
X90714590Y-80039920D01*
X90706950Y-80011400D01*
X90705080Y-80002960D01*
X90704430Y-79999290D01*
X90702580Y-79988770D01*
X90699840Y-79973230D01*
X90698330Y-79964700D01*
X90694000Y-79957200D01*
X90692010Y-79951720D01*
X90689540Y-79946430D01*
X90687300Y-79938060D01*
X90665010Y-79906230D01*
X90660370Y-79898950D01*
X90658490Y-79895690D01*
X90640940Y-79865290D01*
X90611170Y-79840310D01*
X90604810Y-79834480D01*
X89661150Y-78890820D01*
X89633370Y-78836310D01*
X89642940Y-78775870D01*
X89686210Y-78732610D01*
X89731150Y-78721820D01*
X97874770Y-78721820D01*
X97932960Y-78740730D01*
X97944770Y-78750810D01*
X101558250Y-82364290D01*
X101586030Y-82418810D01*
X101587250Y-82434300D01*
X101587250Y-98538460D01*
X101568340Y-98596650D01*
X101518840Y-98602800D01*
X101488250Y-98586660D01*
X101275170Y-98586660D01*
X101216980Y-98602800D01*
X101184620Y-98602800D01*
X101183110Y-98602800D01*
X101138800Y-98605210D01*
X101072480Y-98611700D01*
X101062910Y-98609800D01*
X101062910Y-98609790D01*
X101029820Y-98603210D01*
X100994250Y-98596140D01*
X95184000Y-98596140D01*
X95148420Y-98603210D01*
X95115330Y-98609790D01*
X95115330Y-98609800D01*
X95105760Y-98611700D01*
X95039440Y-98656010D01*
X94995130Y-98722330D01*
X94993230Y-98731900D01*
X94992520Y-98735450D01*
X94979570Y-98800560D01*
X94979570Y-100931130D01*
X94979570Y-101050120D01*
X94979570Y-101050150D01*
X94979580Y-101178000D01*
X94979580Y-101178050D01*
X94979610Y-101303690D01*
X94979610Y-101303750D01*
X94979640Y-101426960D01*
X94979640Y-101427030D01*
X94979680Y-101547570D01*
X94979680Y-101547660D01*
X94979730Y-101665290D01*
X94979730Y-101665400D01*
X94979790Y-101779910D01*
X94979790Y-101780030D01*
X94979850Y-101891180D01*
X94979850Y-101891320D01*
X94979930Y-101998880D01*
X94979930Y-101999040D01*
X94980010Y-102102770D01*
X94980010Y-102102950D01*
X94980090Y-102202630D01*
X94980090Y-102202840D01*
X94980190Y-102298240D01*
X94980190Y-102298470D01*
X94980290Y-102389350D01*
X94980290Y-102389600D01*
X94980390Y-102475740D01*
X94980390Y-102476030D01*
X94980510Y-102557180D01*
X94980510Y-102557500D01*
X94980620Y-102633440D01*
X94980620Y-102633800D01*
X94980750Y-102704290D01*
X94980750Y-102704710D01*
X94980830Y-102747250D01*
X94980880Y-102769710D01*
X94980880Y-102769760D01*
X94981010Y-102828860D01*
X94981010Y-102829160D01*
X94981150Y-102882380D01*
X94981150Y-102882470D01*
X94981290Y-102929360D01*
X94981290Y-102929490D01*
X94981440Y-102969820D01*
X94981440Y-102969990D01*
X94981590Y-103003530D01*
X94981590Y-103003800D01*
X94981740Y-103030330D01*
X94981740Y-103030710D01*
X94981710Y-103030810D01*
X94981740Y-103030810D01*
X94981900Y-103050090D01*
X94981910Y-103051170D01*
X94982060Y-103062110D01*
X94982070Y-103062970D01*
X94982210Y-103068270D01*
X94982370Y-103072360D01*
X94994870Y-103135130D01*
X95036560Y-103203130D01*
X95044450Y-103208860D01*
X95076020Y-103231790D01*
X95101110Y-103250000D01*
X95154080Y-103262700D01*
X95173940Y-103267460D01*
X95178670Y-103268600D01*
X95180900Y-103268680D01*
X95186430Y-103268820D01*
X95196230Y-103268940D01*
X95196330Y-103268940D01*
X95197310Y-103268950D01*
X95214750Y-103269070D01*
X95214750Y-103269090D01*
X95214910Y-103269070D01*
X95215170Y-103269070D01*
X95215300Y-103269070D01*
X95215310Y-103269070D01*
X95240090Y-103269190D01*
X95240320Y-103269190D01*
X95272550Y-103269300D01*
X95272690Y-103269300D01*
X95312060Y-103269410D01*
X95312150Y-103269410D01*
X95358470Y-103269520D01*
X95358510Y-103269520D01*
X95358570Y-103269520D01*
X95411710Y-103269630D01*
X95411760Y-103269630D01*
X95471550Y-103269730D01*
X95471590Y-103269730D01*
X95537850Y-103269840D01*
X95537880Y-103269840D01*
X95610430Y-103269940D01*
X95610460Y-103269940D01*
X95689150Y-103270040D01*
X95689170Y-103270040D01*
X95773820Y-103270130D01*
X95773840Y-103270130D01*
X95864280Y-103270230D01*
X95864300Y-103270230D01*
X95960370Y-103270320D01*
X95960390Y-103270320D01*
X96061910Y-103270400D01*
X96061930Y-103270400D01*
X96168750Y-103270490D01*
X96168760Y-103270490D01*
X96280710Y-103270570D01*
X96280720Y-103270570D01*
X96397610Y-103270650D01*
X96397620Y-103270650D01*
X96519310Y-103270730D01*
X96519320Y-103270730D01*
X96645620Y-103270800D01*
X96645630Y-103270800D01*
X96776380Y-103270870D01*
X96776390Y-103270870D01*
X96911420Y-103270930D01*
X96911430Y-103270930D01*
X97050580Y-103270990D01*
X97050590Y-103270990D01*
X97193680Y-103271050D01*
X97193690Y-103271050D01*
X97340560Y-103271100D01*
X97491040Y-103271150D01*
X97491050Y-103271150D01*
X97644970Y-103271200D01*
X97802160Y-103271240D01*
X97802170Y-103271240D01*
X97962470Y-103271270D01*
X98125700Y-103271310D01*
X98125710Y-103271310D01*
X98291710Y-103271330D01*
X98291720Y-103271330D01*
X98460320Y-103271360D01*
X98631350Y-103271370D01*
X98631360Y-103271370D01*
X98804650Y-103271390D01*
X98804660Y-103271390D01*
X98980050Y-103271400D01*
X98980060Y-103271400D01*
X99157370Y-103271400D01*
X103125460Y-103271400D01*
X103161040Y-103264320D01*
X103194130Y-103257740D01*
X103203690Y-103255840D01*
X103270020Y-103211520D01*
X103314330Y-103145200D01*
X103318010Y-103126720D01*
X103328820Y-103072360D01*
X103329890Y-103066970D01*
X103329890Y-98800560D01*
X103316940Y-98735450D01*
X103316230Y-98731900D01*
X103314330Y-98722330D01*
X103270020Y-98656010D01*
X103203690Y-98611700D01*
X103194130Y-98609800D01*
X103194130Y-98609790D01*
X103161040Y-98603210D01*
X103125460Y-98596140D01*
X102823840Y-98596140D01*
X102788260Y-98603210D01*
X102755170Y-98609790D01*
X102755170Y-98609800D01*
X102745610Y-98611700D01*
X102717600Y-98602800D01*
X102717600Y-98552000D01*
X102666800Y-98552000D01*
X102542910Y-98586660D01*
X102337250Y-98586660D01*
X102279050Y-98618550D01*
X102243090Y-98569050D01*
X102238250Y-98552000D01*
X102238250Y-94621530D01*
X103838070Y-94621530D01*
X103874150Y-94857300D01*
X103948260Y-95084020D01*
X104058390Y-95295590D01*
X104201600Y-95486330D01*
X104374040Y-95651110D01*
X104377390Y-95653400D01*
X104377400Y-95653400D01*
X104522480Y-95752370D01*
X104571080Y-95785530D01*
X104574760Y-95787230D01*
X104574770Y-95787240D01*
X104672110Y-95832420D01*
X104787430Y-95885950D01*
X104791340Y-95887040D01*
X105013350Y-95948600D01*
X105017270Y-95949690D01*
X105021320Y-95950120D01*
X105078740Y-95956260D01*
X105211990Y-95970500D01*
X105350460Y-95970500D01*
X105352490Y-95970330D01*
X105352500Y-95970330D01*
X105523670Y-95956260D01*
X105527720Y-95955930D01*
X105531650Y-95954940D01*
X105531660Y-95954940D01*
X105692020Y-95914660D01*
X105759050Y-95897820D01*
X105977780Y-95802710D01*
X106107530Y-95718780D01*
X106174640Y-95675360D01*
X106178050Y-95673160D01*
X106354460Y-95512630D01*
X106356980Y-95509440D01*
X106499780Y-95328630D01*
X106502290Y-95325450D01*
X106617560Y-95116630D01*
X106697180Y-94891790D01*
X106739010Y-94656970D01*
X106741930Y-94418470D01*
X106705850Y-94182700D01*
X106631750Y-93955980D01*
X106612920Y-93919810D01*
X106523490Y-93748020D01*
X106521610Y-93744410D01*
X106378400Y-93553680D01*
X106205960Y-93388890D01*
X106202610Y-93386600D01*
X106202600Y-93386600D01*
X106012270Y-93256760D01*
X106008920Y-93254480D01*
X106005240Y-93252770D01*
X106005230Y-93252760D01*
X105887000Y-93197880D01*
X105792570Y-93154050D01*
X105746190Y-93141190D01*
X105566650Y-93091400D01*
X105562730Y-93090310D01*
X105558680Y-93089880D01*
X105487380Y-93082260D01*
X105368010Y-93069500D01*
X105229540Y-93069500D01*
X105227510Y-93069670D01*
X105227500Y-93069670D01*
X105056330Y-93083740D01*
X105052280Y-93084070D01*
X105048350Y-93085060D01*
X104887980Y-93125340D01*
X104820950Y-93142180D01*
X104602220Y-93237290D01*
X104578290Y-93252760D01*
X104405370Y-93364640D01*
X104405360Y-93364640D01*
X104401950Y-93366850D01*
X104225540Y-93527370D01*
X104223020Y-93530560D01*
X104080220Y-93711370D01*
X104077710Y-93714560D01*
X103962440Y-93923370D01*
X103882820Y-94148210D01*
X103840990Y-94383030D01*
X103840940Y-94387090D01*
X103840460Y-94426460D01*
X103838070Y-94621530D01*
X102238250Y-94621530D01*
X102238250Y-85851760D01*
X113010020Y-85851760D01*
X113035500Y-86142970D01*
X113061780Y-86260530D01*
X113097450Y-86420140D01*
X113099270Y-86428260D01*
X113200210Y-86702600D01*
X113235480Y-86769510D01*
X113335010Y-86958290D01*
X113335020Y-86958300D01*
X113336540Y-86961190D01*
X113505880Y-87199470D01*
X113705250Y-87413260D01*
X113707780Y-87415340D01*
X113928590Y-87596720D01*
X113928600Y-87596730D01*
X113931130Y-87598810D01*
X114179580Y-87752850D01*
X114182580Y-87754200D01*
X114339550Y-87824740D01*
X114446210Y-87872680D01*
X114726350Y-87956190D01*
X114729590Y-87956710D01*
X114729600Y-87956710D01*
X114818040Y-87970710D01*
X115015080Y-88001920D01*
X115084430Y-88005070D01*
X115105410Y-88006020D01*
X115106510Y-88006070D01*
X115289110Y-88006070D01*
X115506640Y-87991630D01*
X115651670Y-87962380D01*
X115789970Y-87934500D01*
X115789980Y-87934500D01*
X115793200Y-87933850D01*
X115882460Y-87903110D01*
X115997010Y-87863670D01*
X124390880Y-87863670D01*
X124426960Y-88099440D01*
X124447260Y-88161530D01*
X124495640Y-88309570D01*
X124501060Y-88326160D01*
X124502940Y-88329760D01*
X124591540Y-88499950D01*
X124611200Y-88537730D01*
X124754410Y-88728460D01*
X124926850Y-88893250D01*
X124930200Y-88895540D01*
X124930210Y-88895540D01*
X125120200Y-89025150D01*
X125123890Y-89027660D01*
X125127570Y-89029370D01*
X125127580Y-89029380D01*
X125181910Y-89054600D01*
X125340240Y-89128090D01*
X125344150Y-89129170D01*
X125566160Y-89190740D01*
X125570080Y-89191830D01*
X125574130Y-89192260D01*
X125631550Y-89198400D01*
X125764800Y-89212640D01*
X125903270Y-89212640D01*
X125905300Y-89212470D01*
X125905310Y-89212470D01*
X126076480Y-89198400D01*
X126080530Y-89198070D01*
X126084460Y-89197080D01*
X126244830Y-89156800D01*
X126311860Y-89139960D01*
X126530590Y-89044850D01*
X126664990Y-88957910D01*
X126727440Y-88917500D01*
X126727450Y-88917500D01*
X126730860Y-88915290D01*
X126775980Y-88874240D01*
X126836380Y-88819280D01*
X126907270Y-88754770D01*
X126909790Y-88751580D01*
X127052590Y-88570770D01*
X127055100Y-88567580D01*
X127129470Y-88432860D01*
X127168410Y-88362330D01*
X127170370Y-88358770D01*
X127249990Y-88133930D01*
X127291820Y-87899110D01*
X127292130Y-87873620D01*
X127293360Y-87772890D01*
X127294740Y-87660610D01*
X127258660Y-87424840D01*
X127216390Y-87295510D01*
X127185820Y-87201980D01*
X127185810Y-87201970D01*
X127184550Y-87198120D01*
X127176400Y-87182460D01*
X127076300Y-86990160D01*
X127076290Y-86990160D01*
X127074420Y-86986550D01*
X126931210Y-86795810D01*
X126758770Y-86631030D01*
X126755420Y-86628740D01*
X126755410Y-86628740D01*
X126565080Y-86498900D01*
X126561730Y-86496610D01*
X126558050Y-86494910D01*
X126558040Y-86494900D01*
X126434910Y-86437750D01*
X126345380Y-86396190D01*
X126302570Y-86384320D01*
X126119460Y-86333540D01*
X126115540Y-86332450D01*
X126111490Y-86332020D01*
X126040180Y-86324400D01*
X125920820Y-86311640D01*
X125782350Y-86311640D01*
X125780320Y-86311810D01*
X125780310Y-86311810D01*
X125609140Y-86325880D01*
X125605090Y-86326210D01*
X125601160Y-86327200D01*
X125601150Y-86327200D01*
X125440790Y-86367480D01*
X125373760Y-86384320D01*
X125280060Y-86425060D01*
X125203420Y-86458380D01*
X125155030Y-86479430D01*
X125087910Y-86522840D01*
X124958170Y-86606780D01*
X124954760Y-86608980D01*
X124778350Y-86769510D01*
X124775830Y-86772700D01*
X124633030Y-86953510D01*
X124630520Y-86956690D01*
X124628550Y-86960250D01*
X124535310Y-87129170D01*
X124515250Y-87165510D01*
X124513890Y-87169330D01*
X124513890Y-87169340D01*
X124468310Y-87298050D01*
X124435630Y-87390350D01*
X124393800Y-87625170D01*
X124393750Y-87629230D01*
X124392580Y-87725040D01*
X124390880Y-87863670D01*
X115997010Y-87863670D01*
X116066490Y-87839750D01*
X116066490Y-87839740D01*
X116069600Y-87838670D01*
X116148620Y-87799100D01*
X116244690Y-87751000D01*
X116330980Y-87707780D01*
X116572760Y-87543470D01*
X116648600Y-87475660D01*
X116788230Y-87350820D01*
X116790680Y-87348630D01*
X116797840Y-87340270D01*
X116872230Y-87253480D01*
X116980920Y-87126680D01*
X117140130Y-86881510D01*
X117226540Y-86699520D01*
X117264110Y-86620410D01*
X117264110Y-86620400D01*
X117265510Y-86617440D01*
X117354880Y-86339110D01*
X117356080Y-86332450D01*
X117382380Y-86186250D01*
X117406640Y-86051410D01*
X117419900Y-85759390D01*
X117394430Y-85468170D01*
X117353890Y-85286830D01*
X117331370Y-85186090D01*
X117331370Y-85186080D01*
X117330660Y-85182890D01*
X117229720Y-84908550D01*
X117168330Y-84792120D01*
X117094910Y-84652860D01*
X117094910Y-84652850D01*
X117093380Y-84649960D01*
X116924040Y-84411680D01*
X116724680Y-84197890D01*
X116659220Y-84144120D01*
X116501330Y-84014430D01*
X116501330Y-84014420D01*
X116498790Y-84012340D01*
X116307180Y-83893540D01*
X116253140Y-83860030D01*
X116250350Y-83858300D01*
X116247350Y-83856950D01*
X116062650Y-83773950D01*
X115983710Y-83738470D01*
X115703570Y-83654950D01*
X115700330Y-83654440D01*
X115586910Y-83636480D01*
X115414850Y-83609230D01*
X115345490Y-83606080D01*
X115324520Y-83605120D01*
X115324510Y-83605120D01*
X115323420Y-83605070D01*
X115140810Y-83605070D01*
X114923280Y-83619520D01*
X114778250Y-83648760D01*
X114639950Y-83676650D01*
X114636720Y-83677300D01*
X114633610Y-83678370D01*
X114363440Y-83771400D01*
X114363430Y-83771400D01*
X114360330Y-83772470D01*
X114357390Y-83773950D01*
X114357380Y-83773950D01*
X114251180Y-83827130D01*
X114098940Y-83903360D01*
X113857170Y-84067670D01*
X113854720Y-84069860D01*
X113667850Y-84236950D01*
X113639250Y-84262520D01*
X113637110Y-84265010D01*
X113623600Y-84280780D01*
X113449010Y-84484470D01*
X113289800Y-84729640D01*
X113220510Y-84875570D01*
X113182530Y-84955540D01*
X113164410Y-84993700D01*
X113075050Y-85272030D01*
X113074470Y-85275260D01*
X113074470Y-85275270D01*
X113057180Y-85371350D01*
X113023280Y-85559740D01*
X113010020Y-85851760D01*
X102238250Y-85851760D01*
X102238250Y-82499740D01*
X102257150Y-82441550D01*
X102306650Y-82405590D01*
X102333560Y-82402520D01*
X102333470Y-82401540D01*
X102372180Y-82398160D01*
X102380800Y-82397780D01*
X103604680Y-82397780D01*
X103662870Y-82416690D01*
X103698840Y-82466190D01*
X103703680Y-82496780D01*
X103703680Y-84352280D01*
X103708700Y-84377500D01*
X103716030Y-84414360D01*
X103719240Y-84430510D01*
X103763560Y-84496830D01*
X103829880Y-84541150D01*
X103839440Y-84543050D01*
X103872530Y-84549630D01*
X103908110Y-84556710D01*
X103958110Y-84556710D01*
X103960240Y-84556520D01*
X103960250Y-84556520D01*
X103979300Y-84554850D01*
X103993590Y-84553600D01*
X104005740Y-84551460D01*
X104064600Y-84531490D01*
X104090380Y-84518080D01*
X104091030Y-84517720D01*
X104091050Y-84517710D01*
X104096640Y-84514580D01*
X104101030Y-84512130D01*
X104103800Y-84510470D01*
X104139140Y-84489320D01*
X104139430Y-84489140D01*
X104139660Y-84489010D01*
X104139710Y-84488980D01*
X104143890Y-84486400D01*
X104143940Y-84486360D01*
X104144160Y-84486220D01*
X104160810Y-84475630D01*
X104191600Y-84456050D01*
X104191680Y-84456000D01*
X104191740Y-84455960D01*
X104192340Y-84455570D01*
X104194700Y-84454040D01*
X104194850Y-84453940D01*
X104201420Y-84449590D01*
X104248070Y-84418740D01*
X104250560Y-84417070D01*
X104306110Y-84379150D01*
X104308600Y-84377420D01*
X104362960Y-84339120D01*
X104363150Y-84338980D01*
X104363220Y-84338930D01*
X104365720Y-84337140D01*
X104365800Y-84337080D01*
X104365950Y-84336970D01*
X104404770Y-84308560D01*
X104415370Y-84300800D01*
X104415420Y-84300760D01*
X104415650Y-84300590D01*
X104419950Y-84297360D01*
X104461550Y-84265200D01*
X104464900Y-84262520D01*
X104466440Y-84261290D01*
X104466480Y-84261250D01*
X104466770Y-84261020D01*
X104514750Y-84221360D01*
X104524080Y-84213160D01*
X104692390Y-84055860D01*
X104703100Y-84044870D01*
X104704760Y-84043170D01*
X104704780Y-84043160D01*
X104705540Y-84042380D01*
X104860060Y-83868680D01*
X104871520Y-83854580D01*
X104880160Y-83842940D01*
X105010290Y-83667470D01*
X105010300Y-83667450D01*
X105010940Y-83666590D01*
X105020920Y-83651820D01*
X105027030Y-83641880D01*
X105143580Y-83452160D01*
X105190150Y-83412480D01*
X105251160Y-83407750D01*
X105303290Y-83439770D01*
X105326640Y-83496330D01*
X105324140Y-83527360D01*
X105313970Y-83569180D01*
X105312370Y-83574990D01*
X105240840Y-83806850D01*
X105238690Y-83813060D01*
X105156610Y-84027440D01*
X105153790Y-84034090D01*
X105061960Y-84229850D01*
X105058270Y-84236950D01*
X104953770Y-84419720D01*
X104951820Y-84422990D01*
X104935220Y-84449590D01*
X104933860Y-84451800D01*
X104933650Y-84452140D01*
X104911560Y-84488630D01*
X104911190Y-84489250D01*
X104909080Y-84492830D01*
X104908800Y-84493300D01*
X104894100Y-84518910D01*
X104893160Y-84520620D01*
X104886540Y-84533290D01*
X104885680Y-84535010D01*
X104881280Y-84544330D01*
X104879720Y-84548010D01*
X104871200Y-84570600D01*
X104868200Y-84583890D01*
X104862970Y-84646600D01*
X104865130Y-84665610D01*
X104883420Y-84722820D01*
X104892690Y-84739550D01*
X104934640Y-84789140D01*
X104941120Y-84795420D01*
X104942050Y-84796110D01*
X104960870Y-84809220D01*
X104963520Y-84810940D01*
X104981730Y-84821960D01*
X104982300Y-84822300D01*
X104986090Y-84824530D01*
X104986670Y-84824870D01*
X105023350Y-84845820D01*
X105024890Y-84846690D01*
X105024970Y-84846740D01*
X105077050Y-84875860D01*
X105077280Y-84876000D01*
X105077900Y-84876340D01*
X105078100Y-84876450D01*
X105143800Y-84912760D01*
X105144280Y-84913020D01*
X105144410Y-84913100D01*
X105221740Y-84955490D01*
X105221820Y-84955540D01*
X105222250Y-84955770D01*
X105309440Y-85003280D01*
X105309470Y-85003300D01*
X105309870Y-85003510D01*
X105405140Y-85055150D01*
X105405150Y-85055150D01*
X105405430Y-85055300D01*
X105405460Y-85055320D01*
X105405520Y-85055350D01*
X105507020Y-85110090D01*
X105507240Y-85110210D01*
X105563410Y-85140410D01*
X105563380Y-85140460D01*
X105563470Y-85140560D01*
X105563520Y-85140470D01*
X105662100Y-85193400D01*
X105662130Y-85193410D01*
X105662290Y-85193500D01*
X105753800Y-85242530D01*
X105753850Y-85242580D01*
X105753860Y-85242570D01*
X105753890Y-85242580D01*
X105754070Y-85242680D01*
X105836660Y-85286830D01*
X105836880Y-85286940D01*
X105837020Y-85287020D01*
X105874270Y-85306870D01*
X105885490Y-85308860D01*
X105888110Y-85303950D01*
X105888110Y-82631280D01*
X105907020Y-82573090D01*
X105956520Y-82537120D01*
X105987110Y-82532280D01*
X106189110Y-82532280D01*
X106247300Y-82551190D01*
X106283260Y-82600690D01*
X106288110Y-82631280D01*
X106288110Y-85349870D01*
X106291470Y-85360220D01*
X106296430Y-85357160D01*
X106316110Y-85337330D01*
X106322220Y-85329830D01*
X106322340Y-85329640D01*
X106324880Y-85325360D01*
X106341700Y-85293370D01*
X106343800Y-85288840D01*
X106352300Y-85267750D01*
X106352750Y-85266590D01*
X106355840Y-85258330D01*
X106356250Y-85257180D01*
X106369040Y-85220300D01*
X106369220Y-85219770D01*
X106370770Y-85215100D01*
X106371000Y-85214380D01*
X106385670Y-85168030D01*
X106385860Y-85167420D01*
X106386900Y-85164020D01*
X106387060Y-85163490D01*
X106408050Y-85092160D01*
X106408250Y-85091450D01*
X106409890Y-85085530D01*
X106410090Y-85084770D01*
X106472120Y-84844320D01*
X106472400Y-84843210D01*
X106474240Y-84835340D01*
X106474490Y-84834200D01*
X106529490Y-84572600D01*
X106529690Y-84571580D01*
X106531000Y-84564690D01*
X106531170Y-84563770D01*
X106543250Y-84492570D01*
X106579180Y-84280780D01*
X106579300Y-84280030D01*
X106580220Y-84273960D01*
X106580350Y-84273080D01*
X106621310Y-83969020D01*
X106621410Y-83968230D01*
X106622030Y-83963050D01*
X106622140Y-83962100D01*
X106656010Y-83637190D01*
X106656080Y-83636480D01*
X106656510Y-83631690D01*
X106656560Y-83631100D01*
X106667650Y-83487930D01*
X106690990Y-83431370D01*
X106743120Y-83399340D01*
X106804130Y-83404060D01*
X106850700Y-83443740D01*
X106865000Y-83487150D01*
X106867440Y-83515730D01*
X106868420Y-83527200D01*
X106868950Y-83532630D01*
X106874140Y-83578800D01*
X106875370Y-83587870D01*
X106875450Y-83588390D01*
X106875450Y-83588400D01*
X106880120Y-83617980D01*
X106881250Y-83625140D01*
X106883590Y-83637450D01*
X106890700Y-83669590D01*
X106890900Y-83670360D01*
X106892390Y-83676210D01*
X106893880Y-83682070D01*
X106894090Y-83682800D01*
X106894100Y-83682830D01*
X106896630Y-83691610D01*
X106902770Y-83712860D01*
X106905450Y-83721440D01*
X106905620Y-83721950D01*
X106905620Y-83721960D01*
X106913790Y-83746210D01*
X106916640Y-83754670D01*
X106917750Y-83757880D01*
X106917830Y-83758100D01*
X106917850Y-83758170D01*
X106923640Y-83774460D01*
X106926220Y-83781690D01*
X106927100Y-83784140D01*
X106941350Y-83822660D01*
X106943200Y-83827470D01*
X106943290Y-83827710D01*
X106943310Y-83827750D01*
X106953350Y-83852920D01*
X106953360Y-83852940D01*
X106953790Y-83854020D01*
X106962000Y-83872020D01*
X106967100Y-83881920D01*
X106969150Y-83884790D01*
X106969150Y-83884800D01*
X106993850Y-83919430D01*
X107000950Y-83929390D01*
X107007850Y-83934230D01*
X107058260Y-83969610D01*
X107058260Y-83969620D01*
X107066240Y-83975220D01*
X107075760Y-83977340D01*
X107082330Y-83978800D01*
X107144090Y-83992570D01*
X107153690Y-83990880D01*
X107153700Y-83990880D01*
X107217870Y-83979640D01*
X107222660Y-83978800D01*
X107223920Y-83978310D01*
X107226340Y-83977280D01*
X107235690Y-83973290D01*
X107235700Y-83973290D01*
X107236460Y-83972970D01*
X107253000Y-83965250D01*
X107255000Y-83964300D01*
X107255010Y-83964300D01*
X107288940Y-83948020D01*
X107289000Y-83947990D01*
X107289040Y-83947980D01*
X107289570Y-83947720D01*
X107338730Y-83923930D01*
X107339060Y-83923770D01*
X107401260Y-83893540D01*
X107401480Y-83893430D01*
X107474540Y-83857800D01*
X107474720Y-83857720D01*
X107556460Y-83817760D01*
X107556620Y-83817690D01*
X107644860Y-83774460D01*
X107644970Y-83774410D01*
X107661810Y-83766140D01*
X107662060Y-83766020D01*
X107761590Y-83717020D01*
X107761840Y-83716900D01*
X107762110Y-83716770D01*
X107762170Y-83716740D01*
X107762330Y-83716660D01*
X107843460Y-83676310D01*
X107844800Y-83675640D01*
X107909260Y-83643000D01*
X107911640Y-83641770D01*
X107911780Y-83641700D01*
X107960850Y-83616040D01*
X107960910Y-83616010D01*
X107961140Y-83615890D01*
X107965430Y-83613580D01*
X108001690Y-83593500D01*
X108009740Y-83588800D01*
X108025070Y-83579370D01*
X108033470Y-83574210D01*
X108033480Y-83574200D01*
X108034480Y-83573590D01*
X108050710Y-83562490D01*
X108051670Y-83561770D01*
X108051680Y-83561760D01*
X108063310Y-83552960D01*
X108065640Y-83551210D01*
X108067730Y-83549190D01*
X108067740Y-83549190D01*
X108098130Y-83520000D01*
X108098140Y-83520000D01*
X108100230Y-83517980D01*
X108107070Y-83509670D01*
X108116230Y-83495590D01*
X108127630Y-83478080D01*
X108131790Y-83471690D01*
X108151140Y-83401660D01*
X108184860Y-83350610D01*
X108242150Y-83329120D01*
X108301130Y-83345420D01*
X108334140Y-83381870D01*
X108341630Y-83396080D01*
X108342740Y-83398070D01*
X108461610Y-83600400D01*
X108462840Y-83602380D01*
X108471760Y-83616080D01*
X108473060Y-83617980D01*
X108610100Y-83808820D01*
X108611450Y-83810610D01*
X108621560Y-83823410D01*
X108623000Y-83825150D01*
X108777450Y-84003460D01*
X108778930Y-84005100D01*
X108790110Y-84016880D01*
X108791670Y-84018450D01*
X108962740Y-84183160D01*
X108964400Y-84184690D01*
X108976480Y-84195310D01*
X108978180Y-84196740D01*
X108995880Y-84210960D01*
X109006530Y-84214990D01*
X109007810Y-84213400D01*
X109008110Y-84211780D01*
X109008110Y-82280520D01*
X109408110Y-82280520D01*
X109408110Y-84492570D01*
X109414090Y-84510960D01*
X109416750Y-84513400D01*
X109426950Y-84519470D01*
X109427300Y-84519680D01*
X109429430Y-84520930D01*
X109453350Y-84534770D01*
X109454270Y-84535290D01*
X109454720Y-84535530D01*
X109461950Y-84539920D01*
X109463000Y-84540620D01*
X109467120Y-84543080D01*
X109493640Y-84557240D01*
X109507220Y-84562100D01*
X109568550Y-84574300D01*
X109587670Y-84574300D01*
X109646580Y-84562580D01*
X109664250Y-84555260D01*
X109714190Y-84521890D01*
X109727720Y-84508360D01*
X109761090Y-84458420D01*
X109768410Y-84440750D01*
X109781080Y-84377040D01*
X109782030Y-84367420D01*
X109782030Y-82287960D01*
X109777900Y-82275270D01*
X109773780Y-82272280D01*
X109423790Y-82272280D01*
X109411100Y-82276400D01*
X109408110Y-82280520D01*
X109008110Y-82280520D01*
X109008110Y-81856600D01*
X109008110Y-79951470D01*
X109004590Y-79940640D01*
X109003840Y-79940640D01*
X109000470Y-79942570D01*
X108890660Y-80039920D01*
X108889160Y-80041310D01*
X108878310Y-80051770D01*
X108876810Y-80053280D01*
X108718920Y-80218950D01*
X108717500Y-80220490D01*
X108707630Y-80231760D01*
X108706330Y-80233310D01*
X108563020Y-80411330D01*
X108561730Y-80412990D01*
X108552630Y-80425350D01*
X108551430Y-80427040D01*
X108425120Y-80614790D01*
X108423920Y-80616660D01*
X108415500Y-80630490D01*
X108414390Y-80632400D01*
X108376300Y-80701810D01*
X108331720Y-80743720D01*
X108271020Y-80751430D01*
X108217390Y-80721990D01*
X108191300Y-80666650D01*
X108193880Y-80628550D01*
X108204620Y-80588480D01*
X108229630Y-80495160D01*
X108231280Y-80489650D01*
X108301080Y-80279130D01*
X108303260Y-80273210D01*
X108305710Y-80267150D01*
X108381430Y-80079730D01*
X108384300Y-80073290D01*
X108390940Y-80059720D01*
X108469650Y-79898890D01*
X108473460Y-79891850D01*
X108476310Y-79887040D01*
X108568240Y-79732300D01*
X108570590Y-79728540D01*
X108617366Y-79657300D01*
X109408110Y-79657300D01*
X109408110Y-81856600D01*
X109412230Y-81869280D01*
X109416350Y-81872280D01*
X109766350Y-81872280D01*
X109779030Y-81868160D01*
X109782030Y-81864040D01*
X109782030Y-79784700D01*
X109781790Y-79779860D01*
X109778860Y-79749970D01*
X109775370Y-79735970D01*
X109751500Y-79678180D01*
X109740890Y-79662270D01*
X109698470Y-79619750D01*
X109682580Y-79609110D01*
X109627110Y-79586060D01*
X109608350Y-79582310D01*
X109548290Y-79582250D01*
X109529530Y-79585960D01*
X109469500Y-79610750D01*
X109460950Y-79615310D01*
X109447920Y-79623990D01*
X109442480Y-79627370D01*
X109421220Y-79639630D01*
X109408800Y-79653910D01*
X109408110Y-79657300D01*
X108617366Y-79657300D01*
X108632540Y-79634190D01*
X108636040Y-79628370D01*
X108637960Y-79625170D01*
X108637970Y-79625160D01*
X108640980Y-79620150D01*
X108643100Y-79613410D01*
X108661970Y-79553350D01*
X108664900Y-79544050D01*
X108660770Y-79497420D01*
X108658730Y-79474310D01*
X108657870Y-79464600D01*
X108620980Y-79393880D01*
X108613500Y-79387620D01*
X108563550Y-79345790D01*
X108563550Y-79345780D01*
X108559830Y-79342670D01*
X108555560Y-79340330D01*
X108478520Y-79298150D01*
X108478200Y-79297980D01*
X108428780Y-79271040D01*
X108428300Y-79270780D01*
X108361610Y-79234650D01*
X108361270Y-79234470D01*
X108285390Y-79193550D01*
X108285380Y-79193540D01*
X108285140Y-79193420D01*
X108202300Y-79148890D01*
X108202100Y-79148780D01*
X108114540Y-79101840D01*
X108114370Y-79101750D01*
X108024330Y-79053590D01*
X108024170Y-79053510D01*
X107933880Y-79005310D01*
X107933720Y-79005230D01*
X107845420Y-78958200D01*
X107845260Y-78958110D01*
X107841830Y-78956290D01*
X107796820Y-78932370D01*
X107761190Y-78913430D01*
X107760990Y-78913320D01*
X107683380Y-78872180D01*
X107683350Y-78872170D01*
X107683340Y-78872160D01*
X107683130Y-78872050D01*
X107682980Y-78871970D01*
X107669590Y-78864900D01*
X107649540Y-78850890D01*
X107623470Y-78827380D01*
X107618370Y-78824340D01*
X107566670Y-78793530D01*
X107538040Y-78776460D01*
X107462870Y-78749780D01*
X107426180Y-78744430D01*
X107417330Y-78743140D01*
X107411500Y-78741870D01*
X107408520Y-78741560D01*
X107400040Y-78739100D01*
X107395000Y-78739470D01*
X107393220Y-78738670D01*
X107393090Y-78739600D01*
X107364460Y-78735430D01*
X107359590Y-78735680D01*
X107289650Y-78739290D01*
X107284800Y-78739540D01*
X107280090Y-78740740D01*
X107215070Y-78757200D01*
X107215060Y-78757200D01*
X107212720Y-78757790D01*
X107210440Y-78758610D01*
X107196330Y-78763700D01*
X107175020Y-78771380D01*
X107172840Y-78772420D01*
X107172840Y-78772430D01*
X106996490Y-78856370D01*
X104646540Y-79975010D01*
X104585870Y-79982950D01*
X104538570Y-79959930D01*
X104538390Y-79959770D01*
X104466080Y-79896110D01*
X104465610Y-79895710D01*
X104465580Y-79895690D01*
X104458490Y-79889760D01*
X104458000Y-79889350D01*
X104447560Y-79881070D01*
X104447410Y-79880960D01*
X104447360Y-79880920D01*
X104444630Y-79878800D01*
X104444600Y-79878780D01*
X104444510Y-79878710D01*
X104395560Y-79841380D01*
X104391870Y-79838630D01*
X104391620Y-79838450D01*
X104391550Y-79838400D01*
X104337530Y-79799100D01*
X104337470Y-79799060D01*
X104337320Y-79798950D01*
X104337220Y-79798870D01*
X104337150Y-79798820D01*
X104334490Y-79796930D01*
X104334390Y-79796850D01*
X104334330Y-79796810D01*
X104334280Y-79796770D01*
X104277840Y-79757220D01*
X104277630Y-79757070D01*
X104274880Y-79755170D01*
X104267720Y-79750330D01*
X104219580Y-79717750D01*
X104219510Y-79717700D01*
X104219290Y-79717550D01*
X104219180Y-79717480D01*
X104219130Y-79717450D01*
X104216360Y-79715610D01*
X104216200Y-79715500D01*
X104165170Y-79682300D01*
X104160850Y-79679560D01*
X104117780Y-79653050D01*
X104109620Y-79648290D01*
X104099340Y-79642590D01*
X104079490Y-79631610D01*
X104079490Y-79631600D01*
X104077890Y-79630720D01*
X104076240Y-79629960D01*
X104076230Y-79629960D01*
X104052160Y-79618860D01*
X104052140Y-79618860D01*
X104050490Y-79618100D01*
X104033490Y-79611740D01*
X104029360Y-79610950D01*
X103969570Y-79599600D01*
X103965430Y-79598820D01*
X103931560Y-79598230D01*
X103916730Y-79597970D01*
X103911660Y-79597880D01*
X103829880Y-79613410D01*
X103821590Y-79618950D01*
X103790100Y-79639990D01*
X103763560Y-79657730D01*
X103719240Y-79724050D01*
X103717340Y-79733610D01*
X103714090Y-79749970D01*
X103703680Y-79802280D01*
X103703680Y-81647780D01*
X103684770Y-81705970D01*
X103635270Y-81741930D01*
X103604680Y-81746780D01*
X102538110Y-81746780D01*
X102479920Y-81727870D01*
X102468110Y-81717780D01*
X100605350Y-79855020D01*
X98742110Y-77991780D01*
X98714330Y-77937270D01*
X98723900Y-77876830D01*
X98767170Y-77833570D01*
X98812110Y-77822780D01*
X117714710Y-77822780D01*
X117772910Y-77841690D01*
X117808870Y-77891190D01*
X117813710Y-77921780D01*
X117813710Y-79777280D01*
X117818730Y-79802500D01*
X117826250Y-79840310D01*
X117829280Y-79855510D01*
X117873590Y-79921830D01*
X117939910Y-79966150D01*
X117949470Y-79968050D01*
X117949480Y-79968050D01*
X117980310Y-79974180D01*
X118018140Y-79981710D01*
X118068140Y-79981710D01*
X118070280Y-79981520D01*
X118070290Y-79981520D01*
X118090650Y-79979740D01*
X118103630Y-79978600D01*
X118115770Y-79976460D01*
X118174640Y-79956490D01*
X118200410Y-79943080D01*
X118201070Y-79942720D01*
X118201080Y-79942710D01*
X118206680Y-79939580D01*
X118211060Y-79937130D01*
X118222690Y-79930170D01*
X118249170Y-79914320D01*
X118249470Y-79914140D01*
X118249690Y-79914010D01*
X118249740Y-79913980D01*
X118253920Y-79911390D01*
X118253980Y-79911360D01*
X118254200Y-79911220D01*
X118256380Y-79909830D01*
X118301630Y-79881050D01*
X118301710Y-79881000D01*
X118301770Y-79880960D01*
X118303120Y-79880080D01*
X118304740Y-79879040D01*
X118304880Y-79878940D01*
X118311460Y-79874590D01*
X118358100Y-79843740D01*
X118360590Y-79842070D01*
X118416140Y-79804150D01*
X118418640Y-79802420D01*
X118472990Y-79764120D01*
X118473180Y-79763980D01*
X118473250Y-79763930D01*
X118475750Y-79762130D01*
X118475830Y-79762080D01*
X118475980Y-79761970D01*
X118511510Y-79735970D01*
X118525400Y-79725800D01*
X118525450Y-79725760D01*
X118525690Y-79725590D01*
X118529980Y-79722360D01*
X118571580Y-79690200D01*
X118572820Y-79689210D01*
X118576480Y-79686280D01*
X118576520Y-79686250D01*
X118576800Y-79686020D01*
X118624780Y-79646360D01*
X118634110Y-79638150D01*
X118802420Y-79480850D01*
X118804540Y-79478680D01*
X118814800Y-79468170D01*
X118814810Y-79468160D01*
X118815570Y-79467380D01*
X118970090Y-79293680D01*
X118973350Y-79289680D01*
X118980870Y-79280420D01*
X118980880Y-79280410D01*
X118981560Y-79279580D01*
X118982790Y-79277920D01*
X119120320Y-79092460D01*
X119120340Y-79092450D01*
X119120970Y-79091590D01*
X119130960Y-79076820D01*
X119135600Y-79069260D01*
X119253620Y-78877160D01*
X119300190Y-78837480D01*
X119361190Y-78832740D01*
X119413320Y-78864770D01*
X119436670Y-78921330D01*
X119434170Y-78952360D01*
X119424010Y-78994180D01*
X119422410Y-78999990D01*
X119350870Y-79231850D01*
X119348730Y-79238060D01*
X119266650Y-79452440D01*
X119263820Y-79459080D01*
X119171990Y-79654850D01*
X119168300Y-79661950D01*
X119063800Y-79844720D01*
X119061850Y-79847990D01*
X119045250Y-79874590D01*
X119043900Y-79876800D01*
X119043690Y-79877140D01*
X119021590Y-79913630D01*
X119021220Y-79914250D01*
X119019110Y-79917830D01*
X119018840Y-79918300D01*
X119004130Y-79943910D01*
X119003190Y-79945620D01*
X118996580Y-79958280D01*
X118995720Y-79960010D01*
X118991310Y-79969330D01*
X118989750Y-79973010D01*
X118981230Y-79995590D01*
X118978240Y-80008890D01*
X118973000Y-80071600D01*
X118975160Y-80090600D01*
X118993460Y-80147820D01*
X119002720Y-80164550D01*
X119044680Y-80214140D01*
X119051150Y-80220420D01*
X119052080Y-80221110D01*
X119070910Y-80234220D01*
X119073550Y-80235940D01*
X119091760Y-80246960D01*
X119092330Y-80247300D01*
X119096130Y-80249530D01*
X119096710Y-80249870D01*
X119133380Y-80270820D01*
X119134920Y-80271690D01*
X119135010Y-80271740D01*
X119187080Y-80300860D01*
X119187320Y-80301000D01*
X119187940Y-80301340D01*
X119188140Y-80301450D01*
X119253840Y-80337760D01*
X119254310Y-80338020D01*
X119254440Y-80338090D01*
X119331770Y-80380490D01*
X119331850Y-80380540D01*
X119332280Y-80380770D01*
X119419470Y-80428280D01*
X119419510Y-80428300D01*
X119419910Y-80428510D01*
X119515180Y-80480150D01*
X119515460Y-80480300D01*
X119515490Y-80480320D01*
X119515550Y-80480350D01*
X119617060Y-80535090D01*
X119617280Y-80535210D01*
X119673440Y-80565410D01*
X119673410Y-80565460D01*
X119673510Y-80565560D01*
X119673550Y-80565470D01*
X119772130Y-80618400D01*
X119772160Y-80618410D01*
X119772330Y-80618500D01*
X119863830Y-80667530D01*
X119863880Y-80667580D01*
X119863890Y-80667570D01*
X119863930Y-80667580D01*
X119864100Y-80667680D01*
X119946700Y-80711830D01*
X119946910Y-80711940D01*
X119947060Y-80712020D01*
X119984300Y-80731870D01*
X119995520Y-80733860D01*
X119998140Y-80728950D01*
X119998140Y-78056280D01*
X120017050Y-77998090D01*
X120066550Y-77962120D01*
X120097140Y-77957280D01*
X120299140Y-77957280D01*
X120357330Y-77976190D01*
X120393300Y-78025690D01*
X120398140Y-78056280D01*
X120398140Y-80774870D01*
X120401500Y-80785220D01*
X120406470Y-80782160D01*
X120426140Y-80762330D01*
X120432250Y-80754830D01*
X120432370Y-80754640D01*
X120434910Y-80750360D01*
X120451730Y-80718370D01*
X120453830Y-80713840D01*
X120462320Y-80692770D01*
X120462780Y-80691590D01*
X120465870Y-80683340D01*
X120466290Y-80682180D01*
X120479080Y-80645290D01*
X120479260Y-80644770D01*
X120480800Y-80640100D01*
X120481070Y-80639280D01*
X120495710Y-80593020D01*
X120495900Y-80592420D01*
X120496940Y-80588980D01*
X120497090Y-80588480D01*
X120518090Y-80517160D01*
X120518290Y-80516450D01*
X120519920Y-80510530D01*
X120520130Y-80509770D01*
X120582160Y-80269320D01*
X120582430Y-80268210D01*
X120584270Y-80260340D01*
X120584540Y-80259160D01*
X120639520Y-79997600D01*
X120639730Y-79996580D01*
X120641040Y-79989690D01*
X120641200Y-79988770D01*
X120653280Y-79917570D01*
X120689210Y-79705780D01*
X120689330Y-79705030D01*
X120690260Y-79698960D01*
X120690390Y-79698070D01*
X120731340Y-79394020D01*
X120731440Y-79393230D01*
X120732060Y-79388050D01*
X120732170Y-79387100D01*
X120766040Y-79062180D01*
X120766110Y-79061480D01*
X120766550Y-79056690D01*
X120766600Y-79056100D01*
X120777680Y-78912930D01*
X120801030Y-78856370D01*
X120853160Y-78824340D01*
X120914160Y-78829060D01*
X120960740Y-78868740D01*
X120975030Y-78912140D01*
X120977470Y-78940730D01*
X120978450Y-78952200D01*
X120978990Y-78957630D01*
X120979020Y-78957920D01*
X120979020Y-78957930D01*
X120979550Y-78962620D01*
X120984180Y-79003800D01*
X120985400Y-79012860D01*
X120985480Y-79013390D01*
X120985490Y-79013400D01*
X120990160Y-79042980D01*
X120991290Y-79050140D01*
X120991420Y-79050820D01*
X120991420Y-79050840D01*
X120991940Y-79053590D01*
X120993620Y-79062450D01*
X120993780Y-79063180D01*
X120993790Y-79063200D01*
X120996590Y-79075880D01*
X121000740Y-79094590D01*
X121000930Y-79095360D01*
X121002420Y-79101210D01*
X121003920Y-79107070D01*
X121004130Y-79107790D01*
X121004130Y-79107830D01*
X121007200Y-79118470D01*
X121012800Y-79137860D01*
X121015480Y-79146440D01*
X121015650Y-79146950D01*
X121015660Y-79146960D01*
X121021120Y-79163170D01*
X121026670Y-79179670D01*
X121027790Y-79182880D01*
X121027860Y-79183100D01*
X121027890Y-79183170D01*
X121033680Y-79199460D01*
X121036250Y-79206690D01*
X121037140Y-79209140D01*
X121051380Y-79247650D01*
X121053230Y-79252470D01*
X121053330Y-79252710D01*
X121053340Y-79252750D01*
X121063380Y-79277920D01*
X121063390Y-79277940D01*
X121063820Y-79279020D01*
X121072030Y-79297020D01*
X121077140Y-79306920D01*
X121079190Y-79309790D01*
X121079190Y-79309800D01*
X121104850Y-79345790D01*
X121110990Y-79354390D01*
X121117880Y-79359230D01*
X121168290Y-79394610D01*
X121176270Y-79400210D01*
X121185790Y-79402340D01*
X121192360Y-79403800D01*
X121254130Y-79417560D01*
X121263730Y-79415880D01*
X121327900Y-79404640D01*
X121332690Y-79403800D01*
X121333950Y-79403310D01*
X121336370Y-79402280D01*
X121345720Y-79398290D01*
X121345730Y-79398290D01*
X121346490Y-79397960D01*
X121363040Y-79390250D01*
X121365030Y-79389300D01*
X121365040Y-79389300D01*
X121398970Y-79373020D01*
X121399030Y-79372990D01*
X121399070Y-79372980D01*
X121399600Y-79372720D01*
X121448760Y-79348930D01*
X121449090Y-79348770D01*
X121511290Y-79318540D01*
X121511520Y-79318430D01*
X121584580Y-79282800D01*
X121584750Y-79282720D01*
X121666490Y-79242760D01*
X121666650Y-79242680D01*
X121754890Y-79199460D01*
X121755000Y-79199410D01*
X121771840Y-79191140D01*
X121772100Y-79191020D01*
X121871630Y-79142020D01*
X121871880Y-79141900D01*
X121872140Y-79141770D01*
X121872200Y-79141740D01*
X121872360Y-79141660D01*
X121953500Y-79101310D01*
X121954830Y-79100640D01*
X121963040Y-79096490D01*
X121975300Y-79090280D01*
X122019290Y-79068000D01*
X122021670Y-79066770D01*
X122023250Y-79065950D01*
X122070890Y-79041030D01*
X122070940Y-79041000D01*
X122071170Y-79040890D01*
X122075460Y-79038580D01*
X122111720Y-79018500D01*
X122119780Y-79013790D01*
X122133570Y-79005310D01*
X122143500Y-78999210D01*
X122143520Y-78999200D01*
X122144510Y-78998580D01*
X122160740Y-78987490D01*
X122161700Y-78986770D01*
X122161720Y-78986760D01*
X122173350Y-78977960D01*
X122175670Y-78976200D01*
X122177760Y-78974190D01*
X122177770Y-78974190D01*
X122208170Y-78945000D01*
X122210270Y-78942980D01*
X122217100Y-78934670D01*
X122231250Y-78912930D01*
X122237670Y-78903070D01*
X122241820Y-78896690D01*
X122261170Y-78826660D01*
X122294900Y-78775600D01*
X122352190Y-78754120D01*
X122411160Y-78770420D01*
X122444180Y-78806860D01*
X122451670Y-78821080D01*
X122452780Y-78823070D01*
X122571650Y-79025400D01*
X122572870Y-79027380D01*
X122581790Y-79041080D01*
X122583090Y-79042980D01*
X122720130Y-79233820D01*
X122721480Y-79235610D01*
X122731590Y-79248410D01*
X122733030Y-79250150D01*
X122887490Y-79428460D01*
X122888970Y-79430100D01*
X122900150Y-79441880D01*
X122901710Y-79443450D01*
X123072770Y-79608150D01*
X123074430Y-79609690D01*
X123086510Y-79620310D01*
X123088220Y-79621740D01*
X123105920Y-79635950D01*
X123116570Y-79639990D01*
X123117840Y-79638400D01*
X123118140Y-79636780D01*
X123118140Y-77705520D01*
X123518140Y-77705520D01*
X123518140Y-79917570D01*
X123524120Y-79935960D01*
X123526790Y-79938400D01*
X123536990Y-79944470D01*
X123537330Y-79944680D01*
X123539470Y-79945930D01*
X123563390Y-79959770D01*
X123564310Y-79960290D01*
X123564750Y-79960530D01*
X123571990Y-79964920D01*
X123573030Y-79965610D01*
X123577150Y-79968080D01*
X123603680Y-79982240D01*
X123617250Y-79987100D01*
X123678580Y-79999290D01*
X123697700Y-79999290D01*
X123756620Y-79987580D01*
X123774280Y-79980260D01*
X123824220Y-79946890D01*
X123837750Y-79933360D01*
X123871120Y-79883420D01*
X123878440Y-79865750D01*
X123891110Y-79802040D01*
X123892060Y-79792420D01*
X123892060Y-77712960D01*
X123887940Y-77700270D01*
X123883820Y-77697280D01*
X123533820Y-77697280D01*
X123521140Y-77701400D01*
X123518140Y-77705520D01*
X123118140Y-77705520D01*
X123118140Y-77281600D01*
X123118140Y-75376470D01*
X123114620Y-75365640D01*
X123113870Y-75365640D01*
X123110500Y-75367570D01*
X123000690Y-75464920D01*
X122999190Y-75466310D01*
X122988340Y-75476770D01*
X122986840Y-75478280D01*
X122828950Y-75643940D01*
X122827540Y-75645490D01*
X122817660Y-75656760D01*
X122816360Y-75658310D01*
X122673050Y-75836330D01*
X122671770Y-75837990D01*
X122662660Y-75850350D01*
X122661470Y-75852040D01*
X122535150Y-76039790D01*
X122533950Y-76041660D01*
X122525530Y-76055480D01*
X122524420Y-76057400D01*
X122486330Y-76126810D01*
X122441760Y-76168720D01*
X122381060Y-76176430D01*
X122327420Y-76146990D01*
X122301330Y-76091640D01*
X122303920Y-76053550D01*
X122329590Y-75957730D01*
X122339660Y-75920160D01*
X122341310Y-75914650D01*
X122411120Y-75704130D01*
X122413290Y-75698210D01*
X122415140Y-75693650D01*
X122491470Y-75504720D01*
X122494330Y-75498290D01*
X122528700Y-75428080D01*
X122579680Y-75323890D01*
X122583490Y-75316840D01*
X122583620Y-75316630D01*
X122678270Y-75157300D01*
X122680630Y-75153540D01*
X122687710Y-75142750D01*
X122727405Y-75082300D01*
X123518140Y-75082300D01*
X123518140Y-77281600D01*
X123522260Y-77294280D01*
X123526390Y-77297280D01*
X123876380Y-77297280D01*
X123889070Y-77293160D01*
X123892060Y-77289040D01*
X123892060Y-75209700D01*
X123891820Y-75204860D01*
X123888900Y-75174970D01*
X123885400Y-75160970D01*
X123861540Y-75103180D01*
X123850930Y-75087270D01*
X123808500Y-75044750D01*
X123792610Y-75034110D01*
X123737140Y-75011060D01*
X123718390Y-75007310D01*
X123658320Y-75007250D01*
X123639560Y-75010960D01*
X123579530Y-75035750D01*
X123570980Y-75040310D01*
X123557960Y-75048990D01*
X123552510Y-75052370D01*
X123531250Y-75064630D01*
X123518830Y-75078910D01*
X123518140Y-75082300D01*
X122727405Y-75082300D01*
X122742580Y-75059190D01*
X122745120Y-75054950D01*
X122748000Y-75050170D01*
X122748000Y-75050160D01*
X122751010Y-75045150D01*
X122753130Y-75038410D01*
X122772010Y-74978350D01*
X122774930Y-74969050D01*
X122767900Y-74889600D01*
X122731010Y-74818880D01*
X122723540Y-74812620D01*
X122723530Y-74812620D01*
X122673590Y-74770790D01*
X122673580Y-74770780D01*
X122669860Y-74767660D01*
X122665600Y-74765330D01*
X122588550Y-74723150D01*
X122588230Y-74722980D01*
X122538810Y-74696040D01*
X122538330Y-74695780D01*
X122471640Y-74659650D01*
X122471310Y-74659470D01*
X122395420Y-74618550D01*
X122395410Y-74618540D01*
X122395170Y-74618410D01*
X122312330Y-74573890D01*
X122312140Y-74573780D01*
X122224580Y-74526840D01*
X122224400Y-74526750D01*
X122134360Y-74478590D01*
X122134210Y-74478500D01*
X122043910Y-74430310D01*
X122043760Y-74430230D01*
X121955460Y-74383190D01*
X121955290Y-74383110D01*
X121871220Y-74338420D01*
X121871020Y-74338320D01*
X121793410Y-74297180D01*
X121793390Y-74297170D01*
X121793380Y-74297160D01*
X121793160Y-74297050D01*
X121793010Y-74296970D01*
X121779630Y-74289900D01*
X121759570Y-74275890D01*
X121733510Y-74252380D01*
X121723950Y-74246680D01*
X121676740Y-74218550D01*
X121648070Y-74201460D01*
X121572910Y-74174780D01*
X121536220Y-74169430D01*
X121527370Y-74168140D01*
X121521530Y-74166870D01*
X121518550Y-74166560D01*
X121510080Y-74164100D01*
X121505030Y-74164460D01*
X121503260Y-74163670D01*
X121503120Y-74164600D01*
X121474490Y-74160430D01*
X121469630Y-74160680D01*
X121399690Y-74164290D01*
X121399680Y-74164290D01*
X121394830Y-74164540D01*
X121390120Y-74165730D01*
X121325100Y-74182190D01*
X121325090Y-74182200D01*
X121322750Y-74182790D01*
X121320480Y-74183610D01*
X121320470Y-74183610D01*
X121306370Y-74188700D01*
X121285060Y-74196380D01*
X121282870Y-74197420D01*
X121115650Y-74277030D01*
X118756570Y-75400010D01*
X118695910Y-75407950D01*
X118648600Y-75384930D01*
X118576590Y-75321530D01*
X118576120Y-75321110D01*
X118575640Y-75320710D01*
X118575610Y-75320690D01*
X118568520Y-75314760D01*
X118568030Y-75314350D01*
X118557590Y-75306070D01*
X118557450Y-75305960D01*
X118557390Y-75305920D01*
X118554660Y-75303790D01*
X118554640Y-75303780D01*
X118554540Y-75303700D01*
X118505600Y-75266380D01*
X118501910Y-75263630D01*
X118501650Y-75263440D01*
X118501590Y-75263400D01*
X118447570Y-75224100D01*
X118447510Y-75224050D01*
X118447360Y-75223950D01*
X118447260Y-75223870D01*
X118447180Y-75223820D01*
X118444530Y-75221930D01*
X118444420Y-75221850D01*
X118444370Y-75221810D01*
X118444310Y-75221770D01*
X118387880Y-75182220D01*
X118387660Y-75182070D01*
X118384910Y-75180170D01*
X118377220Y-75174970D01*
X118329610Y-75142750D01*
X118329550Y-75142700D01*
X118329320Y-75142550D01*
X118329220Y-75142480D01*
X118329170Y-75142450D01*
X118326400Y-75140610D01*
X118326230Y-75140500D01*
X118275210Y-75107300D01*
X118270880Y-75104560D01*
X118227810Y-75078050D01*
X118219660Y-75073290D01*
X118204020Y-75064630D01*
X118189530Y-75056610D01*
X118189520Y-75056600D01*
X118187930Y-75055720D01*
X118186270Y-75054960D01*
X118186270Y-75054950D01*
X118162190Y-75043860D01*
X118162180Y-75043860D01*
X118160530Y-75043100D01*
X118143530Y-75036740D01*
X118139390Y-75035950D01*
X118079610Y-75024600D01*
X118079600Y-75024600D01*
X118075470Y-75023820D01*
X118041590Y-75023230D01*
X118026770Y-75022970D01*
X118021690Y-75022880D01*
X117939910Y-75038410D01*
X117931630Y-75043950D01*
X117931620Y-75043950D01*
X117888140Y-75073000D01*
X117873590Y-75082730D01*
X117829280Y-75149050D01*
X117813710Y-75227280D01*
X117813710Y-77072780D01*
X117794810Y-77130970D01*
X117745310Y-77166930D01*
X117714710Y-77171780D01*
X112907900Y-77171780D01*
X112849710Y-77152870D01*
X112813750Y-77103370D01*
X112813750Y-77042190D01*
X112849710Y-76992690D01*
X112866060Y-76983060D01*
X112920730Y-76957560D01*
X113114300Y-76822020D01*
X113281390Y-76654930D01*
X113414450Y-76464900D01*
X113416930Y-76461360D01*
X113516800Y-76247190D01*
X113577960Y-76018940D01*
X113598560Y-75783530D01*
X113577960Y-75548120D01*
X113516800Y-75319870D01*
X113416930Y-75105700D01*
X113404030Y-75087270D01*
X113283870Y-74915670D01*
X113281390Y-74912130D01*
X113114300Y-74745030D01*
X112933650Y-74618540D01*
X112924270Y-74611980D01*
X112924270Y-74611970D01*
X112920730Y-74609490D01*
X112706560Y-74509630D01*
X112478310Y-74448470D01*
X112393470Y-74441040D01*
X112304030Y-74433220D01*
X112304020Y-74433220D01*
X112301860Y-74433030D01*
X112183930Y-74433030D01*
X112181780Y-74433220D01*
X112181770Y-74433220D01*
X112092330Y-74441040D01*
X112007490Y-74448470D01*
X111779240Y-74509630D01*
X111565070Y-74609490D01*
X111561530Y-74611970D01*
X111561520Y-74611980D01*
X111552150Y-74618540D01*
X111371500Y-74745030D01*
X111204400Y-74912130D01*
X111158030Y-74978350D01*
X111071350Y-75102150D01*
X111071340Y-75102160D01*
X111068860Y-75105700D01*
X110969000Y-75319870D01*
X110907840Y-75548120D01*
X110887240Y-75783530D01*
X110907840Y-76018940D01*
X110969000Y-76247190D01*
X111068860Y-76461360D01*
X111204400Y-76654930D01*
X111371500Y-76822020D01*
X111565070Y-76957560D01*
X111619740Y-76983060D01*
X111664480Y-77024780D01*
X111676160Y-77084840D01*
X111650300Y-77140300D01*
X111596790Y-77169960D01*
X111577900Y-77171780D01*
X86743110Y-77171780D01*
X86684920Y-77152870D01*
X86673110Y-77142780D01*
X83583810Y-74053490D01*
X89449380Y-74053490D01*
X89449390Y-74053530D01*
X89454910Y-74059750D01*
X89561190Y-74130760D01*
X89569140Y-74135080D01*
X89763420Y-74218550D01*
X89772030Y-74221350D01*
X89978280Y-74268020D01*
X89987240Y-74269200D01*
X90198550Y-74277500D01*
X90207560Y-74277030D01*
X90416860Y-74246680D01*
X90425640Y-74244570D01*
X90625890Y-74176600D01*
X90634140Y-74172920D01*
X90818650Y-74069590D01*
X90825760Y-74064700D01*
X90832820Y-74053520D01*
X90832810Y-74053490D01*
X95949380Y-74053490D01*
X95949390Y-74053530D01*
X95954910Y-74059750D01*
X96061190Y-74130760D01*
X96069140Y-74135080D01*
X96263420Y-74218550D01*
X96272030Y-74221350D01*
X96478280Y-74268020D01*
X96487240Y-74269200D01*
X96698550Y-74277500D01*
X96707560Y-74277030D01*
X96916860Y-74246680D01*
X96925640Y-74244570D01*
X97125890Y-74176600D01*
X97134140Y-74172920D01*
X97318650Y-74069590D01*
X97325760Y-74064700D01*
X97332820Y-74053520D01*
X97332630Y-74050690D01*
X97330630Y-74047650D01*
X96651090Y-73368120D01*
X96639210Y-73362060D01*
X96634180Y-73362860D01*
X95955430Y-74041600D01*
X95949380Y-74053490D01*
X90832810Y-74053490D01*
X90832630Y-74050690D01*
X90830630Y-74047650D01*
X90151090Y-73368120D01*
X90139210Y-73362060D01*
X90134180Y-73362860D01*
X89455430Y-74041600D01*
X89449380Y-74053490D01*
X83583810Y-74053490D01*
X82577490Y-73047170D01*
X88935580Y-73047170D01*
X88949410Y-73258190D01*
X88950820Y-73267110D01*
X89002870Y-73472070D01*
X89005890Y-73480600D01*
X89094420Y-73672640D01*
X89098940Y-73680460D01*
X89152810Y-73756690D01*
X89163500Y-73764660D01*
X89164250Y-73764670D01*
X89170380Y-73760970D01*
X89846080Y-73085270D01*
X89851320Y-73074980D01*
X90427880Y-73074980D01*
X90428680Y-73080010D01*
X91109510Y-73760850D01*
X91121390Y-73766900D01*
X91124200Y-73766460D01*
X91127040Y-73764180D01*
X91130290Y-73760280D01*
X91135410Y-73752830D01*
X91238740Y-73568320D01*
X91242420Y-73560060D01*
X91310390Y-73359820D01*
X91312500Y-73351030D01*
X91343080Y-73140140D01*
X91343570Y-73134350D01*
X91345070Y-73077100D01*
X91344880Y-73071290D01*
X91342670Y-73047170D01*
X95435580Y-73047170D01*
X95449410Y-73258190D01*
X95450820Y-73267110D01*
X95502870Y-73472070D01*
X95505890Y-73480600D01*
X95594420Y-73672640D01*
X95598940Y-73680460D01*
X95652810Y-73756690D01*
X95663500Y-73764660D01*
X95664250Y-73764670D01*
X95670380Y-73760970D01*
X96346080Y-73085270D01*
X96351320Y-73074980D01*
X96927880Y-73074980D01*
X96928680Y-73080010D01*
X97609510Y-73760850D01*
X97621390Y-73766900D01*
X97624200Y-73766460D01*
X97627040Y-73764180D01*
X97630290Y-73760280D01*
X97635410Y-73752830D01*
X97738740Y-73568320D01*
X97742420Y-73560060D01*
X97810390Y-73359820D01*
X97812500Y-73351030D01*
X97843080Y-73140140D01*
X97843570Y-73134350D01*
X97845070Y-73077100D01*
X97844880Y-73071290D01*
X97825380Y-72859080D01*
X97823740Y-72850200D01*
X97766340Y-72646670D01*
X97763090Y-72638230D01*
X97669570Y-72448570D01*
X97664840Y-72440870D01*
X97627770Y-72391210D01*
X97616880Y-72383520D01*
X97615430Y-72383540D01*
X97610330Y-72386700D01*
X96933940Y-73063100D01*
X96927880Y-73074980D01*
X96351320Y-73074980D01*
X96352130Y-73073390D01*
X96351340Y-73068360D01*
X95671900Y-72388920D01*
X95660020Y-72382870D01*
X95657900Y-72383200D01*
X95654170Y-72386260D01*
X95632100Y-72414250D01*
X95627180Y-72421840D01*
X95528710Y-72608990D01*
X95525260Y-72617330D01*
X95462550Y-72819280D01*
X95460670Y-72828130D01*
X95435810Y-73038130D01*
X95435580Y-73047170D01*
X91342670Y-73047170D01*
X91325380Y-72859080D01*
X91323740Y-72850200D01*
X91266340Y-72646670D01*
X91263090Y-72638230D01*
X91169570Y-72448570D01*
X91164840Y-72440870D01*
X91127770Y-72391210D01*
X91116880Y-72383520D01*
X91115430Y-72383540D01*
X91110330Y-72386700D01*
X90433940Y-73063100D01*
X90427880Y-73074980D01*
X89851320Y-73074980D01*
X89852130Y-73073390D01*
X89851340Y-73068360D01*
X89171900Y-72388920D01*
X89160020Y-72382870D01*
X89157900Y-72383200D01*
X89154170Y-72386260D01*
X89132100Y-72414250D01*
X89127180Y-72421840D01*
X89028710Y-72608990D01*
X89025260Y-72617330D01*
X88962550Y-72819280D01*
X88960670Y-72828130D01*
X88935810Y-73038130D01*
X88935580Y-73047170D01*
X82577490Y-73047170D01*
X81624880Y-72094550D01*
X89447040Y-72094550D01*
X89451730Y-72103070D01*
X90128920Y-72780260D01*
X90140800Y-72786310D01*
X90145840Y-72785520D01*
X90825540Y-72105810D01*
X90831280Y-72094550D01*
X95947040Y-72094550D01*
X95951730Y-72103070D01*
X96628920Y-72780260D01*
X96640800Y-72786310D01*
X96645840Y-72785520D01*
X97325540Y-72105810D01*
X97331420Y-72094270D01*
X97325330Y-72087590D01*
X97190970Y-72002820D01*
X97182910Y-71998720D01*
X96986500Y-71920350D01*
X96977840Y-71917790D01*
X96770430Y-71876530D01*
X96761440Y-71875590D01*
X96549990Y-71872820D01*
X96540980Y-71873530D01*
X96332560Y-71909340D01*
X96323840Y-71911680D01*
X96125440Y-71984870D01*
X96117280Y-71988770D01*
X95955290Y-72085140D01*
X95947040Y-72094550D01*
X90831280Y-72094550D01*
X90831420Y-72094270D01*
X90825330Y-72087590D01*
X90690970Y-72002820D01*
X90682910Y-71998720D01*
X90486500Y-71920350D01*
X90477840Y-71917790D01*
X90270430Y-71876530D01*
X90261440Y-71875590D01*
X90049990Y-71872820D01*
X90040980Y-71873530D01*
X89832560Y-71909340D01*
X89823840Y-71911680D01*
X89625440Y-71984870D01*
X89617280Y-71988770D01*
X89455290Y-72085140D01*
X89447040Y-72094550D01*
X81624880Y-72094550D01*
X80456040Y-70925720D01*
X101938080Y-70925720D01*
X101974160Y-71161490D01*
X102007770Y-71264310D01*
X102045030Y-71378320D01*
X102048260Y-71388200D01*
X102050140Y-71391800D01*
X102133310Y-71551570D01*
X102158400Y-71599770D01*
X102160840Y-71603020D01*
X102294840Y-71781490D01*
X102301610Y-71790510D01*
X102474050Y-71955300D01*
X102477400Y-71957590D01*
X102657160Y-72080210D01*
X102671090Y-72089710D01*
X102674770Y-72091420D01*
X102739240Y-72121350D01*
X102887440Y-72190140D01*
X102891350Y-72191220D01*
X103113360Y-72252790D01*
X103117280Y-72253880D01*
X103121330Y-72254310D01*
X103178750Y-72260450D01*
X103311990Y-72274690D01*
X103450470Y-72274690D01*
X103452500Y-72274520D01*
X103623680Y-72260450D01*
X103627720Y-72260110D01*
X103631660Y-72259130D01*
X103631660Y-72259120D01*
X103800760Y-72216650D01*
X103859060Y-72202010D01*
X104044560Y-72121350D01*
X104074060Y-72108520D01*
X104077790Y-72106900D01*
X104238670Y-72002820D01*
X104274640Y-71979550D01*
X104274650Y-71979550D01*
X104278060Y-71977340D01*
X104454470Y-71816820D01*
X104463220Y-71805740D01*
X104599780Y-71632820D01*
X104599790Y-71632810D01*
X104602300Y-71629630D01*
X104717570Y-71420820D01*
X104723620Y-71403740D01*
X104795840Y-71199810D01*
X104797190Y-71195980D01*
X104839020Y-70961160D01*
X104839260Y-70941330D01*
X104841490Y-70758910D01*
X104841930Y-70722660D01*
X104805850Y-70486880D01*
X104740390Y-70286580D01*
X104733010Y-70264030D01*
X104733010Y-70264020D01*
X104731750Y-70260170D01*
X104719890Y-70237380D01*
X104623490Y-70052210D01*
X104623490Y-70052200D01*
X104621620Y-70048600D01*
X104507470Y-69896580D01*
X104480840Y-69861110D01*
X104478410Y-69857860D01*
X104305970Y-69693070D01*
X104302610Y-69690790D01*
X104302610Y-69690780D01*
X104112280Y-69560950D01*
X104108930Y-69558660D01*
X104105250Y-69556950D01*
X104105240Y-69556950D01*
X103999750Y-69507980D01*
X103892580Y-69458240D01*
X103846200Y-69445370D01*
X103666660Y-69395580D01*
X103662740Y-69394500D01*
X103658690Y-69394060D01*
X103587380Y-69386440D01*
X103468020Y-69373690D01*
X103329540Y-69373690D01*
X103327520Y-69373850D01*
X103327510Y-69373850D01*
X103156340Y-69387930D01*
X103152290Y-69388260D01*
X103148360Y-69389250D01*
X103148350Y-69389250D01*
X102987990Y-69429530D01*
X102920960Y-69446370D01*
X102889720Y-69459950D01*
X102766170Y-69513670D01*
X102702220Y-69541470D01*
X102661550Y-69567790D01*
X102505370Y-69668820D01*
X102501960Y-69671030D01*
X102325540Y-69831560D01*
X102323030Y-69834740D01*
X102323020Y-69834750D01*
X102180230Y-70015550D01*
X102180230Y-70015560D01*
X102177710Y-70018740D01*
X102175750Y-70022300D01*
X102069980Y-70213910D01*
X102062440Y-70227560D01*
X102061090Y-70231380D01*
X102003120Y-70395080D01*
X101982820Y-70452390D01*
X101941000Y-70687210D01*
X101940950Y-70691270D01*
X101940950Y-70691280D01*
X101940300Y-70743940D01*
X101938080Y-70925720D01*
X80456040Y-70925720D01*
X78072950Y-68542630D01*
X88934780Y-68542630D01*
X88938910Y-68605660D01*
X88942320Y-68657720D01*
X88949210Y-68762790D01*
X88950320Y-68767180D01*
X88950320Y-68767190D01*
X88973880Y-68859940D01*
X89003520Y-68976640D01*
X89095890Y-69177010D01*
X89223230Y-69357190D01*
X89381270Y-69511150D01*
X89564720Y-69633730D01*
X89767440Y-69720820D01*
X89845170Y-69738410D01*
X89978210Y-69768510D01*
X89978220Y-69768520D01*
X89982640Y-69769520D01*
X90092870Y-69773850D01*
X90198570Y-69778000D01*
X90203110Y-69778180D01*
X90421460Y-69746520D01*
X90425760Y-69745060D01*
X90626090Y-69677060D01*
X90630390Y-69675600D01*
X90638540Y-69671030D01*
X90818930Y-69570010D01*
X90822890Y-69567790D01*
X90992530Y-69426700D01*
X91133610Y-69257070D01*
X91186170Y-69163220D01*
X91239200Y-69068530D01*
X91239200Y-69068520D01*
X91241420Y-69064570D01*
X91279420Y-68952620D01*
X91310880Y-68859940D01*
X91312340Y-68855640D01*
X91325160Y-68767190D01*
X91343580Y-68640180D01*
X91344000Y-68637280D01*
X91344930Y-68601710D01*
X91345570Y-68577100D01*
X91345650Y-68574190D01*
X91344650Y-68563240D01*
X91342750Y-68542630D01*
X95434780Y-68542630D01*
X95438910Y-68605660D01*
X95442320Y-68657720D01*
X95449210Y-68762790D01*
X95450320Y-68767180D01*
X95450320Y-68767190D01*
X95473880Y-68859940D01*
X95503520Y-68976640D01*
X95595890Y-69177010D01*
X95723230Y-69357190D01*
X95881270Y-69511150D01*
X96064720Y-69633730D01*
X96267440Y-69720820D01*
X96345170Y-69738410D01*
X96478210Y-69768510D01*
X96478220Y-69768520D01*
X96482640Y-69769520D01*
X96592870Y-69773850D01*
X96698570Y-69778000D01*
X96703110Y-69778180D01*
X96921460Y-69746520D01*
X96925760Y-69745060D01*
X97126090Y-69677060D01*
X97130390Y-69675600D01*
X97138540Y-69671030D01*
X97318930Y-69570010D01*
X97322890Y-69567790D01*
X97492530Y-69426700D01*
X97633610Y-69257070D01*
X97686170Y-69163220D01*
X97739200Y-69068530D01*
X97739200Y-69068520D01*
X97741420Y-69064570D01*
X97779420Y-68952620D01*
X97810880Y-68859940D01*
X97812340Y-68855640D01*
X97825160Y-68767190D01*
X97843580Y-68640180D01*
X97844000Y-68637280D01*
X97844930Y-68601710D01*
X97845570Y-68577100D01*
X97845650Y-68574190D01*
X97844650Y-68563240D01*
X97825880Y-68359000D01*
X97825460Y-68354480D01*
X97765570Y-68142120D01*
X97763560Y-68138050D01*
X97670000Y-67948310D01*
X97667990Y-67944240D01*
X97535970Y-67767450D01*
X97407720Y-67648890D01*
X97377290Y-67620760D01*
X97373960Y-67617690D01*
X97368320Y-67614130D01*
X97191190Y-67502370D01*
X97187360Y-67499950D01*
X96982430Y-67418190D01*
X96766030Y-67375150D01*
X96657350Y-67373730D01*
X96549950Y-67372320D01*
X96545410Y-67372260D01*
X96540940Y-67373030D01*
X96332440Y-67408850D01*
X96332440Y-67408860D01*
X96327960Y-67409620D01*
X96300180Y-67419870D01*
X96125230Y-67484420D01*
X96125220Y-67484420D01*
X96120960Y-67485990D01*
X96117060Y-67488310D01*
X96097500Y-67499950D01*
X95931350Y-67598800D01*
X95927930Y-67601800D01*
X95820040Y-67696410D01*
X95765460Y-67744280D01*
X95762660Y-67747840D01*
X95642070Y-67900800D01*
X95628870Y-67917550D01*
X95526140Y-68112810D01*
X95460710Y-68323520D01*
X95460180Y-68328030D01*
X95457050Y-68354480D01*
X95434780Y-68542630D01*
X91342750Y-68542630D01*
X91325880Y-68359000D01*
X91325460Y-68354480D01*
X91265570Y-68142120D01*
X91263560Y-68138050D01*
X91170000Y-67948310D01*
X91167990Y-67944240D01*
X91035970Y-67767450D01*
X90907720Y-67648890D01*
X90877290Y-67620760D01*
X90873960Y-67617690D01*
X90868320Y-67614130D01*
X90691190Y-67502370D01*
X90687360Y-67499950D01*
X90482430Y-67418190D01*
X90266030Y-67375150D01*
X90157350Y-67373730D01*
X90049950Y-67372320D01*
X90045410Y-67372260D01*
X90040940Y-67373030D01*
X89832440Y-67408850D01*
X89832440Y-67408860D01*
X89827960Y-67409620D01*
X89800180Y-67419870D01*
X89625230Y-67484420D01*
X89625220Y-67484420D01*
X89620960Y-67485990D01*
X89617060Y-67488310D01*
X89597500Y-67499950D01*
X89431350Y-67598800D01*
X89427930Y-67601800D01*
X89320040Y-67696410D01*
X89265460Y-67744280D01*
X89262660Y-67747840D01*
X89142070Y-67900800D01*
X89128870Y-67917550D01*
X89026140Y-68112810D01*
X88960710Y-68323520D01*
X88960180Y-68328030D01*
X88957050Y-68354480D01*
X88934780Y-68542630D01*
X78072950Y-68542630D01*
X77486700Y-67956370D01*
X77480860Y-67950000D01*
X77479440Y-67948310D01*
X77455880Y-67920230D01*
X77422220Y-67900800D01*
X77414940Y-67896160D01*
X77412480Y-67894440D01*
X77383110Y-67873870D01*
X77374740Y-67871630D01*
X77369460Y-67869170D01*
X77363970Y-67867170D01*
X77356470Y-67862840D01*
X77347950Y-67861340D01*
X77318210Y-67856090D01*
X77309780Y-67854220D01*
X77280600Y-67846410D01*
X77272240Y-67844160D01*
X77263610Y-67844920D01*
X77233520Y-67847550D01*
X77224890Y-67847930D01*
X75739970Y-67847930D01*
X75681780Y-67829020D01*
X75661430Y-67809200D01*
X75627040Y-67764370D01*
X75612280Y-67745150D01*
X75486840Y-67648890D01*
X75340760Y-67588380D01*
X75184000Y-67567750D01*
X75027240Y-67588380D01*
X74881160Y-67648890D01*
X74755720Y-67745150D01*
X74659460Y-67870590D01*
X74598960Y-68016670D01*
X74578320Y-68173430D01*
X74598960Y-68330190D01*
X74659460Y-68476270D01*
X74755720Y-68601710D01*
X74881160Y-68697960D01*
X75027240Y-68758470D01*
X75184000Y-68779110D01*
X75340760Y-68758470D01*
X75486840Y-68697960D01*
X75612280Y-68601710D01*
X75661430Y-68537660D01*
X75711850Y-68503010D01*
X75739970Y-68498930D01*
X77067590Y-68498930D01*
X77125790Y-68517840D01*
X77137600Y-68527920D01*
X78984310Y-70374640D01*
X79012090Y-70429160D01*
X79002520Y-70489590D01*
X78959260Y-70532850D01*
X78914310Y-70543640D01*
X75739970Y-70543640D01*
X75681780Y-70524740D01*
X75661430Y-70504910D01*
X75616240Y-70446020D01*
X75612280Y-70440860D01*
X75486840Y-70344610D01*
X75340760Y-70284100D01*
X75184000Y-70263460D01*
X75027240Y-70284100D01*
X74881160Y-70344610D01*
X74755720Y-70440860D01*
X74659460Y-70566300D01*
X74598960Y-70712380D01*
X74578320Y-70869140D01*
X74598960Y-71025910D01*
X74659460Y-71171990D01*
X74755720Y-71297430D01*
X74881160Y-71393680D01*
X75027240Y-71454190D01*
X75184000Y-71474830D01*
X75340760Y-71454190D01*
X75486840Y-71393680D01*
X75612280Y-71297430D01*
X75661430Y-71233380D01*
X75711850Y-71198720D01*
X75739970Y-71194640D01*
X79127590Y-71194640D01*
X79185780Y-71213550D01*
X79197600Y-71223640D01*
X81044310Y-73070350D01*
X81072090Y-73124870D01*
X81062520Y-73185300D01*
X81019250Y-73228570D01*
X80974310Y-73239360D01*
X75739970Y-73239360D01*
X75681780Y-73220450D01*
X75661430Y-73200630D01*
X75616240Y-73141730D01*
X75612280Y-73136580D01*
X75486840Y-73040320D01*
X75340760Y-72979810D01*
X75196060Y-72960760D01*
X75190430Y-72960020D01*
X75184000Y-72959180D01*
X75177570Y-72960020D01*
X75171940Y-72960760D01*
X75027240Y-72979810D01*
X74881160Y-73040320D01*
X74755720Y-73136580D01*
X74659460Y-73262020D01*
X74598960Y-73408100D01*
X74578320Y-73564860D01*
X74598960Y-73721620D01*
X74659460Y-73867700D01*
X74755720Y-73993140D01*
X74881160Y-74089390D01*
X75027240Y-74149900D01*
X75184000Y-74170540D01*
X75340760Y-74149900D01*
X75486840Y-74089390D01*
X75612280Y-73993140D01*
X75661430Y-73929090D01*
X75711850Y-73894440D01*
X75739970Y-73890360D01*
X81187590Y-73890360D01*
X81245780Y-73909270D01*
X81257590Y-73919350D01*
X83104310Y-75766070D01*
X83132080Y-75820590D01*
X83122510Y-75881020D01*
X83079250Y-75924280D01*
X83034300Y-75935070D01*
X73897970Y-75935070D01*
X73839780Y-75916170D01*
X73819430Y-75896340D01*
X73807960Y-75881390D01*
X73770280Y-75832290D01*
X73644840Y-75736040D01*
X73498760Y-75675530D01*
X73342000Y-75654890D01*
X73185240Y-75675530D01*
X73039160Y-75736040D01*
X72913720Y-75832290D01*
X72817460Y-75957730D01*
X72756960Y-76103810D01*
X72736320Y-76260570D01*
X60295500Y-76260570D01*
X60295500Y-75935830D01*
X60314410Y-75877640D01*
X60324500Y-75865830D01*
X63725830Y-72464500D01*
X63780350Y-72436720D01*
X63795830Y-72435500D01*
X68489290Y-72435500D01*
X68547480Y-72454410D01*
X68583450Y-72503910D01*
X68587430Y-72521430D01*
X68594250Y-72572690D01*
X68595140Y-72578710D01*
X68605980Y-72644980D01*
X68606640Y-72648760D01*
X68609680Y-72665390D01*
X68611910Y-72677550D01*
X68611930Y-72677670D01*
X68612410Y-72680220D01*
X68612430Y-72680330D01*
X68618280Y-72710070D01*
X68618850Y-72712980D01*
X68619400Y-72715650D01*
X68625870Y-72746370D01*
X68626520Y-72749360D01*
X68632630Y-72776360D01*
X68633620Y-72780560D01*
X68633670Y-72780760D01*
X68633690Y-72780840D01*
X68638840Y-72801540D01*
X68638970Y-72802060D01*
X68641210Y-72810360D01*
X68645390Y-72824570D01*
X68659070Y-72859160D01*
X68661670Y-72864290D01*
X68662350Y-72865470D01*
X68662360Y-72865490D01*
X68667080Y-72873670D01*
X68672980Y-72883910D01*
X68728800Y-72940890D01*
X68802170Y-72972180D01*
X68823530Y-72972400D01*
X68877060Y-72972960D01*
X68877070Y-72972960D01*
X68881930Y-72973010D01*
X68884880Y-72972450D01*
X68886380Y-72972140D01*
X68892750Y-72970800D01*
X68892780Y-72970790D01*
X68893230Y-72970700D01*
X68895100Y-72970260D01*
X68904800Y-72968020D01*
X68904930Y-72967990D01*
X68905060Y-72967960D01*
X68905450Y-72967860D01*
X68907140Y-72967460D01*
X68907310Y-72967420D01*
X68925840Y-72962910D01*
X68927060Y-72962610D01*
X68949870Y-72956900D01*
X68950240Y-72956810D01*
X68952220Y-72956310D01*
X68953090Y-72956090D01*
X69016510Y-72940760D01*
X69017920Y-72940430D01*
X69089430Y-72924250D01*
X69090540Y-72924010D01*
X69133160Y-72914880D01*
X69168850Y-72907230D01*
X69169700Y-72907050D01*
X69252190Y-72890240D01*
X69252790Y-72890120D01*
X69336800Y-72873820D01*
X69337590Y-72873670D01*
X69420330Y-72858450D01*
X69421380Y-72858260D01*
X69428250Y-72857070D01*
X69501110Y-72844480D01*
X69501630Y-72844390D01*
X69509160Y-72843140D01*
X69510270Y-72842960D01*
X69597250Y-72829520D01*
X69703970Y-72813020D01*
X69706020Y-72812730D01*
X69767280Y-72804660D01*
X69896750Y-72787590D01*
X69898910Y-72787330D01*
X69915670Y-72785520D01*
X70090580Y-72766520D01*
X70092750Y-72766310D01*
X70287940Y-72749580D01*
X70289990Y-72749430D01*
X70491410Y-72736530D01*
X70493320Y-72736420D01*
X70556560Y-72733630D01*
X70704610Y-72727100D01*
X70705510Y-72727060D01*
X70891870Y-72720550D01*
X70895790Y-72720410D01*
X70920120Y-72715650D01*
X70950430Y-72709720D01*
X70959070Y-72708030D01*
X70966580Y-72703440D01*
X70966810Y-72703350D01*
X71027890Y-72699900D01*
X71040700Y-72704230D01*
X71050470Y-72708290D01*
X71114150Y-72721060D01*
X71123790Y-72722030D01*
X71164490Y-72722090D01*
X71165130Y-72722100D01*
X71176490Y-72722190D01*
X71177680Y-72722200D01*
X71208550Y-72722820D01*
X71209440Y-72722850D01*
X71249380Y-72724010D01*
X71249950Y-72724030D01*
X71297490Y-72725690D01*
X71297920Y-72725700D01*
X71349240Y-72727720D01*
X71349610Y-72727740D01*
X71404650Y-72730110D01*
X71405000Y-72730130D01*
X71460110Y-72732700D01*
X71460480Y-72732720D01*
X71514900Y-72735460D01*
X71515320Y-72735480D01*
X71566540Y-72738280D01*
X71567090Y-72738310D01*
X71613180Y-72741090D01*
X71613570Y-72741110D01*
X71618580Y-72741430D01*
X71620170Y-72741540D01*
X71905580Y-72764440D01*
X71908710Y-72764750D01*
X71939470Y-72768200D01*
X71952530Y-72765520D01*
X71954080Y-72763820D01*
X71955050Y-72759370D01*
X71955050Y-71727520D01*
X72355050Y-71727520D01*
X72355050Y-72804660D01*
X72359170Y-72817340D01*
X72365350Y-72821830D01*
X72465370Y-72836360D01*
X72468620Y-72836890D01*
X72737210Y-72885080D01*
X72740550Y-72885730D01*
X73005730Y-72942780D01*
X73007230Y-72943110D01*
X73018260Y-72945670D01*
X73019820Y-72946020D01*
X73052800Y-72953380D01*
X73052970Y-72953420D01*
X73055390Y-72953940D01*
X73055540Y-72953970D01*
X73083990Y-72959940D01*
X73084450Y-72960040D01*
X73087470Y-72960640D01*
X73088100Y-72960760D01*
X73110250Y-72965000D01*
X73111150Y-72965170D01*
X73117000Y-72966190D01*
X73117920Y-72966340D01*
X73131190Y-72968420D01*
X73134550Y-72968830D01*
X73158620Y-72970950D01*
X73161580Y-72971110D01*
X73171650Y-72970260D01*
X73239350Y-72957430D01*
X73257530Y-72949970D01*
X73307160Y-72916640D01*
X73320660Y-72903090D01*
X73356620Y-72849000D01*
X73361130Y-72840510D01*
X73362210Y-72837640D01*
X73369680Y-72815470D01*
X73370610Y-72812360D01*
X73374120Y-72799150D01*
X73374340Y-72798320D01*
X73375880Y-72792070D01*
X73376070Y-72791250D01*
X73381080Y-72769270D01*
X73381240Y-72768560D01*
X73381870Y-72765680D01*
X73381960Y-72765230D01*
X73387910Y-72736910D01*
X73387920Y-72736850D01*
X73388320Y-72734890D01*
X73388400Y-72734500D01*
X73394830Y-72702060D01*
X73395170Y-72700270D01*
X73395190Y-72700160D01*
X73401760Y-72665390D01*
X73401800Y-72665170D01*
X73402080Y-72663680D01*
X73402090Y-72663610D01*
X73408460Y-72628250D01*
X73408740Y-72626650D01*
X73408820Y-72626210D01*
X73414620Y-72592170D01*
X73414650Y-72592030D01*
X73415010Y-72589810D01*
X73415050Y-72589560D01*
X73419930Y-72558780D01*
X73419990Y-72558420D01*
X73420460Y-72555270D01*
X73420540Y-72554670D01*
X73424170Y-72528900D01*
X73424250Y-72528310D01*
X73424750Y-72524420D01*
X73424810Y-72523910D01*
X73427560Y-72500730D01*
X73427600Y-72500440D01*
X73427890Y-72497800D01*
X73427940Y-72497300D01*
X73432060Y-72457450D01*
X73432070Y-72457330D01*
X73432320Y-72454760D01*
X73432350Y-72454410D01*
X73435990Y-72413510D01*
X73435990Y-72413410D01*
X73436250Y-72410310D01*
X73436270Y-72409980D01*
X73438830Y-72374570D01*
X73438890Y-72373590D01*
X73439240Y-72367210D01*
X73439280Y-72366280D01*
X73443070Y-72261360D01*
X73443100Y-72259900D01*
X73443170Y-72249330D01*
X73443150Y-72247850D01*
X73439620Y-72094470D01*
X73439550Y-72092790D01*
X73438820Y-72080210D01*
X73438690Y-72078520D01*
X73424490Y-71926480D01*
X73424300Y-71924810D01*
X73422700Y-71912330D01*
X73422450Y-71910670D01*
X73397720Y-71760350D01*
X73397420Y-71758690D01*
X73394950Y-71746390D01*
X73394600Y-71744770D01*
X73392170Y-71734530D01*
X73385230Y-71723140D01*
X73375980Y-71719280D01*
X72370730Y-71719280D01*
X72358040Y-71723400D01*
X72355050Y-71727520D01*
X71955050Y-71727520D01*
X71955050Y-71303600D01*
X71955050Y-70213910D01*
X72355050Y-70213910D01*
X72355050Y-71303600D01*
X72359170Y-71316280D01*
X72363290Y-71319280D01*
X73249310Y-71319280D01*
X73259130Y-71316090D01*
X73258760Y-71303300D01*
X73249240Y-71278900D01*
X73248620Y-71277390D01*
X73243680Y-71265920D01*
X73242960Y-71264310D01*
X73177610Y-71126030D01*
X73176830Y-71124460D01*
X73171130Y-71113410D01*
X73170300Y-71111870D01*
X73095130Y-70977790D01*
X73094270Y-70976330D01*
X73087800Y-70965670D01*
X73086880Y-70964220D01*
X73001830Y-70834570D01*
X73001320Y-70833800D01*
X72997410Y-70828090D01*
X72996940Y-70827410D01*
X72988350Y-70815360D01*
X72987780Y-70814580D01*
X72983750Y-70809130D01*
X72983070Y-70808240D01*
X72888790Y-70686100D01*
X72887760Y-70684810D01*
X72879800Y-70675200D01*
X72878650Y-70673870D01*
X72776610Y-70559140D01*
X72775490Y-70557920D01*
X72766940Y-70548950D01*
X72765760Y-70547750D01*
X72656240Y-70440510D01*
X72655070Y-70439410D01*
X72645940Y-70431060D01*
X72644690Y-70429960D01*
X72528280Y-70330680D01*
X72526940Y-70329570D01*
X72517310Y-70321920D01*
X72516040Y-70320940D01*
X72393210Y-70229950D01*
X72391800Y-70228950D01*
X72381680Y-70221970D01*
X72380270Y-70221040D01*
X72368260Y-70213360D01*
X72357240Y-70210490D01*
X72355050Y-70213910D01*
X71955050Y-70213910D01*
X71955050Y-70004290D01*
X71949950Y-69988610D01*
X71944150Y-69983860D01*
X71937590Y-69981120D01*
X71935940Y-69980470D01*
X71792310Y-69926440D01*
X71791430Y-69926120D01*
X71784640Y-69923720D01*
X71783710Y-69923400D01*
X71769600Y-69918730D01*
X71767500Y-69918050D01*
X71767030Y-69917890D01*
X71734970Y-69907710D01*
X71734550Y-69907580D01*
X71732480Y-69906940D01*
X71731880Y-69906750D01*
X71698560Y-69896650D01*
X71698310Y-69896580D01*
X71696100Y-69895920D01*
X71663230Y-69886370D01*
X71662750Y-69886240D01*
X71660720Y-69885660D01*
X71660410Y-69885570D01*
X71630220Y-69877220D01*
X71629800Y-69877100D01*
X71626880Y-69876320D01*
X71626640Y-69876260D01*
X71601250Y-69869670D01*
X71600460Y-69869470D01*
X71595650Y-69868300D01*
X71594940Y-69868130D01*
X71576900Y-69863990D01*
X71575000Y-69863600D01*
X71561250Y-69861000D01*
X71559310Y-69860680D01*
X71552380Y-69859650D01*
X71546610Y-69859130D01*
X71509750Y-69858010D01*
X71494520Y-69859940D01*
X71434940Y-69877250D01*
X71417970Y-69886060D01*
X71367280Y-69926670D01*
X71360820Y-69932970D01*
X71357630Y-69937320D01*
X71332690Y-69976250D01*
X71329610Y-69981830D01*
X71324450Y-69992770D01*
X71323830Y-69994150D01*
X71319350Y-70004480D01*
X71318770Y-70005890D01*
X71309990Y-70028030D01*
X71309810Y-70028480D01*
X71307920Y-70033460D01*
X71307740Y-70033940D01*
X71296700Y-70064280D01*
X71295630Y-70067300D01*
X71295430Y-70067880D01*
X71282880Y-70104260D01*
X71282700Y-70104810D01*
X71282020Y-70106820D01*
X71268010Y-70149040D01*
X71267870Y-70149440D01*
X71267360Y-70151000D01*
X71252300Y-70197790D01*
X71252250Y-70197970D01*
X71251830Y-70199280D01*
X71236130Y-70249370D01*
X71236060Y-70249580D01*
X71235720Y-70250710D01*
X71219700Y-70303050D01*
X71219670Y-70303160D01*
X71219310Y-70304360D01*
X71219290Y-70304400D01*
X71203320Y-70357900D01*
X71203280Y-70358040D01*
X71202920Y-70359250D01*
X71202910Y-70359270D01*
X71202870Y-70359410D01*
X71187290Y-70412940D01*
X71186880Y-70414370D01*
X71186820Y-70414570D01*
X71171970Y-70467040D01*
X71171920Y-70467220D01*
X71171480Y-70468790D01*
X71171370Y-70469200D01*
X71157620Y-70519430D01*
X71157490Y-70519920D01*
X71156990Y-70521770D01*
X71144430Y-70569600D01*
X71144150Y-70570670D01*
X71144090Y-70570930D01*
X71143590Y-70572870D01*
X71143500Y-70573230D01*
X71142770Y-70576170D01*
X71142690Y-70576510D01*
X71102940Y-70743720D01*
X71071080Y-70795960D01*
X71014610Y-70819500D01*
X70955080Y-70805350D01*
X70915240Y-70758910D01*
X70909950Y-70742180D01*
X70894300Y-70671330D01*
X70894290Y-70671280D01*
X70894200Y-70670890D01*
X70892370Y-70663270D01*
X70829960Y-70424560D01*
X70829910Y-70424400D01*
X70829900Y-70424340D01*
X70828890Y-70420650D01*
X70828880Y-70420630D01*
X70828850Y-70420500D01*
X70827660Y-70416290D01*
X70827260Y-70414930D01*
X70815820Y-70375620D01*
X70815250Y-70373690D01*
X70802410Y-70331140D01*
X70801940Y-70329610D01*
X70788120Y-70285080D01*
X70787710Y-70283770D01*
X70773330Y-70238520D01*
X70772940Y-70237310D01*
X70771020Y-70231380D01*
X70758510Y-70192830D01*
X70758490Y-70192780D01*
X70758430Y-70192580D01*
X70758030Y-70191370D01*
X70743790Y-70148420D01*
X70743340Y-70147080D01*
X70729810Y-70107170D01*
X70729250Y-70105550D01*
X70716840Y-70069930D01*
X70716040Y-70067700D01*
X70711570Y-70055330D01*
X70705250Y-70037830D01*
X70705220Y-70037750D01*
X70705170Y-70037620D01*
X70703830Y-70034030D01*
X70699340Y-70022300D01*
X70695100Y-70011230D01*
X70695100Y-70011220D01*
X70694920Y-70010750D01*
X70691870Y-70003230D01*
X70685330Y-69988010D01*
X70670350Y-69959520D01*
X70666620Y-69953610D01*
X70648280Y-69931610D01*
X70637440Y-69918600D01*
X70632230Y-69912350D01*
X70564150Y-69870790D01*
X70528840Y-69865270D01*
X70490140Y-69859210D01*
X70485340Y-69858460D01*
X70477100Y-69858800D01*
X70475240Y-69859020D01*
X70448390Y-69862160D01*
X70448380Y-69862160D01*
X70446550Y-69862370D01*
X70429500Y-69865680D01*
X70429030Y-69865790D01*
X70429020Y-69865790D01*
X70421040Y-69867520D01*
X70421030Y-69867520D01*
X70420520Y-69867640D01*
X70409890Y-69870200D01*
X70396680Y-69873380D01*
X70396610Y-69873400D01*
X70396400Y-69873450D01*
X70391720Y-69874640D01*
X70362240Y-69882490D01*
X70362050Y-69882540D01*
X70362000Y-69882560D01*
X70359260Y-69883310D01*
X70359220Y-69883320D01*
X70358970Y-69883390D01*
X70349570Y-69886060D01*
X70326000Y-69892760D01*
X70325940Y-69892780D01*
X70325840Y-69892800D01*
X70325750Y-69892830D01*
X70323050Y-69893620D01*
X70288210Y-69904060D01*
X70288130Y-69904080D01*
X70288000Y-69904120D01*
X70287720Y-69904200D01*
X70285380Y-69904920D01*
X70285330Y-69904940D01*
X70285210Y-69904980D01*
X70285070Y-69905020D01*
X70250070Y-69916050D01*
X70249990Y-69916080D01*
X70249930Y-69916090D01*
X70249870Y-69916110D01*
X70249810Y-69916130D01*
X70248920Y-69916420D01*
X70246730Y-69917130D01*
X70212960Y-69928390D01*
X70204510Y-69931410D01*
X70063760Y-69985310D01*
X70050800Y-69990790D01*
X69911010Y-70055670D01*
X69910270Y-70056040D01*
X69910260Y-70056050D01*
X69899150Y-70061680D01*
X69899130Y-70061690D01*
X69898390Y-70062070D01*
X69897680Y-70062460D01*
X69897650Y-70062480D01*
X69764830Y-70135680D01*
X69764070Y-70136100D01*
X69752020Y-70143290D01*
X69744070Y-70148420D01*
X69624280Y-70225600D01*
X69624260Y-70225620D01*
X69623570Y-70226060D01*
X69622890Y-70226540D01*
X69622880Y-70226540D01*
X69619420Y-70228950D01*
X69612120Y-70234010D01*
X69611470Y-70234490D01*
X69611460Y-70234500D01*
X69490610Y-70324600D01*
X69489940Y-70325100D01*
X69489290Y-70325620D01*
X69489280Y-70325630D01*
X69479770Y-70333230D01*
X69479750Y-70333240D01*
X69479100Y-70333760D01*
X69478460Y-70334310D01*
X69478450Y-70334320D01*
X69372820Y-70424840D01*
X69363590Y-70432750D01*
X69353400Y-70442100D01*
X69352790Y-70442700D01*
X69352770Y-70442710D01*
X69245530Y-70548000D01*
X69245510Y-70548020D01*
X69244950Y-70548570D01*
X69235420Y-70558580D01*
X69177940Y-70623200D01*
X69135020Y-70671450D01*
X69135000Y-70671470D01*
X69134430Y-70672120D01*
X69125580Y-70682760D01*
X69125070Y-70683430D01*
X69125060Y-70683440D01*
X69072940Y-70750690D01*
X69032450Y-70802950D01*
X69024320Y-70814210D01*
X68939430Y-70940620D01*
X68932050Y-70952470D01*
X68931630Y-70953200D01*
X68931620Y-70953210D01*
X68893420Y-71019470D01*
X68855820Y-71084700D01*
X68855410Y-71085460D01*
X68855410Y-71085470D01*
X68850230Y-71095210D01*
X68849210Y-71097120D01*
X68835870Y-71124460D01*
X68786100Y-71226390D01*
X68782030Y-71234740D01*
X68776250Y-71247690D01*
X68718510Y-71390290D01*
X68718220Y-71391080D01*
X68718220Y-71391090D01*
X68713910Y-71402890D01*
X68713900Y-71402920D01*
X68713600Y-71403740D01*
X68713330Y-71404590D01*
X68665930Y-71550200D01*
X68665920Y-71550240D01*
X68665700Y-71550890D01*
X68662180Y-71562980D01*
X68630550Y-71685250D01*
X68627870Y-71697060D01*
X68627740Y-71697710D01*
X68627730Y-71697760D01*
X68626390Y-71704570D01*
X68596630Y-71758030D01*
X68541130Y-71783780D01*
X68529250Y-71784500D01*
X63638540Y-71784500D01*
X63629910Y-71784120D01*
X63626030Y-71783780D01*
X63591190Y-71780740D01*
X63582830Y-71782980D01*
X63553650Y-71790800D01*
X63545220Y-71792660D01*
X63531110Y-71795150D01*
X63506960Y-71799410D01*
X63499450Y-71803740D01*
X63493960Y-71805740D01*
X63488680Y-71808200D01*
X63480320Y-71810450D01*
X63450940Y-71831010D01*
X63448490Y-71832730D01*
X63441210Y-71837370D01*
X63407550Y-71856810D01*
X63393510Y-71873530D01*
X63382570Y-71886570D01*
X63376740Y-71892940D01*
X59752940Y-75516730D01*
X59746580Y-75522570D01*
X59716810Y-75547550D01*
X59712480Y-75555040D01*
X59697370Y-75581210D01*
X59692730Y-75588490D01*
X59670450Y-75620320D01*
X59668200Y-75628680D01*
X59665740Y-75633970D01*
X59663740Y-75639460D01*
X59659410Y-75646960D01*
X59657910Y-75655480D01*
X59652670Y-75685220D01*
X59650800Y-75693650D01*
X59640740Y-75731190D01*
X58590000Y-75731190D01*
X58590000Y-72916750D01*
X58590020Y-72914880D01*
X58590170Y-72907040D01*
X58590830Y-72871830D01*
X58584660Y-72858370D01*
X58578150Y-72839150D01*
X58577330Y-72835580D01*
X58574850Y-72824710D01*
X58567900Y-72815990D01*
X58566850Y-72813790D01*
X58558950Y-72800940D01*
X58557460Y-72799010D01*
X58552820Y-72788880D01*
X58541420Y-72779420D01*
X58527210Y-72764920D01*
X58517990Y-72753350D01*
X58507940Y-72748500D01*
X58506040Y-72746980D01*
X58493350Y-72738830D01*
X58491170Y-72737730D01*
X58482600Y-72730610D01*
X58471780Y-72727920D01*
X58468230Y-72727040D01*
X58449140Y-72720140D01*
X58445840Y-72718550D01*
X58435800Y-72713710D01*
X58424650Y-72713700D01*
X58422280Y-72713150D01*
X58407300Y-72711310D01*
X58404870Y-72711260D01*
X58394050Y-72708570D01*
X58383130Y-72710830D01*
X58371990Y-72710610D01*
X58372010Y-72709620D01*
X58362140Y-72710070D01*
X58249160Y-72697010D01*
X58230410Y-72692970D01*
X58101080Y-72651670D01*
X58083460Y-72644090D01*
X57964530Y-72578610D01*
X57948700Y-72567770D01*
X57844640Y-72480590D01*
X57831190Y-72466910D01*
X57745900Y-72361290D01*
X57735350Y-72345270D01*
X57672020Y-72225180D01*
X57664760Y-72207420D01*
X57625790Y-72077370D01*
X57622090Y-72058540D01*
X57611090Y-71945580D01*
X57610630Y-71935810D01*
X57610640Y-71925060D01*
X57613140Y-71914190D01*
X57610440Y-71902250D01*
X57608000Y-71880400D01*
X57608000Y-70043580D01*
X58425900Y-70043580D01*
X58461980Y-70279360D01*
X58501850Y-70401330D01*
X58523380Y-70467220D01*
X58536080Y-70506070D01*
X58537960Y-70509670D01*
X58640360Y-70706390D01*
X58646220Y-70717640D01*
X58789430Y-70908380D01*
X58961870Y-71073170D01*
X58965220Y-71075460D01*
X58965230Y-71075460D01*
X59155560Y-71205290D01*
X59158910Y-71207580D01*
X59162590Y-71209290D01*
X59162600Y-71209290D01*
X59219140Y-71235540D01*
X59375260Y-71308000D01*
X59379170Y-71309090D01*
X59601180Y-71370660D01*
X59605100Y-71371750D01*
X59609150Y-71372180D01*
X59666570Y-71378320D01*
X59799820Y-71392560D01*
X59938290Y-71392560D01*
X59940320Y-71392390D01*
X59940330Y-71392390D01*
X60111500Y-71378320D01*
X60111500Y-71378310D01*
X60115550Y-71377980D01*
X60119480Y-71376990D01*
X60279850Y-71336710D01*
X60346880Y-71319880D01*
X60456250Y-71272320D01*
X60561880Y-71226390D01*
X60565610Y-71224770D01*
X60672600Y-71155560D01*
X60762460Y-71097420D01*
X60762470Y-71097420D01*
X60765880Y-71095210D01*
X60942290Y-70934680D01*
X60946200Y-70929730D01*
X61087610Y-70750690D01*
X61087610Y-70750680D01*
X61090120Y-70747500D01*
X61136870Y-70662810D01*
X61203430Y-70542240D01*
X61205390Y-70538690D01*
X61207460Y-70532850D01*
X61269410Y-70357900D01*
X61285010Y-70313850D01*
X61326840Y-70079030D01*
X61326950Y-70069930D01*
X61328640Y-69931610D01*
X61329760Y-69840530D01*
X61293680Y-69604750D01*
X61225310Y-69395580D01*
X61220840Y-69381890D01*
X61220830Y-69381890D01*
X61219570Y-69378040D01*
X61109440Y-69166470D01*
X60966230Y-68975730D01*
X60793790Y-68810940D01*
X60790440Y-68808660D01*
X60790430Y-68808650D01*
X60600100Y-68678820D01*
X60596750Y-68676530D01*
X60593070Y-68674820D01*
X60593060Y-68674820D01*
X60495720Y-68629640D01*
X60380400Y-68576110D01*
X60334020Y-68563240D01*
X60154480Y-68513450D01*
X60150560Y-68512360D01*
X60146510Y-68511930D01*
X60062980Y-68503010D01*
X59955840Y-68491560D01*
X59817370Y-68491560D01*
X59815340Y-68491720D01*
X59815330Y-68491720D01*
X59644160Y-68505800D01*
X59640110Y-68506130D01*
X59636180Y-68507120D01*
X59636170Y-68507120D01*
X59512740Y-68538120D01*
X59408780Y-68564230D01*
X59190050Y-68659340D01*
X59130350Y-68697960D01*
X58993190Y-68786690D01*
X58989780Y-68788900D01*
X58813370Y-68949430D01*
X58810850Y-68952610D01*
X58810850Y-68952620D01*
X58668050Y-69133420D01*
X58668050Y-69133430D01*
X58665540Y-69136610D01*
X58550270Y-69345420D01*
X58548910Y-69349250D01*
X58492700Y-69507980D01*
X58470650Y-69570260D01*
X58428820Y-69805080D01*
X58428770Y-69809140D01*
X58428770Y-69809150D01*
X58427440Y-69917890D01*
X58425900Y-70043580D01*
X57608000Y-70043580D01*
X57608000Y-68113960D01*
X57610520Y-68091770D01*
X57613140Y-68080360D01*
X57610680Y-68069480D01*
X57610700Y-68058340D01*
X57610860Y-68058340D01*
X57610080Y-68048330D01*
X57616900Y-67944240D01*
X57622980Y-67851530D01*
X57624660Y-67838700D01*
X57668070Y-67620480D01*
X57671420Y-67607980D01*
X57742930Y-67397320D01*
X57747890Y-67385350D01*
X57846290Y-67185820D01*
X57852760Y-67174610D01*
X57976360Y-66989620D01*
X57984240Y-66979350D01*
X58130930Y-66812090D01*
X58140090Y-66802930D01*
X58307350Y-66656240D01*
X58317620Y-66648360D01*
X58502610Y-66524760D01*
X58513820Y-66518290D01*
X58713350Y-66419890D01*
X58725320Y-66414930D01*
X58935980Y-66343420D01*
X58948490Y-66340070D01*
X59166700Y-66296660D01*
X59179520Y-66294980D01*
X59375820Y-66282110D01*
X59385630Y-66282900D01*
X59385630Y-66282630D01*
X59396780Y-66282650D01*
X59407640Y-66285140D01*
X59418510Y-66282680D01*
X59418520Y-66282680D01*
X59419580Y-66282440D01*
X59441430Y-66280000D01*
X126856040Y-66280000D01*
X126878230Y-66282520D01*
G37*
%TD.AperFunction*%
D11*
X73542000Y-78956290D02*
G75*
G02*
X73142000Y-78956290I-200000J0D01*
G01*
X73142000Y-78956290D02*
G75*
G02*
X73542000Y-78956290I200000J0D01*
G01*
D10*
%TA.AperFunction,NonConductor*%
G36*
X123688140Y-79797280D02*
G01*
X123673090Y-79787250D01*
X123665940Y-79783510D01*
X123641560Y-79769420D01*
X123608340Y-79749620D01*
X123607470Y-79749100D01*
X123403660Y-79613500D01*
X123215020Y-79462040D01*
X123042340Y-79295790D01*
X122886420Y-79115790D01*
X122748050Y-78923110D01*
X122628030Y-78718810D01*
X122527130Y-78503940D01*
X122446170Y-78279570D01*
X122408870Y-78146390D01*
X122379730Y-78021290D01*
X122358350Y-77906230D01*
X122343840Y-77793730D01*
X122335300Y-77676280D01*
X122331830Y-77546380D01*
X122331640Y-77502930D01*
X122340380Y-77271060D01*
X122367150Y-77050270D01*
X122412750Y-76837000D01*
X122478000Y-76627710D01*
X122563720Y-76418850D01*
X122595640Y-76351460D01*
X122703720Y-76154540D01*
X122831230Y-75965020D01*
X122975830Y-75785400D01*
X123135200Y-75618190D01*
X123306980Y-75465900D01*
X123488850Y-75331030D01*
X123625450Y-75245700D01*
X123662900Y-75224110D01*
X123688140Y-75207280D01*
X123688140Y-79797280D01*
G37*
%TD.AperFunction*%
D12*
X97140010Y-73074190D02*
G75*
G02*
X96140010Y-73074190I-500000J0D01*
G01*
X96140010Y-73074190D02*
G75*
G02*
X97140010Y-73074190I500000J0D01*
G01*
D11*
X63542000Y-87043430D02*
G75*
G02*
X63142000Y-87043430I-200000J0D01*
G01*
X63142000Y-87043430D02*
G75*
G02*
X63542000Y-87043430I200000J0D01*
G01*
D10*
%TA.AperFunction,NonConductor*%
G36*
X107386590Y-78947520D02*
G01*
X107415980Y-78962570D01*
X107460770Y-78985930D01*
X107518740Y-79016400D01*
X107587640Y-79052810D01*
X107665250Y-79093940D01*
X107749320Y-79138620D01*
X107837620Y-79185660D01*
X107927910Y-79233850D01*
X108017960Y-79282010D01*
X108105520Y-79328950D01*
X108188360Y-79373480D01*
X108264240Y-79414400D01*
X108330930Y-79450530D01*
X108380350Y-79477470D01*
X108461660Y-79521980D01*
X108395980Y-79622020D01*
X108291430Y-79798000D01*
X108195940Y-79993130D01*
X108110090Y-80205620D01*
X108034460Y-80433700D01*
X107969640Y-80675580D01*
X107916220Y-80929480D01*
X107874770Y-81193620D01*
X107871370Y-81220040D01*
X107859100Y-81321050D01*
X107849160Y-81412940D01*
X107841320Y-81499910D01*
X107835370Y-81586160D01*
X107831080Y-81675910D01*
X107828240Y-81773350D01*
X107826620Y-81882690D01*
X107826000Y-82008150D01*
X107826010Y-82083570D01*
X107828000Y-82280800D01*
X107833350Y-82468470D01*
X107841880Y-82644960D01*
X107853440Y-82808640D01*
X107867880Y-82957880D01*
X107885040Y-83091040D01*
X107904760Y-83206500D01*
X107926900Y-83302640D01*
X107949620Y-83373560D01*
X107949160Y-83379850D01*
X107942320Y-83388160D01*
X107927400Y-83399450D01*
X107902660Y-83414660D01*
X107866400Y-83434740D01*
X107816900Y-83460620D01*
X107752440Y-83493270D01*
X107671310Y-83533620D01*
X107571780Y-83582610D01*
X107554930Y-83590870D01*
X107466690Y-83634100D01*
X107384950Y-83674060D01*
X107311890Y-83709680D01*
X107249680Y-83739920D01*
X107200520Y-83763710D01*
X107166580Y-83779990D01*
X107150040Y-83787700D01*
X107148780Y-83788190D01*
X107143670Y-83778300D01*
X107133080Y-83751740D01*
X107118840Y-83713230D01*
X107110370Y-83689410D01*
X107099180Y-83656190D01*
X107090300Y-83625400D01*
X107083180Y-83593250D01*
X107077290Y-83555980D01*
X107072100Y-83509800D01*
X107067080Y-83450950D01*
X107061680Y-83375650D01*
X107057950Y-83319700D01*
X107048370Y-83171550D01*
X107040320Y-83041540D01*
X107033640Y-82925280D01*
X107028150Y-82818400D01*
X107023670Y-82716520D01*
X107020030Y-82615270D01*
X107017060Y-82510250D01*
X107014580Y-82397110D01*
X107012420Y-82271450D01*
X107010410Y-82128900D01*
X107010330Y-82123080D01*
X107009490Y-81686930D01*
X107018640Y-81270880D01*
X107037770Y-80874950D01*
X107066880Y-80499180D01*
X107105980Y-80143580D01*
X107155050Y-79808180D01*
X107202960Y-79547160D01*
X107225420Y-79440150D01*
X107248520Y-79337970D01*
X107271630Y-79242810D01*
X107294140Y-79156860D01*
X107315420Y-79082320D01*
X107334840Y-79021400D01*
X107351780Y-78976280D01*
X107365620Y-78949170D01*
X107374860Y-78941970D01*
X107386590Y-78947520D01*
G37*
%TD.AperFunction*%
%TA.AperFunction,NonConductor*%
G36*
X102625410Y-100721440D02*
G01*
X101981470Y-100721440D01*
X101337520Y-100721440D01*
X101060710Y-100998270D01*
X100783910Y-101275100D01*
X100783910Y-102562940D01*
X99351190Y-102562940D01*
X99351190Y-101279070D01*
X98805500Y-100733340D01*
X97662460Y-100733340D01*
X97391610Y-101004220D01*
X97120750Y-101275100D01*
X97120750Y-101919020D01*
X97120750Y-102562940D01*
X95688030Y-102562940D01*
X95688030Y-101130220D01*
X96975910Y-101130220D01*
X97246770Y-100859340D01*
X97517620Y-100588460D01*
X97517620Y-99300620D01*
X98950340Y-99300620D01*
X98950340Y-100588510D01*
X99221220Y-100859360D01*
X99492100Y-101130220D01*
X100639070Y-101130220D01*
X100915880Y-100853390D01*
X101192690Y-100576560D01*
X101192690Y-98800560D01*
X102625410Y-98800560D01*
X102625410Y-100721440D01*
G37*
%TD.AperFunction*%
%TA.AperFunction,NonConductor*%
G36*
X106373530Y-80377540D02*
G01*
X106383780Y-80404060D01*
X106397860Y-80442530D01*
X106406370Y-80466440D01*
X106414480Y-80490300D01*
X106421600Y-80514150D01*
X106427940Y-80539880D01*
X106433680Y-80569420D01*
X106439010Y-80604680D01*
X106444130Y-80647590D01*
X106449220Y-80700040D01*
X106454480Y-80763970D01*
X106460080Y-80841280D01*
X106466230Y-80933900D01*
X106473110Y-81043730D01*
X106480920Y-81172700D01*
X106487760Y-81287700D01*
X106491990Y-81373490D01*
X106495760Y-81478390D01*
X106499040Y-81598960D01*
X106501820Y-81731730D01*
X106504060Y-81873250D01*
X106505730Y-82020070D01*
X106506820Y-82168720D01*
X106507300Y-82315760D01*
X106507140Y-82457730D01*
X106506320Y-82591170D01*
X106504800Y-82712630D01*
X106502570Y-82818640D01*
X106499760Y-82902010D01*
X106480070Y-83269160D01*
X106453230Y-83615670D01*
X106419270Y-83941430D01*
X106378200Y-84246290D01*
X106330040Y-84530130D01*
X106274820Y-84792820D01*
X106212540Y-85034230D01*
X106191360Y-85106170D01*
X106176470Y-85153240D01*
X106163390Y-85190960D01*
X106153730Y-85214940D01*
X106149540Y-85221250D01*
X106138620Y-85215940D01*
X106109670Y-85200880D01*
X106064510Y-85177070D01*
X106004990Y-85145470D01*
X105932940Y-85107070D01*
X105850200Y-85062840D01*
X105758600Y-85013760D01*
X105659980Y-84960810D01*
X105603820Y-84930610D01*
X105502310Y-84875870D01*
X105407040Y-84824230D01*
X105319810Y-84776710D01*
X105242440Y-84734290D01*
X105176740Y-84697980D01*
X105124510Y-84668770D01*
X105087580Y-84647660D01*
X105067740Y-84635660D01*
X105064780Y-84633300D01*
X105070450Y-84621300D01*
X105085780Y-84594600D01*
X105108230Y-84557530D01*
X105127890Y-84526010D01*
X105241380Y-84327530D01*
X105343100Y-84110690D01*
X105432730Y-83876580D01*
X105509950Y-83626300D01*
X105574430Y-83360970D01*
X105625840Y-83081670D01*
X105663860Y-82789510D01*
X105674160Y-82681880D01*
X105683430Y-82552000D01*
X105689790Y-82411700D01*
X105693380Y-82263500D01*
X105694310Y-82109950D01*
X105692700Y-81953580D01*
X105688680Y-81796930D01*
X105682380Y-81642520D01*
X105673910Y-81492890D01*
X105663400Y-81350580D01*
X105650970Y-81218120D01*
X105636750Y-81098060D01*
X105620860Y-80992910D01*
X105603430Y-80905220D01*
X105584560Y-80837520D01*
X105584450Y-80837200D01*
X105572480Y-80801810D01*
X105564170Y-80776040D01*
X105561490Y-80766230D01*
X105571190Y-80760770D01*
X105598550Y-80746690D01*
X105640950Y-80725290D01*
X105695750Y-80697850D01*
X105760330Y-80665670D01*
X105832080Y-80630050D01*
X105908360Y-80592290D01*
X105986550Y-80553670D01*
X106064030Y-80515500D01*
X106138160Y-80479070D01*
X106206340Y-80445680D01*
X106265920Y-80416620D01*
X106314290Y-80393180D01*
X106348830Y-80376680D01*
X106366900Y-80368380D01*
X106368910Y-80367660D01*
X106373530Y-80377540D01*
G37*
%TD.AperFunction*%
%TA.AperFunction,NonConductor*%
G36*
X120483560Y-75802540D02*
G01*
X120493810Y-75829060D01*
X120507890Y-75867530D01*
X120516400Y-75891440D01*
X120524510Y-75915300D01*
X120531630Y-75939150D01*
X120537970Y-75964880D01*
X120543710Y-75994420D01*
X120549040Y-76029680D01*
X120554160Y-76072590D01*
X120559250Y-76125040D01*
X120564510Y-76188970D01*
X120570110Y-76266280D01*
X120576260Y-76358900D01*
X120583140Y-76468730D01*
X120590950Y-76597700D01*
X120597790Y-76712700D01*
X120602020Y-76798490D01*
X120605790Y-76903390D01*
X120609070Y-77023960D01*
X120611850Y-77156730D01*
X120614090Y-77298250D01*
X120615760Y-77445070D01*
X120616850Y-77593720D01*
X120617330Y-77740760D01*
X120617170Y-77882730D01*
X120616350Y-78016170D01*
X120614830Y-78137630D01*
X120612600Y-78243640D01*
X120609790Y-78327010D01*
X120590100Y-78694160D01*
X120563260Y-79040670D01*
X120529300Y-79366430D01*
X120488230Y-79671290D01*
X120440070Y-79955130D01*
X120384850Y-80217820D01*
X120322570Y-80459230D01*
X120301390Y-80531170D01*
X120286500Y-80578240D01*
X120273420Y-80615960D01*
X120263760Y-80639940D01*
X120259570Y-80646250D01*
X120248650Y-80640940D01*
X120219700Y-80625880D01*
X120174540Y-80602070D01*
X120115020Y-80570470D01*
X120042970Y-80532070D01*
X119960230Y-80487840D01*
X119868630Y-80438760D01*
X119770010Y-80385810D01*
X119713850Y-80355610D01*
X119612340Y-80300870D01*
X119517070Y-80249230D01*
X119429840Y-80201710D01*
X119352470Y-80159290D01*
X119286770Y-80122980D01*
X119234540Y-80093770D01*
X119197610Y-80072660D01*
X119177770Y-80060660D01*
X119174810Y-80058300D01*
X119180480Y-80046300D01*
X119195810Y-80019600D01*
X119218260Y-79982530D01*
X119237920Y-79951010D01*
X119351410Y-79752530D01*
X119453130Y-79535690D01*
X119542760Y-79301580D01*
X119619980Y-79051300D01*
X119684460Y-78785970D01*
X119735870Y-78506670D01*
X119773890Y-78214510D01*
X119784190Y-78106880D01*
X119793460Y-77977000D01*
X119799820Y-77836700D01*
X119803410Y-77688500D01*
X119804340Y-77534950D01*
X119802730Y-77378580D01*
X119798710Y-77221930D01*
X119792410Y-77067520D01*
X119783940Y-76917890D01*
X119773430Y-76775580D01*
X119761000Y-76643120D01*
X119746780Y-76523060D01*
X119730890Y-76417910D01*
X119713460Y-76330220D01*
X119694590Y-76262520D01*
X119694480Y-76262200D01*
X119682510Y-76226810D01*
X119674200Y-76201040D01*
X119671520Y-76191230D01*
X119681220Y-76185770D01*
X119708580Y-76171690D01*
X119750980Y-76150290D01*
X119805780Y-76122850D01*
X119870360Y-76090670D01*
X119942110Y-76055050D01*
X120018390Y-76017290D01*
X120096580Y-75978670D01*
X120174060Y-75940500D01*
X120248190Y-75904070D01*
X120316370Y-75870680D01*
X120375950Y-75841620D01*
X120424320Y-75818180D01*
X120458860Y-75801680D01*
X120476930Y-75793380D01*
X120478940Y-75792660D01*
X120483560Y-75802540D01*
G37*
%TD.AperFunction*%
D12*
X90640010Y-73074190D02*
G75*
G02*
X89640010Y-73074190I-500000J0D01*
G01*
X89640010Y-73074190D02*
G75*
G02*
X90640010Y-73074190I500000J0D01*
G01*
D10*
%TA.AperFunction,NonConductor*%
G36*
X109578110Y-84372280D02*
G01*
X109563060Y-84362250D01*
X109555910Y-84358510D01*
X109531530Y-84344420D01*
X109498310Y-84324620D01*
X109497440Y-84324100D01*
X109293630Y-84188500D01*
X109104990Y-84037040D01*
X108932310Y-83870790D01*
X108776390Y-83690790D01*
X108638020Y-83498110D01*
X108518000Y-83293810D01*
X108417100Y-83078940D01*
X108336140Y-82854570D01*
X108298840Y-82721390D01*
X108269700Y-82596290D01*
X108248320Y-82481230D01*
X108233810Y-82368730D01*
X108225270Y-82251280D01*
X108221800Y-82121380D01*
X108221610Y-82077930D01*
X108230350Y-81846060D01*
X108257120Y-81625270D01*
X108302720Y-81412000D01*
X108367970Y-81202710D01*
X108453690Y-80993850D01*
X108485610Y-80926460D01*
X108593690Y-80729540D01*
X108721200Y-80540020D01*
X108865800Y-80360400D01*
X109025170Y-80193190D01*
X109196950Y-80040900D01*
X109378820Y-79906030D01*
X109515420Y-79820700D01*
X109552870Y-79799110D01*
X109578110Y-79782280D01*
X109578110Y-84372280D01*
G37*
%TD.AperFunction*%
%TA.AperFunction,NonConductor*%
G36*
X78770190Y-80187070D02*
G01*
X79024680Y-80195070D01*
X79272180Y-80210510D01*
X79514000Y-80233570D01*
X79751460Y-80264410D01*
X79985860Y-80303200D01*
X80218540Y-80350130D01*
X80450800Y-80405350D01*
X80452940Y-80405890D01*
X80500770Y-80418450D01*
X80551600Y-80432370D01*
X80604380Y-80447310D01*
X80658070Y-80462940D01*
X80711620Y-80478930D01*
X80763960Y-80494940D01*
X80814060Y-80510650D01*
X80860850Y-80525710D01*
X80903290Y-80539790D01*
X80940320Y-80552560D01*
X80970900Y-80563690D01*
X80993980Y-80572840D01*
X81008490Y-80579680D01*
X81013400Y-80583800D01*
X81011800Y-80594590D01*
X81007360Y-80613920D01*
X81000650Y-80639820D01*
X80992200Y-80670320D01*
X80982580Y-80703460D01*
X80972330Y-80737260D01*
X80962010Y-80769750D01*
X80957190Y-80784320D01*
X80902690Y-80929190D01*
X80838240Y-81069680D01*
X80764220Y-81205240D01*
X80681030Y-81335370D01*
X80589050Y-81459540D01*
X80488680Y-81577230D01*
X80380290Y-81687920D01*
X80264290Y-81791090D01*
X80141050Y-81886220D01*
X80128290Y-81895310D01*
X79997540Y-81981080D01*
X79861970Y-82057100D01*
X79722080Y-82123200D01*
X79578400Y-82179250D01*
X79431440Y-82225100D01*
X79281710Y-82260600D01*
X79129720Y-82285610D01*
X78976000Y-82299970D01*
X78821050Y-82303540D01*
X78714950Y-82299710D01*
X78678880Y-82297100D01*
X78637830Y-82293450D01*
X78597740Y-82289310D01*
X78574150Y-82286510D01*
X78547670Y-82282790D01*
X78516440Y-82277840D01*
X78482240Y-82272010D01*
X78446810Y-82265620D01*
X78411910Y-82259030D01*
X78379290Y-82252570D01*
X78350730Y-82246570D01*
X78327960Y-82241390D01*
X78312750Y-82237350D01*
X78306980Y-82234970D01*
X78307110Y-82228670D01*
X78309520Y-82213250D01*
X78313910Y-82190330D01*
X78319950Y-82161530D01*
X78327330Y-82128460D01*
X78330420Y-82115080D01*
X78389040Y-81842600D01*
X78439050Y-81563870D01*
X78480330Y-81279700D01*
X78512770Y-80990900D01*
X78536240Y-80698280D01*
X78536740Y-80690480D01*
X78539620Y-80642630D01*
X78542500Y-80590040D01*
X78545290Y-80534550D01*
X78547930Y-80478010D01*
X78550330Y-80422260D01*
X78552420Y-80369160D01*
X78554120Y-80320540D01*
X78555350Y-80278270D01*
X78556040Y-80244180D01*
X78556150Y-80229910D01*
X78556220Y-80183480D01*
X78770190Y-80187070D01*
G37*
%TD.AperFunction*%
%TA.AperFunction,NonConductor*%
G36*
X68845660Y-87371340D02*
G01*
X68861080Y-87373750D01*
X68884000Y-87378140D01*
X68912800Y-87384180D01*
X68945870Y-87391560D01*
X68959250Y-87394650D01*
X69231730Y-87453270D01*
X69510460Y-87503280D01*
X69794630Y-87544560D01*
X70083430Y-87577000D01*
X70376050Y-87600470D01*
X70383850Y-87600970D01*
X70431700Y-87603850D01*
X70484290Y-87606730D01*
X70539780Y-87609520D01*
X70596320Y-87612160D01*
X70652070Y-87614560D01*
X70705170Y-87616650D01*
X70753790Y-87618350D01*
X70796060Y-87619580D01*
X70830150Y-87620270D01*
X70844420Y-87620380D01*
X70890850Y-87620450D01*
X70887260Y-87834420D01*
X70879260Y-88088910D01*
X70863820Y-88336410D01*
X70840760Y-88578230D01*
X70809920Y-88815690D01*
X70771130Y-89050090D01*
X70724200Y-89282770D01*
X70668980Y-89515030D01*
X70668440Y-89517170D01*
X70655880Y-89565000D01*
X70641960Y-89615830D01*
X70627020Y-89668610D01*
X70611390Y-89722300D01*
X70595400Y-89775850D01*
X70579390Y-89828190D01*
X70563680Y-89878290D01*
X70548620Y-89925080D01*
X70534540Y-89967520D01*
X70521770Y-90004550D01*
X70510640Y-90035130D01*
X70501490Y-90058210D01*
X70494650Y-90072720D01*
X70490530Y-90077630D01*
X70479740Y-90076030D01*
X70460410Y-90071590D01*
X70434510Y-90064880D01*
X70404010Y-90056430D01*
X70370870Y-90046810D01*
X70337070Y-90036560D01*
X70304580Y-90026240D01*
X70290010Y-90021420D01*
X70145140Y-89966920D01*
X70004650Y-89902470D01*
X69869090Y-89828450D01*
X69738960Y-89745260D01*
X69614790Y-89653280D01*
X69497100Y-89552910D01*
X69386410Y-89444520D01*
X69283240Y-89328520D01*
X69188110Y-89205280D01*
X69179020Y-89192520D01*
X69093250Y-89061770D01*
X69017230Y-88926200D01*
X68951130Y-88786310D01*
X68895080Y-88642630D01*
X68849230Y-88495670D01*
X68813730Y-88345940D01*
X68788720Y-88193950D01*
X68774360Y-88040230D01*
X68770790Y-87885280D01*
X68774620Y-87779180D01*
X68777230Y-87743110D01*
X68780880Y-87702060D01*
X68785020Y-87661970D01*
X68787820Y-87638380D01*
X68791540Y-87611900D01*
X68796490Y-87580670D01*
X68802320Y-87546470D01*
X68808710Y-87511040D01*
X68815300Y-87476140D01*
X68821760Y-87443520D01*
X68827760Y-87414960D01*
X68832940Y-87392190D01*
X68836980Y-87376980D01*
X68839360Y-87371210D01*
X68845660Y-87371340D01*
G37*
%TD.AperFunction*%
%TA.AperFunction,NonConductor*%
G36*
X121496620Y-74372520D02*
G01*
X121526010Y-74387570D01*
X121570800Y-74410930D01*
X121628770Y-74441400D01*
X121697670Y-74477810D01*
X121775280Y-74518940D01*
X121859350Y-74563620D01*
X121947650Y-74610660D01*
X122037940Y-74658850D01*
X122127990Y-74707010D01*
X122215550Y-74753950D01*
X122298390Y-74798480D01*
X122374270Y-74839400D01*
X122440960Y-74875530D01*
X122490380Y-74902470D01*
X122571690Y-74946980D01*
X122506010Y-75047020D01*
X122401460Y-75223000D01*
X122305970Y-75418130D01*
X122220120Y-75630620D01*
X122144490Y-75858700D01*
X122079670Y-76100580D01*
X122026250Y-76354480D01*
X121984800Y-76618620D01*
X121981400Y-76645040D01*
X121969130Y-76746050D01*
X121959190Y-76837940D01*
X121951350Y-76924910D01*
X121945400Y-77011160D01*
X121941110Y-77100910D01*
X121938270Y-77198350D01*
X121936650Y-77307690D01*
X121936030Y-77433150D01*
X121936040Y-77508570D01*
X121938030Y-77705800D01*
X121943380Y-77893470D01*
X121951910Y-78069960D01*
X121963470Y-78233640D01*
X121977910Y-78382880D01*
X121995070Y-78516040D01*
X122014790Y-78631500D01*
X122036930Y-78727640D01*
X122059650Y-78798560D01*
X122059190Y-78804850D01*
X122052350Y-78813160D01*
X122037430Y-78824450D01*
X122012690Y-78839660D01*
X121976430Y-78859740D01*
X121926930Y-78885620D01*
X121862470Y-78918270D01*
X121781340Y-78958620D01*
X121681810Y-79007610D01*
X121664960Y-79015870D01*
X121576720Y-79059100D01*
X121494980Y-79099060D01*
X121421920Y-79134680D01*
X121359710Y-79164920D01*
X121310550Y-79188710D01*
X121276610Y-79204990D01*
X121260070Y-79212700D01*
X121258810Y-79213190D01*
X121253700Y-79203300D01*
X121243110Y-79176740D01*
X121228870Y-79138230D01*
X121220400Y-79114410D01*
X121209210Y-79081190D01*
X121200330Y-79050400D01*
X121193210Y-79018250D01*
X121187320Y-78980980D01*
X121182130Y-78934800D01*
X121177110Y-78875950D01*
X121171710Y-78800650D01*
X121167980Y-78744700D01*
X121158400Y-78596550D01*
X121150350Y-78466540D01*
X121143670Y-78350280D01*
X121138180Y-78243400D01*
X121133700Y-78141520D01*
X121130060Y-78040270D01*
X121127090Y-77935250D01*
X121124610Y-77822110D01*
X121122450Y-77696450D01*
X121120440Y-77553900D01*
X121120360Y-77548080D01*
X121119520Y-77111930D01*
X121128670Y-76695880D01*
X121147800Y-76299950D01*
X121176910Y-75924180D01*
X121216010Y-75568580D01*
X121265080Y-75233180D01*
X121312990Y-74972160D01*
X121335450Y-74865150D01*
X121358550Y-74762970D01*
X121381660Y-74667810D01*
X121404170Y-74581860D01*
X121425450Y-74507320D01*
X121444870Y-74446400D01*
X121461810Y-74401280D01*
X121475650Y-74374170D01*
X121484890Y-74366970D01*
X121496620Y-74372520D01*
G37*
%TD.AperFunction*%
%TA.AperFunction,NonConductor*%
G36*
X71530360Y-70062530D02*
G01*
X71549690Y-70066970D01*
X71575590Y-70073680D01*
X71606090Y-70082130D01*
X71639230Y-70091750D01*
X71673030Y-70102000D01*
X71705520Y-70112320D01*
X71720090Y-70117140D01*
X71864960Y-70171640D01*
X72005450Y-70236090D01*
X72141010Y-70310110D01*
X72271140Y-70393300D01*
X72395310Y-70485280D01*
X72513000Y-70585650D01*
X72623690Y-70694040D01*
X72726860Y-70810040D01*
X72821990Y-70933280D01*
X72831080Y-70946040D01*
X72916850Y-71076790D01*
X72992870Y-71212360D01*
X73058970Y-71352250D01*
X73115020Y-71495930D01*
X73160870Y-71642890D01*
X73196370Y-71792620D01*
X73221380Y-71944610D01*
X73235740Y-72098330D01*
X73239310Y-72253280D01*
X73235480Y-72359380D01*
X73232870Y-72395450D01*
X73229220Y-72436500D01*
X73225080Y-72476590D01*
X73222280Y-72500180D01*
X73218560Y-72526660D01*
X73213610Y-72557890D01*
X73207780Y-72592090D01*
X73201390Y-72627520D01*
X73194800Y-72662420D01*
X73188340Y-72695040D01*
X73182340Y-72723600D01*
X73177160Y-72746370D01*
X73173120Y-72761580D01*
X73170740Y-72767350D01*
X73164440Y-72767220D01*
X73149020Y-72764810D01*
X73126100Y-72760420D01*
X73097300Y-72754380D01*
X73064230Y-72747000D01*
X73050850Y-72743910D01*
X72778370Y-72685290D01*
X72499640Y-72635280D01*
X72215470Y-72594000D01*
X71926670Y-72561560D01*
X71634050Y-72538090D01*
X71626250Y-72537590D01*
X71578400Y-72534710D01*
X71525810Y-72531830D01*
X71470320Y-72529040D01*
X71413780Y-72526400D01*
X71358030Y-72524000D01*
X71304930Y-72521910D01*
X71256310Y-72520210D01*
X71214040Y-72518980D01*
X71179950Y-72518290D01*
X71165680Y-72518180D01*
X71119250Y-72518110D01*
X71122840Y-72304140D01*
X71130840Y-72049650D01*
X71146280Y-71802150D01*
X71169340Y-71560330D01*
X71200180Y-71322870D01*
X71238970Y-71088470D01*
X71285900Y-70855790D01*
X71341120Y-70623530D01*
X71341660Y-70621390D01*
X71354220Y-70573560D01*
X71368140Y-70522730D01*
X71383080Y-70469950D01*
X71398710Y-70416260D01*
X71414700Y-70362710D01*
X71430710Y-70310370D01*
X71446420Y-70260270D01*
X71461480Y-70213480D01*
X71475560Y-70171040D01*
X71488330Y-70134010D01*
X71499460Y-70103430D01*
X71508610Y-70080350D01*
X71515450Y-70065840D01*
X71519570Y-70060930D01*
X71530360Y-70062530D01*
G37*
%TD.AperFunction*%
D12*
X97140010Y-68574190D02*
G75*
G02*
X96140010Y-68574190I-500000J0D01*
G01*
X96140010Y-68574190D02*
G75*
G02*
X97140010Y-68574190I500000J0D01*
G01*
D11*
X73542000Y-84347710D02*
G75*
G02*
X73142000Y-84347710I-200000J0D01*
G01*
X73142000Y-84347710D02*
G75*
G02*
X73542000Y-84347710I200000J0D01*
G01*
D10*
%TA.AperFunction,NonConductor*%
G36*
X89469250Y-99649000D02*
G01*
X89469250Y-100497230D01*
X89252010Y-100714610D01*
X89034770Y-100931980D01*
X88046430Y-100931980D01*
X87835100Y-100720630D01*
X87623780Y-100509280D01*
X87623780Y-99102390D01*
X85794190Y-99102390D01*
X85794190Y-100509340D01*
X85582840Y-100720660D01*
X85371490Y-100931980D01*
X83964590Y-100931980D01*
X83964590Y-102761570D01*
X85794190Y-102761570D01*
X85794190Y-101354620D01*
X86005540Y-101143300D01*
X86216890Y-100931980D01*
X87201140Y-100931980D01*
X87414440Y-101145310D01*
X87627750Y-101358650D01*
X87627750Y-102060110D01*
X87627750Y-102761570D01*
X89457340Y-102761570D01*
X89457340Y-101354620D01*
X89674650Y-101137350D01*
X89891950Y-100920070D01*
X91298840Y-100920070D01*
X91298840Y-98800760D01*
X91600470Y-98800760D01*
X91600470Y-103067170D01*
X87632380Y-103067170D01*
X87455060Y-103067170D01*
X87279670Y-103067160D01*
X87106380Y-103067140D01*
X86935350Y-103067130D01*
X86766750Y-103067100D01*
X86600750Y-103067080D01*
X86437520Y-103067040D01*
X86277220Y-103067010D01*
X86120030Y-103066970D01*
X85966110Y-103066920D01*
X85815630Y-103066870D01*
X85668760Y-103066820D01*
X85525670Y-103066760D01*
X85386530Y-103066700D01*
X85251490Y-103066640D01*
X85120740Y-103066570D01*
X84994440Y-103066500D01*
X84872760Y-103066420D01*
X84755860Y-103066340D01*
X84643920Y-103066260D01*
X84537100Y-103066170D01*
X84435570Y-103066090D01*
X84339500Y-103066000D01*
X84249050Y-103065900D01*
X84164410Y-103065810D01*
X84085720Y-103065710D01*
X84013170Y-103065610D01*
X83946920Y-103065500D01*
X83887130Y-103065400D01*
X83833980Y-103065290D01*
X83787640Y-103065180D01*
X83748270Y-103065070D01*
X83716040Y-103064960D01*
X83691120Y-103064840D01*
X83673670Y-103064730D01*
X83663870Y-103064610D01*
X83661640Y-103064520D01*
X83661480Y-103060430D01*
X83661330Y-103048630D01*
X83661170Y-103029350D01*
X83661020Y-103002820D01*
X83660870Y-102969280D01*
X83660720Y-102928940D01*
X83660580Y-102882050D01*
X83660440Y-102828830D01*
X83660310Y-102769500D01*
X83660180Y-102704310D01*
X83660060Y-102633480D01*
X83659940Y-102557230D01*
X83659830Y-102475800D01*
X83659720Y-102389430D01*
X83659620Y-102298330D01*
X83659520Y-102202740D01*
X83659440Y-102102890D01*
X83659360Y-101999000D01*
X83659280Y-101891310D01*
X83659220Y-101780050D01*
X83659160Y-101665450D01*
X83659110Y-101547730D01*
X83659070Y-101427130D01*
X83659040Y-101303870D01*
X83659020Y-101178190D01*
X83659000Y-101050310D01*
X83659000Y-100931320D01*
X83659000Y-98800760D01*
X89469250Y-98800760D01*
X89469250Y-99649000D01*
G37*
%TD.AperFunction*%
D11*
X73542000Y-76260570D02*
G75*
G02*
X73142000Y-76260570I-200000J0D01*
G01*
X73142000Y-76260570D02*
G75*
G02*
X73542000Y-76260570I200000J0D01*
G01*
X75384000Y-70869140D02*
G75*
G02*
X74984000Y-70869140I-200000J0D01*
G01*
X74984000Y-70869140D02*
G75*
G02*
X75384000Y-70869140I200000J0D01*
G01*
D10*
%TA.AperFunction,NonConductor*%
G36*
X73168570Y-87371590D02*
G01*
X73172740Y-87385800D01*
X73178080Y-87407300D01*
X73184190Y-87434300D01*
X73190660Y-87465020D01*
X73197080Y-87497670D01*
X73202370Y-87526580D01*
X73213210Y-87592860D01*
X73221440Y-87654640D01*
X73227410Y-87715710D01*
X73231500Y-87779850D01*
X73234070Y-87850840D01*
X73234250Y-87858100D01*
X73233690Y-87999770D01*
X73224940Y-88136090D01*
X73207680Y-88269420D01*
X73181630Y-88402120D01*
X73150010Y-88524390D01*
X73102110Y-88671540D01*
X73044370Y-88814140D01*
X72977180Y-88951760D01*
X72900950Y-89083980D01*
X72816070Y-89210390D01*
X72722930Y-89330570D01*
X72621940Y-89444110D01*
X72513490Y-89550580D01*
X72397970Y-89649570D01*
X72275790Y-89740660D01*
X72147350Y-89823420D01*
X72013030Y-89897460D01*
X71873230Y-89962340D01*
X71732480Y-90016230D01*
X71698710Y-90027490D01*
X71663440Y-90038610D01*
X71628380Y-90049110D01*
X71595260Y-90058520D01*
X71565770Y-90066370D01*
X71541650Y-90072190D01*
X71524600Y-90075500D01*
X71516350Y-90075840D01*
X71512620Y-90069930D01*
X71506090Y-90054700D01*
X71497180Y-90031430D01*
X71486300Y-90001350D01*
X71473890Y-89965730D01*
X71460350Y-89925820D01*
X71446110Y-89882870D01*
X71431600Y-89838140D01*
X71417220Y-89792880D01*
X71403400Y-89748350D01*
X71390560Y-89705810D01*
X71379120Y-89666500D01*
X71377920Y-89662290D01*
X71315510Y-89423580D01*
X71261390Y-89178560D01*
X71215750Y-88928460D01*
X71178780Y-88674470D01*
X71150670Y-88417810D01*
X71131610Y-88159670D01*
X71126810Y-88062190D01*
X71124810Y-88010600D01*
X71123050Y-87956370D01*
X71121580Y-87901280D01*
X71120400Y-87847160D01*
X71119570Y-87795790D01*
X71119110Y-87748970D01*
X71119040Y-87708500D01*
X71119410Y-87676190D01*
X71119850Y-87661480D01*
X71121450Y-87622450D01*
X71313110Y-87615750D01*
X71528800Y-87606230D01*
X71736390Y-87592940D01*
X71938220Y-87575630D01*
X72136660Y-87554090D01*
X72334050Y-87528080D01*
X72532740Y-87497370D01*
X72542850Y-87495690D01*
X72625190Y-87481450D01*
X72710840Y-87465690D01*
X72797460Y-87448880D01*
X72882670Y-87431520D01*
X72964130Y-87414070D01*
X73039490Y-87397020D01*
X73106370Y-87380850D01*
X73109830Y-87379970D01*
X73132650Y-87374270D01*
X73151180Y-87369750D01*
X73163020Y-87367010D01*
X73165970Y-87366450D01*
X73168570Y-87371590D01*
G37*
%TD.AperFunction*%
D11*
X73542000Y-81652000D02*
G75*
G02*
X73142000Y-81652000I-200000J0D01*
G01*
X73142000Y-81652000D02*
G75*
G02*
X73542000Y-81652000I200000J0D01*
G01*
D12*
X90640010Y-68574190D02*
G75*
G02*
X89640010Y-68574190I-500000J0D01*
G01*
X89640010Y-68574190D02*
G75*
G02*
X90640010Y-68574190I500000J0D01*
G01*
D11*
X75384000Y-73564860D02*
G75*
G02*
X74984000Y-73564860I-200000J0D01*
G01*
X74984000Y-73564860D02*
G75*
G02*
X75384000Y-73564860I200000J0D01*
G01*
D10*
%TA.AperFunction,NonConductor*%
G36*
X107431740Y-78956680D02*
G01*
X107515540Y-79006620D01*
X107573840Y-79084830D01*
X107597780Y-79179390D01*
X107583710Y-79275910D01*
X107533770Y-79359710D01*
X107455560Y-79418010D01*
X104869900Y-80648860D01*
X104937280Y-80752990D01*
X105045350Y-80957740D01*
X105135000Y-81171060D01*
X105205720Y-81391450D01*
X105257020Y-81617400D01*
X105288370Y-81847420D01*
X105299280Y-82080020D01*
X105289220Y-82313690D01*
X105257710Y-82546940D01*
X105226900Y-82691800D01*
X105161130Y-82916020D01*
X105074960Y-83134330D01*
X104969730Y-83344620D01*
X104846740Y-83544820D01*
X104707320Y-83732810D01*
X104552800Y-83906500D01*
X104384490Y-84063800D01*
X104336520Y-84103470D01*
X104294920Y-84135630D01*
X104245210Y-84172010D01*
X104190850Y-84210310D01*
X104135300Y-84248230D01*
X104082010Y-84283480D01*
X104034440Y-84313740D01*
X103996030Y-84336730D01*
X103970260Y-84350140D01*
X103958110Y-84352280D01*
X103908110Y-84352280D01*
X103908110Y-79802280D01*
X103961880Y-79803210D01*
X103978880Y-79809570D01*
X104010610Y-79827140D01*
X104053680Y-79853650D01*
X104104710Y-79886850D01*
X104160300Y-79924470D01*
X104217060Y-79964260D01*
X104271610Y-80003940D01*
X104320550Y-80041260D01*
X104331000Y-80049550D01*
X104507650Y-80205070D01*
X104548290Y-80248190D01*
X107240660Y-78966550D01*
X107335220Y-78942610D01*
X107431740Y-78956680D01*
G37*
%TD.AperFunction*%
%TA.AperFunction,NonConductor*%
G36*
X78935540Y-77840640D02*
G01*
X79071860Y-77849390D01*
X79205190Y-77866650D01*
X79337890Y-77892700D01*
X79460160Y-77924320D01*
X79607310Y-77972220D01*
X79749910Y-78029960D01*
X79887530Y-78097150D01*
X80019750Y-78173380D01*
X80146160Y-78258260D01*
X80266340Y-78351400D01*
X80379880Y-78452390D01*
X80486350Y-78560840D01*
X80585340Y-78676360D01*
X80676430Y-78798540D01*
X80759190Y-78926980D01*
X80833230Y-79061300D01*
X80898110Y-79201100D01*
X80952000Y-79341850D01*
X80963260Y-79375620D01*
X80974380Y-79410890D01*
X80984880Y-79445950D01*
X80994290Y-79479070D01*
X81002140Y-79508560D01*
X81007960Y-79532680D01*
X81011270Y-79549730D01*
X81011610Y-79557980D01*
X81005700Y-79561710D01*
X80990470Y-79568240D01*
X80967200Y-79577150D01*
X80937120Y-79588030D01*
X80901500Y-79600440D01*
X80861590Y-79613980D01*
X80818640Y-79628220D01*
X80773910Y-79642730D01*
X80728650Y-79657110D01*
X80684120Y-79670930D01*
X80641580Y-79683770D01*
X80602270Y-79695210D01*
X80598060Y-79696410D01*
X80359350Y-79758820D01*
X80114330Y-79812940D01*
X79864230Y-79858580D01*
X79610240Y-79895550D01*
X79353580Y-79923660D01*
X79095440Y-79942720D01*
X78997960Y-79947520D01*
X78946370Y-79949520D01*
X78892140Y-79951280D01*
X78837050Y-79952750D01*
X78782930Y-79953930D01*
X78731560Y-79954760D01*
X78684740Y-79955220D01*
X78644270Y-79955290D01*
X78611960Y-79954920D01*
X78597250Y-79954480D01*
X78558220Y-79952880D01*
X78551520Y-79761220D01*
X78542000Y-79545530D01*
X78528710Y-79337940D01*
X78511400Y-79136110D01*
X78489860Y-78937670D01*
X78463850Y-78740280D01*
X78433140Y-78541590D01*
X78431460Y-78531480D01*
X78417220Y-78449140D01*
X78401460Y-78363490D01*
X78384650Y-78276870D01*
X78367290Y-78191660D01*
X78349840Y-78110200D01*
X78332790Y-78034840D01*
X78316620Y-77967960D01*
X78315740Y-77964500D01*
X78310040Y-77941680D01*
X78305520Y-77923150D01*
X78302780Y-77911310D01*
X78302220Y-77908360D01*
X78307360Y-77905760D01*
X78321570Y-77901590D01*
X78343070Y-77896250D01*
X78370070Y-77890140D01*
X78400790Y-77883670D01*
X78433440Y-77877250D01*
X78462350Y-77871960D01*
X78528630Y-77861120D01*
X78590410Y-77852890D01*
X78651480Y-77846920D01*
X78715620Y-77842830D01*
X78786610Y-77840260D01*
X78793870Y-77840080D01*
X78935540Y-77840640D01*
G37*
%TD.AperFunction*%
%TA.AperFunction,NonConductor*%
G36*
X63295150Y-77838850D02*
G01*
X63331220Y-77841460D01*
X63372270Y-77845110D01*
X63412360Y-77849250D01*
X63435950Y-77852050D01*
X63462430Y-77855770D01*
X63493660Y-77860720D01*
X63527860Y-77866550D01*
X63563290Y-77872940D01*
X63598190Y-77879530D01*
X63630810Y-77885990D01*
X63659370Y-77891990D01*
X63682140Y-77897170D01*
X63697350Y-77901210D01*
X63703120Y-77903590D01*
X63702990Y-77909890D01*
X63700580Y-77925310D01*
X63696190Y-77948230D01*
X63690150Y-77977030D01*
X63682770Y-78010100D01*
X63679680Y-78023480D01*
X63621060Y-78295960D01*
X63571050Y-78574690D01*
X63529770Y-78858860D01*
X63497330Y-79147660D01*
X63473860Y-79440280D01*
X63473360Y-79448080D01*
X63470480Y-79495930D01*
X63467600Y-79548520D01*
X63464810Y-79604010D01*
X63462170Y-79660550D01*
X63459770Y-79716300D01*
X63457680Y-79769400D01*
X63455980Y-79818020D01*
X63454750Y-79860290D01*
X63454060Y-79894380D01*
X63453950Y-79908650D01*
X63453880Y-79955080D01*
X63239910Y-79951490D01*
X62985420Y-79943490D01*
X62737920Y-79928050D01*
X62496100Y-79904990D01*
X62258640Y-79874150D01*
X62024240Y-79835360D01*
X61791560Y-79788430D01*
X61559300Y-79733210D01*
X61557160Y-79732670D01*
X61509330Y-79720110D01*
X61458500Y-79706190D01*
X61405720Y-79691250D01*
X61352030Y-79675620D01*
X61298480Y-79659630D01*
X61246140Y-79643620D01*
X61196040Y-79627910D01*
X61149250Y-79612850D01*
X61106810Y-79598770D01*
X61069780Y-79586000D01*
X61039200Y-79574870D01*
X61016120Y-79565720D01*
X61001610Y-79558880D01*
X60996700Y-79554760D01*
X60998300Y-79543970D01*
X61002740Y-79524640D01*
X61009450Y-79498740D01*
X61017900Y-79468240D01*
X61027520Y-79435100D01*
X61037770Y-79401300D01*
X61048090Y-79368810D01*
X61052910Y-79354240D01*
X61107410Y-79209370D01*
X61171860Y-79068880D01*
X61245880Y-78933320D01*
X61329070Y-78803190D01*
X61421050Y-78679020D01*
X61521420Y-78561330D01*
X61629810Y-78450640D01*
X61745810Y-78347470D01*
X61869050Y-78252340D01*
X61881810Y-78243250D01*
X62012560Y-78157480D01*
X62148130Y-78081460D01*
X62288020Y-78015360D01*
X62431700Y-77959310D01*
X62578660Y-77913460D01*
X62728390Y-77877960D01*
X62880380Y-77852950D01*
X63034100Y-77838590D01*
X63189050Y-77835020D01*
X63295150Y-77838850D01*
G37*
%TD.AperFunction*%
%TA.AperFunction,NonConductor*%
G36*
X70497480Y-70068630D02*
G01*
X70504010Y-70083860D01*
X70512920Y-70107130D01*
X70523800Y-70137210D01*
X70536210Y-70172830D01*
X70549750Y-70212740D01*
X70563990Y-70255690D01*
X70578500Y-70300420D01*
X70592880Y-70345680D01*
X70606700Y-70390210D01*
X70619540Y-70432750D01*
X70630980Y-70472060D01*
X70632180Y-70476270D01*
X70694590Y-70714980D01*
X70748710Y-70960000D01*
X70794350Y-71210100D01*
X70831320Y-71464090D01*
X70859430Y-71720750D01*
X70878490Y-71978890D01*
X70883290Y-72076370D01*
X70885290Y-72127960D01*
X70887050Y-72182190D01*
X70888520Y-72237280D01*
X70889700Y-72291400D01*
X70890530Y-72342770D01*
X70890990Y-72389590D01*
X70891060Y-72430060D01*
X70890690Y-72462370D01*
X70890250Y-72477080D01*
X70888650Y-72516110D01*
X70696990Y-72522810D01*
X70481300Y-72532330D01*
X70273710Y-72545620D01*
X70071880Y-72562930D01*
X69873440Y-72584470D01*
X69676050Y-72610480D01*
X69477360Y-72641190D01*
X69467250Y-72642870D01*
X69384910Y-72657110D01*
X69299260Y-72672870D01*
X69212640Y-72689680D01*
X69127430Y-72707040D01*
X69045970Y-72724490D01*
X68970610Y-72741540D01*
X68903730Y-72757710D01*
X68900270Y-72758590D01*
X68877450Y-72764290D01*
X68858920Y-72768810D01*
X68847080Y-72771550D01*
X68844130Y-72772110D01*
X68841530Y-72766970D01*
X68837360Y-72752760D01*
X68832020Y-72731260D01*
X68825910Y-72704260D01*
X68819440Y-72673540D01*
X68813020Y-72640890D01*
X68807730Y-72611980D01*
X68796890Y-72545700D01*
X68788660Y-72483920D01*
X68782690Y-72422850D01*
X68778600Y-72358710D01*
X68776030Y-72287720D01*
X68775850Y-72280460D01*
X68776410Y-72138790D01*
X68785160Y-72002470D01*
X68802420Y-71869140D01*
X68828470Y-71736440D01*
X68860090Y-71614170D01*
X68907990Y-71467020D01*
X68965730Y-71324420D01*
X69032920Y-71186800D01*
X69109150Y-71054580D01*
X69194030Y-70928170D01*
X69287170Y-70807990D01*
X69388160Y-70694450D01*
X69496610Y-70587980D01*
X69612130Y-70488990D01*
X69734310Y-70397900D01*
X69862750Y-70315140D01*
X69997070Y-70241100D01*
X70136870Y-70176220D01*
X70277620Y-70122330D01*
X70311390Y-70111070D01*
X70346660Y-70099950D01*
X70381720Y-70089450D01*
X70414840Y-70080040D01*
X70444330Y-70072190D01*
X70468450Y-70066370D01*
X70485500Y-70063060D01*
X70493750Y-70062720D01*
X70497480Y-70068630D01*
G37*
%TD.AperFunction*%
%TA.AperFunction,NonConductor*%
G36*
X63398140Y-80183640D02*
G01*
X63412850Y-80184080D01*
X63451880Y-80185680D01*
X63458580Y-80377340D01*
X63468100Y-80593030D01*
X63481390Y-80800620D01*
X63498700Y-81002450D01*
X63520240Y-81200890D01*
X63546250Y-81398280D01*
X63576960Y-81596970D01*
X63578640Y-81607080D01*
X63592880Y-81689420D01*
X63608640Y-81775070D01*
X63625450Y-81861690D01*
X63642810Y-81946900D01*
X63660260Y-82028360D01*
X63677310Y-82103720D01*
X63693480Y-82170600D01*
X63694360Y-82174060D01*
X63700060Y-82196880D01*
X63704580Y-82215410D01*
X63707320Y-82227250D01*
X63707880Y-82230200D01*
X63702740Y-82232800D01*
X63688530Y-82236970D01*
X63667030Y-82242310D01*
X63640030Y-82248420D01*
X63609310Y-82254890D01*
X63576660Y-82261310D01*
X63547750Y-82266600D01*
X63481470Y-82277440D01*
X63419690Y-82285670D01*
X63358620Y-82291640D01*
X63294480Y-82295730D01*
X63223490Y-82298300D01*
X63216230Y-82298480D01*
X63074560Y-82297920D01*
X62938240Y-82289170D01*
X62804910Y-82271910D01*
X62672210Y-82245860D01*
X62549940Y-82214240D01*
X62402790Y-82166340D01*
X62260190Y-82108600D01*
X62122570Y-82041410D01*
X61990350Y-81965180D01*
X61863940Y-81880300D01*
X61743760Y-81787160D01*
X61630220Y-81686170D01*
X61523750Y-81577720D01*
X61424760Y-81462200D01*
X61333670Y-81340020D01*
X61250910Y-81211580D01*
X61176870Y-81077260D01*
X61111990Y-80937460D01*
X61058100Y-80796710D01*
X61046840Y-80762940D01*
X61035720Y-80727670D01*
X61025220Y-80692610D01*
X61015810Y-80659490D01*
X61007960Y-80630000D01*
X61002140Y-80605880D01*
X60998830Y-80588830D01*
X60998490Y-80580580D01*
X61004400Y-80576850D01*
X61019630Y-80570320D01*
X61042900Y-80561410D01*
X61072980Y-80550530D01*
X61108600Y-80538120D01*
X61148510Y-80524580D01*
X61191460Y-80510340D01*
X61236190Y-80495830D01*
X61281450Y-80481450D01*
X61325980Y-80467630D01*
X61368520Y-80454790D01*
X61407830Y-80443350D01*
X61412040Y-80442150D01*
X61650750Y-80379740D01*
X61895770Y-80325620D01*
X62145870Y-80279980D01*
X62399860Y-80243010D01*
X62656520Y-80214900D01*
X62914660Y-80195840D01*
X63012140Y-80191040D01*
X63063730Y-80189040D01*
X63117960Y-80187280D01*
X63173050Y-80185810D01*
X63227170Y-80184630D01*
X63278540Y-80183800D01*
X63325360Y-80183340D01*
X63365830Y-80183270D01*
X63398140Y-80183640D01*
G37*
%TD.AperFunction*%
%TA.AperFunction,NonConductor*%
G36*
X91100410Y-100721640D02*
G01*
X90456470Y-100721640D01*
X89812520Y-100721640D01*
X89535710Y-100998470D01*
X89258910Y-101275300D01*
X89258910Y-102563140D01*
X87826190Y-102563140D01*
X87826190Y-101279270D01*
X87280500Y-100733540D01*
X86137460Y-100733540D01*
X85866610Y-101004420D01*
X85595750Y-101275300D01*
X85595750Y-101919220D01*
X85595750Y-102563140D01*
X84163030Y-102563140D01*
X84163030Y-101130420D01*
X85450910Y-101130420D01*
X85721770Y-100859540D01*
X85992620Y-100588660D01*
X85992620Y-99300820D01*
X87425340Y-99300820D01*
X87425340Y-100588710D01*
X87696220Y-100859560D01*
X87967100Y-101130420D01*
X89114070Y-101130420D01*
X89390880Y-100853590D01*
X89667690Y-100576760D01*
X89667690Y-98800760D01*
X91100410Y-98800760D01*
X91100410Y-100721640D01*
G37*
%TD.AperFunction*%
D13*
%TO.N,*%
X75184000Y-73566020D03*
D14*
X84582000Y-86868000D03*
D15*
X90139520Y-68574920D03*
X90139520Y-73073260D03*
D16*
X103390700Y-70825360D03*
D13*
X73342500Y-84348320D03*
D16*
X60761880Y-93294200D03*
D13*
X73342500Y-76260960D03*
X73342500Y-78955900D03*
D16*
X81191100Y-94521020D03*
D13*
X73342500Y-81650840D03*
D15*
X96639380Y-73073260D03*
D16*
X105290620Y-94521020D03*
X125841760Y-87762080D03*
D17*
X115214400Y-85806280D03*
D13*
X75184000Y-70868540D03*
X63342520Y-87043260D03*
D18*
X82511900Y-89674700D03*
D13*
X75184000Y-68173600D03*
D16*
X87891620Y-83342480D03*
X59877960Y-69941440D03*
D18*
X112242600Y-75783440D03*
D15*
X96639380Y-68574920D03*
%TD*%
D19*
%TO.N,*%
X98050600Y-78396320D02*
X101912750Y-82258460D01*
D20*
X98210000Y-102387040D02*
X98210000Y-103920000D01*
D19*
X101912750Y-82258460D02*
X101912750Y-99321780D01*
X59970000Y-83671430D02*
X63342000Y-87043430D01*
X73342000Y-76260570D02*
X83423420Y-76260570D01*
D20*
X94733040Y-99822000D02*
X96266000Y-99822000D01*
D19*
X73342000Y-85128100D02*
X73342000Y-84347710D01*
X86008690Y-78845840D02*
X89155840Y-78845840D01*
D20*
X88560000Y-98124120D02*
X88560000Y-99815880D01*
D19*
X75184000Y-68173430D02*
X77243430Y-68173430D01*
X98236800Y-77946800D02*
X102362280Y-82072280D01*
X79303430Y-70869140D02*
X86381080Y-77946800D01*
X89155840Y-78845840D02*
X90387750Y-80077750D01*
D20*
X90850000Y-101970000D02*
X92382960Y-101970000D01*
D19*
X63620000Y-72110000D02*
X59970000Y-75760000D01*
X69905050Y-71519280D02*
X69314330Y-72110000D01*
X69314330Y-72110000D02*
X63620000Y-72110000D01*
X77243430Y-68173430D02*
X86567280Y-77497280D01*
D20*
X102102750Y-102601780D02*
X102102750Y-104134750D01*
D19*
X81363420Y-73564860D02*
X86194880Y-78396320D01*
X77494720Y-78969280D02*
X74812000Y-81652000D01*
D20*
X102240000Y-101970000D02*
X103772960Y-101970000D01*
D19*
X62455050Y-81169280D02*
X71129010Y-81169280D01*
X72105050Y-86365050D02*
X73342000Y-85128100D01*
X86567280Y-77497280D02*
X118418140Y-77497280D01*
X86194880Y-78396320D02*
X98050600Y-78396320D01*
D20*
X100076000Y-98130230D02*
X100076000Y-99822000D01*
X96240000Y-98144120D02*
X96240000Y-99835880D01*
D19*
X83423420Y-76260570D02*
X86008690Y-78845840D01*
D20*
X86700000Y-102457040D02*
X86700000Y-103990000D01*
D19*
X79555050Y-78969280D02*
X77494720Y-78969280D01*
X90387750Y-80077750D02*
X90387750Y-99321980D01*
D20*
X90577750Y-102601980D02*
X90577750Y-104293750D01*
D19*
X59970000Y-75760000D02*
X59970000Y-83671430D01*
X72105050Y-88619280D02*
X72105050Y-86365050D01*
X71129010Y-81169280D02*
X73342000Y-78956290D01*
X75184000Y-73564860D02*
X81363420Y-73564860D01*
X102362280Y-82072280D02*
X104308110Y-82072280D01*
X75184000Y-70869140D02*
X79303430Y-70869140D01*
D20*
X83058000Y-99822000D02*
X84590960Y-99822000D01*
D19*
X86381080Y-77946800D02*
X98236800Y-77946800D01*
X74812000Y-81652000D02*
X73342000Y-81652000D01*
D20*
X84750000Y-98134120D02*
X84750000Y-99825880D01*
%TD*%
M02*
